<?xml version="1.0" encoding="utf-8"?>
<svg version="1.1" xmlns:xlink="http://www.w3.org/1999/xlink" width="8px" height="15px" xmlns="http://www.w3.org/2000/svg">
  <g transform="matrix(1 0 0 1 -891 -159 )">
    <path d="M 7.8515625 9.06605113636364  C 7.95052083333333 9.20099431818182  8 9.36079545454545  8 9.54545454545454  C 8 9.73011363636364  7.95052083333333 9.88991477272727  7.8515625 10.0248579545455  L 4.3515625 14.7975852272727  C 4.25260416666667 14.9325284090909  4.13541666666667 15  4 15  C 3.86458333333333 15  3.74739583333333 14.9325284090909  3.6484375 14.7975852272727  L 0.1484375 10.0248579545455  C 0.0494791666666667 9.88991477272727  0 9.73011363636364  0 9.54545454545454  C 0 9.36079545454545  0.0494791666666667 9.20099431818182  0.1484375 9.06605113636364  C 0.247395833333333 8.93110795454545  0.364583333333333 8.86363636363636  0.5 8.86363636363636  L 7.5 8.86363636363636  C 7.63541666666667 8.86363636363636  7.75260416666667 8.93110795454545  7.8515625 9.06605113636364  Z M 7.8515625 4.97514204545454  C 7.95052083333333 5.11008522727273  8 5.26988636363636  8 5.45454545454546  C 8 5.63920454545454  7.95052083333333 5.79900568181818  7.8515625 5.93394886363636  C 7.75260416666667 6.06889204545455  7.63541666666667 6.13636363636364  7.5 6.13636363636364  L 0.5 6.13636363636364  C 0.364583333333333 6.13636363636364  0.247395833333333 6.06889204545455  0.1484375 5.93394886363636  C 0.0494791666666667 5.79900568181818  0 5.63920454545454  0 5.45454545454546  C 0 5.26988636363636  0.0494791666666667 5.11008522727273  0.1484375 4.97514204545454  L 3.6484375 0.202414772727273  C 3.74739583333333 0.0674715909090895  3.86458333333333 0  4 0  C 4.13541666666667 0  4.25260416666667 0.0674715909090895  4.3515625 0.202414772727273  L 7.8515625 4.97514204545454  Z " fill-rule="nonzero" fill="#7f7f7f" stroke="none" transform="matrix(1 0 0 1 891 159 )" />
  </g>
</svg>