<?xml version="1.0" encoding="utf-8"?>
<svg version="1.1" xmlns:xlink="http://www.w3.org/1999/xlink" width="411px" height="105px" xmlns="http://www.w3.org/2000/svg">
  <g transform="matrix(1 0 0 1 -787 -1344 )">
    <path d="M 788 1348  A 3 3 0 0 1 791 1345 L 1194 1345  A 3 3 0 0 1 1197 1348 L 1197 1445  A 3 3 0 0 1 1194 1448 L 791 1448  A 3 3 0 0 1 788 1445 L 788 1348  Z " fill-rule="nonzero" fill="#ff3399" stroke="none" fill-opacity="0.0980392156862745" />
    <path d="M 787.5 1348  A 3.5 3.5 0 0 1 791 1344.5 L 1194 1344.5  A 3.5 3.5 0 0 1 1197.5 1348 L 1197.5 1445  A 3.5 3.5 0 0 1 1194 1448.5 L 791 1448.5  A 3.5 3.5 0 0 1 787.5 1445 L 787.5 1348  Z " stroke-width="1" stroke-dasharray="9,4" stroke="#ff3399" fill="none" stroke-dashoffset="0.5" />
  </g>
</svg>