<?xml version="1.0" encoding="utf-8"?>
<svg version="1.1" xmlns:xlink="http://www.w3.org/1999/xlink" width="609px" height="327px" xmlns="http://www.w3.org/2000/svg">
  <g transform="matrix(1 0 0 1 -1420 -250 )">
    <path d="M 1421 254  A 3 3 0 0 1 1424 251 L 2025 251  A 3 3 0 0 1 2028 254 L 2028 573  A 3 3 0 0 1 2025 576 L 1424 576  A 3 3 0 0 1 1421 573 L 1421 254  Z " fill-rule="nonzero" fill="#ff3399" stroke="none" fill-opacity="0.0980392156862745" />
    <path d="M 1420.5 254  A 3.5 3.5 0 0 1 1424 250.5 L 2025 250.5  A 3.5 3.5 0 0 1 2028.5 254 L 2028.5 573  A 3.5 3.5 0 0 1 2025 576.5 L 1424 576.5  A 3.5 3.5 0 0 1 1420.5 573 L 1420.5 254  Z " stroke-width="1" stroke-dasharray="9,4" stroke="#ff3399" fill="none" stroke-dashoffset="0.5" />
  </g>
</svg>