<?xml version="1.0" encoding="utf-8"?>
<svg version="1.1" xmlns:xlink="http://www.w3.org/1999/xlink" width="386px" height="312px" xmlns="http://www.w3.org/2000/svg">
  <g transform="matrix(1 0 0 1 -812 -4454 )">
    <path d="M 813 4458  A 3 3 0 0 1 816 4455 L 1194 4455  A 3 3 0 0 1 1197 4458 L 1197 4762  A 3 3 0 0 1 1194 4765 L 816 4765  A 3 3 0 0 1 813 4762 L 813 4458  Z " fill-rule="nonzero" fill="#ff3399" stroke="none" fill-opacity="0.0980392156862745" />
    <path d="M 812.5 4458  A 3.5 3.5 0 0 1 816 4454.5 L 1194 4454.5  A 3.5 3.5 0 0 1 1197.5 4458 L 1197.5 4762  A 3.5 3.5 0 0 1 1194 4765.5 L 816 4765.5  A 3.5 3.5 0 0 1 812.5 4762 L 812.5 4458  Z " stroke-width="1" stroke-dasharray="9,4" stroke="#ff3399" fill="none" stroke-dashoffset="0.5" />
  </g>
</svg>