<?xml version="1.0" encoding="utf-8"?>
<svg version="1.1" xmlns:xlink="http://www.w3.org/1999/xlink" width="386px" height="117px" xmlns="http://www.w3.org/2000/svg">
  <g transform="matrix(1 0 0 1 -812 -4123 )">
    <path d="M 813 4127  A 3 3 0 0 1 816 4124 L 1194 4124  A 3 3 0 0 1 1197 4127 L 1197 4236  A 3 3 0 0 1 1194 4239 L 816 4239  A 3 3 0 0 1 813 4236 L 813 4127  Z " fill-rule="nonzero" fill="#ff3399" stroke="none" fill-opacity="0.0980392156862745" />
    <path d="M 812.5 4127  A 3.5 3.5 0 0 1 816 4123.5 L 1194 4123.5  A 3.5 3.5 0 0 1 1197.5 4127 L 1197.5 4236  A 3.5 3.5 0 0 1 1194 4239.5 L 816 4239.5  A 3.5 3.5 0 0 1 812.5 4236 L 812.5 4127  Z " stroke-width="1" stroke-dasharray="9,4" stroke="#ff3399" fill="none" stroke-dashoffset="0.5" />
  </g>
</svg>