<?xml version="1.0" encoding="utf-8"?>
<svg version="1.1" xmlns:xlink="http://www.w3.org/1999/xlink" width="397px" height="112px" xmlns="http://www.w3.org/2000/svg">
  <g transform="matrix(1 0 0 1 -801 -3792 )">
    <path d="M 802 3796  A 3 3 0 0 1 805 3793 L 1194 3793  A 3 3 0 0 1 1197 3796 L 1197 3900  A 3 3 0 0 1 1194 3903 L 805 3903  A 3 3 0 0 1 802 3900 L 802 3796  Z " fill-rule="nonzero" fill="#ff3399" stroke="none" fill-opacity="0.0980392156862745" />
    <path d="M 801.5 3796  A 3.5 3.5 0 0 1 805 3792.5 L 1194 3792.5  A 3.5 3.5 0 0 1 1197.5 3796 L 1197.5 3900  A 3.5 3.5 0 0 1 1194 3903.5 L 805 3903.5  A 3.5 3.5 0 0 1 801.5 3900 L 801.5 3796  Z " stroke-width="1" stroke-dasharray="9,4" stroke="#ff3399" fill="none" stroke-dashoffset="0.5" />
  </g>
</svg>