<?xml version="1.0" encoding="utf-8"?>
<svg version="1.1" xmlns:xlink="http://www.w3.org/1999/xlink" width="386px" height="186px" xmlns="http://www.w3.org/2000/svg">
  <g transform="matrix(1 0 0 1 -801 -3370 )">
    <path d="M 802 3374  A 3 3 0 0 1 805 3371 L 1183 3371  A 3 3 0 0 1 1186 3374 L 1186 3552  A 3 3 0 0 1 1183 3555 L 805 3555  A 3 3 0 0 1 802 3552 L 802 3374  Z " fill-rule="nonzero" fill="#ff3399" stroke="none" fill-opacity="0.0980392156862745" />
    <path d="M 801.5 3374  A 3.5 3.5 0 0 1 805 3370.5 L 1183 3370.5  A 3.5 3.5 0 0 1 1186.5 3374 L 1186.5 3552  A 3.5 3.5 0 0 1 1183 3555.5 L 805 3555.5  A 3.5 3.5 0 0 1 801.5 3552 L 801.5 3374  Z " stroke-width="1" stroke-dasharray="9,4" stroke="#ff3399" fill="none" stroke-dashoffset="0.5" />
  </g>
</svg>