<?xml version="1.0" encoding="utf-8"?>
<svg version="1.1" xmlns:xlink="http://www.w3.org/1999/xlink" width="411px" height="319px" xmlns="http://www.w3.org/2000/svg">
  <g transform="matrix(1 0 0 1 -787 -2835 )">
    <path d="M 788 2839  A 3 3 0 0 1 791 2836 L 1194 2836  A 3 3 0 0 1 1197 2839 L 1197 3150  A 3 3 0 0 1 1194 3153 L 791 3153  A 3 3 0 0 1 788 3150 L 788 2839  Z " fill-rule="nonzero" fill="#ff3399" stroke="none" fill-opacity="0.0980392156862745" />
    <path d="M 787.5 2839  A 3.5 3.5 0 0 1 791 2835.5 L 1194 2835.5  A 3.5 3.5 0 0 1 1197.5 2839 L 1197.5 3150  A 3.5 3.5 0 0 1 1194 3153.5 L 791 3153.5  A 3.5 3.5 0 0 1 787.5 3150 L 787.5 2839  Z " stroke-width="1" stroke-dasharray="9,4" stroke="#ff3399" fill="none" stroke-dashoffset="0.5" />
  </g>
</svg>