<?xml version="1.0" encoding="utf-8"?>
<svg version="1.1" xmlns:xlink="http://www.w3.org/1999/xlink" width="411px" height="192px" xmlns="http://www.w3.org/2000/svg">
  <g transform="matrix(1 0 0 1 -787 -1674 )">
    <path d="M 788 1678  A 3 3 0 0 1 791 1675 L 1194 1675  A 3 3 0 0 1 1197 1678 L 1197 1862  A 3 3 0 0 1 1194 1865 L 791 1865  A 3 3 0 0 1 788 1862 L 788 1678  Z " fill-rule="nonzero" fill="#ff3399" stroke="none" fill-opacity="0.0980392156862745" />
    <path d="M 787.5 1678  A 3.5 3.5 0 0 1 791 1674.5 L 1194 1674.5  A 3.5 3.5 0 0 1 1197.5 1678 L 1197.5 1862  A 3.5 3.5 0 0 1 1194 1865.5 L 791 1865.5  A 3.5 3.5 0 0 1 787.5 1862 L 787.5 1678  Z " stroke-width="1" stroke-dasharray="9,4" stroke="#ff3399" fill="none" stroke-dashoffset="0.5" />
  </g>
</svg>