<?xml version="1.0" encoding="utf-8"?>
<svg version="1.1" xmlns:xlink="http://www.w3.org/1999/xlink" width="411px" height="177px" xmlns="http://www.w3.org/2000/svg">
  <g transform="matrix(1 0 0 1 -787 -535 )">
    <path d="M 788 539  A 3 3 0 0 1 791 536 L 1194 536  A 3 3 0 0 1 1197 539 L 1197 708  A 3 3 0 0 1 1194 711 L 791 711  A 3 3 0 0 1 788 708 L 788 539  Z " fill-rule="nonzero" fill="#ff3399" stroke="none" fill-opacity="0.0980392156862745" />
    <path d="M 787.5 539  A 3.5 3.5 0 0 1 791 535.5 L 1194 535.5  A 3.5 3.5 0 0 1 1197.5 539 L 1197.5 708  A 3.5 3.5 0 0 1 1194 711.5 L 791 711.5  A 3.5 3.5 0 0 1 787.5 708 L 787.5 539  Z " stroke-width="1" stroke-dasharray="9,4" stroke="#ff3399" fill="none" stroke-dashoffset="0.5" />
  </g>
</svg>