<?xml version="1.0" encoding="utf-8"?>
<svg version="1.1" xmlns:xlink="http://www.w3.org/1999/xlink" width="18px" height="18px" preserveAspectRatio="xMinYMid meet" viewBox="1423 931  18 16" xmlns="http://www.w3.org/2000/svg">
  <path d="M 1430 939.5  L 1445.5 939.5  A 4.5 4.5 0 0 0 1450.5 935 A 4.5 4.5 0 0 1 1455 930.5 L 1497 930.5  A 5 5 0 0 1 1502.5 935.5 L 1502.5 945  " stroke-width="1" stroke="#ff3399" fill="none" />
  <path d="M 1432 936.5  A 3 3 0 0 0 1429 939.5 A 3 3 0 0 0 1432 942.5 A 3 3 0 0 0 1435 939.5 A 3 3 0 0 0 1432 936.5 Z " fill-rule="nonzero" fill="#ff3399" stroke="none" />
</svg>