<?xml version="1.0" encoding="utf-8"?>
<svg version="1.1" xmlns:xlink="http://www.w3.org/1999/xlink" width="10px" height="15px" preserveAspectRatio="xMidYMin meet" viewBox="1606 85  8 15" xmlns="http://www.w3.org/2000/svg">
  <path d="M 1587 95.5  L 1607.5 95.5  A 2.5 2.5 0 0 0 1610.5 93 A 2.5 2.5 0 0 1 1613 90.5 L 1654 90.5  A 5 5 0 0 1 1659.5 95.5 L 1659.5 101  " stroke-width="1" stroke="#ff3399" fill="none" />
  <path d="M 1589 92.5  A 3 3 0 0 0 1586 95.5 A 3 3 0 0 0 1589 98.5 A 3 3 0 0 0 1592 95.5 A 3 3 0 0 0 1589 92.5 Z " fill-rule="nonzero" fill="#ff3399" stroke="none" />
</svg>