<?xml version="1.0" encoding="utf-8"?>
<svg version="1.1" xmlns:xlink="http://www.w3.org/1999/xlink" width="300px" height="42px" xmlns="http://www.w3.org/2000/svg">
  <g transform="matrix(1 0 0 1 -588 -324 )">
    <path d="M 589 328  A 3 3 0 0 1 592 325 L 884 325  A 3 3 0 0 1 887 328 L 887 362  A 3 3 0 0 1 884 365 L 592 365  A 3 3 0 0 1 589 362 L 589 328  Z " fill-rule="nonzero" fill="#000000" stroke="none" fill-opacity="0.498039215686275" />
    <path d="M 588.5 328  A 3.5 3.5 0 0 1 592 324.5 L 884 324.5  A 3.5 3.5 0 0 1 887.5 328 L 887.5 362  A 3.5 3.5 0 0 1 884 365.5 L 592 365.5  A 3.5 3.5 0 0 1 588.5 362 L 588.5 328  Z " stroke-width="1" stroke="#f2f2f2" fill="none" stroke-opacity="0.207843137254902" />
  </g>
</svg>