<?xml version="1.0" encoding="utf-8"?>
<svg version="1.1" xmlns:xlink="http://www.w3.org/1999/xlink" width="12px" height="12px" viewBox="612 1288  12 12" xmlns="http://www.w3.org/2000/svg">
  <path d="M 618 1288  C 621.36 1288  624 1290.64  624 1294  C 624 1297.36  621.36 1300  618 1300  C 614.64 1300  612 1297.36  612 1294  C 612 1290.64  614.64 1288  618 1288  Z " fill-rule="nonzero" fill="#ffffff" stroke="none" />
  <path d="M 618 1288.5  C 621.08 1288.5  623.5 1290.92  623.5 1294  C 623.5 1297.08  621.08 1299.5  618 1299.5  C 614.92 1299.5  612.5 1297.08  612.5 1294  C 612.5 1290.92  614.92 1288.5  618 1288.5  Z " stroke-width="1" stroke="#797979" fill="none" />
  <path d="M 618 1297  C 616.32 1297  615 1295.68  615 1294  C 615 1292.32  616.32 1291  618 1291  C 619.68 1291  621 1292.32  621 1294  C 621 1295.68  619.68 1297  618 1297  " fill-rule="nonzero" fill="#797979" stroke="none" />
</svg>