<?xml version="1.0" encoding="utf-8"?>
<svg version="1.1" xmlns:xlink="http://www.w3.org/1999/xlink" width="61px" height="56px" xmlns="http://www.w3.org/2000/svg">
  <g transform="matrix(1 0 0 1 -332 -161 )">
    <path d="M 332 161  L 393 161  L 393 217  L 332 217  L 332 161  " fill-rule="nonzero" fill="#cccccc" stroke="none" />
    <path d="M 336 165  L 389 165  L 389 213  L 336 213  L 336 165  " fill-rule="nonzero" fill="#ffffff" stroke="none" />
    <path d="M 367.92 177.8  C 365.568 177.8  363.72 175.952  363.72 173.6  C 363.72 171.248  365.568 169.4  367.92 169.4  C 370.272 169.4  372.12 171.248  372.12 173.6  C 372.12 175.952  370.272 177.8  367.92 177.8  " fill-rule="nonzero" fill="#cccccc" stroke="none" />
    <path d="M 338 212  L 338 187.25  L 350.5 176  L 368 187.213114754098  L 378 182.75  L 388 187.213114754098  L 388 212  L 338 212  " fill-rule="nonzero" fill="#169bd5" stroke="none" />
  </g>
</svg>