<?xml version="1.0" encoding="utf-8"?>
<svg version="1.1" xmlns:xlink="http://www.w3.org/1999/xlink" width="12px" height="12px" viewBox="332 874  12 12" xmlns="http://www.w3.org/2000/svg">
  <path d="M 338 874  C 341.36 874  344 876.64  344 880  C 344 883.36  341.36 886  338 886  C 334.64 886  332 883.36  332 880  C 332 876.64  334.64 874  338 874  Z " fill-rule="nonzero" fill="#ffffff" stroke="none" />
  <path d="M 338 874.5  C 341.08 874.5  343.5 876.92  343.5 880  C 343.5 883.08  341.08 885.5  338 885.5  C 334.92 885.5  332.5 883.08  332.5 880  C 332.5 876.92  334.92 874.5  338 874.5  Z " stroke-width="1" stroke="#797979" fill="none" />
  <path d="M 338 883  C 336.32 883  335 881.68  335 880  C 335 878.32  336.32 877  338 877  C 339.68 877  341 878.32  341 880  C 341 881.68  339.68 883  338 883  " fill-rule="nonzero" fill="#797979" stroke="none" />
</svg>