<?xml version="1.0" encoding="utf-8"?>
<svg version="1.1" xmlns:xlink="http://www.w3.org/1999/xlink" width="12px" height="12px" viewBox="418 1135  12 12" xmlns="http://www.w3.org/2000/svg">
  <path d="M 424 1135  C 427.36 1135  430 1137.64  430 1141  C 430 1144.36  427.36 1147  424 1147  C 420.64 1147  418 1144.36  418 1141  C 418 1137.64  420.64 1135  424 1135  Z " fill-rule="nonzero" fill="#ffffff" stroke="none" />
  <path d="M 424 1135.5  C 427.08 1135.5  429.5 1137.92  429.5 1141  C 429.5 1144.08  427.08 1146.5  424 1146.5  C 420.92 1146.5  418.5 1144.08  418.5 1141  C 418.5 1137.92  420.92 1135.5  424 1135.5  Z " stroke-width="1" stroke="#797979" fill="none" />
  <path d="M 424 1144  C 422.32 1144  421 1142.68  421 1141  C 421 1139.32  422.32 1138  424 1138  C 425.68 1138  427 1139.32  427 1141  C 427 1142.68  425.68 1144  424 1144  " fill-rule="nonzero" fill="#797979" stroke="none" />
</svg>