<?xml version="1.0" encoding="utf-8"?>
<svg version="1.1" xmlns:xlink="http://www.w3.org/1999/xlink" width="174px" height="143px" xmlns="http://www.w3.org/2000/svg">
  <g transform="matrix(1 0 0 1 -332 -899 )">
    <path d="M 332 899  L 506 899  L 506 1042  L 332 1042  L 332 899  " fill-rule="nonzero" fill="#cccccc" stroke="none" />
    <path d="M 342 909  L 496 909  L 496 1032  L 342 1032  L 342 909  " fill-rule="nonzero" fill="#ffffff" stroke="none" />
    <path d="M 433.205 941.9  C 427.199 941.9  422.48 937.181  422.48 931.175  C 422.48 925.169  427.199 920.45  433.205 920.45  C 439.211 920.45  443.93 925.169  443.93 931.175  C 443.93 937.181  439.211 941.9  433.205 941.9  " fill-rule="nonzero" fill="#cccccc" stroke="none" />
    <path d="M 346 1029  L 346 965.2  L 382.75 936.2  L 434.2 971.8  L 463.6 953.6  L 493 971.8  L 493 1029  L 346 1029  " fill-rule="nonzero" fill="#169bd5" stroke="none" />
  </g>
</svg>