<?xml version="1.0" encoding="utf-8"?>
<svg version="1.1" xmlns:xlink="http://www.w3.org/1999/xlink" width="174px" height="288px" xmlns="http://www.w3.org/2000/svg">
  <g transform="matrix(1 0 0 1 -340 -1583 )">
    <path d="M 340 1583  L 514 1583  L 514 1871  L 340 1871  L 340 1583  " fill-rule="nonzero" fill="#cccccc" stroke="none" />
    <path d="M 352 1595  L 502 1595  L 502 1859  L 352 1859  L 352 1595  " fill-rule="nonzero" fill="#ffffff" stroke="none" />
    <path d="M 443.53 1652.3  C 436.222 1652.3  430.48 1646.558  430.48 1639.25  C 430.48 1631.942  436.222 1626.2  443.53 1626.2  C 450.838 1626.2  456.58 1631.942  456.58 1639.25  C 456.58 1646.558  450.838 1652.3  443.53 1652.3  " fill-rule="nonzero" fill="#cccccc" stroke="none" />
    <path d="M 357 1855  L 357 1714.75  L 392.25 1651  L 441.6 1702  L 469.8 1689.25  L 498 1702  L 498 1855  L 357 1855  " fill-rule="nonzero" fill="#169bd5" stroke="none" />
  </g>
</svg>