<?xml version="1.0" encoding="utf-8"?>
<svg version="1.1" xmlns:xlink="http://www.w3.org/1999/xlink" width="12px" height="12px" viewBox="518 1288  12 12" xmlns="http://www.w3.org/2000/svg">
  <path d="M 524 1288  C 527.36 1288  530 1290.64  530 1294  C 530 1297.36  527.36 1300  524 1300  C 520.64 1300  518 1297.36  518 1294  C 518 1290.64  520.64 1288  524 1288  Z " fill-rule="nonzero" fill="#ffffff" stroke="none" />
  <path d="M 524 1288.5  C 527.08 1288.5  529.5 1290.92  529.5 1294  C 529.5 1297.08  527.08 1299.5  524 1299.5  C 520.92 1299.5  518.5 1297.08  518.5 1294  C 518.5 1290.92  520.92 1288.5  524 1288.5  Z " stroke-width="1" stroke="#797979" fill="none" />
  <path d="M 524 1297  C 522.32 1297  521 1295.68  521 1294  C 521 1292.32  522.32 1291  524 1291  C 525.68 1291  527 1292.32  527 1294  C 527 1295.68  525.68 1297  524 1297  " fill-rule="nonzero" fill="#797979" stroke="none" />
</svg>