<?xml version="1.0" encoding="utf-8"?>
<svg version="1.1" xmlns:xlink="http://www.w3.org/1999/xlink" width="12px" height="12px" viewBox="612 721  12 12" xmlns="http://www.w3.org/2000/svg">
  <path d="M 618 721  C 621.36 721  624 723.64  624 727  C 624 730.36  621.36 733  618 733  C 614.64 733  612 730.36  612 727  C 612 723.64  614.64 721  618 721  Z " fill-rule="nonzero" fill="#ffffff" stroke="none" />
  <path d="M 618 721.5  C 621.08 721.5  623.5 723.92  623.5 727  C 623.5 730.08  621.08 732.5  618 732.5  C 614.92 732.5  612.5 730.08  612.5 727  C 612.5 723.92  614.92 721.5  618 721.5  Z " stroke-width="1" stroke="#797979" fill="none" />
  <path d="M 618 730  C 616.32 730  615 728.68  615 727  C 615 725.32  616.32 724  618 724  C 619.68 724  621 725.32  621 727  C 621 728.68  619.68 730  618 730  " fill-rule="nonzero" fill="#797979" stroke="none" />
</svg>