<?xml version="1.0" encoding="utf-8"?>
<svg version="1.1" xmlns:xlink="http://www.w3.org/1999/xlink" width="12px" height="12px" viewBox="332 1135  12 12" xmlns="http://www.w3.org/2000/svg">
  <path d="M 338 1135  C 341.36 1135  344 1137.64  344 1141  C 344 1144.36  341.36 1147  338 1147  C 334.64 1147  332 1144.36  332 1141  C 332 1137.64  334.64 1135  338 1135  Z " fill-rule="nonzero" fill="#ffffff" stroke="none" />
  <path d="M 338 1135.5  C 341.08 1135.5  343.5 1137.92  343.5 1141  C 343.5 1144.08  341.08 1146.5  338 1146.5  C 334.92 1146.5  332.5 1144.08  332.5 1141  C 332.5 1137.92  334.92 1135.5  338 1135.5  Z " stroke-width="1" stroke="#797979" fill="none" />
  <path d="M 338 1144  C 336.32 1144  335 1142.68  335 1141  C 335 1139.32  336.32 1138  338 1138  C 339.68 1138  341 1139.32  341 1141  C 341 1142.68  339.68 1144  338 1144  " fill-rule="nonzero" fill="#797979" stroke="none" />
</svg>