<?xml version="1.0" encoding="utf-8"?>
<svg version="1.1" xmlns:xlink="http://www.w3.org/1999/xlink" width="12px" height="12px" viewBox="332 1288  12 12" xmlns="http://www.w3.org/2000/svg">
  <path d="M 338 1288  C 341.36 1288  344 1290.64  344 1294  C 344 1297.36  341.36 1300  338 1300  C 334.64 1300  332 1297.36  332 1294  C 332 1290.64  334.64 1288  338 1288  Z " fill-rule="nonzero" fill="#ffffff" stroke="none" />
  <path d="M 338 1288.5  C 341.08 1288.5  343.5 1290.92  343.5 1294  C 343.5 1297.08  341.08 1299.5  338 1299.5  C 334.92 1299.5  332.5 1297.08  332.5 1294  C 332.5 1290.92  334.92 1288.5  338 1288.5  Z " stroke-width="1" stroke="#797979" fill="none" />
  <path d="M 338 1297  C 336.32 1297  335 1295.68  335 1294  C 335 1292.32  336.32 1291  338 1291  C 339.68 1291  341 1292.32  341 1294  C 341 1295.68  339.68 1297  338 1297  " fill-rule="nonzero" fill="#797979" stroke="none" />
</svg>