<?xml version="1.0" encoding="utf-8"?>
<svg version="1.1" xmlns:xlink="http://www.w3.org/1999/xlink" width="12px" height="12px" viewBox="418 874  12 12" xmlns="http://www.w3.org/2000/svg">
  <path d="M 424 874  C 427.36 874  430 876.64  430 880  C 430 883.36  427.36 886  424 886  C 420.64 886  418 883.36  418 880  C 418 876.64  420.64 874  424 874  Z " fill-rule="nonzero" fill="#ffffff" stroke="none" />
  <path d="M 424 874.5  C 427.08 874.5  429.5 876.92  429.5 880  C 429.5 883.08  427.08 885.5  424 885.5  C 420.92 885.5  418.5 883.08  418.5 880  C 418.5 876.92  420.92 874.5  424 874.5  Z " stroke-width="1" stroke="#797979" fill="none" />
  <path d="M 424 883  C 422.32 883  421 881.68  421 880  C 421 878.32  422.32 877  424 877  C 425.68 877  427 878.32  427 880  C 427 881.68  425.68 883  424 883  " fill-rule="nonzero" fill="#797979" stroke="none" />
</svg>