<?xml version="1.0" encoding="utf-8"?>
<svg version="1.1" xmlns:xlink="http://www.w3.org/1999/xlink" width="53px" height="20px" xmlns="http://www.w3.org/2000/svg">
  <g transform="matrix(1 0 0 1 -1123 -180 )">
    <path d="M 1123.5 192.074074074074  C 1123.5 192.074074074074  1123.5 184  1123.5 184  C 1123.5 182.067003375592  1125.06700337559 180.5  1127 180.5  C 1127 180.5  1172 180.5  1172 180.5  C 1173.93299662441 180.5  1175.5 182.067003375592  1175.5 184  C 1175.5 184  1175.5 192.074074074074  1175.5 192.074074074074  C 1175.5 194.007070698482  1173.93299662441 195.574074074074  1172 195.574074074074  C 1172 195.574074074074  1152.73598046464 195.574074074074  1152.73598046464 195.574074074074  C 1152.73598046464 195.574074074074  1147.61270481523 199.365940602444  1147.61270481523 199.365940602444  C 1147.61270481523 199.365940602444  1143.00263293231 195.574074074074  1143.00263293231 195.574074074074  C 1143.00263293231 195.574074074074  1127 195.574074074074  1127 195.574074074074  C 1125.06700337559 195.574074074074  1123.5 194.007070698482  1123.5 192.074074074074  Z " fill-rule="nonzero" fill="#66ccff" stroke="none" />
    <path d="M 1123 192.074074074074  C 1123 192.074074074074  1123 184  1123 184  C 1123 181.790861000677  1124.79086100068 180  1127 180  C 1127 180  1172 180  1172 180  C 1174.20913899932 180  1176 181.790861000677  1176 184  C 1176 184  1176 192.074074074074  1176 192.074074074074  C 1176 194.283213073397  1174.20913899932 196.074074074074  1172 196.074074074074  C 1172 196.074074074074  1152.90088517214 196.074074074074  1152.90088517214 196.074074074074  C 1152.90088517214 196.074074074074  1147.59647887324 200  1147.59647887324 200  C 1147.59647887324 200  1142.82342038341 196.074074074074  1142.82342038341 196.074074074074  C 1142.82342038341 196.074074074074  1127 196.074074074074  1127 196.074074074074  C 1124.79086100068 196.074074074074  1123 194.283213073397  1123 192.074074074074  Z M 1124 192.074074074074  C 1124 193.730928323566  1125.34314575051 195.074074074074  1127 195.074074074074  C 1127 195.074074074074  1143.1818454812 195.074074074074  1143.1818454812 195.074074074074  C 1143.1818454812 195.074074074074  1147.62893075721 198.731881204888  1147.62893075721 198.731881204888  C 1147.62893075721 198.731881204888  1152.57107575713 195.074074074074  1152.57107575713 195.074074074074  C 1152.57107575713 195.074074074074  1172 195.074074074074  1172 195.074074074074  C 1173.65685424949 195.074074074074  1175 193.730928323566  1175 192.074074074074  C 1175 192.074074074074  1175 184  1175 184  C 1175 182.343145750508  1173.65685424949 181  1172 181  C 1172 181  1127 181  1127 181  C 1125.34314575051 181  1124 182.343145750508  1124 184  C 1124 184  1124 192.074074074074  1124 192.074074074074  Z " fill-rule="nonzero" fill="#66ccff" stroke="none" />
  </g>
</svg>