<?xml version="1.0" encoding="utf-8"?>
<svg version="1.1" xmlns:xlink="http://www.w3.org/1999/xlink" width="13px" height="11px" xmlns="http://www.w3.org/2000/svg">
  <g transform="matrix(1 0 0 1 -508 -973 )">
    <path d="M 1 8.44642857142857  L 1 10.2142857142857  L 3.25 10.2142857142857  L 3.25 8.44642857142857  L 1 8.44642857142857  Z M 3.75 8.44642857142857  L 3.75 10.2142857142857  L 6.25 10.2142857142857  L 6.25 8.44642857142857  L 3.75 8.44642857142857  Z M 1 6.08928571428571  L 1 8.05357142857143  L 3.25 8.05357142857143  L 3.25 6.08928571428571  L 1 6.08928571428571  Z M 3.75 6.08928571428571  L 3.75 8.05357142857143  L 6.25 8.05357142857143  L 6.25 6.08928571428571  L 3.75 6.08928571428571  Z M 1 3.92857142857143  L 1 5.69642857142857  L 3.25 5.69642857142857  L 3.25 3.92857142857143  L 1 3.92857142857143  Z M 6.75 8.44642857142857  L 6.75 10.2142857142857  L 9.25 10.2142857142857  L 9.25 8.44642857142857  L 6.75 8.44642857142857  Z M 3.75 3.92857142857143  L 3.75 5.69642857142857  L 6.25 5.69642857142857  L 6.25 3.92857142857143  L 3.75 3.92857142857143  Z M 9.75 8.44642857142857  L 9.75 10.2142857142857  L 12 10.2142857142857  L 12 8.44642857142857  L 9.75 8.44642857142857  Z M 6.75 6.08928571428571  L 6.75 8.05357142857143  L 9.25 8.05357142857143  L 9.25 6.08928571428571  L 6.75 6.08928571428571  Z M 3.92578125 2.88811383928571  C 3.97526041666667 2.84923735119048  4 2.8031994047619  4 2.75  L 4 0.982142857142857  C 4 0.928943452380952  3.97526041666667 0.88290550595238  3.92578125 0.844029017857143  C 3.87630208333333 0.805152529761904  3.81770833333333 0.785714285714285  3.75 0.785714285714285  L 3.25 0.785714285714285  C 3.18229166666667 0.785714285714285  3.12369791666667 0.805152529761904  3.07421875 0.844029017857143  C 3.02473958333333 0.88290550595238  3 0.928943452380952  3 0.982142857142857  L 3 2.75  C 3 2.8031994047619  3.02473958333333 2.84923735119048  3.07421875 2.88811383928571  C 3.12369791666667 2.92699032738095  3.18229166666667 2.94642857142857  3.25 2.94642857142857  L 3.75 2.94642857142857  C 3.81770833333333 2.94642857142857  3.87630208333333 2.92699032738095  3.92578125 2.88811383928571  Z M 9.75 6.08928571428571  L 9.75 8.05357142857143  L 12 8.05357142857143  L 12 6.08928571428571  L 9.75 6.08928571428571  Z M 6.75 3.92857142857143  L 6.75 5.69642857142857  L 9.25 5.69642857142857  L 9.25 3.92857142857143  L 6.75 3.92857142857143  Z M 9.75 3.92857142857143  L 9.75 5.69642857142857  L 12 5.69642857142857  L 12 3.92857142857143  L 9.75 3.92857142857143  Z M 9.92578125 2.88811383928571  C 9.97526041666667 2.84923735119048  10 2.8031994047619  10 2.75  L 10 0.982142857142857  C 10 0.928943452380952  9.97526041666667 0.88290550595238  9.92578125 0.844029017857143  C 9.87630208333333 0.805152529761904  9.81770833333333 0.785714285714285  9.75 0.785714285714285  L 9.25 0.785714285714285  C 9.18229166666667 0.785714285714285  9.12369791666667 0.805152529761904  9.07421875 0.844029017857143  C 9.02473958333333 0.88290550595238  9 0.928943452380952  9 0.982142857142857  L 9 2.75  C 9 2.8031994047619  9.02473958333333 2.84923735119048  9.07421875 2.88811383928571  C 9.12369791666667 2.92699032738095  9.18229166666667 2.94642857142857  9.25 2.94642857142857  L 9.75 2.94642857142857  C 9.81770833333333 2.94642857142857  9.87630208333333 2.92699032738095  9.92578125 2.88811383928571  Z M 12.703125 1.8046875  C 12.9010416666667 1.96019345238095  13 2.14434523809524  13 2.35714285714286  L 13 10.2142857142857  C 13 10.4270833333333  12.9010416666667 10.6112351190476  12.703125 10.7667410714286  C 12.5052083333333 10.9222470238095  12.2708333333333 11  12 11  L 1 11  C 0.729166666666667 11  0.494791666666667 10.9222470238095  0.296875 10.7667410714286  C 0.0989583333333333 10.6112351190476  0 10.4270833333333  0 10.2142857142857  L 0 2.35714285714286  C 0 2.14434523809524  0.0989583333333333 1.96019345238095  0.296875 1.8046875  C 0.494791666666667 1.64918154761905  0.729166666666667 1.57142857142857  1 1.57142857142857  L 2 1.57142857142857  L 2 0.982142857142857  C 2 0.712053571428572  2.12239583333333 0.480840773809523  2.3671875 0.288504464285715  C 2.61197916666667 0.0961681547619049  2.90625 0  3.25 0  L 3.75 0  C 4.09375 0  4.38802083333333 0.0961681547619049  4.6328125 0.288504464285715  C 4.87760416666667 0.480840773809523  5 0.712053571428572  5 0.982142857142857  L 5 1.57142857142857  L 8 1.57142857142857  L 8 0.982142857142857  C 8 0.712053571428572  8.12239583333333 0.480840773809523  8.3671875 0.288504464285715  C 8.61197916666667 0.0961681547619049  8.90625 0  9.25 0  L 9.75 0  C 10.09375 0  10.3880208333333 0.0961681547619049  10.6328125 0.288504464285715  C 10.8776041666667 0.480840773809523  11 0.712053571428572  11 0.982142857142857  L 11 1.57142857142857  L 12 1.57142857142857  C 12.2708333333333 1.57142857142857  12.5052083333333 1.64918154761905  12.703125 1.8046875  Z " fill-rule="nonzero" fill="#8c8c8c" stroke="none" transform="matrix(1 0 0 1 508 973 )" />
  </g>
</svg>