<?xml version="1.0" encoding="utf-8"?>
<svg version="1.1" xmlns:xlink="http://www.w3.org/1999/xlink" width="681px" height="102px" xmlns="http://www.w3.org/2000/svg">
  <g transform="matrix(1 0 0 1 -937 -367 )">
    <path d="M 938 371  A 3 3 0 0 1 941 368 L 1614 368  A 3 3 0 0 1 1617 371 L 1617 465  A 3 3 0 0 1 1614 468 L 941 468  A 3 3 0 0 1 938 465 L 938 371  Z " fill-rule="nonzero" fill="#ff3399" stroke="none" fill-opacity="0.0980392156862745" />
    <path d="M 937.5 371  A 3.5 3.5 0 0 1 941 367.5 L 1614 367.5  A 3.5 3.5 0 0 1 1617.5 371 L 1617.5 465  A 3.5 3.5 0 0 1 1614 468.5 L 941 468.5  A 3.5 3.5 0 0 1 937.5 465 L 937.5 371  Z " stroke-width="1" stroke-dasharray="9,4" stroke="#ff3399" fill="none" stroke-dashoffset="0.5" />
  </g>
</svg>