<?xml version="1.0" encoding="utf-8"?>
<svg version="1.1" xmlns:xlink="http://www.w3.org/1999/xlink" width="670px" height="86px" xmlns="http://www.w3.org/2000/svg">
  <g transform="matrix(1 0 0 1 -1369 -570 )">
    <path d="M 1370 574  A 3 3 0 0 1 1373 571 L 2035 571  A 3 3 0 0 1 2038 574 L 2038 652  A 3 3 0 0 1 2035 655 L 1373 655  A 3 3 0 0 1 1370 652 L 1370 574  Z " fill-rule="nonzero" fill="#ff3399" stroke="none" fill-opacity="0.0980392156862745" />
    <path d="M 1369.5 574  A 3.5 3.5 0 0 1 1373 570.5 L 2035 570.5  A 3.5 3.5 0 0 1 2038.5 574 L 2038.5 652  A 3.5 3.5 0 0 1 2035 655.5 L 1373 655.5  A 3.5 3.5 0 0 1 1369.5 652 L 1369.5 574  Z " stroke-width="1" stroke-dasharray="9,4" stroke="#ff3399" fill="none" stroke-dashoffset="0.5" />
  </g>
</svg>