<?xml version="1.0" encoding="utf-8"?>
<svg version="1.1" xmlns:xlink="http://www.w3.org/1999/xlink" width="657px" height="36px" xmlns="http://www.w3.org/2000/svg">
  <g transform="matrix(1 0 0 1 -1371 -134 )">
    <path d="M 1372 138  A 3 3 0 0 1 1375 135 L 2024 135  A 3 3 0 0 1 2027 138 L 2027 166  A 3 3 0 0 1 2024 169 L 1375 169  A 3 3 0 0 1 1372 166 L 1372 138  Z " fill-rule="nonzero" fill="#ff3399" stroke="none" fill-opacity="0.0980392156862745" />
    <path d="M 1371.5 138  A 3.5 3.5 0 0 1 1375 134.5 L 2024 134.5  A 3.5 3.5 0 0 1 2027.5 138 L 2027.5 166  A 3.5 3.5 0 0 1 2024 169.5 L 1375 169.5  A 3.5 3.5 0 0 1 1371.5 166 L 1371.5 138  Z " stroke-width="1" stroke-dasharray="9,4" stroke="#ff3399" fill="none" stroke-dashoffset="0.5" />
  </g>
</svg>