<?xml version="1.0" encoding="utf-8"?>
<svg version="1.1" xmlns:xlink="http://www.w3.org/1999/xlink" width="206px" height="200px" xmlns="http://www.w3.org/2000/svg">
  <g transform="matrix(1 0 0 1 -2802 -78 )">
    <path d="M 2905 78  C 2962.68 78  3008 122  3008 178  C 3008 234  2962.68 278  2905 278  C 2847.32 278  2802 234  2802 178  C 2802 122  2847.32 78  2905 78  Z " fill-rule="nonzero" fill="#637ad4" stroke="none" />
    <path d="M 2905 78.5  C 2962.4 78.5  3007.5 122.28  3007.5 178  C 3007.5 233.72  2962.4 277.5  2905 277.5  C 2847.6 277.5  2802.5 233.72  2802.5 178  C 2802.5 122.28  2847.6 78.5  2905 78.5  Z " stroke-width="1" stroke="#797979" fill="none" />
  </g>
</svg>