<?xml version="1.0" encoding="utf-8"?>
<svg version="1.1" xmlns:xlink="http://www.w3.org/1999/xlink" width="100px" height="100px" xmlns="http://www.w3.org/2000/svg">
  <g transform="matrix(1 0 0 1 -2873 -87 )">
    <path d="M 2923 87  C 2951 87  2973 109  2973 137  C 2973 165  2951 187  2923 187  C 2895 187  2873 165  2873 137  C 2873 109  2895 87  2923 87  Z " fill-rule="nonzero" fill="#ffffff" stroke="none" />
    <path d="M 2923 87.5  C 2950.72 87.5  2972.5 109.28  2972.5 137  C 2972.5 164.72  2950.72 186.5  2923 186.5  C 2895.28 186.5  2873.5 164.72  2873.5 137  C 2873.5 109.28  2895.28 87.5  2923 87.5  Z " stroke-width="1" stroke="#797979" fill="none" />
  </g>
</svg>