<?xml version="1.0" encoding="utf-8"?>
<svg version="1.1" xmlns:xlink="http://www.w3.org/1999/xlink" width="14px" height="14px" xmlns="http://www.w3.org/2000/svg">
  <g transform="matrix(1 0 0 1 -747 -205 )">
    <path d="M 8.08463541666667 11.5846354166667  C 8.13932291666667 11.5299479166667  8.16666666666667 11.4600694444444  8.16666666666667 11.375  L 8.16666666666667 9.625  C 8.16666666666667 9.53993055555555  8.13932291666667 9.47005208333333  8.08463541666667 9.41536458333333  C 8.02994791666667 9.36067708333333  7.96006944444445 9.33333333333333  7.875 9.33333333333333  L 6.125 9.33333333333333  C 6.03993055555556 9.33333333333333  5.97005208333333 9.36067708333333  5.91536458333333 9.41536458333333  C 5.86067708333333 9.47005208333333  5.83333333333333 9.53993055555555  5.83333333333333 9.625  L 5.83333333333333 11.375  C 5.83333333333333 11.4600694444444  5.86067708333333 11.5299479166667  5.91536458333333 11.5846354166667  C 5.97005208333333 11.6393229166667  6.03993055555556 11.6666666666667  6.125 11.6666666666667  L 7.875 11.6666666666667  C 7.96006944444445 11.6666666666667  8.02994791666667 11.6393229166667  8.08463541666667 11.5846354166667  Z M 10.3860677083333 5.98828125  C 10.4620225694444 5.76345486111111  10.5 5.51736111111111  10.5 5.25  C 10.5 4.71527777777778  10.3313802083333 4.22005208333333  9.994140625 3.76432291666667  C 9.65690104166667 3.30859375  9.23611111111111 2.95616319444444  8.73177083333333 2.70703125  C 8.22743055555556 2.45789930555555  7.7109375 2.33333333333333  7.18229166666667 2.33333333333333  C 5.70572916666667 2.33333333333333  4.57855902777778 2.98046875  3.80078125 4.27473958333333  C 3.70963541666667 4.42057291666667  3.73394097222222 4.54817708333333  3.87369791666667 4.65755208333333  L 5.07682291666667 5.56901041666667  C 5.11935763888889 5.60546875  5.17708333333333 5.62369791666667  5.25 5.62369791666667  C 5.34722222222222 5.62369791666667  5.42317708333333 5.58723958333333  5.47786458333333 5.51432291666667  C 5.79991319444444 5.10112847222222  6.06119791666667 4.82161458333333  6.26171875 4.67578125  C 6.46831597222222 4.52994791666667  6.72960069444444 4.45703125  7.04557291666667 4.45703125  C 7.33723958333333 4.45703125  7.59700520833333 4.53602430555555  7.82486979166667 4.69401041666667  C 8.052734375 4.85199652777778  8.16666666666667 5.03125  8.16666666666667 5.23177083333333  C 8.16666666666667 5.46267361111111  8.10590277777778 5.64800347222222  7.984375 5.78776041666667  C 7.86284722222222 5.92751736111111  7.65625 6.06423611111111  7.36458333333333 6.19791666666667  C 6.98177083333333 6.36805555555555  6.630859375 6.630859375  6.31184895833333 6.986328125  C 5.99283854166667 7.341796875  5.83333333333333 7.72309027777778  5.83333333333333 8.13020833333333  L 5.83333333333333 8.45833333333333  C 5.83333333333333 8.54340277777778  5.86067708333333 8.61328125  5.91536458333333 8.66796875  C 5.97005208333333 8.72265625  6.03993055555556 8.75  6.125 8.75  L 7.875 8.75  C 7.96006944444445 8.75  8.02994791666667 8.72265625  8.08463541666667 8.66796875  C 8.13932291666667 8.61328125  8.16666666666667 8.54340277777778  8.16666666666667 8.45833333333333  C 8.16666666666667 8.34288194444444  8.23198784722222 8.19249131944444  8.36263020833333 8.00716145833333  C 8.49327256944444 7.82183159722222  8.65885416666667 7.67144097222222  8.859375 7.55598958333333  C 9.05381944444444 7.44661458333333  9.20269097222222 7.36002604166667  9.30598958333333 7.29622395833333  C 9.40928819444444 7.232421875  9.54904513888889 7.12608506944444  9.72526041666667 6.97721354166667  C 9.90147569444444 6.82834201388889  10.0366753472222 6.68250868055555  10.130859375 6.53971354166667  C 10.2250434027778 6.39691840277778  10.3101128472222 6.21310763888889  10.3860677083333 5.98828125  Z M 13.0611979166667 3.486328125  C 13.6870659722222 4.55881076388889  14 5.73003472222222  14 7  C 14 8.26996527777778  13.6870659722222 9.44118923611111  13.0611979166667 10.513671875  C 12.4353298611111 11.5861545138889  11.5861545138889 12.4353298611111  10.513671875 13.0611979166667  C 9.44118923611111 13.6870659722222  8.26996527777778 14  7 14  C 5.73003472222222 14  4.55881076388889 13.6870659722222  3.486328125 13.0611979166667  C 2.41384548611111 12.4353298611111  1.56467013888889 11.5861545138889  0.938802083333333 10.513671875  C 0.312934027777778 9.44118923611111  0 8.26996527777778  0 7  C 0 5.73003472222222  0.312934027777778 4.55881076388889  0.938802083333333 3.486328125  C 1.56467013888889 2.41384548611111  2.41384548611111 1.56467013888889  3.486328125 0.938802083333333  C 4.55881076388889 0.312934027777777  5.73003472222222 0  7 0  C 8.26996527777778 0  9.44118923611111 0.312934027777777  10.513671875 0.938802083333333  C 11.5861545138889 1.56467013888889  12.4353298611111 2.41384548611111  13.0611979166667 3.486328125  Z " fill-rule="nonzero" fill="#4f4d4d" stroke="none" transform="matrix(1 0 0 1 747 205 )" />
  </g>
</svg>