<?xml version="1.0" encoding="utf-8"?>
<svg version="1.1" xmlns:xlink="http://www.w3.org/1999/xlink" width="206px" height="200px" xmlns="http://www.w3.org/2000/svg">
  <g transform="matrix(1 0 0 1 -2590 -29 )">
    <path d="M 2693 29  C 2750.68 29  2796 73  2796 129  C 2796 185  2750.68 229  2693 229  C 2635.32 229  2590 185  2590 129  C 2590 73  2635.32 29  2693 29  Z " fill-rule="nonzero" fill="#637ad4" stroke="none" />
    <path d="M 2693 29.5  C 2750.4 29.5  2795.5 73.28  2795.5 129  C 2795.5 184.72  2750.4 228.5  2693 228.5  C 2635.6 228.5  2590.5 184.72  2590.5 129  C 2590.5 73.28  2635.6 29.5  2693 29.5  Z " stroke-width="1" stroke="#797979" fill="none" />
  </g>
</svg>