<?xml version="1.0" encoding="utf-8"?>
<svg version="1.1" xmlns:xlink="http://www.w3.org/1999/xlink" width="100px" height="100px" xmlns="http://www.w3.org/2000/svg">
  <g transform="matrix(1 0 0 1 -2661 -38 )">
    <path d="M 2711 38  C 2739 38  2761 60  2761 88  C 2761 116  2739 138  2711 138  C 2683 138  2661 116  2661 88  C 2661 60  2683 38  2711 38  Z " fill-rule="nonzero" fill="#ffffff" stroke="none" />
    <path d="M 2711 38.5  C 2738.72 38.5  2760.5 60.28  2760.5 88  C 2760.5 115.72  2738.72 137.5  2711 137.5  C 2683.28 137.5  2661.5 115.72  2661.5 88  C 2661.5 60.28  2683.28 38.5  2711 38.5  Z " stroke-width="1" stroke="#797979" fill="none" />
  </g>
</svg>