<?xml version="1.0" encoding="utf-8"?>
<svg version="1.1" xmlns:xlink="http://www.w3.org/1999/xlink" width="15px" height="13px" xmlns="http://www.w3.org/2000/svg">
  <g transform="matrix(1 0 0 1 -1065 -231 )">
    <path d="M 11.3671875 11.755859375  C 11.4813701923077 11.6486545138889  11.5384615384615 11.5217013888889  11.5384615384615 11.375  C 11.5384615384615 11.2282986111111  11.4813701923077 11.1013454861111  11.3671875 10.994140625  C 11.2530048076923 10.8869357638889  11.1177884615385 10.8333333333333  10.9615384615385 10.8333333333333  C 10.8052884615385 10.8333333333333  10.6700721153846 10.8869357638889  10.5558894230769 10.994140625  C 10.4417067307692 11.1013454861111  10.3846153846154 11.2282986111111  10.3846153846154 11.375  C 10.3846153846154 11.5217013888889  10.4417067307692 11.6486545138889  10.5558894230769 11.755859375  C 10.6700721153846 11.8630642361111  10.8052884615385 11.9166666666667  10.9615384615385 11.9166666666667  C 11.1177884615385 11.9166666666667  11.2530048076923 11.8630642361111  11.3671875 11.755859375  Z M 13.6748798076923 11.755859375  C 13.7890625 11.6486545138889  13.8461538461538 11.5217013888889  13.8461538461538 11.375  C 13.8461538461538 11.2282986111111  13.7890625 11.1013454861111  13.6748798076923 10.994140625  C 13.5606971153846 10.8869357638889  13.4254807692308 10.8333333333333  13.2692307692308 10.8333333333333  C 13.1129807692308 10.8333333333333  12.9777644230769 10.8869357638889  12.8635817307692 10.994140625  C 12.7493990384615 11.1013454861111  12.6923076923077 11.2282986111111  12.6923076923077 11.375  C 12.6923076923077 11.5217013888889  12.7493990384615 11.6486545138889  12.8635817307692 11.755859375  C 12.9777644230769 11.8630642361111  13.1129807692308 11.9166666666667  13.2692307692308 11.9166666666667  C 13.4254807692308 11.9166666666667  13.5606971153846 11.8630642361111  13.6748798076923 11.755859375  Z M 14.7475961538462 8.90364583333333  C 14.9158653846154 9.06163194444444  15 9.25347222222222  15 9.47916666666667  L 15 12.1875  C 15 12.4131944444444  14.9158653846154 12.6050347222222  14.7475961538462 12.7630208333333  C 14.5793269230769 12.9210069444444  14.375 13  14.1346153846154 13  L 0.865384615384615 13  C 0.625 13  0.420673076923077 12.9210069444444  0.252403846153846 12.7630208333333  C 0.0841346153846154 12.6050347222222  0 12.4131944444444  0 12.1875  L 0 9.47916666666667  C 0 9.25347222222222  0.0841346153846154 9.06163194444444  0.252403846153846 8.90364583333333  C 0.420673076923077 8.74565972222222  0.625 8.66666666666667  0.865384615384615 8.66666666666667  L 5.05709134615385 8.66666666666667  L 6.27403846153846 9.81770833333333  C 6.62259615384615 10.1336805555556  7.03125 10.2916666666667  7.5 10.2916666666667  C 7.96875 10.2916666666667  8.37740384615385 10.1336805555556  8.72596153846154 9.81770833333333  L 9.95192307692308 8.66666666666667  L 14.1346153846154 8.66666666666667  C 14.375 8.66666666666667  14.5793269230769 8.74565972222222  14.7475961538462 8.90364583333333  Z M 11.5384615384615 4.33333333333333  C 11.7908653846154 4.33333333333333  11.9681490384615 4.443359375  12.0703125 4.66341145833333  C 12.1724759615385 4.89474826388889  12.1304086538462 5.09223090277778  11.9441105769231 5.255859375  L 7.90564903846154 9.04752604166667  C 7.79747596153846 9.15473090277778  7.66225961538462 9.20833333333333  7.5 9.20833333333333  C 7.33774038461538 9.20833333333333  7.20252403846154 9.15473090277778  7.09435096153846 9.04752604166667  L 3.05588942307692 5.255859375  C 2.86959134615385 5.09223090277778  2.82752403846154 4.89474826388889  2.9296875 4.66341145833333  C 3.03185096153846 4.443359375  3.20913461538462 4.33333333333333  3.46153846153846 4.33333333333333  L 5.76923076923077 4.33333333333333  L 5.76923076923077 0.541666666666666  C 5.76923076923077 0.394965277777776  5.82632211538462 0.268012152777776  5.94050480769231 0.160807291666666  C 6.0546875 0.0536024305555564  6.18990384615385 0  6.34615384615385 0  L 8.65384615384615 0  C 8.81009615384615 0  8.9453125 0.0536024305555564  9.05949519230769 0.160807291666666  C 9.17367788461539 0.268012152777776  9.23076923076923 0.394965277777776  9.23076923076923 0.541666666666666  L 9.23076923076923 4.33333333333333  L 11.5384615384615 4.33333333333333  Z " fill-rule="nonzero" fill="#199ed8" stroke="none" transform="matrix(1 0 0 1 1065 231 )" />
  </g>
</svg>