<?xml version="1.0" encoding="utf-8"?>
<svg version="1.1" xmlns:xlink="http://www.w3.org/1999/xlink" width="144px" height="94px" xmlns="http://www.w3.org/2000/svg">
  <g transform="matrix(1 0 0 1 -596 -251 )">
    <path d="M 596 251  L 740 251  L 740 345  L 596 345  L 596 251  " fill-rule="nonzero" fill="#cccccc" stroke="none" />
    <path d="M 603 258  L 733 258  L 733 338  L 603 338  L 603 258  " fill-rule="nonzero" fill="#ffffff" stroke="none" />
    <path d="M 677.93 279.2  C 673.982 279.2  670.88 276.098  670.88 272.15  C 670.88 268.202  673.982 265.1  677.93 265.1  C 681.878 265.1  684.98 268.202  684.98 272.15  C 684.98 276.098  681.878 279.2  677.93 279.2  " fill-rule="nonzero" fill="#cccccc" stroke="none" />
    <path d="M 606 336  L 606 294.75  L 637.25 276  L 681 306.625  L 706 287.25  L 731 306.625  L 731 336  L 606 336  " fill-rule="nonzero" fill="#169bd5" stroke="none" />
  </g>
</svg>