<?xml version="1.0" encoding="utf-8"?>
<svg version="1.1" xmlns:xlink="http://www.w3.org/1999/xlink" width="429px" height="62px" xmlns="http://www.w3.org/2000/svg">
  <g transform="matrix(1 0 0 1 -1574 -678 )">
    <path d="M 1575 682  A 3 3 0 0 1 1578 679 L 1999 679  A 3 3 0 0 1 2002 682 L 2002 736  A 3 3 0 0 1 1999 739 L 1578 739  A 3 3 0 0 1 1575 736 L 1575 682  Z " fill-rule="nonzero" fill="#ff3399" stroke="none" fill-opacity="0.0980392156862745" />
    <path d="M 1574.5 682  A 3.5 3.5 0 0 1 1578 678.5 L 1999 678.5  A 3.5 3.5 0 0 1 2002.5 682 L 2002.5 736  A 3.5 3.5 0 0 1 1999 739.5 L 1578 739.5  A 3.5 3.5 0 0 1 1574.5 736 L 1574.5 682  Z " stroke-width="1" stroke-dasharray="9,4" stroke="#ff3399" fill="none" stroke-dashoffset="0.5" />
  </g>
</svg>