<?xml version="1.0" encoding="utf-8"?>
<svg version="1.1" xmlns:xlink="http://www.w3.org/1999/xlink" width="429px" height="49px" xmlns="http://www.w3.org/2000/svg">
  <g transform="matrix(1 0 0 1 -1526 -528 )">
    <path d="M 1527 532  A 3 3 0 0 1 1530 529 L 1951 529  A 3 3 0 0 1 1954 532 L 1954 573  A 3 3 0 0 1 1951 576 L 1530 576  A 3 3 0 0 1 1527 573 L 1527 532  Z " fill-rule="nonzero" fill="#ff3399" stroke="none" fill-opacity="0.0980392156862745" />
    <path d="M 1526.5 532  A 3.5 3.5 0 0 1 1530 528.5 L 1951 528.5  A 3.5 3.5 0 0 1 1954.5 532 L 1954.5 573  A 3.5 3.5 0 0 1 1951 576.5 L 1530 576.5  A 3.5 3.5 0 0 1 1526.5 573 L 1526.5 532  Z " stroke-width="1" stroke-dasharray="9,4" stroke="#ff3399" fill="none" stroke-dashoffset="0.5" />
  </g>
</svg>