<?xml version="1.0" encoding="utf-8"?>
<svg version="1.1" xmlns:xlink="http://www.w3.org/1999/xlink" width="12px" height="9px" xmlns="http://www.w3.org/2000/svg">
  <g transform="matrix(1 0 0 1 -2214 -398 )">
    <path d="M 11.7171717171718 6.72727272727274  C 11.9057239057238 6.86868686868686  12 7.04040404040405  12 7.24242424242423  C 12 7.44444444444445  11.9057239057238 7.6161616161616  11.7171717171718 7.75757575757576  L 10.3434343434342 8.78787878787878  C 10.1548821548822 8.92929292929294  9.92592592592609 9  9.65656565656582 9  C 9.38720538720554 9  9.15824915824896 8.92929292929294  8.969696969697 8.78787878787878  L 6 6.56060606060605  L 3.030303030303 8.78787878787878  C 2.84175084175104 8.92929292929294  2.61279461279446 9  2.34343434343418 9  C 2.07407407407391 9  1.84511784511778 8.92929292929294  1.65656565656582 8.78787878787878  L 0.282828282828177 7.75757575757576  C 0.0942760942762106 7.6161616161616  0 7.44444444444445  0 7.24242424242423  C 0 7.04040404040405  0.0942760942762106 6.86868686868686  0.282828282828177 6.72727272727274  L 3.25252525252517 4.5  L 0.282828282828177 2.27272727272726  C 0.0942760942762106 2.13131313131314  0 1.95959595959595  0 1.75757575757577  C 0 1.55555555555555  0.0942760942762106 1.3838383838384  0.282828282828177 1.24242424242424  L 1.65656565656582 0.212121212121218  C 1.84511784511778 0.0707070707070605  2.07407407407391 0  2.34343434343418 0  C 2.61279461279446 0  2.84175084175104 0.0707070707070605  3.030303030303 0.212121212121218  L 6 2.43939393939395  L 8.969696969697 0.212121212121218  C 9.15824915824896 0.0707070707070605  9.38720538720554 0  9.65656565656582 0  C 9.92592592592609 0  10.1548821548822 0.0707070707070605  10.3434343434342 0.212121212121218  L 11.7171717171718 1.24242424242424  C 11.9057239057238 1.3838383838384  12 1.55555555555555  12 1.75757575757577  C 12 1.95959595959595  11.9057239057238 2.13131313131314  11.7171717171718 2.27272727272726  L 8.74747474747483 4.5  L 11.7171717171718 6.72727272727274  Z " fill-rule="nonzero" fill="#cccccc" stroke="none" transform="matrix(1 0 0 1 2214 398 )" />
  </g>
</svg>