<?xml version="1.0" encoding="utf-8"?>
<svg version="1.1" xmlns:xlink="http://www.w3.org/1999/xlink" width="121px" height="171px" xmlns="http://www.w3.org/2000/svg">
  <g transform="matrix(1 0 0 1 -358 -321 )">
    <path d="M 358 321  L 479 321  L 479 492  L 358 492  L 358 321  " fill-rule="nonzero" fill="#cccccc" stroke="none" />
    <path d="M 366 329  L 471 329  L 471 484  L 366 484  L 366 329  " fill-rule="nonzero" fill="#ffffff" stroke="none" />
    <path d="M 429.995 364.8  C 424.913 364.8  420.92 360.807  420.92 355.725  C 420.92 350.643  424.913 346.65  429.995 346.65  C 435.077 346.65  439.07 350.643  439.07 355.725  C 439.07 360.807  435.077 364.8  429.995 364.8  " fill-rule="nonzero" fill="#cccccc" stroke="none" />
    <path d="M 369 481  L 369 399.05  L 393.75 361.8  L 428.4 391.6  L 448.2 384.15  L 468 391.6  L 468 481  L 369 481  " fill-rule="nonzero" fill="#169bd5" stroke="none" />
  </g>
</svg>