<?xml version="1.0" encoding="utf-8"?>
<svg version="1.1" xmlns:xlink="http://www.w3.org/1999/xlink" width="103px" height="37px" xmlns="http://www.w3.org/2000/svg">
  <g transform="matrix(1 0 0 1 -2322 -491 )">
    <path d="M 2323 495  A 3 3 0 0 1 2326 492 L 2421 492  A 3 3 0 0 1 2424 495 L 2424 524  A 3 3 0 0 1 2421 527 L 2326 527  A 3 3 0 0 1 2323 524 L 2323 495  Z " fill-rule="nonzero" fill="#ff3399" stroke="none" fill-opacity="0.0980392156862745" />
    <path d="M 2322.5 495  A 3.5 3.5 0 0 1 2326 491.5 L 2421 491.5  A 3.5 3.5 0 0 1 2424.5 495 L 2424.5 524  A 3.5 3.5 0 0 1 2421 527.5 L 2326 527.5  A 3.5 3.5 0 0 1 2322.5 524 L 2322.5 495  Z " stroke-width="1" stroke-dasharray="9,4" stroke="#ff3399" fill="none" stroke-dashoffset="0.5" />
  </g>
</svg>