<?xml version="1.0" encoding="utf-8"?>
<svg version="1.1" xmlns:xlink="http://www.w3.org/1999/xlink" width="34px" height="34px" xmlns="http://www.w3.org/2000/svg">
  <g transform="matrix(1 0 0 1 -1493 -918 )">
    <path d="M 34 17  C 34 26.52  26.52 34  17 34  C 7.48000000000002 34  0 26.52  0 17  C 0 7.48000000000002  7.48000000000002 0  17 0  C 26.52 0  34 7.48000000000002  34 17  Z M 2 17  C 2 25.4  8.59999999999991 32  17 32  C 25.4000000000001 32  32 25.4  32 17  C 32 8.60000000000002  25.4000000000001 2  17 2  C 8.59999999999991 2  2 8.60000000000002  2 17  Z " fill-rule="nonzero" fill="#ec2e2e" stroke="none" transform="matrix(1 0 0 1 1493 918 )" />
  </g>
</svg>