<?xml version="1.0" encoding="utf-8"?>
<svg version="1.1" xmlns:xlink="http://www.w3.org/1999/xlink" width="10px" height="10px" xmlns="http://www.w3.org/2000/svg">
  <g transform="matrix(1 0 0 1 -740 -5194 )">
    <path d="M 745 5195  C 747.24 5195  749 5196.76  749 5199  C 749 5201.24  747.24 5203  745 5203  C 742.76 5203  741 5201.24  741 5199  C 741 5196.76  742.76 5195  745 5195  Z " fill-rule="nonzero" fill="#ffffff" stroke="none" />
    <path d="M 745 5195  C 747.24 5195  749 5196.76  749 5199  C 749 5201.24  747.24 5203  745 5203  C 742.76 5203  741 5201.24  741 5199  C 741 5196.76  742.76 5195  745 5195  Z " stroke-width="2" stroke="#1890ff" fill="none" />
  </g>
</svg>