<?xml version="1.0" encoding="utf-8"?>
<svg version="1.1" xmlns:xlink="http://www.w3.org/1999/xlink" width="114px" height="82px" xmlns="http://www.w3.org/2000/svg">
  <g transform="matrix(1 0 0 1 -195 -5844 )">
    <path d="M 196 5848  A 3 3 0 0 1 199 5845 L 305 5845  A 3 3 0 0 1 308 5848 L 308 5922  A 3 3 0 0 1 305 5925 L 199 5925  A 3 3 0 0 1 196 5922 L 196 5848  Z " fill-rule="nonzero" fill="#ff3399" stroke="none" fill-opacity="0.0980392156862745" />
    <path d="M 195.5 5848  A 3.5 3.5 0 0 1 199 5844.5 L 305 5844.5  A 3.5 3.5 0 0 1 308.5 5848 L 308.5 5922  A 3.5 3.5 0 0 1 305 5925.5 L 199 5925.5  A 3.5 3.5 0 0 1 195.5 5922 L 195.5 5848  Z " stroke-width="1" stroke-dasharray="9,4" stroke="#ff3399" fill="none" stroke-dashoffset="0.5" />
  </g>
</svg>