<?xml version="1.0" encoding="utf-8"?>
<svg version="1.1" xmlns:xlink="http://www.w3.org/1999/xlink" width="12px" height="12px" xmlns="http://www.w3.org/2000/svg">
  <g transform="matrix(1 0 0 1 -2651 -410 )">
    <path d="M 8.6484375 7.25  C 8.6484375 7.31770833333333  8.62239583333333 7.37760416666667  8.5703125 7.4296875  L 7.4296875 8.5703125  C 7.37760416666667 8.62239583333333  7.31770833333333 8.6484375  7.25 8.6484375  C 7.18229166666667 8.6484375  7.12239583333333 8.62239583333333  7.0703125 8.5703125  L 6 7.5  L 4.9296875 8.5703125  C 4.87760416666667 8.62239583333333  4.81770833333333 8.6484375  4.75 8.6484375  C 4.68229166666667 8.6484375  4.62239583333333 8.62239583333333  4.5703125 8.5703125  L 3.4296875 7.4296875  C 3.37760416666667 7.37760416666667  3.3515625 7.31770833333333  3.3515625 7.25  C 3.3515625 7.18229166666667  3.37760416666667 7.12239583333333  3.4296875 7.0703125  L 4.5 6  L 3.4296875 4.9296875  C 3.37760416666667 4.87760416666667  3.3515625 4.81770833333333  3.3515625 4.75  C 3.3515625 4.68229166666667  3.37760416666667 4.62239583333333  3.4296875 4.5703125  L 4.5703125 3.4296875  C 4.62239583333333 3.37760416666667  4.68229166666667 3.3515625  4.75 3.3515625  C 4.81770833333333 3.3515625  4.87760416666667 3.37760416666667  4.9296875 3.4296875  L 6 4.5  L 7.0703125 3.4296875  C 7.12239583333333 3.37760416666667  7.18229166666667 3.3515625  7.25 3.3515625  C 7.31770833333333 3.3515625  7.37760416666667 3.37760416666667  7.4296875 3.4296875  L 8.5703125 4.5703125  C 8.62239583333333 4.62239583333333  8.6484375 4.68229166666667  8.6484375 4.75  C 8.6484375 4.81770833333333  8.62239583333333 4.87760416666667  8.5703125 4.9296875  L 7.5 6  L 8.5703125 7.0703125  C 8.62239583333333 7.12239583333333  8.6484375 7.18229166666667  8.6484375 7.25  Z M 9.6796875 8.1328125  C 10.0598958333333 7.48177083333333  10.25 6.77083333333333  10.25 6  C 10.25 5.22916666666667  10.0598958333333 4.51822916666667  9.6796875 3.8671875  C 9.29947916666667 3.21614583333333  8.78385416666667 2.70052083333333  8.1328125 2.3203125  C 7.48177083333333 1.94010416666667  6.77083333333333 1.75  6 1.75  C 5.22916666666667 1.75  4.51822916666667 1.94010416666667  3.8671875 2.3203125  C 3.21614583333333 2.70052083333333  2.70052083333333 3.21614583333333  2.3203125 3.8671875  C 1.94010416666667 4.51822916666667  1.75 5.22916666666667  1.75 6  C 1.75 6.77083333333333  1.94010416666667 7.48177083333333  2.3203125 8.1328125  C 2.70052083333333 8.78385416666666  3.21614583333333 9.29947916666667  3.8671875 9.6796875  C 4.51822916666667 10.0598958333333  5.22916666666667 10.25  6 10.25  C 6.77083333333333 10.25  7.48177083333333 10.0598958333333  8.1328125 9.6796875  C 8.78385416666667 9.29947916666667  9.29947916666667 8.78385416666666  9.6796875 8.1328125  Z M 11.1953125 2.98828125  C 11.7317708333333 3.90755208333333  12 4.91145833333333  12 6  C 12 7.08854166666667  11.7317708333333 8.09244791666666  11.1953125 9.01171875  C 10.6588541666667 9.93098958333333  9.93098958333333 10.6588541666667  9.01171875 11.1953125  C 8.09244791666667 11.7317708333333  7.08854166666667 12  6 12  C 4.91145833333333 12  3.90755208333333 11.7317708333333  2.98828125 11.1953125  C 2.06901041666667 10.6588541666667  1.34114583333333 9.93098958333333  0.8046875 9.01171875  C 0.268229166666667 8.09244791666666  0 7.08854166666667  0 6  C 0 4.91145833333333  0.268229166666667 3.90755208333333  0.8046875 2.98828125  C 1.34114583333333 2.06901041666667  2.06901041666667 1.34114583333333  2.98828125 0.8046875  C 3.90755208333333 0.268229166666666  4.91145833333333 0  6 0  C 7.08854166666667 0  8.09244791666667 0.268229166666666  9.01171875 0.8046875  C 9.93098958333333 1.34114583333333  10.6588541666667 2.06901041666667  11.1953125 2.98828125  Z " fill-rule="nonzero" fill="#797979" stroke="none" transform="matrix(1 0 0 1 2651 410 )" />
  </g>
</svg>