<?xml version="1.0" encoding="utf-8"?>
<svg version="1.1" xmlns:xlink="http://www.w3.org/1999/xlink" width="37px" height="37px" xmlns="http://www.w3.org/2000/svg">
  <g transform="matrix(1 0 0 1 885 -1052 )">
    <path d="M -866.5 1052  C -856.14 1052  -848 1060.14  -848 1070.5  C -848 1080.86  -856.14 1089  -866.5 1089  C -876.86 1089  -885 1080.86  -885 1070.5  C -885 1060.14  -876.86 1052  -866.5 1052  Z " fill-rule="nonzero" fill="#ffffff" stroke="none" />
    <path d="M -866.5 1052.5  C -856.42 1052.5  -848.5 1060.42  -848.5 1070.5  C -848.5 1080.58  -856.42 1088.5  -866.5 1088.5  C -876.58 1088.5  -884.5 1080.58  -884.5 1070.5  C -884.5 1060.42  -876.58 1052.5  -866.5 1052.5  Z " stroke-width="1" stroke="#797979" fill="none" />
  </g>
</svg>