<?xml version="1.0" encoding="utf-8"?>
<svg version="1.1" xmlns:xlink="http://www.w3.org/1999/xlink" width="18px" height="18px" preserveAspectRatio="xMinYMid meet" viewBox="480 422  18 16" xmlns="http://www.w3.org/2000/svg">
  <path d="M 487 430.5  L 491 430.5  A 5 5 0 0 0 496.5 425.5 L 496.5 415  A 5 5 0 0 1 501.5 410.5 L 613 410.5  A 5 5 0 0 1 618.5 415.5 L 618.5 420  " stroke-width="1" stroke="#ff3399" fill="none" />
  <path d="M 489 427.5  A 3 3 0 0 0 486 430.5 A 3 3 0 0 0 489 433.5 A 3 3 0 0 0 492 430.5 A 3 3 0 0 0 489 427.5 Z " fill-rule="nonzero" fill="#ff3399" stroke="none" />
</svg>