<?xml version="1.0" encoding="utf-8"?>
<svg version="1.1" xmlns:xlink="http://www.w3.org/1999/xlink" width="391px" height="441px" xmlns="http://www.w3.org/2000/svg">
  <g transform="matrix(1 0 0 1 -95 -569 )">
    <path d="M 96 573  A 3 3 0 0 1 99 570 L 482 570  A 3 3 0 0 1 485 573 L 485 1006  A 3 3 0 0 1 482 1009 L 99 1009  A 3 3 0 0 1 96 1006 L 96 573  Z " fill-rule="nonzero" fill="#ff3399" stroke="none" fill-opacity="0.0980392156862745" />
    <path d="M 95.5 573  A 3.5 3.5 0 0 1 99 569.5 L 482 569.5  A 3.5 3.5 0 0 1 485.5 573 L 485.5 1006  A 3.5 3.5 0 0 1 482 1009.5 L 99 1009.5  A 3.5 3.5 0 0 1 95.5 1006 L 95.5 573  Z " stroke-width="1" stroke-dasharray="9,4" stroke="#ff3399" fill="none" stroke-dashoffset="0.5" />
  </g>
</svg>