<?xml version="1.0" encoding="utf-8"?>
<svg version="1.1" xmlns:xlink="http://www.w3.org/1999/xlink" width="22px" height="12px" xmlns="http://www.w3.org/2000/svg">
  <g transform="matrix(1 0 0 1 -2747 -244 )">
    <path d="M 21.591796875 0.395833333333334  C 21.8639322916667 0.659722222222221  22 0.972222222222219  22 1.33333333333333  C 22 1.69444444444444  21.8639322916667 2.00694444444444  21.591796875 2.27083333333333  L 11.966796875 11.6041666666667  C 11.6946614583333 11.8680555555556  11.3723958333333 12  11 12  C 10.6276041666667 12  10.3053385416667 11.8680555555556  10.033203125 11.6041666666667  L 0.408203125 2.27083333333333  C 0.136067708333333 2.00694444444444  0 1.69444444444444  0 1.33333333333333  C 0 0.972222222222219  0.136067708333333 0.659722222222221  0.408203125 0.395833333333334  C 0.680338541666667 0.131944444444443  1.00260416666667 0  1.375 0  L 20.625 0  C 20.9973958333333 0  21.3196614583333 0.131944444444443  21.591796875 0.395833333333334  Z " fill-rule="nonzero" fill="#625e5e" stroke="none" transform="matrix(1 0 0 1 2747 244 )" />
  </g>
</svg>