<?xml version="1.0" encoding="utf-8"?>
<svg version="1.1" xmlns:xlink="http://www.w3.org/1999/xlink" width="8px" height="13px" xmlns="http://www.w3.org/2000/svg">
  <g transform="matrix(1 0 0 1 -1893 -281 )">
    <path d="M 7.86254295532646 6.20040080160321  C 7.95418098510882 6.2872411489646  8 6.38710754843019  8 6.5  C 8 6.61289245156981  7.95418098510882 6.7127588510354  7.86254295532646 6.79959919839679  L 1.45704467353952 12.8697394789579  C 1.36540664375716 12.9565798263193  1.26002290950745 13  1.14089347079038 13  C 1.02176403207331 13  0.916380297823597 12.9565798263193  0.824742268041237 12.8697394789579  L 0.13745704467354 12.2184368737475  C 0.0458190148911799 12.1315965263861  0 12.0317301269205  0 11.9188376753507  C 0 11.8059452237809  0.0458190148911799 11.7060788243153  0.13745704467354 11.6192384769539  L 5.53951890034364 6.5  L 0.13745704467354 1.38076152304609  C 0.0458190148911799 1.2939211756847  0 1.1940547762191  0 1.0811623246493  C 0 0.968269873079491  0.0458190148911799 0.868403473613893  0.13745704467354 0.781563126252504  L 0.824742268041237 0.130260521042084  C 0.916380297823597 0.0434201736806943  1.02176403207331 0  1.14089347079038 0  C 1.26002290950745 0  1.36540664375716 0.0434201736806943  1.45704467353952 0.130260521042084  L 7.86254295532646 6.20040080160321  Z " fill-rule="nonzero" fill="#ff8651" stroke="none" transform="matrix(1 0 0 1 1893 281 )" />
  </g>
</svg>