<?xml version="1.0" encoding="utf-8"?>
<svg version="1.1" xmlns:xlink="http://www.w3.org/1999/xlink" width="12px" height="15px" xmlns="http://www.w3.org/2000/svg">
  <g transform="matrix(1 0 0 1 -195 -22 )">
    <path d="M 11.6041666666667 6.8408203125  C 11.8680555555556 7.0263671875  12 7.24609375  12 7.5  C 12 7.75390625  11.8680555555556 7.9736328125  11.6041666666667 8.1591796875  L 2.27083333333333 14.7216796875  C 2.00694444444444 14.9072265625  1.69444444444444 15  1.33333333333333 15  C 0.972222222222222 15  0.659722222222222 14.9072265625  0.395833333333333 14.7216796875  C 0.131944444444444 14.5361328125  0 14.31640625  0 14.0625  L 0 0.9375  C 0 0.683593749999998  0.131944444444444 0.463867187499998  0.395833333333333 0.2783203125  C 0.659722222222222 0.0927734374999989  0.972222222222222 0  1.33333333333333 0  C 1.69444444444444 0  2.00694444444444 0.0927734374999989  2.27083333333333 0.2783203125  L 11.6041666666667 6.8408203125  Z " fill-rule="nonzero" fill="#ffffff" stroke="none" transform="matrix(1 0 0 1 195 22 )" />
  </g>
</svg>