<?xml version="1.0" encoding="utf-8"?>
<svg version="1.1" xmlns:xlink="http://www.w3.org/1999/xlink" width="14px" height="14px" xmlns="http://www.w3.org/2000/svg">
  <g transform="matrix(1 0 0 1 -222 -490 )">
    <path d="M 229 490  C 232.92 490  236 493.08  236 497  C 236 500.92  232.92 504  229 504  C 225.08 504  222 500.92  222 497  C 222 493.08  225.08 490  229 490  Z " fill-rule="nonzero" fill="#ffffff" stroke="none" />
    <path d="M 229 490.5  C 232.64 490.5  235.5 493.36  235.5 497  C 235.5 500.64  232.64 503.5  229 503.5  C 225.36 503.5  222.5 500.64  222.5 497  C 222.5 493.36  225.36 490.5  229 490.5  Z " stroke-width="1" stroke="#2e8ff4" fill="none" />
  </g>
</svg>