<?xml version="1.0" encoding="utf-8"?>
<svg version="1.1" xmlns:xlink="http://www.w3.org/1999/xlink" width="14px" height="14px" xmlns="http://www.w3.org/2000/svg">
  <g transform="matrix(1 0 0 1 -222 -434 )">
    <path d="M 229 438  C 230.68 438  232 439.32  232 441  C 232 442.68  230.68 444  229 444  C 227.32 444  226 442.68  226 441  C 226 439.32  227.32 438  229 438  Z " fill-rule="nonzero" fill="#ffffff" stroke="none" />
    <path d="M 229 436.5  C 231.52 436.5  233.5 438.48  233.5 441  C 233.5 443.52  231.52 445.5  229 445.5  C 226.48 445.5  224.5 443.52  224.5 441  C 224.5 438.48  226.48 436.5  229 436.5  Z " stroke-width="5" stroke="#409eff" fill="none" />
  </g>
</svg>