<?xml version="1.0" encoding="utf-8"?>
<svg version="1.1" xmlns:xlink="http://www.w3.org/1999/xlink" width="12px" height="12px" viewBox="1090 398  12 12" xmlns="http://www.w3.org/2000/svg">
  <path d="M 1096 398  C 1099.36 398  1102 400.64  1102 404  C 1102 407.36  1099.36 410  1096 410  C 1092.64 410  1090 407.36  1090 404  C 1090 400.64  1092.64 398  1096 398  Z " fill-rule="nonzero" fill="#ffffff" stroke="none" />
  <path d="M 1096 398.5  C 1099.08 398.5  1101.5 400.92  1101.5 404  C 1101.5 407.08  1099.08 409.5  1096 409.5  C 1092.92 409.5  1090.5 407.08  1090.5 404  C 1090.5 400.92  1092.92 398.5  1096 398.5  Z " stroke-width="1" stroke="#797979" fill="none" />
  <path d="M 1096 407  C 1094.32 407  1093 405.68  1093 404  C 1093 402.32  1094.32 401  1096 401  C 1097.68 401  1099 402.32  1099 404  C 1099 405.68  1097.68 407  1096 407  " fill-rule="nonzero" fill="#797979" stroke="none" />
</svg>