<?xml version="1.0" encoding="utf-8"?>
<svg version="1.1" xmlns:xlink="http://www.w3.org/1999/xlink" width="12px" height="12px" viewBox="1152 330  12 12" xmlns="http://www.w3.org/2000/svg">
  <path d="M 1158 330  C 1161.36 330  1164 332.64  1164 336  C 1164 339.36  1161.36 342  1158 342  C 1154.64 342  1152 339.36  1152 336  C 1152 332.64  1154.64 330  1158 330  Z " fill-rule="nonzero" fill="#ffffff" stroke="none" />
  <path d="M 1158 330.5  C 1161.08 330.5  1163.5 332.92  1163.5 336  C 1163.5 339.08  1161.08 341.5  1158 341.5  C 1154.92 341.5  1152.5 339.08  1152.5 336  C 1152.5 332.92  1154.92 330.5  1158 330.5  Z " stroke-width="1" stroke="#797979" fill="none" />
  <path d="M 1158 339  C 1156.32 339  1155 337.68  1155 336  C 1155 334.32  1156.32 333  1158 333  C 1159.68 333  1161 334.32  1161 336  C 1161 337.68  1159.68 339  1158 339  " fill-rule="nonzero" fill="#797979" stroke="none" />
</svg>