<?xml version="1.0" encoding="utf-8"?>
<svg version="1.1" xmlns:xlink="http://www.w3.org/1999/xlink" width="12px" height="12px" viewBox="1152 364  12 12" xmlns="http://www.w3.org/2000/svg">
  <path d="M 1158 364  C 1161.36 364  1164 366.64  1164 370  C 1164 373.36  1161.36 376  1158 376  C 1154.64 376  1152 373.36  1152 370  C 1152 366.64  1154.64 364  1158 364  Z " fill-rule="nonzero" fill="#ffffff" stroke="none" />
  <path d="M 1158 364.5  C 1161.08 364.5  1163.5 366.92  1163.5 370  C 1163.5 373.08  1161.08 375.5  1158 375.5  C 1154.92 375.5  1152.5 373.08  1152.5 370  C 1152.5 366.92  1154.92 364.5  1158 364.5  Z " stroke-width="1" stroke="#797979" fill="none" />
  <path d="M 1158 373  C 1156.32 373  1155 371.68  1155 370  C 1155 368.32  1156.32 367  1158 367  C 1159.68 367  1161 368.32  1161 370  C 1161 371.68  1159.68 373  1158 373  " fill-rule="nonzero" fill="#797979" stroke="none" />
</svg>