<?xml version="1.0" encoding="utf-8"?>
<svg version="1.1" xmlns:xlink="http://www.w3.org/1999/xlink" width="12px" height="12px" viewBox="1090 364  12 12" xmlns="http://www.w3.org/2000/svg">
  <path d="M 1096 364  C 1099.36 364  1102 366.64  1102 370  C 1102 373.36  1099.36 376  1096 376  C 1092.64 376  1090 373.36  1090 370  C 1090 366.64  1092.64 364  1096 364  Z " fill-rule="nonzero" fill="#ffffff" stroke="none" />
  <path d="M 1096 364.5  C 1099.08 364.5  1101.5 366.92  1101.5 370  C 1101.5 373.08  1099.08 375.5  1096 375.5  C 1092.92 375.5  1090.5 373.08  1090.5 370  C 1090.5 366.92  1092.92 364.5  1096 364.5  Z " stroke-width="1" stroke="#797979" fill="none" />
  <path d="M 1096 373  C 1094.32 373  1093 371.68  1093 370  C 1093 368.32  1094.32 367  1096 367  C 1097.68 367  1099 368.32  1099 370  C 1099 371.68  1097.68 373  1096 373  " fill-rule="nonzero" fill="#797979" stroke="none" />
</svg>