<?xml version="1.0" encoding="utf-8"?>
<svg version="1.1" xmlns:xlink="http://www.w3.org/1999/xlink" width="12px" height="12px" viewBox="1090 330  12 12" xmlns="http://www.w3.org/2000/svg">
  <path d="M 1096 330  C 1099.36 330  1102 332.64  1102 336  C 1102 339.36  1099.36 342  1096 342  C 1092.64 342  1090 339.36  1090 336  C 1090 332.64  1092.64 330  1096 330  Z " fill-rule="nonzero" fill="#ffffff" stroke="none" />
  <path d="M 1096 330.5  C 1099.08 330.5  1101.5 332.92  1101.5 336  C 1101.5 339.08  1099.08 341.5  1096 341.5  C 1092.92 341.5  1090.5 339.08  1090.5 336  C 1090.5 332.92  1092.92 330.5  1096 330.5  Z " stroke-width="1" stroke="#797979" fill="none" />
  <path d="M 1096 339  C 1094.32 339  1093 337.68  1093 336  C 1093 334.32  1094.32 333  1096 333  C 1097.68 333  1099 334.32  1099 336  C 1099 337.68  1097.68 339  1096 339  " fill-rule="nonzero" fill="#797979" stroke="none" />
</svg>