<?xml version="1.0" encoding="utf-8"?>
<svg version="1.1" xmlns:xlink="http://www.w3.org/1999/xlink" width="49px" height="39px" xmlns="http://www.w3.org/2000/svg">
  <g transform="matrix(1 0 0 1 -417 -397 )">
    <path d="M 14.9041666666667 7.921875  C 15.8569444444444 8.86979166666666  16.3333333333333 10.0208333333333  16.3333333333333 11.375  C 16.3333333333333 12.7291666666667  15.8569444444444 13.8802083333333  14.9041666666667 14.828125  C 13.9513888888889 15.7760416666667  12.7944444444444 16.25  11.4333333333333 16.25  C 10.0722222222222 16.25  8.91527777777778 15.7760416666667  7.9625 14.828125  C 7.00972222222222 13.8802083333333  6.53333333333333 12.7291666666667  6.53333333333333 11.375  C 6.53333333333333 10.0208333333333  7.00972222222222 8.86979166666666  7.9625 7.921875  C 8.91527777777778 6.97395833333333  10.0722222222222 6.5  11.4333333333333 6.5  C 12.7944444444444 6.5  13.9513888888889 6.97395833333333  14.9041666666667 7.921875  Z M 31.85 10.5625  L 42 21.125  L 42 32  L 6.53333333333333 32  L 6.53333333333333 27.625  L 14.7 19.5  L 18.7833333333333 23.5625  L 31.85 10.5625  Z M 45.4908854166667 3.4912109375  C 45.3292534722222 3.33040364583333  45.1378472222222 3.25  44.9166666666667 4  L 4.08333333333333 4  C 3.86215277777778 3.25  3.67074652777778 3.33040364583333  3.50911458333333 3.4912109375  C 3.34748263888889 3.65201822916666  3.26666666666667 3.84244791666666  4 4.0625  L 4 34.9375  C 3.26666666666667 35.1575520833333  3.34748263888889 35.3479817708333  3.50911458333333 35.5087890625  C 3.67074652777778 35.6695963541667  3.86215277777778 35.75  4.08333333333333 35  L 44.9166666666667 35  C 45.1378472222222 35.75  45.3292534722222 35.6695963541667  45.4908854166667 35.5087890625  C 45.6525173611111 35.3479817708333  45.7333333333333 35.1575520833333  45 34.9375  L 45 4.0625  C 45.7333333333333 3.84244791666666  45.6525173611111 3.65201822916666  45.4908854166667 3.4912109375  Z M 47.8005208333333 1.193359375  C 48.6001736111111 1.98893229166666  49 2.9453125  49 4.0625  L 49 34.9375  C 49 36.0546875  48.6001736111111 37.0110677083333  47.8005208333333 37.806640625  C 47.0008680555556 38.6022135416667  46.0395833333333 39  44.9166666666667 39  L 4.08333333333333 39  C 2.96041666666667 39  1.99913194444444 38.6022135416667  1.19947916666667 37.806640625  C 0.399826388888889 37.0110677083333  0 36.0546875  0 34.9375  L 0 4.0625  C 0 2.9453125  0.399826388888889 1.98893229166666  1.19947916666667 1.193359375  C 1.99913194444444 0.397786458333329  2.96041666666667 0  4.08333333333333 0  L 44.9166666666667 0  C 46.0395833333333 0  47.0008680555556 0.397786458333329  47.8005208333333 1.193359375  Z " fill-rule="nonzero" fill="#e4e4e4" stroke="none" transform="matrix(1 0 0 1 417 397 )" />
  </g>
</svg>