<?xml version="1.0" encoding="utf-8"?>
<svg version="1.1" xmlns:xlink="http://www.w3.org/1999/xlink" width="24px" height="18px" xmlns="http://www.w3.org/2000/svg">
  <g transform="matrix(1 0 0 1 -1348 -567 )">
    <path d="M 11.1928251121076 13.5  L 11.9461883408072 13.5  L 13.5067264573991 12.0170454545455  L 11.4618834080717 10.0738636363636  L 9.90134529147982 11.5568181818182  L 9.90134529147982 12.2727272727273  L 11.1928251121076 12.2727272727273  L 11.1928251121076 13.5  Z M 17.8520179372197 4.71732954545455  C 18.0044843049327 4.57244318181818  18.0089686098655 4.43181818181818  17.8654708520179 4.29545454545455  C 17.7219730941704 4.15909090909091  17.5739910313901 4.16335227272727  17.4215246636771 4.30823863636364  L 12.7130044843049 8.78267045454546  C 12.5605381165919 8.92755681818182  12.5560538116592 9.06818181818182  12.6995515695067 9.20454545454546  C 12.8430493273543 9.34090909090909  12.9910313901345 9.33664772727272  13.1434977578475 9.19176136363637  L 17.8520179372197 4.71732954545455  Z M 18.6726457399103 11.5184659090909  C 18.8520179372197 11.5866477272727  18.9417040358744 11.7102272727273  18.9417040358744 11.8892045454545  L 18.9417040358744 14.3181818181818  C 18.9417040358744 15.3323863636364  18.5627802690583 16.1995738636364  17.804932735426 16.9197443181818  C 17.0470852017937 17.6399147727273  16.1345291479821 18  15.067264573991 18  L 3.87443946188341 18  C 2.80717488789238 18  1.89461883408072 17.6399147727273  1.13677130044843 16.9197443181818  C 0.378923766816143 16.1995738636364  0 15.3323863636364  0 14.3181818181818  L 0 3.68181818181818  C 0 2.66761363636363  0.378923766816143 1.80042613636364  1.13677130044843 1.08025568181818  C 1.89461883408072 0.360085227272726  2.80717488789238 0  3.87443946188341 0  L 15.067264573991 0  C 15.6322869955157 0  16.1569506726457 0.10653409090909  16.6412556053812 0.319602272727272  C 16.7757847533632 0.379261363636362  16.8565022421525 0.477272727272727  16.8834080717489 0.613636363636363  C 16.9103139013453 0.758522727272727  16.8699551569507 0.882102272727272  16.762331838565 0.984375  L 16.1031390134529 1.61079545454545  C 15.9775784753363 1.73011363636364  15.8340807174888 1.76420454545455  15.6726457399103 1.71306818181818  C 15.4663677130045 1.66193181818182  15.2645739910314 1.63636363636364  15.067264573991 1.63636363636364  L 3.87443946188341 1.63636363636364  C 3.28251121076233 1.63636363636364  2.77578475336323 1.83664772727273  2.3542600896861 2.23721590909091  C 1.93273542600897 2.63778409090909  1.7219730941704 3.11931818181818  2 3.68181818181818  L 2 14.3181818181818  C 1.7219730941704 14.8806818181818  1.93273542600897 15.3622159090909  2.3542600896861 15.7627840909091  C 2.77578475336323 16.1633522727273  3.28251121076233 16.3636363636364  3.87443946188341 16.3636363636364  L 15.067264573991 16.3636363636364  C 15.6591928251121 16.3636363636364  16.1659192825112 16.1633522727273  16.5874439461883 15.7627840909091  C 17.0089686098655 15.3622159090909  17.219730941704 14.8806818181818  17.219730941704 14.3181818181818  L 17.219730941704 12.7073863636364  C 17.219730941704 12.5965909090909  17.2600896860987 12.5028409090909  17.3408071748879 12.4261363636364  L 18.2017937219731 11.6079545454545  C 18.3363228699552 11.4801136363636  18.4932735426009 11.4502840909091  18.6726457399103 11.5184659090909  Z M 8.60986547085202 11.0454545454545  L 17.6502242152466 2.45454545454545  L 21.52466367713 6.13636363636364  L 12.4843049327354 14.7272727272727  L 8.60986547085202 14.7272727272727  L 8.60986547085202 11.0454545454545  Z M 24 3.27272727272727  C 24 3.61363636363636  23.8744394618834 3.90340909090909  23.6233183856502 4.14204545454545  L 22.3856502242152 5.31818181818182  L 18.5112107623318 1.63636363636364  L 19.7488789237668 0.460227272727272  C 20 0.221590909090907  20.304932735426 0.102272727272728  20.6636771300448 0.102272727272728  C 21.0224215246637 0.102272727272728  21.3273542600897 0.221590909090907  21.5784753363229 0.460227272727272  L 23.6233183856502 2.40340909090909  C 23.8744394618834 2.64204545454545  24 2.93181818181818  24 3.27272727272727  Z " fill-rule="nonzero" fill="#2e8ff4" stroke="none" transform="matrix(1 0 0 1 1348 567 )" />
  </g>
</svg>