<?xml version="1.0" encoding="utf-8"?>
<svg version="1.1" xmlns:xlink="http://www.w3.org/1999/xlink" width="19px" height="18px" xmlns="http://www.w3.org/2000/svg">
  <g transform="matrix(1 0 0 1 -1265 -569 )">
    <path d="M 18.5487804878049 8.41304347826087  C 18.849593495935 8.73097826086956  19 9.10190217391304  19 9.5258152173913  C 19 9.94157608695652  18.849593495935 10.3084239130435  18.5487804878049 10.6263586956522  L 17.6341463414634 11.5434782608696  C 17.3252032520325 11.8532608695652  16.9552845528455 12.008152173913  16.5243902439024 12.008152173913  C 16.0853658536585 12.008152173913  15.719512195122 11.8532608695652  15.4268292682927 11.5434782608696  L 11.8414634146341 7.96059782608696  L 11.8414634146341 16.5692934782609  C 11.8414634146341 16.9932065217391  11.6890243902439 17.3376358695652  11.3841463414634 17.6025815217391  C 11.0792682926829 17.867527173913  10.7113821138211 18  10.280487804878 18  L 8.71951219512195 18  C 8.28861788617886 18  7.92073170731707 17.867527173913  7.61585365853659 17.6025815217391  C 7.3109756097561 17.3376358695652  7.15853658536585 16.9932065217391  7.15853658536585 16.5692934782609  L 7.15853658536585 7.96059782608696  L 3.57317073170732 11.5434782608696  C 3.28048780487805 11.8532608695652  2.91463414634146 12.008152173913  2.47560975609756 12.008152173913  C 2.03658536585366 12.008152173913  1.67073170731707 11.8532608695652  1.3780487804878 11.5434782608696  L 0.463414634146341 10.6263586956522  C 0.154471544715447 10.3165760869565  0 9.94972826086956  0 9.5258152173913  C 0 9.09375  0.154471544715447 8.72282608695652  0.463414634146341 8.41304347826087  L 8.40243902439024 0.452445652173913  C 8.6869918699187 0.150815217391304  9.05284552845529 0  9.5 0  C 9.9390243902439 0  10.3089430894309 0.150815217391304  10.609756097561 0.452445652173913  L 18.5487804878049 8.41304347826087  Z " fill-rule="nonzero" fill="#2e8ff4" stroke="none" transform="matrix(1 0 0 1 1265 569 )" />
  </g>
</svg>