<?xml version="1.0" encoding="utf-8"?>
<svg version="1.1" xmlns:xlink="http://www.w3.org/1999/xlink" width="364px" height="107px" xmlns="http://www.w3.org/2000/svg">
  <g transform="matrix(1 0 0 1 -268 -585 )">
    <path d="M 110.716666666667 21.734375  C 117.794444444444 24.3350694444444  121.333333333333 27.4930555555555  121.333333333333 31.2083333333333  C 121.333333333333 34.9236111111111  117.794444444444 38.0815972222222  110.716666666667 40.6822916666667  C 103.638888888889 43.2829861111111  95.0444444444445 44.5833333333333  84.9333333333333 44.5833333333333  C 74.8222222222222 44.5833333333333  66.2277777777778 43.2829861111111  59.15 40.6822916666667  C 52.0722222222222 38.0815972222222  48.5333333333333 34.9236111111111  48.5333333333333 31.2083333333333  C 48.5333333333333 27.4930555555555  52.0722222222222 24.3350694444444  59.15 21.734375  C 66.2277777777778 19.1336805555555  74.8222222222222 17.8333333333333  84.9333333333333 17.8333333333333  C 95.0444444444445 17.8333333333333  103.638888888889 19.1336805555555  110.716666666667 21.734375  Z M 236.6 28.9791666666667  L 315 57.9583333333333  L 315 89  L 49 89  L 49 75.7916666666667  L 109.2 53.5  L 139.533333333333 64.6458333333333  L 236.6 28.9791666666667  Z M 337.932291666667 9.57845052083333  C 336.731597222222 9.13726128472221  335.309722222222 8.91666666666667  333.666666666667 9  L 30.3333333333333 9  C 28.6902777777778 8.91666666666667  27.2684027777778 9.13726128472221  26.0677083333333 9.57845052083333  C 24.8670138888889 10.0196397569444  24.2666666666667 10.5421006944444  25 11.1458333333333  L 25 95.8541666666667  C 24.2666666666667 96.4578993055556  24.8670138888889 96.9803602430556  26.0677083333333 97.4215494791667  C 27.2684027777778 97.8627387152778  28.6902777777778 98.0833333333333  30.3333333333333 98  L 333.666666666667 98  C 335.309722222222 98.0833333333333  336.731597222222 97.8627387152778  337.932291666667 97.4215494791667  C 339.132986111111 96.9803602430556  339.733333333333 96.4578993055556  339 95.8541666666667  L 339 11.1458333333333  C 339.733333333333 10.5421006944444  339.132986111111 10.0196397569444  337.932291666667 9.57845052083333  Z M 355.089583333333 3.27408854166667  C 361.029861111111 5.45681423611111  364 8.08072916666667  364 11.1458333333333  L 364 95.8541666666667  C 364 98.9192708333333  361.029861111111 101.543185763889  355.089583333333 103.725911458333  C 349.149305555556 105.908637152778  342.008333333333 107  333.666666666667 107  L 30.3333333333333 107  C 21.9916666666667 107  14.8506944444444 105.908637152778  8.91041666666667 103.725911458333  C 2.97013888888889 101.543185763889  0 98.9192708333333  0 95.8541666666667  L 0 11.1458333333333  C 0 8.08072916666667  2.97013888888889 5.45681423611111  8.91041666666667 3.27408854166667  C 14.8506944444444 1.09136284722221  21.9916666666667 0  30.3333333333333 0  L 333.666666666667 0  C 342.008333333333 0  349.149305555556 1.09136284722221  355.089583333333 3.27408854166667  Z " fill-rule="nonzero" fill="#e4e4e4" stroke="none" transform="matrix(1 0 0 1 268 585 )" />
  </g>
</svg>