<?xml version="1.0" encoding="utf-8"?>
<svg version="1.1" xmlns:xlink="http://www.w3.org/1999/xlink" width="106px" height="98px" xmlns="http://www.w3.org/2000/svg">
  <g transform="matrix(1 0 0 1 700 366 )">
    <path d="M 32.2416666666667 19.90625  C 34.3027777777778 22.2881944444444  35.3333333333333 25.1805555555555  35.3333333333333 28.5833333333333  C 35.3333333333333 31.9861111111111  34.3027777777778 34.8784722222222  32.2416666666667 37.2604166666667  C 30.1805555555556 39.6423611111111  27.6777777777778 40.8333333333333  24.7333333333333 40.8333333333333  C 21.7888888888889 40.8333333333333  19.2861111111111 39.6423611111111  17.225 37.2604166666667  C 15.1638888888889 34.8784722222222  14.1333333333333 31.9861111111111  14.1333333333333 28.5833333333333  C 14.1333333333333 25.1805555555555  15.1638888888889 22.2881944444444  17.225 19.90625  C 19.2861111111111 17.5243055555555  21.7888888888889 16.3333333333333  24.7333333333333 16.3333333333333  C 27.6777777777778 16.3333333333333  30.1805555555556 17.5243055555555  32.2416666666667 19.90625  Z M 68.9 26.5416666666667  L 91 53.0833333333333  L 91 81  L 15 81  L 15 69.4166666666667  L 31.8 49  L 40.6333333333333 59.2083333333333  L 68.9 26.5416666666667  Z M 98.4088541666667 8.77278645833333  C 98.0592013888889 8.36870659722221  97.6451388888889 8.16666666666667  97.1666666666667 9  L 8.83333333333333 9  C 8.35486111111111 8.16666666666667  7.94079861111111 8.36870659722221  7.59114583333333 8.77278645833333  C 7.24149305555556 9.17686631944444  7.06666666666667 9.65538194444444  7 10.2083333333333  L 7 87.7916666666667  C 7.06666666666667 88.3446180555556  7.24149305555556 88.8231336805556  7.59114583333333 89.2272135416667  C 7.94079861111111 89.6312934027778  8.35486111111111 89.8333333333333  8.83333333333333 89  L 97.1666666666667 89  C 97.6451388888889 89.8333333333333  98.0592013888889 89.6312934027778  98.4088541666667 89.2272135416667  C 98.7585069444444 88.8231336805556  98.9333333333333 88.3446180555556  99 87.7916666666667  L 99 10.2083333333333  C 98.9333333333333 9.65538194444444  98.7585069444444 9.17686631944444  98.4088541666667 8.77278645833333  Z M 103.405208333333 2.99869791666667  C 105.135069444444 4.99782986111111  106 7.40104166666667  106 10.2083333333333  L 106 87.7916666666667  C 106 90.5989583333333  105.135069444444 93.0021701388889  103.405208333333 95.0013020833333  C 101.675347222222 97.0004340277778  99.5958333333333 98  97.1666666666667 98  L 8.83333333333333 98  C 6.40416666666667 98  4.32465277777778 97.0004340277778  2.59479166666667 95.0013020833333  C 0.864930555555556 93.0021701388889  0 90.5989583333333  0 87.7916666666667  L 0 10.2083333333333  C 0 7.40104166666667  0.864930555555556 4.99782986111111  2.59479166666667 2.99869791666667  C 4.32465277777778 0.999565972222213  6.40416666666667 0  8.83333333333333 0  L 97.1666666666667 0  C 99.5958333333333 0  101.675347222222 0.999565972222213  103.405208333333 2.99869791666667  Z " fill-rule="nonzero" fill="#e4e4e4" stroke="none" transform="matrix(1 0 0 1 -700 -366 )" />
  </g>
</svg>