<?xml version="1.0" encoding="utf-8"?>
<svg version="1.1" xmlns:xlink="http://www.w3.org/1999/xlink" width="370px" height="374px" xmlns="http://www.w3.org/2000/svg">
  <g transform="matrix(1 0 0 1 -3993 -194 )">
    <path d="M 3994 198  A 3 3 0 0 1 3997 195 L 4359 195  A 3 3 0 0 1 4362 198 L 4362 564  A 3 3 0 0 1 4359 567 L 3997 567  A 3 3 0 0 1 3994 564 L 3994 198  Z " fill-rule="nonzero" fill="#ff3399" stroke="none" fill-opacity="0.0980392156862745" />
    <path d="M 3993.5 198  A 3.5 3.5 0 0 1 3997 194.5 L 4359 194.5  A 3.5 3.5 0 0 1 4362.5 198 L 4362.5 564  A 3.5 3.5 0 0 1 4359 567.5 L 3997 567.5  A 3.5 3.5 0 0 1 3993.5 564 L 3993.5 198  Z " stroke-width="1" stroke-dasharray="9,4" stroke="#ff3399" fill="none" stroke-dashoffset="0.5" />
  </g>
</svg>