<?xml version="1.0" encoding="utf-8"?>
<svg version="1.1" xmlns:xlink="http://www.w3.org/1999/xlink" width="15px" height="10px" preserveAspectRatio="xMinYMid meet" viewBox="486 627  15 8" xmlns="http://www.w3.org/2000/svg">
  <path d="M 487 631.5  L 491 631.5  A 5 5 0 0 0 496.5 626.5 L 496.5 616  A 5 5 0 0 1 501.5 611.5 L 613 611.5  A 5 5 0 0 1 618.5 616.5 L 618.5 621  " stroke-width="1" stroke="#ff3399" fill="none" />
  <path d="M 489 628.5  A 3 3 0 0 0 486 631.5 A 3 3 0 0 0 489 634.5 A 3 3 0 0 0 492 631.5 A 3 3 0 0 0 489 628.5 Z " fill-rule="nonzero" fill="#ff3399" stroke="none" />
</svg>