<?xml version="1.0" encoding="utf-8"?>
<svg version="1.1" xmlns:xlink="http://www.w3.org/1999/xlink" width="23px" height="26px" xmlns="http://www.w3.org/2000/svg">
  <g transform="matrix(1 0 0 1 -444 -140 )">
    <path d="M 17.3098958333333 0.986607142857144  L 21.9817708333333 5.51339285714286  C 22.2612847222222 5.78422619047619  22.5008680555556 6.15178571428572  22.7005208333333 6.61607142857143  C 22.9001736111111 7.08035714285714  23 7.50595238095238  23 7.89285714285714  L 23 24.6071428571429  C 23 24.9940476190476  22.8602430555556 25.3229166666667  22.5807291666667 25.59375  C 22.3012152777778 25.8645833333333  21.9618055555556 26  21.5625 26  L 1.4375 26  C 1.03819444444444 26  0.698784722222222 25.8645833333333  0.419270833333333 25.59375  C 0.139756944444444 25.3229166666667  0 24.9940476190476  0 24.6071428571429  L 0 1.39285714285714  C 0 1.00595238095238  0.139756944444444 0.677083333333332  0.419270833333333 0.40625  C 0.698784722222222 0.135416666666668  1.03819444444444 0  1.4375 0  L 14.8541666666667 0  C 15.2534722222222 0  15.6927083333333 0.0967261904761916  16.171875 0.290178571428572  C 16.6510416666667 0.483630952380952  17.0303819444444 0.715773809523808  17.3098958333333 0.986607142857144  Z M 15.947265625 2.29241071428572  C 15.8274739583333 2.17633928571428  15.6228298611111 2.06994047619047  15.3333333333333 1.97321428571428  L 15.3333333333333 7.42857142857143  L 20.9635416666667 7.42857142857143  C 20.8637152777778 7.14806547619047  20.75390625 6.94977678571428  20.6341145833333 6.83370535714286  L 15.947265625 2.29241071428572  Z M 2 24  L 21 24  L 21 9.28571428571428  L 14.8541666666667 9.28571428571428  C 14.4548611111111 9.28571428571428  14.1154513888889 9.15029761904762  13.8359375 8.87946428571428  C 13.5564236111111 8.60863095238095  13.4166666666667 8.2797619047619  13.4166666666667 7.89285714285714  L 13.4166666666667 2  L 2 2  L 2 24  Z M 5.75 12.5357142857143  L 5.75 11.6071428571429  C 5.75 11.4717261904762  5.794921875 11.3604910714286  5.884765625 11.2734375  C 5.974609375 11.1863839285714  6.08940972222222 11.1428571428571  6.22916666666667 11.1428571428571  L 16.7708333333333 11.1428571428571  C 16.9105902777778 11.1428571428571  17.025390625 11.1863839285714  17.115234375 11.2734375  C 17.205078125 11.3604910714286  17.25 11.4717261904762  17.25 11.6071428571429  L 17.25 12.5357142857143  C 17.25 12.671130952381  17.205078125 12.7823660714286  17.115234375 12.8694196428571  C 17.025390625 12.9564732142857  16.9105902777778 13  16.7708333333333 13  L 6.22916666666667 13  C 6.08940972222222 13  5.974609375 12.9564732142857  5.884765625 12.8694196428571  C 5.794921875 12.7823660714286  5.75 12.671130952381  5.75 12.5357142857143  Z M 6.22916666666667 14.8571428571429  L 16.7708333333333 14.8571428571429  C 16.9105902777778 14.8571428571429  17.025390625 14.9006696428571  17.115234375 14.9877232142857  C 17.205078125 15.0747767857143  17.25 15.1860119047619  17.25 15.3214285714286  L 17.25 16.25  C 17.25 16.3854166666667  17.205078125 16.4966517857143  17.115234375 16.5837053571429  C 17.025390625 16.6707589285714  16.9105902777778 16.7142857142857  16.7708333333333 16.7142857142857  L 6.22916666666667 16.7142857142857  C 6.08940972222222 16.7142857142857  5.974609375 16.6707589285714  5.884765625 16.5837053571429  C 5.794921875 16.4966517857143  5.75 16.3854166666667  5.75 16.25  L 5.75 15.3214285714286  C 5.75 15.1860119047619  5.794921875 15.0747767857143  5.884765625 14.9877232142857  C 5.974609375 14.9006696428571  6.08940972222222 14.8571428571429  6.22916666666667 14.8571428571429  Z M 6.22916666666667 18.5714285714286  L 16.7708333333333 18.5714285714286  C 16.9105902777778 18.5714285714286  17.025390625 18.6149553571429  17.115234375 18.7020089285714  C 17.205078125 18.7890625  17.25 18.9002976190476  17.25 19.0357142857143  L 17.25 19.9642857142857  C 17.25 20.0997023809524  17.205078125 20.2109375  17.115234375 20.2979910714286  C 17.025390625 20.3850446428571  16.9105902777778 20.4285714285714  16.7708333333333 20  L 6.22916666666667 20  C 6.08940972222222 20.4285714285714  5.974609375 20.3850446428571  5.884765625 20.2979910714286  C 5.794921875 20.2109375  5.75 20.0997023809524  5.75 19.9642857142857  L 5.75 19.0357142857143  C 5.75 18.9002976190476  5.794921875 18.7890625  5.884765625 18.7020089285714  C 5.974609375 18.6149553571429  6.08940972222222 18.5714285714286  6.22916666666667 18.5714285714286  Z " fill-rule="nonzero" fill="#000000" stroke="none" transform="matrix(1 0 0 1 444 140 )" />
  </g>
</svg>