<?xml version="1.0" encoding="utf-8"?>
<svg version="1.1" xmlns:xlink="http://www.w3.org/1999/xlink" width="23px" height="28px" xmlns="http://www.w3.org/2000/svg">
  <g transform="matrix(1 0 0 1 -393 -138 )">
    <path d="M 18.1346153846154 14.703125  C 18.1346153846154 14.8385416666667  18.0931490384615 14.9583333333333  18.0102163461538 15.0625  L 10.9332932692308 23.0625  C 10.8411458333333 23.15625  10.7351762820513 23.203125  10.6153846153846 23.203125  C 10.4955929487179 23.203125  10.3896233974359 23.15625  10.2974759615385 23.0625  L 6.31670673076923 18.5625  C 6.23377403846154 18.4583333333333  6.19230769230769 18.3385416666667  6.19230769230769 18.203125  C 6.19230769230769 18.0677083333333  6.23377403846154 17.953125  6.31670673076923 17.859375  L 6.95252403846154 17.140625  C 7.03545673076923 17.046875  7.13681891025641 17  7.25661057692308 17  C 7.37640224358974 17  7.48237179487179 17.046875  7.57451923076923 17.140625  L 10.6153846153846 20.578125  L 16.7524038461538 13.640625  C 16.8445512820513 13.546875  16.9505208333333 13.5  17.0703125 13.5  C 17.1901041666667 13.5  17.2914663461538 13.546875  17.3743990384615 13.640625  L 18.0102163461538 14.359375  C 18.0931490384615 14.453125  18.1346153846154 14.5677083333333  18.1346153846154 14.703125  Z M 2 10  L 2 26  L 21 26  L 21 10  L 2 10  Z M 6.95252403846154 7.359375  C 7.03545673076923 7.265625  7.07692307692308 7.14583333333333  7.07692307692308 7  L 7.07692307692308 2.5  C 7.07692307692308 2.35416666666666  7.03545673076923 2.234375  6.95252403846154 2.140625  C 6.86959134615385 2.046875  6.76362179487179 2  6.63461538461538 2  L 5.75 2  C 5.62099358974359 2  5.51502403846154 2.046875  5.43209134615385 2.140625  C 5.34915865384615 2.234375  5.30769230769231 2.35416666666666  5.30769230769231 2.5  L 5.30769230769231 7  C 5.30769230769231 7.14583333333333  5.34915865384615 7.265625  5.43209134615385 7.359375  C 5.51502403846154 7.453125  5.62099358974359 7.5  5.75 7.5  L 6.63461538461538 7.5  C 6.76362179487179 7.5  6.86959134615385 7.453125  6.95252403846154 7.359375  Z M 17.5679086538462 7.359375  C 17.6508413461538 7.265625  17.6923076923077 7.14583333333333  17.6923076923077 7  L 17.6923076923077 2.5  C 17.6923076923077 2.35416666666666  17.6508413461538 2.234375  17.5679086538462 2.140625  C 17.4849759615385 2.046875  17.3790064102564 2  17.25 2  L 16.3653846153846 2  C 16.2363782051282 2  16.1304086538462 2.046875  16.0474759615385 2.140625  C 15.9645432692308 2.234375  15.9230769230769 2.35416666666666  15.9230769230769 2.5  L 15.9230769230769 7  C 15.9230769230769 7.14583333333333  15.9645432692308 7.265625  16.0474759615385 7.359375  C 16.1304086538462 7.453125  16.2363782051282 7.5  16.3653846153846 7.5  L 17.25 7.5  C 17.3790064102564 7.5  17.4849759615385 7.453125  17.5679086538462 7.359375  Z M 22.4747596153846 4.59375  C 22.8249198717949 4.98958333333333  23 5.45833333333333  23 6  L 23 26  C 23 26.5416666666667  22.8249198717949 27.0104166666667  22.4747596153846 27.40625  C 22.1245993589744 27.8020833333333  21.7099358974359 28  21.2307692307692 28  L 1.76923076923077 28  C 1.2900641025641 28  0.875400641025641 27.8020833333333  0.525240384615385 27.40625  C 0.175080128205128 27.0104166666667  0 26.5416666666667  0 26  L 0 6  C 0 5.45833333333333  0.175080128205128 4.98958333333333  0.525240384615385 4.59375  C 0.875400641025641 4.19791666666666  1.2900641025641 4  1.76923076923077 4  L 3.53846153846154 4  L 3.53846153846154 2.5  C 3.53846153846154 1.8125  3.75500801282051 1.22395833333333  4.18810096153846 0.734375000000001  C 4.62119391025641 0.244791666666667  5.14182692307692 0  5.75 0  L 6.63461538461538 0  C 7.24278846153846 0  7.76342147435898 0.244791666666667  8.19651442307692 0.734375000000001  C 8.62960737179487 1.22395833333333  8.84615384615385 1.8125  8.84615384615385 2.5  L 8.84615384615385 4  L 14.1538461538462 4  L 14.1538461538462 2.5  C 14.1538461538462 1.8125  14.3703926282051 1.22395833333333  14.8034855769231 0.734375000000001  C 15.236578525641 0.244791666666667  15.7572115384615 0  16.3653846153846 0  L 17.25 0  C 17.8581730769231 0  18.3788060897436 0.244791666666667  18.8118990384615 0.734375000000001  C 19.2449919871795 1.22395833333333  19.4615384615385 1.8125  19.4615384615385 2.5  L 19.4615384615385 4  L 21.2307692307692 4  C 21.7099358974359 4  22.1245993589744 4.19791666666666  22.4747596153846 4.59375  Z " fill-rule="nonzero" fill="#282120" stroke="none" transform="matrix(1 0 0 1 393 138 )" />
  </g>
</svg>