<?xml version="1.0" encoding="utf-8"?>
<svg version="1.1" xmlns:xlink="http://www.w3.org/1999/xlink" width="16px" height="17px" xmlns="http://www.w3.org/2000/svg">
  <g transform="matrix(1 0 0 1 -2606 745 )">
    <path d="M 8 16.2410714285714  C 8.1025641025641 16.2410714285714  8.15384615384616 16.1904761904762  8.15384615384615 16.0892857142857  C 8.15384615384616 15.9880952380952  8.1025641025641 15.9375  8 15.9375  C 7.62179487179487 15.9375  7.29647435897436 15.8031063988095  7.02403846153846 15.5343191964286  C 6.75160256410256 15.2655319940476  6.61538461538461 14.944568452381  6.61538461538461 14.5714285714286  C 6.61538461538461 14.4702380952381  6.56410256410256 14.4196428571429  6.46153846153846 14.4196428571429  C 6.35897435897436 14.4196428571429  6.30769230769231 14.4702380952381  6.30769230769231 14.5714285714286  C 6.30769230769231 15.0331101190476  6.47275641025641 15.4268043154762  6.80288461538461 15.7525111607143  C 7.13301282051282 16.0782180059524  7.53205128205128 16.2410714285714  8 16.2410714285714  Z M 15.125 12.5223214285714  C 15.3878205128205 12.813244047619  15.6794871794872 13.0915178571429  16 13.3571428571429  C 16 13.6860119047619  15.8782051282051 13.9706101190476  15.6346153846154 14.2109375  C 15.3910256410256 14.4512648809524  15.1025641025641 14.5714285714286  14.7692307692308 14.5714285714286  L 10.4615384615385 14.5714285714286  C 10.4615384615385 15.2418154761905  10.2211538461538 15.8141741071429  9.74038461538461 16.2885044642857  C 9.25961538461539 16.7628348214286  8.67948717948718 17  8 17  C 7.32051282051282 17  6.74038461538461 16.7628348214286  6.25961538461539 16.2885044642857  C 5.77884615384615 15.8141741071429  5.53846153846154 15.2418154761905  5.53846153846154 14.5714285714286  L 1.23076923076923 14.5714285714286  C 0.897435897435898 14.5714285714286  0.608974358974359 14.4512648809524  0.365384615384615 14.2109375  C 0.121794871794872 13.9706101190476  0 13.6860119047619  0 13.3571428571429  C 0.320512820512821 13.0915178571429  0.612179487179487 12.813244047619  0.875 12.5223214285714  C 1.13782051282051 12.2313988095238  1.41025641025641 11.853515625  1.69230769230769 11.388671875  C 1.97435897435897 10.923828125  2.21314102564103 10.422619047619  2.40865384615385 9.88504464285714  C 2.60416666666667 9.34747023809524  2.76442307692308 8.69605654761905  2.88942307692308 7.93080357142857  C 3.01442307692308 7.16555059523809  3.07692307692308 6.34337797619047  3.07692307692308 5.46428571428571  C 3.07692307692308 4.50297619047619  3.45192307692308 3.60965401785714  4.20192307692308 2.78431919642857  C 4.95192307692308 1.958984375  5.93589743589744 1.45777529761905  7.15384615384615 1.28069196428571  C 7.1025641025641 1.16052827380952  7.07692307692308 1.03720238095238  7.07692307692308 0.910714285714286  C 7.07692307692308 0.657738095238095  7.16666666666667 0.442708333333333  7.34615384615385 0.265625  C 7.52564102564103 0.0885416666666673  7.74358974358974 0  8 0  C 8.25641025641026 0  8.47435897435898 0.0885416666666673  8.65384615384615 0.265625  C 8.83333333333333 0.442708333333333  8.92307692307692 0.657738095238095  8.92307692307692 0.910714285714286  C 8.92307692307692 1.03720238095238  8.8974358974359 1.16052827380952  8.84615384615385 1.28069196428571  C 10.0641025641026 1.45777529761905  11.0480769230769 1.958984375  11.7980769230769 2.78431919642857  C 12.5480769230769 3.60965401785714  12.9230769230769 4.50297619047619  12.9230769230769 5.46428571428571  C 12.9230769230769 6.34337797619047  12.9855769230769 7.16555059523809  13.1105769230769 7.93080357142857  C 13.2355769230769 8.69605654761905  13.3958333333333 9.34747023809524  13.5913461538462 9.88504464285714  C 13.786858974359 10.422619047619  14.025641025641 10.923828125  14.3076923076923 11.388671875  C 14.5897435897436 11.853515625  14.8621794871795 12.2313988095238  15.125 12.5223214285714  Z " fill-rule="nonzero" fill="#ff8751" stroke="none" transform="matrix(1 0 0 1 2606 -745 )" />
  </g>
</svg>