<?xml version="1.0" encoding="utf-8"?>
<svg version="1.1" xmlns:xlink="http://www.w3.org/1999/xlink" width="397px" height="84px" xmlns="http://www.w3.org/2000/svg">
  <g transform="matrix(1 0 0 1 -92 -216 )">
    <path d="M 93 220  A 3 3 0 0 1 96 217 L 485 217  A 3 3 0 0 1 488 220 L 488 296  A 3 3 0 0 1 485 299 L 96 299  A 3 3 0 0 1 93 296 L 93 220  Z " fill-rule="nonzero" fill="#ff3399" stroke="none" fill-opacity="0.0980392156862745" />
    <path d="M 92.5 220  A 3.5 3.5 0 0 1 96 216.5 L 485 216.5  A 3.5 3.5 0 0 1 488.5 220 L 488.5 296  A 3.5 3.5 0 0 1 485 299.5 L 96 299.5  A 3.5 3.5 0 0 1 92.5 296 L 92.5 220  Z " stroke-width="1" stroke-dasharray="9,4" stroke="#ff3399" fill="none" stroke-dashoffset="0.5" />
  </g>
</svg>