<?xml version="1.0" encoding="utf-8"?>
<svg version="1.1" xmlns:xlink="http://www.w3.org/1999/xlink" width="829px" height="10px" preserveAspectRatio="xMinYMid meet" viewBox="2040 945  829 8" xmlns="http://www.w3.org/2000/svg">
  <path d="M 2046.54114892279 312.244834876219  A 2 2 0 0 0 2045.5 314 L 2045.5 316  A 3 3 0 0 1 2048.5 319 A 3 3 0 0 1 2045.5 322 L 2045.5 944  A 5 5 0 0 0 2050.5 949.5 L 2859 949.5  A 5 5 0 0 0 2864.5 944.5 L 2864.5 924  " stroke-width="1" stroke="#ff3399" fill="none" />
  <path d="M 2045.50501002679 310.858525596665  A 3 3 0 0 0 2042.50501002679 313.858525596665 A 3 3 0 0 0 2045.50501002679 316.858525596665 A 3 3 0 0 0 2048.50501002679 313.858525596665 A 3 3 0 0 0 2045.50501002679 310.858525596665 Z " fill-rule="nonzero" fill="#ff3399" stroke="none" />
</svg>