<?xml version="1.0" encoding="utf-8"?>
<svg version="1.1" xmlns:xlink="http://www.w3.org/1999/xlink" width="391px" height="170px" xmlns="http://www.w3.org/2000/svg">
  <g transform="matrix(1 0 0 1 -95 -345 )">
    <path d="M 96 349  A 3 3 0 0 1 99 346 L 482 346  A 3 3 0 0 1 485 349 L 485 511  A 3 3 0 0 1 482 514 L 99 514  A 3 3 0 0 1 96 511 L 96 349  Z " fill-rule="nonzero" fill="#ff3399" stroke="none" fill-opacity="0.0980392156862745" />
    <path d="M 95.5 349  A 3.5 3.5 0 0 1 99 345.5 L 482 345.5  A 3.5 3.5 0 0 1 485.5 349 L 485.5 511  A 3.5 3.5 0 0 1 482 514.5 L 99 514.5  A 3.5 3.5 0 0 1 95.5 511 L 95.5 349  Z " stroke-width="1" stroke-dasharray="9,4" stroke="#ff3399" fill="none" stroke-dashoffset="0.5" />
  </g>
</svg>