<?xml version="1.0" encoding="utf-8"?>
<svg version="1.1" xmlns:xlink="http://www.w3.org/1999/xlink" width="300px" height="56px" xmlns="http://www.w3.org/2000/svg">
  <g transform="matrix(1 0 0 1 -5008 -258 )">
    <path d="M 5009 262  A 3 3 0 0 1 5012 259 L 5304 259  A 3 3 0 0 1 5307 262 L 5307 310  A 3 3 0 0 1 5304 313 L 5012 313  A 3 3 0 0 1 5009 310 L 5009 262  Z " fill-rule="nonzero" fill="#ffffff" stroke="none" />
    <path d="M 5008.5 262  A 3.5 3.5 0 0 1 5012 258.5 L 5304 258.5  A 3.5 3.5 0 0 1 5307.5 262 L 5307.5 310  A 3.5 3.5 0 0 1 5304 313.5 L 5012 313.5  A 3.5 3.5 0 0 1 5008.5 310 L 5008.5 262  Z " stroke-width="1" stroke="#797979" fill="none" stroke-opacity="0.588235294117647" />
  </g>
</svg>