<?xml version="1.0" encoding="utf-8"?>
<svg version="1.1" xmlns:xlink="http://www.w3.org/1999/xlink" width="10px" height="31px" preserveAspectRatio="xMidYMin meet" viewBox="2860 924  8 31" xmlns="http://www.w3.org/2000/svg">
  <path d="M 2046 314.5  L 2138 314.5  A 2 2 0 0 1 2140.5 316 A 3 3 0 0 1 2143.5 319 A 3 3 0 0 1 2140.5 322 L 2140.5 945  A 5 5 0 0 0 2145.5 950.5 L 2859 950.5  A 5 5 0 0 0 2864.5 945.5 L 2864.5 924  " stroke-width="1" stroke="#ff3399" fill="none" />
  <path d="M 2048 311.5  A 3 3 0 0 0 2045 314.5 A 3 3 0 0 0 2048 317.5 A 3 3 0 0 0 2051 314.5 A 3 3 0 0 0 2048 311.5 Z " fill-rule="nonzero" fill="#ff3399" stroke="none" />
</svg>