<?xml version="1.0" encoding="utf-8"?>
<svg version="1.1" xmlns:xlink="http://www.w3.org/1999/xlink" width="10px" height="1319px" preserveAspectRatio="xMidYMin meet" viewBox="56 61  8 1319" xmlns="http://www.w3.org/2000/svg">
  <path d="M 405.5 137  L 405.5 71  A 5 5 0 0 0 400.5 66.5 L 65 66.5  A 5 5 0 0 0 60.5 71.5 L 60.5 1370  A 5 5 0 0 0 65.5 1375.5 L 91 1375.5  " stroke-width="1" stroke="#ff3399" fill="none" />
  <path d="M 405.5 132  A 3 3 0 0 0 402.5 135 A 3 3 0 0 0 405.5 138 A 3 3 0 0 0 408.5 135 A 3 3 0 0 0 405.5 132 Z " fill-rule="nonzero" fill="#ff3399" stroke="none" />
</svg>