<?xml version="1.0" encoding="utf-8"?>
<svg version="1.1" xmlns:xlink="http://www.w3.org/1999/xlink" width="397px" height="80px" xmlns="http://www.w3.org/2000/svg">
  <g transform="matrix(1 0 0 1 -92 -129 )">
    <path d="M 93 133  A 3 3 0 0 1 96 130 L 485 130  A 3 3 0 0 1 488 133 L 488 205  A 3 3 0 0 1 485 208 L 96 208  A 3 3 0 0 1 93 205 L 93 133  Z " fill-rule="nonzero" fill="#ff3399" stroke="none" fill-opacity="0.0980392156862745" />
    <path d="M 92.5 133  A 3.5 3.5 0 0 1 96 129.5 L 485 129.5  A 3.5 3.5 0 0 1 488.5 133 L 488.5 205  A 3.5 3.5 0 0 1 485 208.5 L 96 208.5  A 3.5 3.5 0 0 1 92.5 205 L 92.5 133  Z " stroke-width="1" stroke-dasharray="9,4" stroke="#ff3399" fill="none" stroke-dashoffset="0.5" />
  </g>
</svg>