<?xml version="1.0" encoding="utf-8"?>
<svg version="1.1" xmlns:xlink="http://www.w3.org/1999/xlink" width="370px" height="374px" xmlns="http://www.w3.org/2000/svg">
  <g transform="matrix(1 0 0 1 -4431 -373 )">
    <path d="M 4432 377  A 3 3 0 0 1 4435 374 L 4797 374  A 3 3 0 0 1 4800 377 L 4800 743  A 3 3 0 0 1 4797 746 L 4435 746  A 3 3 0 0 1 4432 743 L 4432 377  Z " fill-rule="nonzero" fill="#ff3399" stroke="none" fill-opacity="0.0980392156862745" />
    <path d="M 4431.5 377  A 3.5 3.5 0 0 1 4435 373.5 L 4797 373.5  A 3.5 3.5 0 0 1 4800.5 377 L 4800.5 743  A 3.5 3.5 0 0 1 4797 746.5 L 4435 746.5  A 3.5 3.5 0 0 1 4431.5 743 L 4431.5 377  Z " stroke-width="1" stroke-dasharray="9,4" stroke="#ff3399" fill="none" stroke-dashoffset="0.5" />
  </g>
</svg>