<?xml version="1.0" encoding="utf-8"?>
<svg version="1.1" xmlns:xlink="http://www.w3.org/1999/xlink" width="300px" height="56px" xmlns="http://www.w3.org/2000/svg">
  <g transform="matrix(1 0 0 1 -5548 -252 )">
    <path d="M 5549 256  A 3 3 0 0 1 5552 253 L 5844 253  A 3 3 0 0 1 5847 256 L 5847 304  A 3 3 0 0 1 5844 307 L 5552 307  A 3 3 0 0 1 5549 304 L 5549 256  Z " fill-rule="nonzero" fill="#ffffff" stroke="none" />
    <path d="M 5548.5 256  A 3.5 3.5 0 0 1 5552 252.5 L 5844 252.5  A 3.5 3.5 0 0 1 5847.5 256 L 5847.5 304  A 3.5 3.5 0 0 1 5844 307.5 L 5552 307.5  A 3.5 3.5 0 0 1 5548.5 304 L 5548.5 256  Z " stroke-width="1" stroke="#797979" fill="none" stroke-opacity="0.588235294117647" />
  </g>
</svg>