<?xml version="1.0" encoding="utf-8"?>
<svg version="1.1" xmlns:xlink="http://www.w3.org/1999/xlink" width="14px" height="25px" xmlns="http://www.w3.org/2000/svg">
  <g transform="matrix(1 0 0 1 -240 -4070 )">
    <path d="M 13.7594501718213 1.50300601202405  C 13.9198167239404 1.67000668002672  14 1.86205744822979  14 2.07915831663327  C 14 2.29625918503674  13.9198167239404 2.48830995323981  13.7594501718213 2.65531062124249  L 4.30584192439863 12.5  L 13.7594501718213 22.3446893787575  C 13.9198167239404 22.5116900467602  14 22.7037408149633  14 22.9208416833667  C 14 23.1379425517702  13.9198167239404 23.3299933199733  13.7594501718213 23.496993987976  L 12.5567010309278 24.749498997996  C 12.3963344788087 24.9164996659987  12.2119129438717 25  12.0034364261168 25  C 11.794959908362 25  11.610538373425 24.9164996659987  11.4501718213058 24.749498997996  L 0.240549828178694 13.0761523046092  C 0.0801832760595648 12.9091516366065  0 12.7171008684035  0 12.5  C 0 12.2828991315965  0.0801832760595648 12.0908483633935  0.240549828178694 11.9238476953908  L 11.4501718213058 0.250501002004008  C 11.610538373425 0.0835003340013352  11.794959908362 0  12.0034364261168 0  C 12.2119129438717 0  12.3963344788087 0.0835003340013352  12.5567010309278 0.250501002004008  L 13.7594501718213 1.50300601202405  Z " fill-rule="nonzero" fill="#000000" stroke="none" transform="matrix(1 0 0 1 240 4070 )" />
  </g>
</svg>