<?xml version="1.0" encoding="utf-8"?>
<svg version="1.1" xmlns:xlink="http://www.w3.org/1999/xlink" width="16px" height="27px" xmlns="http://www.w3.org/2000/svg">
  <g transform="matrix(1 0 0 1 -391 -4068 )">
    <path d="M 15.7250859106529 12.877755511022  C 15.9083619702176 13.0581162324649  16 13.2655310621242  16 13.5  C 16 13.7344689378758  15.9083619702176 13.9418837675351  15.7250859106529 14.122244488978  L 2.91408934707904 26.7294589178357  C 2.73081328751432 26.9098196392786  2.52004581901489 27  2.28178694158076 27  C 2.04352806414662 27  1.83276059564719 26.9098196392786  1.64948453608247 26.7294589178357  L 0.274914089347079 25.376753507014  C 0.0916380297823597 25.1963927855711  0 24.9889779559118  0 24.7545090180361  C 0 24.5200400801603  0.0916380297823597 24.312625250501  0.274914089347079 24.1322645290581  L 11.0790378006873 13.5  L 0.274914089347079 2.86773547094188  C 0.0916380297823597 2.687374749499  0 2.47995991983968  0 2.24549098196393  C 0 2.01102204408817  0.0916380297823597 1.80360721442885  0.274914089347079 1.62324649298597  L 1.64948453608247 0.270541082164329  C 1.83276059564719 0.090180360721442  2.04352806414662 0  2.28178694158076 0  C 2.52004581901489 0  2.73081328751432 0.090180360721442  2.91408934707904 0.270541082164329  L 15.7250859106529 12.877755511022  Z " fill-rule="nonzero" fill="#a29c9c" stroke="none" transform="matrix(1 0 0 1 391 4068 )" />
  </g>
</svg>