<?xml version="1.0" encoding="utf-8"?>
<svg version="1.1" xmlns:xlink="http://www.w3.org/1999/xlink" width="10px" height="17px" preserveAspectRatio="xMidYMin meet" viewBox="366 3744  8 17" xmlns="http://www.w3.org/2000/svg">
  <path d="M 361 3749.5  L 366.5 3749.5  A 3.5 3.5 0 0 1 370.5 3753 A 3.5 3.5 0 0 0 374 3756.5 L 645 3756.5  A 5 5 0 0 1 650.5 3761.5 A 5 5 0 0 0 655.5 3766.5 L 670 3766.5  " stroke-width="1" stroke="#ff3399" fill="none" />
  <path d="M 363 3746.5  A 3 3 0 0 0 360 3749.5 A 3 3 0 0 0 363 3752.5 A 3 3 0 0 0 366 3749.5 A 3 3 0 0 0 363 3746.5 Z " fill-rule="nonzero" fill="#ff3399" stroke="none" />
</svg>