<?xml version="1.0" encoding="utf-8"?>
<svg version="1.1" xmlns:xlink="http://www.w3.org/1999/xlink" width="17px" height="17px" xmlns="http://www.w3.org/2000/svg">
  <g transform="matrix(1 0 0 1 -927 -1576 )">
    <path d="M 11.2503255208333 1.98111979166667  C 10.3759765625 1.60481770833333  9.45920138888889 1.41666666666667  8.5 1.41666666666667  C 7.54079861111111 1.41666666666667  6.6240234375 1.60481770833333  5.74967447916667 1.98111979166667  C 4.87532552083333 2.357421875  4.12272135416667 2.86100260416667  3.49186197916667 3.49186197916667  C 2.86100260416667 4.12272135416667  2.357421875 4.87532552083333  1.98111979166667 5.74967447916667  C 1.60481770833333 6.6240234375  1.41666666666667 7.54079861111111  1.41666666666667 8.5  C 1.41666666666667 9.45920138888889  1.60481770833333 10.3759765625  1.98111979166667 11.2503255208333  C 2.357421875 12.1246744791667  2.86100260416667 12.8772786458333  3.49186197916667 13.5081380208333  C 4.12272135416667 14.1389973958333  4.87532552083333 14.642578125  5.74967447916667 15.0188802083333  C 6.6240234375 15.3951822916667  7.54079861111111 15.5833333333333  8.5 15.5833333333333  C 9.45920138888889 15.5833333333333  10.3759765625 15.3951822916667  11.2503255208333 15.0188802083333  C 12.1246744791667 14.642578125  12.8772786458333 14.1389973958333  13.5081380208333 13.5081380208333  C 14.1389973958333 12.8772786458333  14.642578125 12.1246744791667  15.0188802083333 11.2503255208333  C 15.3951822916667 10.3759765625  15.5833333333333 9.45920138888889  15.5833333333333 8.5  C 15.5833333333333 7.54079861111111  15.3951822916667 6.6240234375  15.0188802083333 5.74967447916667  C 14.642578125 4.87532552083333  14.1389973958333 4.12272135416667  13.5081380208333 3.49186197916667  C 12.8772786458333 2.86100260416667  12.1246744791667 2.357421875  11.2503255208333 1.98111979166667  Z M 15.8600260416667 4.2333984375  C 16.6200086805556 5.53569878472222  17 6.95789930555555  17 8.5  C 17 10.0421006944444  16.6200086805556 11.4643012152778  15.8600260416667 12.7666015625  C 15.1000434027778 14.0689019097222  14.0689019097222 15.1000434027778  12.7666015625 15.8600260416667  C 11.4643012152778 16.6200086805556  10.0421006944444 17  8.5 17  C 6.95789930555556 17  5.53569878472222 16.6200086805556  4.2333984375 15.8600260416667  C 2.93109809027778 15.1000434027778  1.89995659722222 14.0689019097222  1.13997395833333 12.7666015625  C 0.379991319444444 11.4643012152778  0 10.0421006944444  0 8.5  C 0 6.95789930555555  0.379991319444444 5.53569878472222  1.13997395833333 4.2333984375  C 1.89995659722222 2.93109809027778  2.93109809027778 1.89995659722222  4.2333984375 1.13997395833333  C 5.53569878472222 0.379991319444443  6.95789930555556 0  8.5 0  C 10.0421006944444 0  11.4643012152778 0.379991319444443  12.7666015625 1.13997395833333  C 14.0689019097222 1.89995659722222  15.1000434027778 2.93109809027778  15.8600260416667 4.2333984375  Z " fill-rule="nonzero" fill="#000000" stroke="none" transform="matrix(1 0 0 1 927 1576 )" />
  </g>
</svg>