<?xml version="1.0" encoding="utf-8"?>
<svg version="1.1" xmlns:xlink="http://www.w3.org/1999/xlink" width="300px" height="170px" xmlns="http://www.w3.org/2000/svg">
  <g transform="matrix(1 0 0 1 -628 -2247 )">
    <path d="M 628 2247  L 928 2247  L 928 2417  L 628 2417  L 628 2247  " fill-rule="nonzero" fill="#cccccc" stroke="none" />
    <path d="M 640 2259  L 916 2259  L 916 2405  L 640 2405  L 640 2259  " fill-rule="nonzero" fill="#ffffff" stroke="none" />
    <path d="M 796.75 2298  C 789.61 2298  784 2292.39  784 2285.25  C 784 2278.11  789.61 2272.5  796.75 2272.5  C 803.89 2272.5  809.5 2278.11  809.5 2285.25  C 809.5 2292.39  803.89 2298  796.75 2298  " fill-rule="nonzero" fill="#cccccc" stroke="none" />
    <path d="M 645 2401  L 645 2325.65  L 711.75 2291.4  L 805.2 2354.42  L 858.6 2311.95  L 912 2354.42  L 912 2401  L 645 2401  " fill-rule="nonzero" fill="#169bd5" stroke="none" />
  </g>
</svg>