<?xml version="1.0" encoding="utf-8"?>
<svg version="1.1" xmlns:xlink="http://www.w3.org/1999/xlink" width="28px" height="34px" xmlns="http://www.w3.org/2000/svg">
  <defs>
    <filter x="106px" y="105px" width="28px" height="34px" filterUnits="userSpaceOnUse" id="filter765">
      <feOffset dx="1" dy="1" in="SourceAlpha" result="shadowOffsetInner" />
      <feGaussianBlur stdDeviation="2.5" in="shadowOffsetInner" result="shadowGaussian" />
      <feComposite in2="shadowGaussian" operator="atop" in="SourceAlpha" result="shadowComposite" />
      <feColorMatrix type="matrix" values="0 0 0 0 0  0 0 0 0 0  0 0 0 0 0  0 0 0 0.698039215686274 0  " in="shadowComposite" />
    </filter>
    <g id="widget766">
      <path d="M 119 132.036928468354  C 115.6 126.40734059591  110.5 123.029587872444  110.5 117.4  C 110.5 114.465714285714  112.2 109.5  119 109.5  C 125.8 109.5  127.5 114.465714285714  127.5 117.4  C 127.5 123.029587872444  122.4 126.40734059591  119 132.036928468354  Z " fill-rule="nonzero" fill="#009dd9" stroke="none" />
      <path d="M 119 133  C 115.4 127  110 123.4  110 117.4  C 110 114.28  111.8 109  119 109  C 126.2 109  128 114.28  128 117.4  C 128 123.4  122.6 127  119 133  Z M 119 131.073856936707  C 122.2 125.81468119182  127 122.659175744887  127 117.4  C 127 114.651428571429  125.4 110  119 110  C 112.6 110  111 114.651428571429  111 117.4  C 111 122.659175744887  115.8 125.81468119182  119 131.073856936707  Z " fill-rule="nonzero" fill="#ffffff" stroke="none" />
    </g>
  </defs>
  <g transform="matrix(1 0 0 1 -106 -105 )">
    <use xlink:href="#widget766" filter="url(#filter765)" />
    <use xlink:href="#widget766" />
  </g>
</svg>