<?xml version="1.0" encoding="utf-8"?>
<svg version="1.1" xmlns:xlink="http://www.w3.org/1999/xlink" width="36px" height="34px" xmlns="http://www.w3.org/2000/svg">
  <defs>
    <filter x="104px" y="509px" width="36px" height="34px" filterUnits="userSpaceOnUse" id="filter769">
      <feOffset dx="1" dy="1" in="SourceAlpha" result="shadowOffsetInner" />
      <feGaussianBlur stdDeviation="2.5" in="shadowOffsetInner" result="shadowGaussian" />
      <feComposite in2="shadowGaussian" operator="atop" in="SourceAlpha" result="shadowComposite" />
      <feColorMatrix type="matrix" values="0 0 0 0 0  0 0 0 0 0  0 0 0 0 0  0 0 0 0.698039215686274 0  " in="shadowComposite" />
    </filter>
    <g id="widget770">
      <path d="M 121 536.237151240006  C 116 530.530554609234  108.5 527.106596630771  108.5 521.4  C 108.5 518.465714285714  111 513.5  121 513.5  C 131 513.5  133.5 518.465714285714  133.5 521.4  C 133.5 527.106596630771  126 530.530554609234  121 536.237151240006  Z " fill-rule="nonzero" fill="#009dd9" stroke="none" />
      <path d="M 121 537  C 115.8 531  108 527.4  108 521.4  C 108 518.28  110.6 513  121 513  C 131.4 513  134 518.28  134 521.4  C 134 527.4  126.2 531  121 537  Z M 121 535.474302480011  C 125.8 530.061109218468  133 526.813193261543  133 521.4  C 133 518.651428571429  130.6 514  121 514  C 111.4 514  109 518.651428571429  109 521.4  C 109 526.813193261543  116.2 530.061109218468  121 535.474302480011  Z " fill-rule="nonzero" fill="#ffffff" stroke="none" />
    </g>
  </defs>
  <g transform="matrix(1 0 0 1 -104 -509 )">
    <use xlink:href="#widget770" filter="url(#filter769)" />
    <use xlink:href="#widget770" />
  </g>
</svg>