<?xml version="1.0" encoding="utf-8"?>
<svg version="1.1" xmlns:xlink="http://www.w3.org/1999/xlink" width="9px" height="8px" xmlns="http://www.w3.org/2000/svg">
  <g transform="matrix(1 0 0 1 -1631 -1171 )">
    <path d="M 7.02622767857143 4.71354166666667  C 7.05636160714286 4.74479166666667  7.07142857142857 4.78472222222222  7.07142857142857 4.83333333333333  L 7.07142857142857 6.5  C 7.07142857142857 6.91319444444444  6.92996651785714 7.26649305555556  6.64704241071429 7.55989583333333  C 6.36411830357143 7.85329861111111  6.0234375 8  5.625 8  L 1.44642857142857 8  C 1.04799107142857 8  0.707310267857143 7.85329861111111  0.424386160714286 7.55989583333333  C 0.141462053571429 7.26649305555556  0 6.91319444444444  0 6.5  L 0 2.16666666666667  C 0 1.75347222222222  0.141462053571429 1.40017361111111  0.424386160714286 1.10677083333333  C 0.707310267857143 0.813368055555554  1.04799107142857 0.666666666666667  1.44642857142857 0.666666666666667  L 4.98214285714286 0.666666666666667  C 5.02901785714286 0.666666666666667  5.06752232142857 0.682291666666667  5.09765625 0.713541666666667  C 5.12779017857143 0.744791666666667  5.14285714285714 0.784722222222221  5.14285714285714 0.833333333333333  L 5.14285714285714 1.16666666666667  C 5.14285714285714 1.21527777777778  5.12779017857143 1.25520833333333  5.09765625 1.28645833333333  C 5.06752232142857 1.31770833333333  5.02901785714286 1.33333333333333  4.98214285714286 1.33333333333333  L 1.44642857142857 1.33333333333333  C 1.22544642857143 1.33333333333333  1.03627232142857 1.41493055555555  0.87890625 1.578125  C 0.721540178571429 1.74131944444444  0.642857142857143 1.9375  0.642857142857143 2.16666666666667  L 0.642857142857143 6.5  C 0.642857142857143 6.72916666666667  0.721540178571429 6.92534722222222  0.87890625 7.08854166666667  C 1.03627232142857 7.25173611111111  1.22544642857143 7.33333333333333  1.44642857142857 7.33333333333333  L 5.625 7.33333333333333  C 5.84598214285714 7.33333333333333  6.03515625 7.25173611111111  6.19252232142857 7.08854166666667  C 6.34988839285714 6.92534722222222  6.42857142857143 6.72916666666667  6.42857142857143 6.5  L 6.42857142857143 4.83333333333333  C 6.42857142857143 4.78472222222222  6.44363839285714 4.74479166666667  6.47377232142857 4.71354166666667  C 6.50390625 4.68229166666667  6.54241071428571 4.66666666666667  6.58928571428571 4.66666666666667  L 6.91071428571429 4.66666666666667  C 6.95758928571429 4.66666666666667  6.99609375 4.68229166666667  7.02622767857143 4.71354166666667  Z M 8.90457589285714 0.098958333333333  C 8.96819196428572 0.164930555555554  9 0.243055555555554  9 0.333333333333333  L 9 3  C 9 3.09027777777778  8.96819196428572 3.16840277777778  8.90457589285714 3.234375  C 8.84095982142857 3.30034722222222  8.765625 3.33333333333333  8.67857142857143 3.33333333333333  C 8.59151785714286 3.33333333333333  8.51618303571429 3.30034722222222  8.45256696428571 3.234375  L 7.56863839285714 2.31770833333333  L 4.29408482142857 5.71354166666667  C 4.26060267857143 5.74826388888889  4.22209821428571 5.765625  4.17857142857143 5.765625  C 4.13504464285714 5.765625  4.09654017857143 5.74826388888889  4.06305803571429 5.71354166666667  L 3.49051339285714 5.11979166666667  C 3.45703125 5.08506944444444  3.44029017857143 5.04513888888889  3.44029017857143 5  C 3.44029017857143 4.95486111111111  3.45703125 4.91493055555556  3.49051339285714 4.88020833333333  L 6.76506696428571 1.484375  L 5.88113839285714 0.567708333333333  C 5.81752232142857 0.501736111111111  5.78571428571429 0.423611111111111  5.78571428571429 0.333333333333333  C 5.78571428571429 0.243055555555554  5.81752232142857 0.164930555555554  5.88113839285714 0.098958333333333  C 5.94475446428571 0.0329861111111116  6.02008928571429 0  6.10714285714286 0  L 8.67857142857143 0  C 8.765625 0  8.84095982142857 0.0329861111111116  8.90457589285714 0.098958333333333  Z " fill-rule="nonzero" fill="#a7a1a1" stroke="none" transform="matrix(1 0 0 1 1631 1171 )" />
  </g>
</svg>