<?xml version="1.0" encoding="utf-8"?>
<svg version="1.1" xmlns:xlink="http://www.w3.org/1999/xlink" width="21px" height="16px" xmlns="http://www.w3.org/2000/svg">
  <g transform="matrix(1 0 0 1 -840 -854 )">
    <path d="M 19.388671875 14.4375  C 19.462890625 14.3655303030303  19.5 14.280303030303  19.5 14.1818181818182  L 19.5 5.45454545454546  C 19.25 5.72727272727273  18.98046875 5.97727272727273  18.69140625 6.20454545454546  C 16.59765625 7.76515151515151  14.93359375 9.04545454545455  13.69921875 10.0454545454545  C 13.30078125 10.3712121212121  12.9765625 10.625  12.7265625 10.8068181818182  C 12.4765625 10.9886363636364  12.138671875 11.1723484848485  11.712890625 11.3579545454545  C 11.287109375 11.5435606060606  10.88671875 11.6363636363636  10.51171875 11.6363636363636  L 10.5 11.6363636363636  L 10.48828125 11.6363636363636  C 10.11328125 11.6363636363636  9.712890625 11.5435606060606  9.287109375 11.3579545454545  C 8.861328125 11.1723484848485  8.5234375 10.9886363636364  8.2734375 10.8068181818182  C 8.0234375 10.625  7.69921875 10.3712121212121  7.30078125 10.0454545454545  C 6.06640625 9.04545454545455  4.40234375 7.76515151515151  2.30859375 6.20454545454546  C 2.01953125 5.97727272727273  1.75 5.72727272727273  1.5 5.45454545454546  L 1.5 14.1818181818182  C 1.5 14.280303030303  1.537109375 14.3655303030303  1.611328125 14.4375  C 1.685546875 14.5094696969697  1.7734375 14.5454545454545  1.875 14.5454545454545  L 19.125 14.5454545454545  C 19.2265625 14.5454545454545  19.314453125 14.5094696969697  19.388671875 14.4375  Z M 18.955078125 3.73295454545454  C 19.318359375 3.18371212121212  19.5 2.68560606060606  19.5 2.23863636363636  L 19.5 2.11363636363636  L 19.5 1.96022727272727  C 19.5 1.96022727272727  19.498046875 1.91098484848485  19.494140625 1.8125  C 19.490234375 1.71401515151515  19.478515625 1.66666666666666  19.458984375 1.67045454545454  C 19.439453125 1.67424242424242  19.41796875 1.64015151515151  19.39453125 1.56818181818182  C 19.37109375 1.49621212121212  19.3359375 1.46780303030303  19.2890625 1.48295454545454  C 19.2421875 1.49810606060606  19.1875 1.48863636363636  19.125 1.45454545454546  L 1.875 1.45454545454546  C 1.7734375 1.45454545454546  1.685546875 1.4905303030303  1.611328125 1.5625  C 1.537109375 1.6344696969697  1.5 1.71969696969697  1.5 1.81818181818182  C 1.5 3.09090909090909  2.07421875 4.16666666666666  3.22265625 5.04545454545454  C 4.73046875 6.1969696969697  6.296875 7.39772727272727  7.921875 8.64772727272727  C 7.96875 8.68560606060606  8.10546875 8.79734848484848  8.33203125 8.98295454545455  C 8.55859375 9.16856060606061  8.73828125 9.31060606060606  8.87109375 9.40909090909091  C 9.00390625 9.50757575757576  9.177734375 9.62689393939394  9.392578125 9.76704545454545  C 9.607421875 9.90719696969697  9.8046875 10.0113636363636  9.984375 10.0795454545455  C 10.1640625 10.1477272727273  10.33203125 10.1818181818182  10.48828125 10.1818181818182  L 10.5 10.1818181818182  L 10.51171875 10.1818181818182  C 10.66796875 10.1818181818182  10.8359375 10.1477272727273  11.015625 10.0795454545455  C 11.1953125 10.0113636363636  11.392578125 9.90719696969697  11.607421875 9.76704545454545  C 11.822265625 9.62689393939394  11.99609375 9.50757575757576  12.12890625 9.40909090909091  C 12.26171875 9.31060606060606  12.44140625 9.16856060606061  12.66796875 8.98295454545455  C 12.89453125 8.79734848484848  13.03125 8.68560606060606  13.078125 8.64772727272727  C 14.703125 7.39772727272727  16.26953125 6.1969696969697  17.77734375 5.04545454545454  C 18.19921875 4.71969696969697  18.591796875 4.28219696969697  18.955078125 3.73295454545454  Z M 20.44921875 0.534090909090908  C 20.81640625 0.890151515151514  21 1.31818181818182  21 1.81818181818182  L 21 14.1818181818182  C 21 14.6818181818182  20.81640625 15.1098484848485  20.44921875 15.4659090909091  C 20.08203125 15.8219696969697  19.640625 16  19.125 16  L 1.875 16  C 1.359375 16  0.91796875 15.8219696969697  0.55078125 15.4659090909091  C 0.18359375 15.1098484848485  0 14.6818181818182  0 14.1818181818182  L 0 1.81818181818182  C 0 1.31818181818182  0.18359375 0.890151515151514  0.55078125 0.534090909090908  C 0.91796875 0.178030303030301  1.359375 0  1.875 0  L 19.125 0  C 19.640625 0  20.08203125 0.178030303030301  20.44921875 0.534090909090908  Z " fill-rule="nonzero" fill="#000000" stroke="none" transform="matrix(1 0 0 1 840 854 )" />
  </g>
</svg>