<?xml version="1.0" encoding="utf-8"?>
<svg version="1.1" xmlns:xlink="http://www.w3.org/1999/xlink" width="16px" height="19px" xmlns="http://www.w3.org/2000/svg">
  <g transform="matrix(1 0 0 1 -817 -1408 )">
    <path d="M 15.89375 13.7366536458333  C 15.9645833333333 14.3592664930556  16 15.0210503472222  16 15.7220052083333  C 16 16.6208767361111  15.7395833333333 17.3919270833333  15.21875 18.03515625  C 14.6979166666667 18.6783854166667  14.0708333333333 19  13.3375 19  L 2.6625 19  C 1.92916666666667 19  1.30208333333333 18.6783854166667  0.78125 18.03515625  C 0.260416666666667 17.3919270833333  0 16.6208767361111  0 15.7220052083333  C 0 15.0210503472222  0.0354166666666667 14.3592664930556  0.10625 13.7366536458333  C 0.177083333333333 13.1140407986111  0.308333333333333 12.4873046875  0.5 11.8564453125  C 0.691666666666667 11.2255859375  0.935416666666667 10.6854383680556  1.23125 10.2360026041667  C 1.52708333333333 9.78656684027778  1.91875 9.41959635416667  2.40625 9.13509114583333  C 2.89375 8.8505859375  3.45416666666667 8.70833333333333  4.0875 8.70833333333333  C 5.17916666666667 9.76388888888889  6.48333333333333 10.2916666666667  8 10.2916666666667  C 9.51666666666667 10.2916666666667  10.8208333333333 9.76388888888889  11.9125 8.70833333333333  C 12.5458333333333 8.70833333333333  13.10625 8.8505859375  13.59375 9.13509114583333  C 14.08125 9.41959635416667  14.4729166666667 9.78656684027778  14.76875 10.2360026041667  C 15.0645833333333 10.6854383680556  15.3083333333333 11.2255859375  15.5 11.8564453125  C 15.6916666666667 12.4873046875  15.8229166666667 13.1140407986111  15.89375 13.7366536458333  Z M 11.39375 1.3916015625  C 12.33125 2.3193359375  12.8 3.43880208333333  12.8 4.75  C 12.8 6.06119791666667  12.33125 7.1806640625  11.39375 8.1083984375  C 10.45625 9.0361328125  9.325 9.5  8 9.5  C 6.675 9.5  5.54375 9.0361328125  4.60625 8.1083984375  C 3.66875 7.1806640625  3.2 6.06119791666667  3.2 4.75  C 3.2 3.43880208333333  3.66875 2.3193359375  4.60625 1.3916015625  C 5.54375 0.4638671875  6.675 0  8 0  C 9.325 0  10.45625 0.4638671875  11.39375 1.3916015625  Z " fill-rule="nonzero" fill="#ff785a" stroke="none" transform="matrix(1 0 0 1 817 1408 )" />
  </g>
</svg>