<?xml version="1.0" encoding="utf-8"?>
<svg version="1.1" xmlns:xlink="http://www.w3.org/1999/xlink" width="45px" height="45px" xmlns="http://www.w3.org/2000/svg">
  <g transform="matrix(1 0 0 1 -187 -1371 )">
    <path d="M 209.5 1371  C 222.1 1371  232 1380.9  232 1393.5  C 232 1406.1  222.1 1416  209.5 1416  C 196.9 1416  187 1406.1  187 1393.5  C 187 1380.9  196.9 1371  209.5 1371  Z " fill-rule="nonzero" fill="#ffffff" stroke="none" />
    <path d="M 209.5 1371.5  C 221.82 1371.5  231.5 1381.18  231.5 1393.5  C 231.5 1405.82  221.82 1415.5  209.5 1415.5  C 197.18 1415.5  187.5 1405.82  187.5 1393.5  C 187.5 1381.18  197.18 1371.5  209.5 1371.5  Z " stroke-width="1" stroke="#ffeacf" fill="none" />
  </g>
</svg>