<?xml version="1.0" encoding="utf-8"?>
<svg version="1.1" xmlns:xlink="http://www.w3.org/1999/xlink" width="20px" height="4px" xmlns="http://www.w3.org/2000/svg">
  <g transform="matrix(1 0 0 1 -781 -270 )">
    <path d="M 5.05681818181818 0.291666666666667  C 5.3219696969697 0.486111111111109  5.45454545454545 0.722222222222221  5.45454545454545 1  L 5.45454545454545 3  C 5.45454545454545 3.27777777777778  5.3219696969697 3.51388888888889  5.05681818181818 3.70833333333333  C 4.79166666666667 3.90277777777778  4.46969696969697 4  4.09090909090909 4  L 1.36363636363636 4  C 0.984848484848485 4  0.662878787878788 3.90277777777778  0.397727272727273 3.70833333333333  C 0.132575757575758 3.51388888888889  0 3.27777777777778  0 3  L 0 1  C 0 0.722222222222221  0.132575757575758 0.486111111111109  0.397727272727273 0.291666666666667  C 0.662878787878788 0.0972222222222214  0.984848484848485 0  1.36363636363636 0  L 4.09090909090909 0  C 4.46969696969697 0  4.79166666666667 0.0972222222222214  5.05681818181818 0.291666666666667  Z M 12.3295454545455 0.291666666666667  C 12.594696969697 0.486111111111109  12.7272727272727 0.722222222222221  12.7272727272727 1  L 12.7272727272727 3  C 12.7272727272727 3.27777777777778  12.594696969697 3.51388888888889  12.3295454545455 3.70833333333333  C 12.0643939393939 3.90277777777778  11.7424242424242 4  11.3636363636364 4  L 8.63636363636364 4  C 8.25757575757576 4  7.93560606060606 3.90277777777778  7.67045454545455 3.70833333333333  C 7.40530303030303 3.51388888888889  7.27272727272727 3.27777777777778  7.27272727272727 3  L 7.27272727272727 1  C 7.27272727272727 0.722222222222221  7.40530303030303 0.486111111111109  7.67045454545455 0.291666666666667  C 7.93560606060606 0.0972222222222214  8.25757575757576 0  8.63636363636364 0  L 11.3636363636364 0  C 11.7424242424242 0  12.0643939393939 0.0972222222222214  12.3295454545455 0.291666666666667  Z M 19.6022727272727 0.291666666666667  C 19.8674242424242 0.486111111111109  20 0.722222222222221  20 1  L 20 3  C 20 3.27777777777778  19.8674242424242 3.51388888888889  19.6022727272727 3.70833333333333  C 19.3371212121212 3.90277777777778  19.0151515151515 4  18.6363636363636 4  L 15.9090909090909 4  C 15.530303030303 4  15.2083333333333 3.90277777777778  14.9431818181818 3.70833333333333  C 14.6780303030303 3.51388888888889  14.5454545454545 3.27777777777778  14.5454545454545 3  L 14.5454545454545 1  C 14.5454545454545 0.722222222222221  14.6780303030303 0.486111111111109  14.9431818181818 0.291666666666667  C 15.2083333333333 0.0972222222222214  15.530303030303 0  15.9090909090909 0  L 18.6363636363636 0  C 19.0151515151515 0  19.3371212121212 0.0972222222222214  19.6022727272727 0.291666666666667  Z " fill-rule="nonzero" fill="#666666" stroke="none" transform="matrix(1 0 0 1 781 270 )" />
  </g>
</svg>