<?xml version="1.0" encoding="utf-8"?>
<svg version="1.1" xmlns:xlink="http://www.w3.org/1999/xlink" width="12px" height="21px" xmlns="http://www.w3.org/2000/svg">
  <g transform="matrix(1 0 0 1 -403 -261 )">
    <path d="M 11.7938144329897 1.2625250501002  C 11.9312714776632 1.40280561122244  12 1.56412825651302  12 1.74649298597194  C 12 1.92885771543086  11.9312714776632 2.09018036072144  11.7938144329897 2.23046092184369  L 3.69072164948454 10.5  L 11.7938144329897 18.7695390781563  C 11.9312714776632 18.9098196392786  12 19.0711422845691  12 19.2535070140281  C 12 19.435871743487  11.9312714776632 19.5971943887776  11.7938144329897 19.7374749498998  L 10.7628865979381 20.7895791583166  C 10.6254295532646 20.9298597194389  10.46735395189 21  10.2886597938144 21  C 10.1099656357388 21  9.95189003436426 20.9298597194389  9.81443298969072 20.7895791583166  L 0.206185567010309 10.9839679358717  C 0.0687285223367698 10.8436873747495  0 10.6823647294589  0 10.5  C 0 10.3176352705411  0.0687285223367698 10.1563126252505  0.206185567010309 10.0160320641283  L 9.81443298969072 0.210420841683367  C 9.95189003436426 0.0701402805611215  10.1099656357388 0  10.2886597938144 0  C 10.46735395189 0  10.6254295532646 0.0701402805611215  10.7628865979381 0.210420841683367  L 11.7938144329897 1.2625250501002  Z " fill-rule="nonzero" fill="#333333" stroke="none" transform="matrix(1 0 0 1 403 261 )" />
  </g>
</svg>