<?xml version="1.0" encoding="utf-8"?>
<svg version="1.1" xmlns:xlink="http://www.w3.org/1999/xlink" width="10px" height="16px" preserveAspectRatio="xMidYMin meet" viewBox="1591 725  8 16" xmlns="http://www.w3.org/2000/svg">
  <path d="M 1440.5 746  L 1440.5 745  A 5 5 0 0 1 1445.5 740.5 L 1475 740.5  A 5 5 0 0 0 1480.5 735.5 A 5 5 0 0 1 1485.5 730.5 L 1590 730.5  A 5 5 0 0 1 1595.5 735.5 L 1595.5 741  " stroke-width="1" stroke="#ff3399" fill="none" />
  <path d="M 1440.59966711079 741.506653346025  A 3 3 0 0 0 1437.59966711079 744.506653346025 A 3 3 0 0 0 1440.59966711079 747.506653346025 A 3 3 0 0 0 1443.59966711079 744.506653346025 A 3 3 0 0 0 1440.59966711079 741.506653346025 Z " fill-rule="nonzero" fill="#ff3399" stroke="none" />
</svg>