<?xml version="1.0" encoding="utf-8"?>
<svg version="1.1" xmlns:xlink="http://www.w3.org/1999/xlink" width="13px" height="6px" xmlns="http://www.w3.org/2000/svg">
  <g transform="matrix(1 0 0 1 -1372 -432 )">
    <path d="M 12.7587890625 0.197916666666667  C 12.9195963541667 0.32986111111111  13 0.48611111111111  13 0.666666666666667  C 13 0.847222222222222  12.9195963541667 1.00347222222222  12.7587890625 1.13541666666667  L 7.0712890625 5.80208333333333  C 6.91048177083333 5.93402777777778  6.72005208333333 6  6.5 6  C 6.27994791666667 6  6.08951822916667 5.93402777777778  5.9287109375 5.80208333333333  L 0.2412109375 1.13541666666667  C 0.0804036458333333 1.00347222222222  0 0.847222222222222  0 0.666666666666667  C 0 0.48611111111111  0.0804036458333333 0.32986111111111  0.2412109375 0.197916666666667  C 0.402018229166667 0.0659722222222214  0.592447916666667 0  0.8125 0  L 12.1875 0  C 12.4075520833333 0  12.5979817708333 0.0659722222222214  12.7587890625 0.197916666666667  Z " fill-rule="nonzero" fill="#000000" stroke="none" transform="matrix(1 0 0 1 1372 432 )" />
  </g>
</svg>