<?xml version="1.0" encoding="utf-8"?>
<svg version="1.1" xmlns:xlink="http://www.w3.org/1999/xlink" width="20px" height="20px" xmlns="http://www.w3.org/2000/svg">
  <g transform="matrix(1 0 0 1 -520 -706 )">
    <path d="M 530 707  C 535.04 707  539 710.96  539 716  C 539 721.04  535.04 725  530 725  C 524.96 725  521 721.04  521 716  C 521 710.96  524.96 707  530 707  Z " fill-rule="nonzero" fill="#ffffff" stroke="none" />
    <path d="M 530 707  C 535.04 707  539 710.96  539 716  C 539 721.04  535.04 725  530 725  C 524.96 725  521 721.04  521 716  C 521 710.96  524.96 707  530 707  Z " stroke-width="2" stroke="#409eff" fill="none" />
  </g>
</svg>