<?xml version="1.0" encoding="utf-8"?>
<svg version="1.1" xmlns:xlink="http://www.w3.org/1999/xlink" width="12px" height="12px" viewBox="1152 409  12 12" xmlns="http://www.w3.org/2000/svg">
  <path d="M 1158 409  C 1161.36 409  1164 411.64  1164 415  C 1164 418.36  1161.36 421  1158 421  C 1154.64 421  1152 418.36  1152 415  C 1152 411.64  1154.64 409  1158 409  Z " fill-rule="nonzero" fill="#ffffff" stroke="none" />
  <path d="M 1158 409.5  C 1161.08 409.5  1163.5 411.92  1163.5 415  C 1163.5 418.08  1161.08 420.5  1158 420.5  C 1154.92 420.5  1152.5 418.08  1152.5 415  C 1152.5 411.92  1154.92 409.5  1158 409.5  Z " stroke-width="1" stroke="#797979" fill="none" />
  <path d="M 1158 418  C 1156.32 418  1155 416.68  1155 415  C 1155 413.32  1156.32 412  1158 412  C 1159.68 412  1161 413.32  1161 415  C 1161 416.68  1159.68 418  1158 418  " fill-rule="nonzero" fill="#797979" stroke="none" />
</svg>