<?xml version="1.0" encoding="utf-8"?>
<svg version="1.1" xmlns:xlink="http://www.w3.org/1999/xlink" width="266px" height="228px" xmlns="http://www.w3.org/2000/svg">
  <g transform="matrix(1 0 0 1 -1081 -3124 )">
    <path d="M 1082 3128  A 3 3 0 0 1 1085 3125 L 1343 3125  A 3 3 0 0 1 1346 3128 L 1346 3348  A 3 3 0 0 1 1343 3351 L 1085 3351  A 3 3 0 0 1 1082 3348 L 1082 3128  Z " fill-rule="nonzero" fill="#ff3399" stroke="none" fill-opacity="0.0980392156862745" />
    <path d="M 1081.5 3128  A 3.5 3.5 0 0 1 1085 3124.5 L 1343 3124.5  A 3.5 3.5 0 0 1 1346.5 3128 L 1346.5 3348  A 3.5 3.5 0 0 1 1343 3351.5 L 1085 3351.5  A 3.5 3.5 0 0 1 1081.5 3348 L 1081.5 3128  Z " stroke-width="1" stroke-dasharray="9,4" stroke="#ff3399" fill="none" stroke-dashoffset="0.5" />
  </g>
</svg>