<?xml version="1.0" encoding="utf-8"?>
<svg version="1.1" xmlns:xlink="http://www.w3.org/1999/xlink" width="30px" height="27px" xmlns="http://www.w3.org/2000/svg">
  <g transform="matrix(1 0 0 1 -1432 155 )">
    <path d="M 11.8203125 12.2749399038462  C 12.7005208333333 11.3608774038462  13.7604166666667 10.9038461538462  15 10.9038461538462  C 16.2395833333333 10.9038461538462  17.2994791666667 11.3608774038462  18.1796875 12.2749399038462  C 19.0598958333333 13.1890024038462  19.5 14.2896634615385  19.5 15.5769230769231  C 19.5 16.8641826923077  19.0598958333333 17.96484375  18.1796875 18.87890625  C 17.2994791666667 19.79296875  16.2395833333333 20.25  15 20.25  C 13.7604166666667 20.25  12.7005208333333 19.79296875  11.8203125 18.87890625  C 10.9401041666667 17.96484375  10.5 16.8641826923077  10.5 15.5769230769231  C 10.5 14.2896634615385  10.9401041666667 13.1890024038462  11.8203125 12.2749399038462  Z M 22.5 4.15384615384615  L 26 4.15384615384615  C 27.1041666666667 4.15384615384615  28.046875 4.55949519230769  28.828125 5.37079326923077  C 29.609375 6.18209134615385  30 7.16105769230769  30 8.30769230769231  L 30 22.8461538461538  C 30 23.9927884615385  29.609375 24.9717548076923  28.828125 25.7830528846154  C 28.046875 26.5943509615385  27.1041666666667 27  26 27  L 4 27  C 2.89583333333333 27  1.953125 26.5943509615385  1.171875 25.7830528846154  C 0.390625 24.9717548076923  0 23.9927884615385  0 22.8461538461538  L 0 8.30769230769231  C 0 7.16105769230769  0.390625 6.18209134615385  1.171875 5.37079326923077  C 1.953125 4.55949519230769  2.89583333333333 4.15384615384615  4 4.15384615384615  L 7.5 4.15384615384615  L 8.296875 1.94711538461538  C 8.49479166666667 1.41706730769231  8.85677083333333 0.960036057692306  9.3828125 0.576021634615384  C 9.90885416666667 0.192007211538464  10.4479166666667 0  11 0  L 19 0  C 19.5520833333333 0  20.0911458333333 0.192007211538464  20.6171875 0.576021634615384  C 21.1432291666667 0.960036057692306  21.5052083333333 1.41706730769231  21.703125 1.94711538461538  L 22.5 4.15384615384615  Z M 10.0546875 20.7124399038462  C 11.4244791666667 22.1349158653846  13.0729166666667 22.8461538461538  15 22.8461538461538  C 16.9270833333333 22.8461538461538  18.5755208333333 22.1349158653846  19.9453125 20.7124399038462  C 21.3151041666667 19.2899639423077  22 17.578125  22 15.5769230769231  C 22 13.5757211538462  21.3151041666667 11.8638822115385  19.9453125 10.44140625  C 18.5755208333333 9.01893028846154  16.9270833333333 8.30769230769231  15 8.30769230769231  C 13.0729166666667 8.30769230769231  11.4244791666667 9.01893028846154  10.0546875 10.44140625  C 8.68489583333333 11.8638822115385  8 13.5757211538462  8 15.5769230769231  C 8 17.578125  8.68489583333333 19.2899639423077  10.0546875 20.7124399038462  Z " fill-rule="nonzero" fill="#958f8f" stroke="none" transform="matrix(1 0 0 1 1432 -155 )" />
  </g>
</svg>