<?xml version="1.0" encoding="utf-8"?>
<svg version="1.1" xmlns:xlink="http://www.w3.org/1999/xlink" width="17px" height="17px" xmlns="http://www.w3.org/2000/svg">
  <g transform="matrix(1 0 0 1 -2889 2193 )">
    <path d="M 13.248046875 9.70638020833333  C 13.3882378472222 9.56618923611111  13.4583333333333 9.40017361111111  13.4583333333333 9.20833333333333  L 13.4583333333333 7.79166666666667  C 13.4583333333333 7.59982638888889  13.3882378472222 7.43381076388889  13.248046875 7.29361979166667  C 13.1078559027778 7.15342881944444  12.9418402777778 7.08333333333333  12.75 7.08333333333333  L 9.91666666666667 7.08333333333333  L 9.91666666666667 4.25  C 9.91666666666667 4.05815972222222  9.84657118055556 3.89214409722222  9.70638020833333 3.751953125  C 9.56618923611111 3.61176215277778  9.40017361111111 3.54166666666667  9.20833333333333 3.54166666666667  L 7.79166666666667 3.54166666666667  C 7.59982638888889 3.54166666666667  7.43381076388889 3.61176215277778  7.29361979166667 3.751953125  C 7.15342881944444 3.89214409722222  7.08333333333333 4.05815972222222  7.08333333333333 4.25  L 7.08333333333333 7.08333333333333  L 4.25 7.08333333333333  C 4.05815972222222 7.08333333333333  3.89214409722222 7.15342881944444  3.751953125 7.29361979166667  C 3.61176215277778 7.43381076388889  3.54166666666667 7.59982638888889  3.54166666666667 7.79166666666667  L 3.54166666666667 9.20833333333333  C 3.54166666666667 9.40017361111111  3.61176215277778 9.56618923611111  3.751953125 9.70638020833333  C 3.89214409722222 9.84657118055556  4.05815972222222 9.91666666666667  4.25 9.91666666666667  L 7.08333333333333 9.91666666666667  L 7.08333333333333 12.75  C 7.08333333333333 12.9418402777778  7.15342881944444 13.1078559027778  7.29361979166667 13.248046875  C 7.43381076388889 13.3882378472222  7.59982638888889 13.4583333333333  7.79166666666667 13.4583333333333  L 9.20833333333333 13.4583333333333  C 9.40017361111111 13.4583333333333  9.56618923611111 13.3882378472222  9.70638020833333 13.248046875  C 9.84657118055556 13.1078559027778  9.91666666666667 12.9418402777778  9.91666666666667 12.75  L 9.91666666666667 9.91666666666667  L 12.75 9.91666666666667  C 12.9418402777778 9.91666666666667  13.1078559027778 9.84657118055556  13.248046875 9.70638020833333  Z M 15.8600260416667 4.2333984375  C 16.6200086805556 5.53569878472222  17 6.95789930555555  17 8.5  C 17 10.0421006944444  16.6200086805556 11.4643012152778  15.8600260416667 12.7666015625  C 15.1000434027778 14.0689019097222  14.0689019097222 15.1000434027778  12.7666015625 15.8600260416667  C 11.4643012152778 16.6200086805556  10.0421006944444 17  8.5 17  C 6.95789930555556 17  5.53569878472222 16.6200086805556  4.2333984375 15.8600260416667  C 2.93109809027778 15.1000434027778  1.89995659722222 14.0689019097222  1.13997395833333 12.7666015625  C 0.379991319444444 11.4643012152778  0 10.0421006944444  0 8.5  C 0 6.95789930555555  0.379991319444444 5.53569878472222  1.13997395833333 4.2333984375  C 1.89995659722222 2.93109809027778  2.93109809027778 1.89995659722222  4.2333984375 1.13997395833333  C 5.53569878472222 0.379991319444443  6.95789930555556 0  8.5 0  C 10.0421006944444 0  11.4643012152778 0.379991319444443  12.7666015625 1.13997395833333  C 14.0689019097222 1.89995659722222  15.1000434027778 2.93109809027778  15.8600260416667 4.2333984375  Z " fill-rule="nonzero" fill="#000000" stroke="none" transform="matrix(1 0 0 1 2889 -2193 )" />
  </g>
</svg>