<?xml version="1.0" encoding="utf-8"?>
<svg version="1.1" xmlns:xlink="http://www.w3.org/1999/xlink" width="200px" height="67px" xmlns="http://www.w3.org/2000/svg">
  <g transform="matrix(1 0 0 1 -2615 -1165 )">
    <path d="M 2616 1169  A 3 3 0 0 1 2619 1166 L 2811 1166  A 3 3 0 0 1 2814 1169 L 2814 1228  A 3 3 0 0 1 2811 1231 L 2619 1231  A 3 3 0 0 1 2616 1228 L 2616 1169  Z " fill-rule="nonzero" fill="#ff3399" stroke="none" fill-opacity="0.0980392156862745" />
    <path d="M 2615.5 1169  A 3.5 3.5 0 0 1 2619 1165.5 L 2811 1165.5  A 3.5 3.5 0 0 1 2814.5 1169 L 2814.5 1228  A 3.5 3.5 0 0 1 2811 1231.5 L 2619 1231.5  A 3.5 3.5 0 0 1 2615.5 1228 L 2615.5 1169  Z " stroke-width="1" stroke-dasharray="9,4" stroke="#ff3399" fill="none" stroke-dashoffset="0.5" />
  </g>
</svg>