<?xml version="1.0" encoding="utf-8"?>
<svg version="1.1" xmlns:xlink="http://www.w3.org/1999/xlink" width="266px" height="170px" xmlns="http://www.w3.org/2000/svg">
  <g transform="matrix(1 0 0 1 -1093 -3602 )">
    <path d="M 1094 3606  A 3 3 0 0 1 1097 3603 L 1355 3603  A 3 3 0 0 1 1358 3606 L 1358 3768  A 3 3 0 0 1 1355 3771 L 1097 3771  A 3 3 0 0 1 1094 3768 L 1094 3606  Z " fill-rule="nonzero" fill="#ff3399" stroke="none" fill-opacity="0.0980392156862745" />
    <path d="M 1093.5 3606  A 3.5 3.5 0 0 1 1097 3602.5 L 1355 3602.5  A 3.5 3.5 0 0 1 1358.5 3606 L 1358.5 3768  A 3.5 3.5 0 0 1 1355 3771.5 L 1097 3771.5  A 3.5 3.5 0 0 1 1093.5 3768 L 1093.5 3606  Z " stroke-width="1" stroke-dasharray="9,4" stroke="#ff3399" fill="none" stroke-dashoffset="0.5" />
  </g>
</svg>