<?xml version="1.0" encoding="utf-8"?>
<svg version="1.1" xmlns:xlink="http://www.w3.org/1999/xlink" width="17px" height="17px" xmlns="http://www.w3.org/2000/svg">
  <g transform="matrix(1 0 0 1 -1387 -4582 )">
    <path d="M 12.8828125 15.373046875  C 13.0122195512821 15.2328559027778  13.0769230769231 15.0668402777778  13.0769230769231 14.875  C 13.0769230769231 14.6831597222222  13.0122195512821 14.5171440972222  12.8828125 14.376953125  C 12.753405448718 14.2367621527778  12.6001602564103 14.1666666666667  12.4230769230769 14.1666666666667  C 12.2459935897436 14.1666666666667  12.0927483974359 14.2367621527778  11.9633413461538 14.376953125  C 11.8339342948718 14.5171440972222  11.7692307692308 14.6831597222222  11.7692307692308 14.875  C 11.7692307692308 15.0668402777778  11.8339342948718 15.2328559027778  11.9633413461538 15.373046875  C 12.0927483974359 15.5132378472222  12.2459935897436 15.5833333333333  12.4230769230769 15.5833333333333  C 12.6001602564103 15.5833333333333  12.753405448718 15.5132378472222  12.8828125 15.373046875  Z M 15.4981971153846 15.373046875  C 15.6276041666667 15.2328559027778  15.6923076923077 15.0668402777778  15.6923076923077 14.875  C 15.6923076923077 14.6831597222222  15.6276041666667 14.5171440972222  15.4981971153846 14.376953125  C 15.3687900641026 14.2367621527778  15.2155448717949 14.1666666666667  15.0384615384615 14.1666666666667  C 14.8613782051282 14.1666666666667  14.7081330128205 14.2367621527778  14.5787259615385 14.376953125  C 14.4493189102564 14.5171440972222  14.3846153846154 14.6831597222222  14.3846153846154 14.875  C 14.3846153846154 15.0668402777778  14.4493189102564 15.2328559027778  14.5787259615385 15.373046875  C 14.7081330128205 15.5132378472222  14.8613782051282 15.5833333333333  15.0384615384615 15.5833333333333  C 15.2155448717949 15.5833333333333  15.3687900641026 15.5132378472222  15.4981971153846 15.373046875  Z M 16.7139423076923 11.6432291666667  C 16.9046474358974 11.8498263888889  17 12.1006944444444  17 12.3958333333333  L 17 15.9375  C 17 16.2326388888889  16.9046474358974 16.4835069444444  16.7139423076923 16.6901041666667  C 16.5232371794872 16.8967013888889  16.2916666666667 17  16.0192307692308 17  L 0.980769230769231 17  C 0.708333333333333 17  0.476762820512821 16.8967013888889  0.286057692307692 16.6901041666667  C 0.0953525641025641 16.4835069444444  0 16.2326388888889  0 15.9375  L 0 12.3958333333333  C 0 12.1006944444444  0.0953525641025641 11.8498263888889  0.286057692307692 11.6432291666667  C 0.476762820512821 11.4366319444444  0.708333333333333 11.3333333333333  0.980769230769231 11.3333333333333  L 5.73137019230769 11.3333333333333  L 7.11057692307692 12.8385416666667  C 7.50560897435898 13.2517361111111  7.96875 13.4583333333333  8.5 13.4583333333333  C 9.03125 13.4583333333333  9.49439102564103 13.2517361111111  9.88942307692308 12.8385416666667  L 11.2788461538462 11.3333333333333  L 16.0192307692308 11.3333333333333  C 16.2916666666667 11.3333333333333  16.5232371794872 11.4366319444444  16.7139423076923 11.6432291666667  Z M 13.0769230769231 5.66666666666667  C 13.3629807692308 5.66666666666667  13.5639022435897 5.810546875  13.6796875 6.09830729166667  C 13.7954727564103 6.40082465277778  13.747796474359 6.65907118055556  13.5366586538462 6.873046875  L 8.95973557692308 11.8313802083333  C 8.83713942307692 11.9715711805556  8.68389423076923 12.0416666666667  8.5 12.0416666666667  C 8.31610576923077 12.0416666666667  8.16286057692308 11.9715711805556  8.04026442307692 11.8313802083333  L 3.46334134615385 6.873046875  C 3.25220352564103 6.65907118055556  3.20452724358974 6.40082465277778  3.3203125 6.09830729166667  C 3.43609775641026 5.810546875  3.63701923076923 5.66666666666667  3.92307692307692 5.66666666666667  L 6.53846153846154 5.66666666666667  L 6.53846153846154 0.708333333333333  C 6.53846153846154 0.516493055555553  6.60316506410256 0.350477430555553  6.73257211538462 0.210286458333333  C 6.86197916666667 0.0700954861111122  7.01522435897436 0  7.19230769230769 0  L 9.80769230769231 0  C 9.98477564102564 0  10.1380208333333 0.0700954861111122  10.2674278846154 0.210286458333333  C 10.3968349358974 0.350477430555553  10.4615384615385 0.516493055555553  10.4615384615385 0.708333333333333  L 10.4615384615385 5.66666666666667  L 13.0769230769231 5.66666666666667  Z " fill-rule="nonzero" fill="#595656" stroke="none" transform="matrix(1 0 0 1 1387 4582 )" />
  </g>
</svg>