<?xml version="1.0" encoding="utf-8"?>
<svg version="1.1" xmlns:xlink="http://www.w3.org/1999/xlink" width="160px" height="36px" xmlns="http://www.w3.org/2000/svg">
  <g transform="matrix(1 0 0 1 -1362 -784 )">
    <path d="M 1363 789  A 4 4 0 0 1 1367 785 L 1517 785  A 4 4 0 0 1 1521 789 L 1521 815  A 4 4 0 0 1 1517 819 L 1367 819  A 4 4 0 0 1 1363 815 L 1363 789  Z " fill-rule="nonzero" fill="#ffffff" stroke="none" />
    <path d="M 1362.5 789  A 4.5 4.5 0 0 1 1367 784.5 L 1517 784.5  A 4.5 4.5 0 0 1 1521.5 789 L 1521.5 815  A 4.5 4.5 0 0 1 1517 819.5 L 1367 819.5  A 4.5 4.5 0 0 1 1362.5 815 L 1362.5 789  Z " stroke-width="1" stroke="#282f36" fill="none" stroke-opacity="0.149019607843137" />
  </g>
</svg>