<?xml version="1.0" encoding="utf-8"?>
<svg version="1.1" xmlns:xlink="http://www.w3.org/1999/xlink" width="485px" height="36px" xmlns="http://www.w3.org/2000/svg">
  <g transform="matrix(1 0 0 1 -865 -784 )">
    <path d="M 866 789  A 4 4 0 0 1 870 785 L 1345 785  A 4 4 0 0 1 1349 789 L 1349 815  A 4 4 0 0 1 1345 819 L 870 819  A 4 4 0 0 1 866 815 L 866 789  Z " fill-rule="nonzero" fill="#ffffff" stroke="none" />
    <path d="M 865.5 789  A 4.5 4.5 0 0 1 870 784.5 L 1345 784.5  A 4.5 4.5 0 0 1 1349.5 789 L 1349.5 815  A 4.5 4.5 0 0 1 1345 819.5 L 870 819.5  A 4.5 4.5 0 0 1 865.5 815 L 865.5 789  Z " stroke-width="1" stroke="#282f36" fill="none" stroke-opacity="0.149019607843137" />
  </g>
</svg>