<?xml version="1.0" encoding="utf-8"?>
<svg version="1.1" xmlns:xlink="http://www.w3.org/1999/xlink" width="70px" height="70px" xmlns="http://www.w3.org/2000/svg">
  <defs>
    <mask fill="white" id="clip1132">
      <path d="M 35 0  C 15.6700337570001 0  0 15.6700337570001  0 35  C 0 54.3299662429999  15.6700337570001 70  35 70  C 54.3299662429999 70  70 54.3299662429999  70 35  C 70 15.6700337570001  54.3299662429999 0  35 0  Z M 35 62  C 20.0883117553999 62  8 49.9116882446001  8 35  C 8 20.0883117553999  20.0883117553999 8  35 8  C 49.9116882446001 8  62 20.0883117553999  62 35  C 62 46.1332730837339  55.2615851508269 55.692705051802  45.6406977705506 59.8223535861348  C 42.375556741024 61.2238755387375  38.7784151608662 62  35 62  Z " fill-rule="evenodd" />
    </mask>
  </defs>
  <g transform="matrix(1 0 0 1 -537 -260 )">
    <path d="M 35 0  C 15.6700337570001 0  0 15.6700337570001  0 35  C 0 54.3299662429999  15.6700337570001 70  35 70  C 54.3299662429999 70  70 54.3299662429999  70 35  C 70 15.6700337570001  54.3299662429999 0  35 0  Z M 35 62  C 20.0883117553999 62  8 49.9116882446001  8 35  C 8 20.0883117553999  20.0883117553999 8  35 8  C 49.9116882446001 8  62 20.0883117553999  62 35  C 62 46.1332730837339  55.2615851508269 55.692705051802  45.6406977705506 59.8223535861348  C 42.375556741024 61.2238755387375  38.7784151608662 62  35 62  Z " fill-rule="nonzero" fill="#307adb" stroke="none" transform="matrix(1 0 0 1 537 260 )" />
    <path d="M 35 0  C 15.6700337570001 0  0 15.6700337570001  0 35  C 0 54.3299662429999  15.6700337570001 70  35 70  C 54.3299662429999 70  70 54.3299662429999  70 35  C 70 15.6700337570001  54.3299662429999 0  35 0  Z " stroke-width="2" stroke="#797979" fill="none" transform="matrix(1 0 0 1 537 260 )" mask="url(#clip1132)" />
    <path d="M 35 62  C 20.0883117553999 62  8 49.9116882446001  8 35  C 8 20.0883117553999  20.0883117553999 8  35 8  C 49.9116882446001 8  62 20.0883117553999  62 35  C 62 46.1332730837339  55.2615851508269 55.692705051802  45.6406977705506 59.8223535861348  C 42.375556741024 61.2238755387375  38.7784151608662 62  35 62  Z " stroke-width="2" stroke="#797979" fill="none" transform="matrix(1 0 0 1 537 260 )" mask="url(#clip1132)" />
  </g>
</svg>