<?xml version="1.0" encoding="utf-8"?>
<svg version="1.1" xmlns:xlink="http://www.w3.org/1999/xlink" width="144px" height="144px" xmlns="http://www.w3.org/2000/svg">
  <defs>
    <mask fill="white" id="clip2370">
      <path d="M 72 0  C 32.2354980144 0  0 32.2354980144  0 72  C 0 111.7645019856  32.2354980144 144  72 144  C 111.7645019856 144  144 111.7645019856  144 72  C 144 32.2354980144  111.7645019856 0  72 0  Z M 72 132  C 38.8629150119999 132  12 105.137084988  12 72  C 12 38.8629150119999  38.8629150119999 12  72 12  C 105.137084988 12  132 38.8629150119999  132 72  C 132 105.137084988  105.137084988 132  72 132  Z " fill-rule="evenodd" />
    </mask>
  </defs>
  <g transform="matrix(1 0 0 1 -566 -444 )">
    <path d="M 72 0  C 32.2354980144 0  0 32.2354980144  0 72  C 0 111.7645019856  32.2354980144 144  72 144  C 111.7645019856 144  144 111.7645019856  144 72  C 144 32.2354980144  111.7645019856 0  72 0  Z M 72 132  C 38.8629150119999 132  12 105.137084988  12 72  C 12 38.8629150119999  38.8629150119999 12  72 12  C 105.137084988 12  132 38.8629150119999  132 72  C 132 105.137084988  105.137084988 132  72 132  Z " fill-rule="nonzero" fill="#4592ff" stroke="none" transform="matrix(1 0 0 1 566 444 )" />
    <path d="M 72 0  C 32.2354980144 0  0 32.2354980144  0 72  C 0 111.7645019856  32.2354980144 144  72 144  C 111.7645019856 144  144 111.7645019856  144 72  C 144 32.2354980144  111.7645019856 0  72 0  Z " stroke-width="2" stroke="#797979" fill="none" transform="matrix(1 0 0 1 566 444 )" mask="url(#clip2370)" />
    <path d="M 72 132  C 38.8629150119999 132  12 105.137084988  12 72  C 12 38.8629150119999  38.8629150119999 12  72 12  C 105.137084988 12  132 38.8629150119999  132 72  C 132 105.137084988  105.137084988 132  72 132  Z " stroke-width="2" stroke="#797979" fill="none" transform="matrix(1 0 0 1 566 444 )" mask="url(#clip2370)" />
  </g>
</svg>