<?xml version="1.0" encoding="utf-8"?>
<svg version="1.1" xmlns:xlink="http://www.w3.org/1999/xlink" width="144px" height="144px" xmlns="http://www.w3.org/2000/svg">
  <defs>
    <linearGradient gradientUnits="userSpaceOnUse" x1="0" y1="72" x2="144" y2="72" id="LinearGradient1227">
      <stop id="Stop1228" stop-color="#3dc47e" offset="0" />
      <stop id="Stop1229" stop-color="#3dc47e" offset="0.11" />
      <stop id="Stop1230" stop-color="#ffa6bc" offset="0.11" />
      <stop id="Stop1231" stop-color="#ffa6bc" offset="0.26" />
      <stop id="Stop1232" stop-color="#ac8ee3" offset="0.26" />
      <stop id="Stop1233" stop-color="#ac8ee3" offset="0.44" />
      <stop id="Stop1234" stop-color="#4592ff" offset="0.44" />
      <stop id="Stop1235" stop-color="#4592ff" offset="1" />
    </linearGradient>
    <mask fill="white" id="clip1236">
      <path d="M 72 0  C 32.2354980144 0  0 32.2354980144  0 72  C 0 111.7645019856  32.2354980144 144  72 144  C 111.7645019856 144  144 111.7645019856  144 72  C 144 32.2354980144  111.7645019856 0  72 0  Z M 72 132  C 38.8629150119999 132  12 105.137084988  12 72  C 12 38.8629150119999  38.8629150119999 12  72 12  C 105.137084988 12  132 38.8629150119999  132 72  C 132 105.137084988  105.137084988 132  72 132  Z " fill-rule="evenodd" />
    </mask>
  </defs>
  <g transform="matrix(1 0 0 1 -566 -444 )">
    <path d="M 72 0  C 32.2354980144 0  0 32.2354980144  0 72  C 0 111.7645019856  32.2354980144 144  72 144  C 111.7645019856 144  144 111.7645019856  144 72  C 144 32.2354980144  111.7645019856 0  72 0  Z M 72 132  C 38.8629150119999 132  12 105.137084988  12 72  C 12 38.8629150119999  38.8629150119999 12  72 12  C 105.137084988 12  132 38.8629150119999  132 72  C 132 105.137084988  105.137084988 132  72 132  Z " fill-rule="nonzero" fill="url(#LinearGradient1227)" stroke="none" transform="matrix(1 0 0 1 566 444 )" />
    <path d="M 72 0  C 32.2354980144 0  0 32.2354980144  0 72  C 0 111.7645019856  32.2354980144 144  72 144  C 111.7645019856 144  144 111.7645019856  144 72  C 144 32.2354980144  111.7645019856 0  72 0  Z " stroke-width="2" stroke="#797979" fill="none" transform="matrix(1 0 0 1 566 444 )" mask="url(#clip1236)" />
    <path d="M 72 132  C 38.8629150119999 132  12 105.137084988  12 72  C 12 38.8629150119999  38.8629150119999 12  72 12  C 105.137084988 12  132 38.8629150119999  132 72  C 132 105.137084988  105.137084988 132  72 132  Z " stroke-width="2" stroke="#797979" fill="none" transform="matrix(1 0 0 1 566 444 )" mask="url(#clip1236)" />
  </g>
</svg>