<?xml version="1.0" encoding="utf-8"?>
<svg version="1.1" xmlns:xlink="http://www.w3.org/1999/xlink" width="10px" height="10px" xmlns="http://www.w3.org/2000/svg">
  <defs>
    <mask fill="white" id="clip1378">
      <path d="M 0 4.81481481481478  C 0 7.47396361014808  2.23857625100004 9.62962962962956  5 9.62962962962956  C 7.76142374899996 9.62962962962956  10 7.47396361014808  10 4.81481481481478  C 10 2.15566601948194  7.76142374899996 0  5 0  C 2.23857625100004 0  0 2.15566601948194  0 4.81481481481478  Z " fill-rule="evenodd" />
    </mask>
  </defs>
  <g transform="matrix(1 0 0 1 -586 -264 )">
    <path d="M 0 4.81481481481478  C 0 7.47396361014808  2.23857625100004 9.62962962962956  5 9.62962962962956  C 7.76142374899996 9.62962962962956  10 7.47396361014808  10 4.81481481481478  C 10 2.15566601948194  7.76142374899996 0  5 0  C 2.23857625100004 0  0 2.15566601948194  0 4.81481481481478  Z " fill-rule="nonzero" fill="#a8f0b3" stroke="none" transform="matrix(1 0 0 1 586 264 )" />
    <path d="M 0 4.81481481481478  C 0 7.47396361014808  2.23857625100004 9.62962962962956  5 9.62962962962956  C 7.76142374899996 9.62962962962956  10 7.47396361014808  10 4.81481481481478  C 10 2.15566601948194  7.76142374899996 0  5 0  C 2.23857625100004 0  0 2.15566601948194  0 4.81481481481478  Z " stroke-width="2" stroke="#797979" fill="none" transform="matrix(1 0 0 1 586 264 )" mask="url(#clip1378)" />
  </g>
</svg>