<?xml version="1.0" encoding="utf-8"?>
<svg version="1.1" xmlns:xlink="http://www.w3.org/1999/xlink" width="13px" height="13px" xmlns="http://www.w3.org/2000/svg">
  <defs>
    <mask fill="white" id="clip3162">
      <path d="M 0 6.5  C 0 10.0898508737  2.9101491263 13  6.5 13  C 10.0898508737 13  13 10.0898508737  13 6.5  C 13 2.9101491263  10.0898508737 0  6.5 0  C 2.9101491263 0  0 2.9101491263  0 6.5  Z " fill-rule="evenodd" />
    </mask>
  </defs>
  <g transform="matrix(1 0 0 1 1496 -549 )">
    <path d="M 0 6.5  C 0 10.0898508737  2.9101491263 13  6.5 13  C 10.0898508737 13  13 10.0898508737  13 6.5  C 13 2.9101491263  10.0898508737 0  6.5 0  C 2.9101491263 0  0 2.9101491263  0 6.5  Z " fill-rule="nonzero" fill="#3bbdc4" stroke="none" transform="matrix(1 0 0 1 -1496 549 )" />
    <path d="M 0 6.5  C 0 10.0898508737  2.9101491263 13  6.5 13  C 10.0898508737 13  13 10.0898508737  13 6.5  C 13 2.9101491263  10.0898508737 0  6.5 0  C 2.9101491263 0  0 2.9101491263  0 6.5  Z " stroke-width="2" stroke="#797979" fill="none" transform="matrix(1 0 0 1 -1496 549 )" mask="url(#clip3162)" />
  </g>
</svg>