<?xml version="1.0" encoding="utf-8"?>
<svg version="1.1" xmlns:xlink="http://www.w3.org/1999/xlink" width="10px" height="10px" xmlns="http://www.w3.org/2000/svg">
  <defs>
    <mask fill="white" id="clip919">
      <path d="M 0 5  C 0 7.761423749  2.238576251 10  5 10  C 7.761423749 10  10 7.761423749  10 5  C 10 2.238576251  7.761423749 0  5 0  C 2.238576251 0  0 2.238576251  0 5  Z " fill-rule="evenodd" />
    </mask>
  </defs>
  <g transform="matrix(1 0 0 1 -676 101 )">
    <path d="M 0 5  C 0 7.761423749  2.238576251 10  5 10  C 7.761423749 10  10 7.761423749  10 5  C 10 2.238576251  7.761423749 0  5 0  C 2.238576251 0  0 2.238576251  0 5  Z " fill-rule="nonzero" fill="#a2d2fc" stroke="none" transform="matrix(1 0 0 1 676 -101 )" />
    <path d="M 0 5  C 0 7.761423749  2.238576251 10  5 10  C 7.761423749 10  10 7.761423749  10 5  C 10 2.238576251  7.761423749 0  5 0  C 2.238576251 0  0 2.238576251  0 5  Z " stroke-width="2" stroke="#797979" fill="none" transform="matrix(1 0 0 1 676 -101 )" mask="url(#clip919)" />
  </g>
</svg>