<?xml version="1.0" encoding="utf-8"?>
<svg version="1.1" xmlns:xlink="http://www.w3.org/1999/xlink" width="13px" height="13px" xmlns="http://www.w3.org/2000/svg">
  <defs>
    <mask fill="white" id="clip3238">
      <path d="M 0 6.5  C 0 10.0898508737  2.9101491263 13  6.5 13  C 10.0898508737 13  13 10.0898508737  13 6.5  C 13 2.9101491263  10.0898508737 0  6.5 0  C 2.9101491263 0  0 2.9101491263  0 6.5  Z " fill-rule="evenodd" />
    </mask>
  </defs>
  <g transform="matrix(1 0 0 1 -747 -997 )">
    <path d="M 0 6.5  C 0 10.0898508737  2.9101491263 13  6.5 13  C 10.0898508737 13  13 10.0898508737  13 6.5  C 13 2.9101491263  10.0898508737 0  6.5 0  C 2.9101491263 0  0 2.9101491263  0 6.5  Z " fill-rule="nonzero" fill="#ffffff" stroke="none" transform="matrix(1 0 0 1 747 997 )" />
    <path d="M 0 6.5  C 0 10.0898508737  2.9101491263 13  6.5 13  C 10.0898508737 13  13 10.0898508737  13 6.5  C 13 2.9101491263  10.0898508737 0  6.5 0  C 2.9101491263 0  0 2.9101491263  0 6.5  Z " stroke-width="4" stroke="#8bbcf7" fill="none" transform="matrix(1 0 0 1 747 997 )" mask="url(#clip3238)" />
  </g>
</svg>