<?xml version="1.0" encoding="utf-8"?>
<svg version="1.1" xmlns:xlink="http://www.w3.org/1999/xlink" width="10px" height="10px" xmlns="http://www.w3.org/2000/svg">
  <defs>
    <mask fill="white" id="clip3057">
      <path d="M 0 5  C 0 7.76142374900019  2.23857625100004 10  5 10  C 7.76142374899996 10  10 7.76142374900019  10 5  C 10 2.23857625099981  7.76142374899996 0  5 0  C 2.23857625100004 0  0 2.23857625099981  0 5  Z " fill-rule="evenodd" />
    </mask>
  </defs>
  <g transform="matrix(1 0 0 1 -548 -266 )">
    <path d="M 0 5  C 0 7.76142374900019  2.23857625100004 10  5 10  C 7.76142374899996 10  10 7.76142374900019  10 5  C 10 2.23857625099981  7.76142374899996 0  5 0  C 2.23857625100004 0  0 2.23857625099981  0 5  Z " fill-rule="nonzero" fill="#a8f0b3" stroke="none" transform="matrix(1 0 0 1 548 266 )" />
    <path d="M 0 5  C 0 7.76142374900019  2.23857625100004 10  5 10  C 7.76142374899996 10  10 7.76142374900019  10 5  C 10 2.23857625099981  7.76142374899996 0  5 0  C 2.23857625100004 0  0 2.23857625099981  0 5  Z " stroke-width="2" stroke="#797979" fill="none" transform="matrix(1 0 0 1 548 266 )" mask="url(#clip3057)" />
  </g>
</svg>