<?xml version="1.0" encoding="utf-8"?>
<svg version="1.1" xmlns:xlink="http://www.w3.org/1999/xlink" width="40px" height="38px" xmlns="http://www.w3.org/2000/svg">
  <g transform="matrix(1 0 0 1 -259 -272 )">
    <path d="M 37 35  C 37.0000925 29.7892865081129  26.017845 25.037472379483  23.0766225 24.5784814926193  C 22.1636475 24.4360707608227  22.1427425 21.9730789848725  22.1427425 21.9730789848725  C 22.1427425 21.9730789848725  24.8257975 19.3678595243387  25.410305 15.864427389093  C 26.98336 15.864427389093  27.9547025 12.1396911732019  26.38174 10.8293476981813  C 26.447415 9.44962932939346  28.403605 0  18.5000925 0  C 8.59658 0  10.5528625 9.44962932939346  10.6183525 10.8292561745747  C 9.04520499999999 12.1395081259888  10.0167325 15.8643358654864  11.589695 15.8643358654864  C 12.174295 19.3677680007322  14.8574425 21.9730789848725  14.8574425 21.9730789848725  C 14.8574425 21.9730789848725  14.836445 24.4359792372161  13.92347 24.5784814926193  C 10.9824325 25.0375639030896  0 29.7893780317195  0 35  " stroke-width="2" stroke="#ffffff" fill="none" transform="matrix(1 0 0 1 260 273 )" />
  </g>
</svg>