<?xml version="1.0" encoding="utf-8"?>
<svg version="1.1" xmlns:xlink="http://www.w3.org/1999/xlink" width="1101px" height="189px" xmlns="http://www.w3.org/2000/svg">
  <defs>
    <mask fill="white" id="clip2772">
      <path d="M 0 189  C 0 189  0 117.474770642202  0 75.0224638450542  C 6.88591834843292 77.3806785666394  19.9458486380738 79.8018846652602  27.6691099476442 81.5494898232019  C 34.4411651636094 83.0818578411819  41.5998305665708 84.0963302752286  48.503107545564 84.0963302752286  C 89.9246073298431 84.0963302752289  78.2802667941566 50.2844036697246  141.804188481676 50.2844036697239  C 205.328110169196 50.2844036697233  194.836649214661 65.0229357798154  232.881675392671 65.0229357798154  C 270.926701570683 65.0229357798154  281.302617801049 0.866972477064216  337.793717277489 0.866972477064216  C 394.28481675393 0.866972477064216  402.354973821992 39.0137614678888  464.610471204192 40.7477064220173  C 526.86596858639 42.4816513761457  541.853403141366 71.0917431192652  581.051308900527 71.0917431192652  C 620.24921465969 71.0917431192652  646.765445026183 36.4128440366964  690.574869109953 37.2798165137606  C 734.384293193722 38.1467889908248  764.483241639251 74.3796505388663  826.614659685872 73.6926605504579  C 857.243539291173 73.3539955995112  865.058246012979 41.2755420926837  928.296615234896 41.2755420926834  C 991.534984456814 41.2755420926833  1000.6994764398 0  1034.1329842932 0  C 1067.56649214661 0  1101 36.4128440366972  1101 36.4128440366972  L 1101 189  L 0 189  Z " fill-rule="evenodd" />
    </mask>
  </defs>
  <g transform="matrix(1 0 0 1 -436 -967 )">
    <path d="M 0 189  C 0 189  0 117.474770642202  0 75.0224638450542  C 6.88591834843292 77.3806785666394  19.9458486380738 79.8018846652602  27.6691099476442 81.5494898232019  C 34.4411651636094 83.0818578411819  41.5998305665708 84.0963302752286  48.503107545564 84.0963302752286  C 89.9246073298431 84.0963302752289  78.2802667941566 50.2844036697246  141.804188481676 50.2844036697239  C 205.328110169196 50.2844036697233  194.836649214661 65.0229357798154  232.881675392671 65.0229357798154  C 270.926701570683 65.0229357798154  281.302617801049 0.866972477064216  337.793717277489 0.866972477064216  C 394.28481675393 0.866972477064216  402.354973821992 39.0137614678888  464.610471204192 40.7477064220173  C 526.86596858639 42.4816513761457  541.853403141366 71.0917431192652  581.051308900527 71.0917431192652  C 620.24921465969 71.0917431192652  646.765445026183 36.4128440366964  690.574869109953 37.2798165137606  C 734.384293193722 38.1467889908248  764.483241639251 74.3796505388663  826.614659685872 73.6926605504579  C 857.243539291173 73.3539955995112  865.058246012979 41.2755420926837  928.296615234896 41.2755420926834  C 991.534984456814 41.2755420926833  1000.6994764398 0  1034.1329842932 0  C 1067.56649214661 0  1101 36.4128440366972  1101 36.4128440366972  L 1101 189  L 0 189  Z " fill-rule="nonzero" fill="#4592ff" stroke="none" transform="matrix(1 0 0 1 436 967 )" />
    <path d="M 0 189  C 0 189  0 117.474770642202  0 75.0224638450542  C 6.88591834843292 77.3806785666394  19.9458486380738 79.8018846652602  27.6691099476442 81.5494898232019  C 34.4411651636094 83.0818578411819  41.5998305665708 84.0963302752286  48.503107545564 84.0963302752286  C 89.9246073298431 84.0963302752289  78.2802667941566 50.2844036697246  141.804188481676 50.2844036697239  C 205.328110169196 50.2844036697233  194.836649214661 65.0229357798154  232.881675392671 65.0229357798154  C 270.926701570683 65.0229357798154  281.302617801049 0.866972477064216  337.793717277489 0.866972477064216  C 394.28481675393 0.866972477064216  402.354973821992 39.0137614678888  464.610471204192 40.7477064220173  C 526.86596858639 42.4816513761457  541.853403141366 71.0917431192652  581.051308900527 71.0917431192652  C 620.24921465969 71.0917431192652  646.765445026183 36.4128440366964  690.574869109953 37.2798165137606  C 734.384293193722 38.1467889908248  764.483241639251 74.3796505388663  826.614659685872 73.6926605504579  C 857.243539291173 73.3539955995112  865.058246012979 41.2755420926837  928.296615234896 41.2755420926834  C 991.534984456814 41.2755420926833  1000.6994764398 0  1034.1329842932 0  C 1067.56649214661 0  1101 36.4128440366972  1101 36.4128440366972  L 1101 189  L 0 189  Z " stroke-width="2" stroke="#797979" fill="none" transform="matrix(1 0 0 1 436 967 )" mask="url(#clip2772)" />
  </g>
</svg>