<?xml version="1.0" encoding="utf-8"?>
<svg version="1.1" xmlns:xlink="http://www.w3.org/1999/xlink" width="1101px" height="238px" xmlns="http://www.w3.org/2000/svg">
  <defs>
    <mask fill="white" id="clip1123">
      <path d="M 0 238  C 0 238  0 112.752774715479  0 70.5160144765454  C 22.9113864388672 51.9981860508243  50.1602582677867 23.0259946832876  93.3832460732992 23.0259946832872  C 156.907167760819 23.0259946832864  147.63163448953 64.4383546981448  202.906806282725 64.4383546981448  C 258.18197807592 64.4383546981448  272.079581151838 129.777856054921  328.570680628277 129.777856054921  C 385.061780104719 129.777856054921  402.354973821996 -1.82142132562782  464.610471204196 0.0191280083658822  C 526.865968586396 1.85967734235958  541.853403141369 77.3222000361013  581.051308900531 77.3222000361013  C 620.249214659694 77.3222000361013  646.765445026187 121.49538405195  690.574869109958 122.415658718947  C 734.384293193727 123.335933385944  743.607329842943 36.8301146882399  800.098429319383 36.8301146882399  C 826.205431692137 36.8301146882399  818.431751780011 65.9553240412277  851.305437397267 65.5694907510986  C 884.179123014523 65.1836574609696  897.056969061537 122.415658718947  923.456544502631 122.415658718947  C 968.418848167554 122.415658718947  992.112344468853 60.6137955238191  1033.36432259699 60.6899019636318  C 1074.61630072514 60.7660084034445  1101 5.54077601034716  1101 5.54077601034716  L 1101 231.928344091572  L 0 238  Z " fill-rule="evenodd" />
    </mask>
  </defs>
  <g transform="matrix(1 0 0 1 -436 -918 )">
    <path d="M 0 238  C 0 238  0 112.752774715479  0 70.5160144765454  C 22.9113864388672 51.9981860508243  50.1602582677867 23.0259946832876  93.3832460732992 23.0259946832872  C 156.907167760819 23.0259946832864  147.63163448953 64.4383546981448  202.906806282725 64.4383546981448  C 258.18197807592 64.4383546981448  272.079581151838 129.777856054921  328.570680628277 129.777856054921  C 385.061780104719 129.777856054921  402.354973821996 -1.82142132562782  464.610471204196 0.0191280083658822  C 526.865968586396 1.85967734235958  541.853403141369 77.3222000361013  581.051308900531 77.3222000361013  C 620.249214659694 77.3222000361013  646.765445026187 121.49538405195  690.574869109958 122.415658718947  C 734.384293193727 123.335933385944  743.607329842943 36.8301146882399  800.098429319383 36.8301146882399  C 826.205431692137 36.8301146882399  818.431751780011 65.9553240412277  851.305437397267 65.5694907510986  C 884.179123014523 65.1836574609696  897.056969061537 122.415658718947  923.456544502631 122.415658718947  C 968.418848167554 122.415658718947  992.112344468853 60.6137955238191  1033.36432259699 60.6899019636318  C 1074.61630072514 60.7660084034445  1101 5.54077601034716  1101 5.54077601034716  L 1101 231.928344091572  L 0 238  Z " fill-rule="nonzero" fill="#3bbdc4" stroke="none" transform="matrix(1 0 0 1 436 918 )" />
    <path d="M 0 238  C 0 238  0 112.752774715479  0 70.5160144765454  C 22.9113864388672 51.9981860508243  50.1602582677867 23.0259946832876  93.3832460732992 23.0259946832872  C 156.907167760819 23.0259946832864  147.63163448953 64.4383546981448  202.906806282725 64.4383546981448  C 258.18197807592 64.4383546981448  272.079581151838 129.777856054921  328.570680628277 129.777856054921  C 385.061780104719 129.777856054921  402.354973821996 -1.82142132562782  464.610471204196 0.0191280083658822  C 526.865968586396 1.85967734235958  541.853403141369 77.3222000361013  581.051308900531 77.3222000361013  C 620.249214659694 77.3222000361013  646.765445026187 121.49538405195  690.574869109958 122.415658718947  C 734.384293193727 123.335933385944  743.607329842943 36.8301146882399  800.098429319383 36.8301146882399  C 826.205431692137 36.8301146882399  818.431751780011 65.9553240412277  851.305437397267 65.5694907510986  C 884.179123014523 65.1836574609696  897.056969061537 122.415658718947  923.456544502631 122.415658718947  C 968.418848167554 122.415658718947  992.112344468853 60.6137955238191  1033.36432259699 60.6899019636318  C 1074.61630072514 60.7660084034445  1101 5.54077601034716  1101 5.54077601034716  L 1101 231.928344091572  L 0 238  Z " stroke-width="2" stroke="#797979" fill="none" transform="matrix(1 0 0 1 436 918 )" mask="url(#clip1123)" />
  </g>
</svg>