<?xml version="1.0" encoding="utf-8"?>
<svg version="1.1" xmlns:xlink="http://www.w3.org/1999/xlink" width="1043px" height="318px" xmlns="http://www.w3.org/2000/svg">
  <defs>
    <mask fill="white" id="clip3160">
      <path d="M 0 318  C 0 318  0 150.652867056817  0 94.2188764854682  C 21.704428751806 69.4765679166476  47.5178468422357 30.7658248289305  88.4638743455505 30.7658248289299  C 148.641395072238 30.765824828929  139.854491164923 86.0983058571851  192.217801047123 86.0983058571851  C 244.581110929323 86.0983058571851  257.746596858644 173.400664812878  311.261780104717 173.400664812878  C 364.776963350792 173.400664812878  381.159162303671 -2.43366378802373  440.135078534039 0.0255575910098762  C 499.110994764406 2.48477897004348  513.308900523568 103.312855510421  550.441884816761 103.312855510421  C 587.574869109955 103.312855510421  612.694240837705 162.334168607227  654.195811518334 163.563779296744  C 695.697382198962 164.793389986261  704.434554973832 49.2099851716818  757.949738219906 49.2099851716818  C 782.681439831879 49.2099851716818  775.317272576341 88.1251808618085  806.459192738737 87.6096557094511  C 837.601112901133 87.0941305570938  849.80056197201 163.563779296744  874.809424083782 163.563779296744  C 917.403141361271 163.563779296744  939.848478911002 80.9881805738424  978.927328309413 81.0898690102307  C 1018.00617770783 81.1915574466191  1043 7.40322172811091  1043 7.40322172811091  L 1043 309.887451349243  L 0 318  Z " fill-rule="evenodd" />
    </mask>
  </defs>
  <g transform="matrix(1 0 0 1 1351 -463 )">
    <path d="M 0 318  C 0 318  0 150.652867056817  0 94.2188764854682  C 21.704428751806 69.4765679166476  47.5178468422357 30.7658248289305  88.4638743455505 30.7658248289299  C 148.641395072238 30.765824828929  139.854491164923 86.0983058571851  192.217801047123 86.0983058571851  C 244.581110929323 86.0983058571851  257.746596858644 173.400664812878  311.261780104717 173.400664812878  C 364.776963350792 173.400664812878  381.159162303671 -2.43366378802373  440.135078534039 0.0255575910098762  C 499.110994764406 2.48477897004348  513.308900523568 103.312855510421  550.441884816761 103.312855510421  C 587.574869109955 103.312855510421  612.694240837705 162.334168607227  654.195811518334 163.563779296744  C 695.697382198962 164.793389986261  704.434554973832 49.2099851716818  757.949738219906 49.2099851716818  C 782.681439831879 49.2099851716818  775.317272576341 88.1251808618085  806.459192738737 87.6096557094511  C 837.601112901133 87.0941305570938  849.80056197201 163.563779296744  874.809424083782 163.563779296744  C 917.403141361271 163.563779296744  939.848478911002 80.9881805738424  978.927328309413 81.0898690102307  C 1018.00617770783 81.1915574466191  1043 7.40322172811091  1043 7.40322172811091  L 1043 309.887451349243  L 0 318  Z " fill-rule="nonzero" fill="#3bbdc4" stroke="none" transform="matrix(1 0 0 1 -1351 463 )" />
    <path d="M 0 318  C 0 318  0 150.652867056817  0 94.2188764854682  C 21.704428751806 69.4765679166476  47.5178468422357 30.7658248289305  88.4638743455505 30.7658248289299  C 148.641395072238 30.765824828929  139.854491164923 86.0983058571851  192.217801047123 86.0983058571851  C 244.581110929323 86.0983058571851  257.746596858644 173.400664812878  311.261780104717 173.400664812878  C 364.776963350792 173.400664812878  381.159162303671 -2.43366378802373  440.135078534039 0.0255575910098762  C 499.110994764406 2.48477897004348  513.308900523568 103.312855510421  550.441884816761 103.312855510421  C 587.574869109955 103.312855510421  612.694240837705 162.334168607227  654.195811518334 163.563779296744  C 695.697382198962 164.793389986261  704.434554973832 49.2099851716818  757.949738219906 49.2099851716818  C 782.681439831879 49.2099851716818  775.317272576341 88.1251808618085  806.459192738737 87.6096557094511  C 837.601112901133 87.0941305570938  849.80056197201 163.563779296744  874.809424083782 163.563779296744  C 917.403141361271 163.563779296744  939.848478911002 80.9881805738424  978.927328309413 81.0898690102307  C 1018.00617770783 81.1915574466191  1043 7.40322172811091  1043 7.40322172811091  L 1043 309.887451349243  L 0 318  Z " stroke-width="2" stroke="#797979" fill="none" transform="matrix(1 0 0 1 -1351 463 )" mask="url(#clip3160)" />
  </g>
</svg>