<?xml version="1.0" encoding="utf-8"?>
<svg version="1.1" xmlns:xlink="http://www.w3.org/1999/xlink" width="594px" height="175px" xmlns="http://www.w3.org/2000/svg">
  <g transform="matrix(1 0 0 1 -849 -449 )">
    <path d="M 0 92.7203596880783  C 12.183797314529 68.1542291924895  26.5653327954366 30.5173101630637  49.559748427673 30.5173101630631  C 83.6941631298061 30.5173101630622  78.7099793632076 85.4028363929088  108.411949685535 85.4028363929088  C 138.113920007862 85.4028363929088  145.58176100629 172  175.937106918239 172  C 206.292452830189 172  215.584905660377 -2.4140055748448  249.037735849057 0.0253511464817189  C 282.490566037736 2.46470786780823  290.544025157233 102.478333442195  311.606918238994 102.478333442195  C 332.669811320755 102.478333442195  346.918238993711 161.022894754032  370.459119496856 162.242573114695  C 394 163.462251475358  398.955974842768 48.8124855730119  429.311320754718 48.8124855730119  C 443.339850825716 48.8124855730119  439.162684069742 87.413339069882  456.82727384691 86.9019781342065  C 474.491863624077 86.3906171985311  481.411740825635 162.242573114695  495.59748427673 162.242573114695  C 519.757861635221 162.242573114695  532.489500473111 80.3339887637291  554.656144019395 80.4348557994909  C 576.82278756568 80.5357228352526  591 7.34342131046148  591 7.34342131046148  " stroke-width="2" stroke="#3bbdc4" fill="none" transform="matrix(1 0 0 1 850 450 )" />
  </g>
</svg>