<?xml version="1.0" encoding="utf-8"?>
<svg version="1.1" xmlns:xlink="http://www.w3.org/1999/xlink" width="1043px" height="266px" xmlns="http://www.w3.org/2000/svg">
  <defs>
    <mask fill="white" id="clip601">
      <path d="M 0 266  C 0 266  0 165.334862385321  0 105.587171337484  C 6.52317242272074 108.9061402049  18.895113650782 112.313763602959  26.2115183246075 114.773356047469  C 32.6268258543548 116.930022146849  39.4083771852256 118.357798165137  45.9479937965697 118.357798165137  C 85.187434554974 118.357798165137  74.1565106869258 70.7706422018346  134.334031413613 70.7706422018336  C 194.511552140301 70.7706422018328  184.572774869111 91.5137614678883  220.613612565446 91.5137614678883  C 256.654450261782 91.5137614678883  266.48376963351 1.22018348623853  319.998952879584 1.22018348623853  C 373.514136125658 1.22018348623853  381.159162303667 54.9082568807324  440.135078534034 57.3486238532095  C 499.110994764401 59.7889908256865  513.308900523564 100.055045871558  550.441884816757 100.055045871558  C 587.574869109951 100.055045871558  612.694240837701 51.2477064220171  654.195811518329 52.4678899082557  C 695.697382198958 53.6880733944941  724.210736630099 104.682471128775  783.069109947652 103.715596330274  C 812.084479092364 103.238956769682  819.487511890588 58.0915036859992  879.394522879198 58.0915036859989  C 939.301533867808 58.0915036859987  947.983246073307 0  979.655497382207 0  C 1011.32774869111 0  1043 51.2477064220183  1043 51.2477064220183  L 1043 266  L 0 266  Z " fill-rule="evenodd" />
    </mask>
  </defs>
  <g transform="matrix(1 0 0 1 1351 -515 )">
    <path d="M 0 266  C 0 266  0 165.334862385321  0 105.587171337484  C 6.52317242272074 108.9061402049  18.895113650782 112.313763602959  26.2115183246075 114.773356047469  C 32.6268258543548 116.930022146849  39.4083771852256 118.357798165137  45.9479937965697 118.357798165137  C 85.187434554974 118.357798165137  74.1565106869258 70.7706422018346  134.334031413613 70.7706422018336  C 194.511552140301 70.7706422018328  184.572774869111 91.5137614678883  220.613612565446 91.5137614678883  C 256.654450261782 91.5137614678883  266.48376963351 1.22018348623853  319.998952879584 1.22018348623853  C 373.514136125658 1.22018348623853  381.159162303667 54.9082568807324  440.135078534034 57.3486238532095  C 499.110994764401 59.7889908256865  513.308900523564 100.055045871558  550.441884816757 100.055045871558  C 587.574869109951 100.055045871558  612.694240837701 51.2477064220171  654.195811518329 52.4678899082557  C 695.697382198958 53.6880733944941  724.210736630099 104.682471128775  783.069109947652 103.715596330274  C 812.084479092364 103.238956769682  819.487511890588 58.0915036859992  879.394522879198 58.0915036859989  C 939.301533867808 58.0915036859987  947.983246073307 0  979.655497382207 0  C 1011.32774869111 0  1043 51.2477064220183  1043 51.2477064220183  L 1043 266  L 0 266  Z " fill-rule="nonzero" fill="#4592ff" stroke="none" transform="matrix(1 0 0 1 -1351 515 )" />
    <path d="M 0 266  C 0 266  0 165.334862385321  0 105.587171337484  C 6.52317242272074 108.9061402049  18.895113650782 112.313763602959  26.2115183246075 114.773356047469  C 32.6268258543548 116.930022146849  39.4083771852256 118.357798165137  45.9479937965697 118.357798165137  C 85.187434554974 118.357798165137  74.1565106869258 70.7706422018346  134.334031413613 70.7706422018336  C 194.511552140301 70.7706422018328  184.572774869111 91.5137614678883  220.613612565446 91.5137614678883  C 256.654450261782 91.5137614678883  266.48376963351 1.22018348623853  319.998952879584 1.22018348623853  C 373.514136125658 1.22018348623853  381.159162303667 54.9082568807324  440.135078534034 57.3486238532095  C 499.110994764401 59.7889908256865  513.308900523564 100.055045871558  550.441884816757 100.055045871558  C 587.574869109951 100.055045871558  612.694240837701 51.2477064220171  654.195811518329 52.4678899082557  C 695.697382198958 53.6880733944941  724.210736630099 104.682471128775  783.069109947652 103.715596330274  C 812.084479092364 103.238956769682  819.487511890588 58.0915036859992  879.394522879198 58.0915036859989  C 939.301533867808 58.0915036859987  947.983246073307 0  979.655497382207 0  C 1011.32774869111 0  1043 51.2477064220183  1043 51.2477064220183  L 1043 266  L 0 266  Z " stroke-width="2" stroke="#797979" fill="none" transform="matrix(1 0 0 1 -1351 515 )" mask="url(#clip601)" />
  </g>
</svg>