<?xml version="1.0" encoding="utf-8"?>
<svg version="1.1" xmlns:xlink="http://www.w3.org/1999/xlink" width="591px" height="86px" xmlns="http://www.w3.org/2000/svg">
  <defs>
    <mask fill="white" id="clip334">
      <path d="M 0 86  C 0 86  0 53.454128440367  0 34.1372057707654  C 3.69625589820514 35.2102558557195  10.7066271980941 36.3119686836634  14.8523560209425 37.1071752634676  C 18.4874919270601 37.8044432504849  22.3301542823282 38.2660550458712  26.0357280285453 38.2660550458712  C 48.2701570680629 38.2660550458713  42.019652747817 22.880733944954  76.11832460733 22.8807339449537  C 110.216996466844 22.8807339449534  104.585340314137 29.5871559633022  125.007329842932 29.5871559633022  C 145.429319371729 29.5871559633022  150.998952879582 0.394495412844035  181.322513089007 0.394495412844035  C 211.646073298431 0.394495412844035  215.978010471206 17.7522935779812  249.395811518326 18.5412844036692  C 282.813612565447 19.3302752293573  290.858638743458 32.3486238532106  311.899476439793 32.3486238532106  C 332.940314136128 32.3486238532106  347.173821989531 16.5688073394491  370.690052356024 16.9633027522932  C 394.206282722516 17.3577981651372  410.362938972568 33.8447087108069  443.714136125659 33.5321100917427  C 460.155251336133 33.3780085796718  464.350066660918 18.7814635977291  498.2954583141 18.781463597729  C 532.240849967282 18.7814635977289  537.160209424089 0  555.106806282727 0  C 573.053403141366 0  591 16.5688073394495  591 16.5688073394495  L 591 86  L 0 86  Z " fill-rule="evenodd" />
    </mask>
  </defs>
  <g transform="matrix(1 0 0 1 -850 -536 )">
    <path d="M 0 86  C 0 86  0 53.454128440367  0 34.1372057707654  C 3.69625589820514 35.2102558557195  10.7066271980941 36.3119686836634  14.8523560209425 37.1071752634676  C 18.4874919270601 37.8044432504849  22.3301542823282 38.2660550458712  26.0357280285453 38.2660550458712  C 48.2701570680629 38.2660550458713  42.019652747817 22.880733944954  76.11832460733 22.8807339449537  C 110.216996466844 22.8807339449534  104.585340314137 29.5871559633022  125.007329842932 29.5871559633022  C 145.429319371729 29.5871559633022  150.998952879582 0.394495412844035  181.322513089007 0.394495412844035  C 211.646073298431 0.394495412844035  215.978010471206 17.7522935779812  249.395811518326 18.5412844036692  C 282.813612565447 19.3302752293573  290.858638743458 32.3486238532106  311.899476439793 32.3486238532106  C 332.940314136128 32.3486238532106  347.173821989531 16.5688073394491  370.690052356024 16.9633027522932  C 394.206282722516 17.3577981651372  410.362938972568 33.8447087108069  443.714136125659 33.5321100917427  C 460.155251336133 33.3780085796718  464.350066660918 18.7814635977291  498.2954583141 18.781463597729  C 532.240849967282 18.7814635977289  537.160209424089 0  555.106806282727 0  C 573.053403141366 0  591 16.5688073394495  591 16.5688073394495  L 591 86  L 0 86  Z " fill-rule="nonzero" fill="#4592ff" stroke="none" fill-opacity="0" transform="matrix(1 0 0 1 850 536 )" />
    <path d="M 0 86  C 0 86  0 53.454128440367  0 34.1372057707654  C 3.69625589820514 35.2102558557195  10.7066271980941 36.3119686836634  14.8523560209425 37.1071752634676  C 18.4874919270601 37.8044432504849  22.3301542823282 38.2660550458712  26.0357280285453 38.2660550458712  C 48.2701570680629 38.2660550458713  42.019652747817 22.880733944954  76.11832460733 22.8807339449537  C 110.216996466844 22.8807339449534  104.585340314137 29.5871559633022  125.007329842932 29.5871559633022  C 145.429319371729 29.5871559633022  150.998952879582 0.394495412844035  181.322513089007 0.394495412844035  C 211.646073298431 0.394495412844035  215.978010471206 17.7522935779812  249.395811518326 18.5412844036692  C 282.813612565447 19.3302752293573  290.858638743458 32.3486238532106  311.899476439793 32.3486238532106  C 332.940314136128 32.3486238532106  347.173821989531 16.5688073394491  370.690052356024 16.9633027522932  C 394.206282722516 17.3577981651372  410.362938972568 33.8447087108069  443.714136125659 33.5321100917427  C 460.155251336133 33.3780085796718  464.350066660918 18.7814635977291  498.2954583141 18.781463597729  C 532.240849967282 18.7814635977289  537.160209424089 0  555.106806282727 0  C 573.053403141366 0  591 16.5688073394495  591 16.5688073394495  L 591 86  L 0 86  Z " stroke-width="2" stroke="#fd0e0e" fill="none" transform="matrix(1 0 0 1 850 536 )" mask="url(#clip334)" />
  </g>
</svg>