<?xml version="1.0" encoding="utf-8"?>
<svg version="1.1" xmlns:xlink="http://www.w3.org/1999/xlink" width="1045px" height="121px" xmlns="http://www.w3.org/2000/svg">
  <g transform="matrix(1 0 0 1 1350 -514 )">
    <path d="M 0 106.256319857916  C 11.942196242776 111.301435768672  28.8242147769847 118  44.8598142623023 118  C 84.1027253668764 118  73.0708259211018 70.5567010309282  133.253668763103 70.5567010309273  C 193.436511605105 70.5567010309264  183.496855345913 91.2371134020612  219.540880503145 91.2371134020612  C 255.584905660378 91.2371134020612  265.415094339623 1.21649484536083  318.935010482181 1.21649484536083  C 372.454926624739 1.21649484536083  380.100628930818 54.7422680412361  439.081761006289 57.1752577319578  C 498.062893081761 59.6082474226794  512.262054507338 99.7525773195873  549.398322851153 99.7525773195873  C 586.534591194969 99.7525773195873  611.656184486374 51.0927835051539  653.16142557652 52.3092783505148  C 694.666666666667 53.5257731958755  723.182542826162 104.366013770895  782.046121593293 103.40206185567  C 811.064056864669 102.926863186704  818.467744389005 57.9158918230624  878.380053568978 57.9158918230621  C 938.292362748953 57.9158918230619  946.974842767297 0  978.649895178198 0  C 1010.3249475891 0  1042 51.0927835051551  1042 51.0927835051551  " stroke-width="2" stroke="#4592ff" fill="none" transform="matrix(1 0 0 1 -1349 515 )" />
  </g>
</svg>