<?xml version="1.0" encoding="utf-8"?>
<svg version="1.1" xmlns:xlink="http://www.w3.org/1999/xlink" width="1045px" height="175px" xmlns="http://www.w3.org/2000/svg">
  <g transform="matrix(1 0 0 1 1352 -463 )">
    <path d="M 0 92.7203596880783  C 21.4814159081882 68.1542291924895  46.8376933550675 30.5173101630637  87.3794549266248 30.5173101630631  C 147.562297768626 30.5173101630622  138.774616745283 85.4028363929088  191.142557651992 85.4028363929088  C 243.510498558701 85.4028363929088  256.677148846961 172  310.197064989518 172  C 363.716981132076 172  380.100628930818 -2.4140055748448  439.08176100629 0.0253511464817189  C 498.062893081761 2.46470786780823  512.262054507338 102.478333442195  549.398322851153 102.478333442195  C 586.534591194969 102.478333442195  611.656184486374 161.022894754032  653.16142557652 162.242573114695  C 694.666666666667 163.462251475358  703.40461215933 48.8124855730119  756.924528301888 48.8124855730119  C 781.658417191871 48.8124855730119  774.293598647499 87.413339069882  805.438273009273 86.9019781342065  C 836.582947371046 86.3906171985311  848.783475364318 162.242573114695  873.794549266248 162.242573114695  C 916.392033542978 162.242573114695  938.839356164098 80.3339887637291  977.921661705939 80.4348557994909  C 1017.00396724778 80.5357228352526  1042 7.34342131046148  1042 7.34342131046148  " stroke-width="2" stroke="#3bbdc4" fill="none" transform="matrix(1 0 0 1 -1351 464 )" />
  </g>
</svg>