<?xml version="1.0" encoding="utf-8"?>
<svg version="1.1" xmlns:xlink="http://www.w3.org/1999/xlink" width="19px" height="11px" xmlns="http://www.w3.org/2000/svg">
  <g transform="matrix(1 0 0 1 -1174 -191 )">
    <path d="M 10.311767578125 7.205859375  C 10.562255859375 6.664453125  10.6875 6.09583333333333  10.6875 5.5  C 10.6875 4.90416666666667  10.562255859375 4.335546875  10.311767578125 3.794140625  C 10.061279296875 3.252734375  9.72265625 2.784375  9.2958984375 2.3890625  C 8.869140625 1.99375  8.363525390625 1.680078125  7.779052734375 1.448046875  C 7.194580078125 1.216015625  6.58072916666667 1.1  5.9375 1.1  C 5.29427083333333 1.1  4.680419921875 1.216015625  4.095947265625 1.448046875  C 3.511474609375 1.680078125  3.005859375 1.99375  2.5791015625 2.3890625  C 2.15234375 2.784375  1.813720703125 3.252734375  1.563232421875 3.794140625  C 1.312744140625 4.335546875  1.1875 4.90416666666667  1.1875 5.5  C 1.1875 6.09583333333333  1.312744140625 6.664453125  1.563232421875 7.205859375  C 1.813720703125 7.747265625  2.15234375 8.215625  2.5791015625 8.6109375  C 3.005859375 9.00625  3.511474609375 9.319921875  4.095947265625 9.551953125  C 4.680419921875 9.783984375  5.29427083333333 9.9  5.9375 9.9  C 6.58072916666667 9.9  7.194580078125 9.783984375  7.779052734375 9.551953125  C 8.363525390625 9.319921875  8.869140625 9.00625  9.2958984375 8.6109375  C 9.72265625 8.215625  10.061279296875 7.747265625  10.311767578125 7.205859375  Z M 17.436767578125 7.205859375  C 17.687255859375 6.664453125  17.8125 6.09583333333333  17.8125 5.5  C 17.8125 4.90416666666667  17.687255859375 4.335546875  17.436767578125 3.794140625  C 17.186279296875 3.252734375  16.84765625 2.784375  16.4208984375 2.3890625  C 15.994140625 1.99375  15.488525390625 1.680078125  14.904052734375 1.448046875  C 14.319580078125 1.216015625  13.7057291666667 1.1  13.0625 1.1  L 9.4814453125 1.1  C 10.2174479166667 1.615625  10.8003743489583 2.25729166666667  11.230224609375 3.025  C 11.6600748697917 3.79270833333333  11.875 4.61770833333333  11.875 5.5  C 11.875 6.38229166666667  11.6600748697917 7.20729166666667  11.230224609375 7.975  C 10.8003743489583 8.74270833333333  10.2174479166667 9.384375  9.4814453125 9.9  L 13.0625 9.9  C 13.7057291666667 9.9  14.319580078125 9.783984375  14.904052734375 9.551953125  C 15.488525390625 9.319921875  15.994140625 9.00625  16.4208984375 8.6109375  C 16.84765625 8.215625  17.186279296875 7.747265625  17.436767578125 7.205859375  Z M 18.52685546875 3.364453125  C 18.84228515625 4.043359375  19 4.75520833333333  19 5.5  C 19 6.24479166666667  18.84228515625 6.956640625  18.52685546875 7.635546875  C 18.21142578125 8.314453125  17.789306640625 8.898828125  17.260498046875 9.388671875  C 16.731689453125 9.878515625  16.100830078125 10.26953125  15.367919921875 10.56171875  C 14.635009765625 10.85390625  13.8665364583333 11  13.0625 11  L 5.9375 11  C 5.13346354166667 11  4.364990234375 10.85390625  3.632080078125 10.56171875  C 2.899169921875 10.26953125  2.268310546875 9.878515625  1.739501953125 9.388671875  C 1.210693359375 8.898828125  0.78857421875 8.314453125  0.47314453125 7.635546875  C 0.15771484375 6.956640625  0 6.24479166666667  0 5.5  C 0 4.75520833333333  0.15771484375 4.043359375  0.47314453125 3.364453125  C 0.78857421875 2.685546875  1.210693359375 2.101171875  1.739501953125 1.611328125  C 2.268310546875 1.121484375  2.899169921875 0.73046875  3.632080078125 0.43828125  C 4.364990234375 0.14609375  5.13346354166667 0  5.9375 0  L 13.0625 0  C 13.8665364583333 0  14.635009765625 0.14609375  15.367919921875 0.43828125  C 16.100830078125 0.73046875  16.731689453125 1.121484375  17.260498046875 1.611328125  C 17.789306640625 2.101171875  18.21142578125 2.685546875  18.52685546875 3.364453125  Z " fill-rule="nonzero" fill="#cccccc" stroke="none" transform="matrix(1 0 0 1 1174 191 )" />
  </g>
</svg>