<?xml version="1.0" encoding="utf-8"?>
<svg version="1.1" xmlns:xlink="http://www.w3.org/1999/xlink" width="21px" height="16px" xmlns="http://www.w3.org/2000/svg">
  <g transform="matrix(1 0 0 1 -366 -216 )">
    <path d="M 13.89609375 8.61931818181818  C 13.9653645833333 8.54734848484848  14 8.46212121212121  14 8.36363636363636  C 14 8.25757575757576  13.9671875 8.17045454545455  13.9015625 8.10227272727273  L 10.0515625 4.10227272727273  C 9.9859375 4.03409090909091  9.90208333333333 4  9.8 4  C 9.69791666666667 4  9.6140625 4.03409090909091  9.5484375 4.10227272727273  L 5.709375 8.09090909090909  C 5.63645833333333 8.18181818181818  5.6 8.27272727272727  5.6 8.36363636363636  C 5.6 8.46969696969697  5.6328125 8.55681818181818  5.6984375 8.625  C 5.7640625 8.69318181818182  5.84791666666667 8.72727272727273  5.95 8.72727272727273  L 8.4 8.72727272727273  L 8.4 12.7272727272727  C 8.4 12.8257575757576  8.43463541666667 12.9109848484848  8.50390625 12.9829545454545  C 8.57317708333333 13.0549242424242  8.65520833333333 13.0909090909091  8.75 13.0909090909091  L 10.85 13.0909090909091  C 10.9447916666667 13.0909090909091  11.0268229166667 13.0549242424242  11.09609375 12.9829545454545  C 11.1653645833333 12.9109848484848  11.2 12.8257575757576  11.2 12.7272727272727  L 11.2 8.72727272727273  L 13.65 8.72727272727273  C 13.7447916666667 8.72727272727273  13.8268229166667 8.69128787878788  13.89609375 8.61931818181818  Z M 20.08671875 8.92613636363636  C 20.6955729166667 9.71780303030303  21 10.6212121212121  21 11.6363636363636  C 21 12.8409090909091  20.58984375 13.8693181818182  19.76953125 14.7215909090909  C 18.94921875 15.5738636363636  17.959375 16  16.8 16  L 4.9 16  C 3.55104166666667 16  2.39713541666667 15.5018939393939  1.43828125 14.5056818181818  C 0.479427083333333 13.5094696969697  0 12.3106060606061  0 10.9090909090909  C 0 9.92424242424242  0.255208333333333 9.01515151515152  0.765625 8.18181818181818  C 1.27604166666667 7.34848484848485  1.96145833333333 6.72348484848485  2.821875 6.30681818181818  C 2.80729166666667 6.07954545454546  2.8 5.91666666666667  2.8 5.81818181818182  C 2.8 4.21212121212121  3.346875 2.84090909090909  4.440625 1.70454545454546  C 5.534375 0.568181818181818  6.85416666666667 0  8.4 0  C 9.5375 0  10.5783854166667 0.329545454545455  11.52265625 0.988636363636363  C 12.4669270833333 1.64772727272727  13.1541666666667 2.52272727272727  13.584375 3.61363636363636  C 14.1020833333333 3.14393939393939  14.7072916666667 2.90909090909091  15.4 2.90909090909091  C 16.1729166666667 2.90909090909091  16.8328125 3.19318181818182  17.3796875 3.76136363636364  C 17.9265625 4.32954545454546  18.2 5.01515151515151  18.2 5.81818181818182  C 18.2 6.39393939393939  18.0505208333333 6.91666666666667  17.7515625 7.38636363636364  C 18.6994791666667 7.62121212121212  19.4778645833333 8.1344696969697  20.08671875 8.92613636363636  Z " fill-rule="nonzero" fill="#199ed8" stroke="none" transform="matrix(1 0 0 1 366 216 )" />
  </g>
</svg>