<?xml version="1.0" encoding="utf-8"?>
<svg version="1.1" xmlns:xlink="http://www.w3.org/1999/xlink" width="32px" height="31px" xmlns="http://www.w3.org/2000/svg">
  <g transform="matrix(1 0 0 1 -326 -947 )">
    <path d="M 30.9230769230769 11.11468178954  C 31.6410256410256 11.231884057971  32 11.5314009661836  32 12.0132325141777  C 32 12.2997269481201  31.8333333333333 12.6122663306028  31.5 12.9508506616257  L 24.5192307692308 19.8657844990548  L 26.1730769230769 29.6326402016383  C 26.1858974358974 29.7237975215291  26.1923076923077 29.8540222642302  26.1923076923077 30.0233144297416  C 26.1923076923077 30.296786389414  26.125 30.5279353077085  25.9903846153846 30.7167611846251  C 25.8557692307692 30.9055870615417  25.6602564102564 31  25.4038461538462 31  C 25.1602564102564 31  24.9038461538462 30.9218651543793  24.6346153846154 30.765595463138  L 16 26.1556395715186  L 7.36538461538461 30.765595463138  C 7.08333333333333 30.9218651543793  6.82692307692308 31  6.59615384615385 31  C 6.32692307692308 31  6.125 30.9055870615417  5.99038461538461 30.7167611846251  C 5.85576923076923 30.5279353077085  5.78846153846154 30.296786389414  5.78846153846154 30.0233144297416  C 5.78846153846154 29.945179584121  5.80128205128205 29.8149548414199  5.82692307692308 29.6326402016383  L 7.48076923076923 19.8657844990548  L 0.480769230769231 12.9508506616257  C 0.16025641025641 12.5992438563327  0 12.28670447385  0 12.0132325141777  C 0 11.5314009661836  0.358974358974359 11.231884057971  1.07692307692308 11.11468178954  L 10.7307692307692 9.68872085696282  L 15.0576923076923 0.800882167611845  C 15.3012820512821 0.26696072253728  15.6153846153846 0  16 0  C 16.3846153846154 0  16.6987179487179 0.26696072253728  16.9423076923077 0.800882167611845  L 21.2692307692308 9.68872085696282  L 30.9230769230769 11.11468178954  Z " fill-rule="nonzero" fill="#000000" stroke="none" transform="matrix(1 0 0 1 326 947 )" />
  </g>
</svg>