<?xml version="1.0" encoding="utf-8"?>
<svg version="1.1" xmlns:xlink="http://www.w3.org/1999/xlink" width="1072px" height="32px" xmlns="http://www.w3.org/2000/svg">
  <g transform="matrix(1 0 0 1 -435 -3739 )">
    <path d="M 436 3743  A 3 3 0 0 1 439 3740 L 1503 3740  A 3 3 0 0 1 1506 3743 L 1506 3767  A 3 3 0 0 1 1503 3770 L 439 3770  A 3 3 0 0 1 436 3767 L 436 3743  Z " fill-rule="nonzero" fill="#ffffff" stroke="none" />
    <path d="M 435.5 3743  A 3.5 3.5 0 0 1 439 3739.5 L 1503 3739.5  A 3.5 3.5 0 0 1 1506.5 3743 L 1506.5 3767  A 3.5 3.5 0 0 1 1503 3770.5 L 439 3770.5  A 3.5 3.5 0 0 1 435.5 3767 L 435.5 3743  Z " stroke-width="1" stroke-dasharray="9,4" stroke="#d9d9d9" fill="none" stroke-dashoffset="0.5" />
  </g>
</svg>