<?xml version="1.0" encoding="utf-8"?>
<svg version="1.1" xmlns:xlink="http://www.w3.org/1999/xlink" width="14px" height="14px" xmlns="http://www.w3.org/2000/svg">
  <g transform="matrix(1 0 0 1 -290 -559 )">
    <path d="M 297 559  C 300.92 559  304 562.08  304 566  C 304 569.92  300.92 573  297 573  C 293.08 573  290 569.92  290 566  C 290 562.08  293.08 559  297 559  Z " fill-rule="nonzero" fill="#1890ff" stroke="none" />
    <path d="M 297 559.5  C 300.64 559.5  303.5 562.36  303.5 566  C 303.5 569.64  300.64 572.5  297 572.5  C 293.36 572.5  290.5 569.64  290.5 566  C 290.5 562.36  293.36 559.5  297 559.5  Z " stroke-width="1" stroke="#45a5ff" fill="none" />
  </g>
</svg>