<?xml version="1.0" encoding="utf-8"?>
<svg version="1.1" xmlns:xlink="http://www.w3.org/1999/xlink" width="48px" height="39px" xmlns="http://www.w3.org/2000/svg">
  <g transform="matrix(1 0 0 1 -379 -382 )">
    <path d="M 14.6 7.921875  C 15.5333333333333 8.86979166666666  16 10.0208333333333  16 11.375  C 16 12.7291666666667  15.5333333333333 13.8802083333333  14.6 14.828125  C 13.6666666666667 15.7760416666667  12.5333333333333 16.25  11.2 16.25  C 9.86666666666667 16.25  8.73333333333333 15.7760416666667  7.8 14.828125  C 6.86666666666667 13.8802083333333  6.4 12.7291666666667  6.4 11.375  C 6.4 10.0208333333333  6.86666666666667 8.86979166666666  7.8 7.921875  C 8.73333333333333 6.97395833333333  9.86666666666667 6.5  11.2 6.5  C 12.5333333333333 6.5  13.6666666666667 6.97395833333333  14.6 7.921875  Z M 31.2 10.5625  L 41 21.125  L 41 32  L 6.4 32  L 6.4 27.625  L 14.4 19.5  L 18.4 23.5625  L 31.2 10.5625  Z M 44.5625 3.4912109375  C 44.4041666666667 3.33040364583333  44.2166666666667 3.25  44 4  L 4 4  C 3.78333333333333 3.25  3.59583333333333 3.33040364583333  3.4375 3.4912109375  C 3.27916666666667 3.65201822916666  3.2 3.84244791666666  4 4.0625  L 4 34.9375  C 3.2 35.1575520833333  3.27916666666667 35.3479817708333  3.4375 35.5087890625  C 3.59583333333333 35.6695963541667  3.78333333333333 35.75  4 35  L 44 35  C 44.2166666666667 35.75  44.4041666666667 35.6695963541667  44.5625 35.5087890625  C 44.7208333333333 35.3479817708333  44.8 35.1575520833333  44 34.9375  L 44 4.0625  C 44.8 3.84244791666666  44.7208333333333 3.65201822916666  44.5625 3.4912109375  Z M 46.825 1.193359375  C 47.6083333333333 1.98893229166666  48 2.9453125  48 4.0625  L 48 34.9375  C 48 36.0546875  47.6083333333333 37.0110677083333  46.825 37.806640625  C 46.0416666666667 38.6022135416667  45.1 39  44 39  L 4 39  C 2.9 39  1.95833333333333 38.6022135416667  1.175 37.806640625  C 0.391666666666667 37.0110677083333  0 36.0546875  0 34.9375  L 0 4.0625  C 0 2.9453125  0.391666666666667 1.98893229166666  1.175 1.193359375  C 1.95833333333333 0.397786458333329  2.9 0  4 0  L 44 0  C 45.1 0  46.0416666666667 0.397786458333329  46.825 1.193359375  Z " fill-rule="nonzero" fill="#e4e4e4" stroke="none" transform="matrix(1 0 0 1 379 382 )" />
  </g>
</svg>