<?xml version="1.0" encoding="utf-8"?>
<svg version="1.1" xmlns:xlink="http://www.w3.org/1999/xlink" width="14px" height="14px" xmlns="http://www.w3.org/2000/svg">
  <g transform="matrix(1 0 0 1 -426 -559 )">
    <path d="M 433 559  C 436.92 559  440 562.08  440 566  C 440 569.92  436.92 573  433 573  C 429.08 573  426 569.92  426 566  C 426 562.08  429.08 559  433 559  Z " fill-rule="nonzero" fill="#ffffff" stroke="none" fill-opacity="0" />
    <path d="M 433 559.5  C 436.64 559.5  439.5 562.36  439.5 566  C 439.5 569.64  436.64 572.5  433 572.5  C 429.36 572.5  426.5 569.64  426.5 566  C 426.5 562.36  429.36 559.5  433 559.5  Z " stroke-width="1" stroke="#1890ff" fill="none" />
  </g>
</svg>