<?xml version="1.0" encoding="utf-8"?>
<svg version="1.1" xmlns:xlink="http://www.w3.org/1999/xlink" width="37px" height="37px" xmlns="http://www.w3.org/2000/svg">
  <g transform="matrix(1 0 0 1 -648 -3205 )">
    <path d="M 666.5 3205  C 676.86 3205  685 3213.14  685 3223.5  C 685 3233.86  676.86 3242  666.5 3242  C 656.14 3242  648 3233.86  648 3223.5  C 648 3213.14  656.14 3205  666.5 3205  Z " fill-rule="nonzero" fill="#ffffff" stroke="none" />
    <path d="M 666.5 3205.5  C 676.58 3205.5  684.5 3213.42  684.5 3223.5  C 684.5 3233.58  676.58 3241.5  666.5 3241.5  C 656.42 3241.5  648.5 3233.58  648.5 3223.5  C 648.5 3213.42  656.42 3205.5  666.5 3205.5  Z " stroke-width="1" stroke="#797979" fill="none" />
  </g>
</svg>