<?xml version="1.0" encoding="utf-8"?>
<svg version="1.1" xmlns:xlink="http://www.w3.org/1999/xlink" width="30px" height="10px" preserveAspectRatio="xMinYMid meet" viewBox="515 70  30 8" xmlns="http://www.w3.org/2000/svg">
  <path d="M 516 74.5  L 538 74.5  A 2 2 0 0 0 540.5 72.5 A 2 2 0 0 1 542.5 70.5 L 575 70.5  A 5 5 0 0 1 580.5 75.5 L 580.5 81  " stroke-width="1" stroke="#ff3399" fill="none" />
  <path d="M 518 71.5  A 3 3 0 0 0 515 74.5 A 3 3 0 0 0 518 77.5 A 3 3 0 0 0 521 74.5 A 3 3 0 0 0 518 71.5 Z " fill-rule="nonzero" fill="#ff3399" stroke="none" />
</svg>