<?xml version="1.0" encoding="utf-8"?>
<svg version="1.1" xmlns:xlink="http://www.w3.org/1999/xlink" width="392px" height="100px" xmlns="http://www.w3.org/2000/svg">
  <g transform="matrix(1 0 0 1 -107 -458 )">
    <path d="M 108 462  A 3 3 0 0 1 111 459 L 495 459  A 3 3 0 0 1 498 462 L 498 554  A 3 3 0 0 1 495 557 L 111 557  A 3 3 0 0 1 108 554 L 108 462  Z " fill-rule="nonzero" fill="#ff3399" stroke="none" fill-opacity="0.0980392156862745" />
    <path d="M 107.5 462  A 3.5 3.5 0 0 1 111 458.5 L 495 458.5  A 3.5 3.5 0 0 1 498.5 462 L 498.5 554  A 3.5 3.5 0 0 1 495 557.5 L 111 557.5  A 3.5 3.5 0 0 1 107.5 554 L 107.5 462  Z " stroke-width="1" stroke-dasharray="9,4" stroke="#ff3399" fill="none" stroke-dashoffset="0.5" />
  </g>
</svg>