<?xml version="1.0" encoding="utf-8"?>
<svg version="1.1" xmlns:xlink="http://www.w3.org/1999/xlink" width="241px" height="80px" xmlns="http://www.w3.org/2000/svg">
  <g transform="matrix(1 0 0 1 -251 -1117 )">
    <path d="M 252 1121  A 3 3 0 0 1 255 1118 L 488 1118  A 3 3 0 0 1 491 1121 L 491 1193  A 3 3 0 0 1 488 1196 L 255 1196  A 3 3 0 0 1 252 1193 L 252 1121  Z " fill-rule="nonzero" fill="#ff3399" stroke="none" fill-opacity="0.0980392156862745" />
    <path d="M 251.5 1121  A 3.5 3.5 0 0 1 255 1117.5 L 488 1117.5  A 3.5 3.5 0 0 1 491.5 1121 L 491.5 1193  A 3.5 3.5 0 0 1 488 1196.5 L 255 1196.5  A 3.5 3.5 0 0 1 251.5 1193 L 251.5 1121  Z " stroke-width="1" stroke-dasharray="9,4" stroke="#ff3399" fill="none" stroke-dashoffset="0.5" />
  </g>
</svg>