<?xml version="1.0" encoding="utf-8"?>
<svg version="1.1" xmlns:xlink="http://www.w3.org/1999/xlink" width="40px" height="50px" xmlns="http://www.w3.org/2000/svg">
  <defs>
    <filter x="603px" y="1075px" width="40px" height="50px" filterUnits="userSpaceOnUse" id="filter2699">
      <feOffset dx="1" dy="1" in="SourceAlpha" result="shadowOffsetInner" />
      <feGaussianBlur stdDeviation="2.5" in="shadowOffsetInner" result="shadowGaussian" />
      <feComposite in2="shadowGaussian" operator="atop" in="SourceAlpha" result="shadowComposite" />
      <feColorMatrix type="matrix" values="0 0 0 0 0  0 0 0 0 0  0 0 0 0 0  0 0 0 0.698039215686274 0  " in="shadowComposite" />
    </filter>
    <g id="widget2700">
      <path d="M 622 1118.03692846835  C 616.2 1108.40734059591  607.5 1102.62958787244  607.5 1093  C 607.5 1087.98571428571  610.4 1079.5  622 1079.5  C 633.6 1079.5  636.5 1087.98571428571  636.5 1093  C 636.5 1102.62958787244  627.8 1108.40734059591  622 1118.03692846835  Z " fill-rule="nonzero" fill="#009dd9" stroke="none" />
      <path d="M 622 1119  C 616 1109  607 1103  607 1093  C 607 1087.8  610 1079  622 1079  C 634 1079  637 1087.8  637 1093  C 637 1103  628 1109  622 1119  Z M 622 1117.07385693671  C 627.6 1107.81468119182  636 1102.25917574489  636 1093  C 636 1088.17142857143  633.2 1080  622 1080  C 610.8 1080  608 1088.17142857143  608 1093  C 608 1102.25917574489  616.4 1107.81468119182  622 1117.07385693671  Z " fill-rule="nonzero" fill="#ffffff" stroke="none" />
    </g>
  </defs>
  <g transform="matrix(1 0 0 1 -603 -1075 )">
    <use xlink:href="#widget2700" filter="url(#filter2699)" />
    <use xlink:href="#widget2700" />
  </g>
</svg>