<?xml version="1.0" encoding="utf-8"?>
<svg version="1.1" xmlns:xlink="http://www.w3.org/1999/xlink" width="8px" height="11px" xmlns="http://www.w3.org/2000/svg">
  <g transform="matrix(1 0 0 1 -726 -181 )">
    <path d="M 7.8515625 6.6484375  C 7.95052083333333 6.74739583333333  8 6.86458333333333  8 7  C 8 7.13541666666667  7.95052083333333 7.25260416666667  7.8515625 7.3515625  L 4.3515625 10.8515625  C 4.25260416666667 10.9505208333333  4.13541666666667 11  4 11  C 3.86458333333333 11  3.74739583333333 10.9505208333333  3.6484375 10.8515625  L 0.1484375 7.3515625  C 0.0494791666666667 7.25260416666667  0 7.13541666666667  0 7  C 0 6.86458333333333  0.0494791666666667 6.74739583333333  0.1484375 6.6484375  C 0.247395833333333 6.54947916666667  0.364583333333333 6.5  0.5 6.5  L 7.5 6.5  C 7.63541666666667 6.5  7.75260416666667 6.54947916666667  7.8515625 6.6484375  Z M 7.8515625 3.6484375  C 7.95052083333333 3.74739583333333  8 3.86458333333333  8 4  C 8 4.13541666666667  7.95052083333333 4.25260416666667  7.8515625 4.3515625  C 7.75260416666667 4.45052083333333  7.63541666666667 4.5  7.5 4.5  L 0.5 4.5  C 0.364583333333333 4.5  0.247395833333333 4.45052083333333  0.1484375 4.3515625  C 0.0494791666666667 4.25260416666667  0 4.13541666666667  0 4  C 0 3.86458333333333  0.0494791666666667 3.74739583333333  0.1484375 3.6484375  L 3.6484375 0.148437500000001  C 3.74739583333333 0.0494791666666656  3.86458333333333 0  4 0  C 4.13541666666667 0  4.25260416666667 0.0494791666666656  4.3515625 0.148437500000001  L 7.8515625 3.6484375  Z " fill-rule="nonzero" fill="#ffffff" stroke="none" transform="matrix(1 0 0 1 726 181 )" />
  </g>
</svg>