<?xml version="1.0" encoding="utf-8"?>
<svg version="1.1" xmlns:xlink="http://www.w3.org/1999/xlink" width="53px" height="10px" preserveAspectRatio="xMinYMid meet" viewBox="1445 136  53 8" xmlns="http://www.w3.org/2000/svg">
  <path d="M 1421 150.5  L 1445 150.5  A 5 5 0 0 0 1450.5 145.5 A 5 5 0 0 1 1455.5 140.5 L 1488 140.5  A 5 5 0 0 1 1493.5 145.5 L 1493.5 156  " stroke-width="1" stroke="#7a7a7a" fill="none" />
  <path d="M 1423 147.5  A 3 3 0 0 0 1420 150.5 A 3 3 0 0 0 1423 153.5 A 3 3 0 0 0 1426 150.5 A 3 3 0 0 0 1423 147.5 Z " fill-rule="nonzero" fill="#7a7a7a" stroke="none" />
</svg>