<?xml version="1.0" encoding="utf-8"?>
<svg version="1.1" xmlns:xlink="http://www.w3.org/1999/xlink" width="109px" height="170px" xmlns="http://www.w3.org/2000/svg">
  <g transform="matrix(1 0 0 1 -355 -226 )">
    <path d="M 355 226  L 464 226  L 464 396  L 355 396  L 355 226  " fill-rule="nonzero" fill="#cccccc" stroke="none" />
    <path d="M 363 234  L 456 234  L 456 388  L 363 388  L 363 234  " fill-rule="nonzero" fill="#ffffff" stroke="none" />
    <path d="M 419.855 267.85  C 415.277 267.85  411.68 264.253  411.68 259.675  C 411.68 255.097  415.277 251.5  419.855 251.5  C 424.433 251.5  428.03 255.097  428.03 259.675  C 428.03 264.253  424.433 267.85  419.855 267.85  " fill-rule="nonzero" fill="#cccccc" stroke="none" />
    <path d="M 366 386  L 366 304.05  L 388 266.8  L 418.8 296.6  L 436.4 289.15  L 454 296.6  L 454 386  L 366 386  " fill-rule="nonzero" fill="#169bd5" stroke="none" />
  </g>
</svg>