<?xml version="1.0" encoding="utf-8"?>
<svg version="1.1" xmlns:xlink="http://www.w3.org/1999/xlink" width="109px" height="170px" xmlns="http://www.w3.org/2000/svg">
  <g transform="matrix(1 0 0 1 -338 -271 )">
    <path d="M 338 271  L 447 271  L 447 441  L 338 441  L 338 271  " fill-rule="nonzero" fill="#cccccc" stroke="none" />
    <path d="M 346 279  L 439 279  L 439 433  L 346 433  L 346 279  " fill-rule="nonzero" fill="#ffffff" stroke="none" />
    <path d="M 402.855 312.85  C 398.277 312.85  394.68 309.253  394.68 304.675  C 394.68 300.097  398.277 296.5  402.855 296.5  C 407.433 296.5  411.03 300.097  411.03 304.675  C 411.03 309.253  407.433 312.85  402.855 312.85  " fill-rule="nonzero" fill="#cccccc" stroke="none" />
    <path d="M 349 431  L 349 349.05  L 371 311.8  L 401.8 341.6  L 419.4 334.15  L 437 341.6  L 437 431  L 349 431  " fill-rule="nonzero" fill="#169bd5" stroke="none" />
  </g>
</svg>