<?xml version="1.0" encoding="utf-8"?>
<svg version="1.1" xmlns:xlink="http://www.w3.org/1999/xlink" width="109px" height="170px" xmlns="http://www.w3.org/2000/svg">
  <g transform="matrix(1 0 0 1 -312 -288 )">
    <path d="M 312 288  L 421 288  L 421 458  L 312 458  L 312 288  " fill-rule="nonzero" fill="#cccccc" stroke="none" />
    <path d="M 320 296  L 413 296  L 413 450  L 320 450  L 320 296  " fill-rule="nonzero" fill="#ffffff" stroke="none" />
    <path d="M 376.855 329.85  C 372.277 329.85  368.68 326.253  368.68 321.675  C 368.68 317.097  372.277 313.5  376.855 313.5  C 381.433 313.5  385.03 317.097  385.03 321.675  C 385.03 326.253  381.433 329.85  376.855 329.85  " fill-rule="nonzero" fill="#cccccc" stroke="none" />
    <path d="M 323 448  L 323 366.05  L 345 328.8  L 375.8 358.6  L 393.4 351.15  L 411 358.6  L 411 448  L 323 448  " fill-rule="nonzero" fill="#169bd5" stroke="none" />
  </g>
</svg>