<?xml version="1.0" encoding="utf-8"?>
<svg version="1.1" xmlns:xlink="http://www.w3.org/1999/xlink" width="109px" height="170px" xmlns="http://www.w3.org/2000/svg">
  <g transform="matrix(1 0 0 1 -312 -545 )">
    <path d="M 312 545  L 421 545  L 421 715  L 312 715  L 312 545  " fill-rule="nonzero" fill="#cccccc" stroke="none" />
    <path d="M 320 553  L 413 553  L 413 707  L 320 707  L 320 553  " fill-rule="nonzero" fill="#ffffff" stroke="none" />
    <path d="M 376.855 586.85  C 372.277 586.85  368.68 583.253  368.68 578.675  C 368.68 574.097  372.277 570.5  376.855 570.5  C 381.433 570.5  385.03 574.097  385.03 578.675  C 385.03 583.253  381.433 586.85  376.855 586.85  " fill-rule="nonzero" fill="#cccccc" stroke="none" />
    <path d="M 323 705  L 323 623.05  L 345 585.8  L 375.8 615.6  L 393.4 608.15  L 411 615.6  L 411 705  L 323 705  " fill-rule="nonzero" fill="#169bd5" stroke="none" />
  </g>
</svg>