<?xml version="1.0" encoding="utf-8"?>
<svg version="1.1" xmlns:xlink="http://www.w3.org/1999/xlink" width="36px" height="34px" xmlns="http://www.w3.org/2000/svg">
  <defs>
    <filter x="104px" y="529px" width="36px" height="34px" filterUnits="userSpaceOnUse" id="filter775">
      <feOffset dx="1" dy="1" in="SourceAlpha" result="shadowOffsetInner" />
      <feGaussianBlur stdDeviation="2.5" in="shadowOffsetInner" result="shadowGaussian" />
      <feComposite in2="shadowGaussian" operator="atop" in="SourceAlpha" result="shadowComposite" />
      <feColorMatrix type="matrix" values="0 0 0 0 0  0 0 0 0 0  0 0 0 0 0  0 0 0 0.698039215686274 0  " in="shadowComposite" />
    </filter>
    <g id="widget776">
      <path d="M 121 556.237151240006  C 116 550.530554609234  108.5 547.106596630771  108.5 541.4  C 108.5 538.465714285714  111 533.5  121 533.5  C 131 533.5  133.5 538.465714285714  133.5 541.4  C 133.5 547.106596630771  126 550.530554609234  121 556.237151240006  Z " fill-rule="nonzero" fill="#009dd9" stroke="none" />
      <path d="M 121 557  C 115.8 551  108 547.4  108 541.4  C 108 538.28  110.6 533  121 533  C 131.4 533  134 538.28  134 541.4  C 134 547.4  126.2 551  121 557  Z M 121 555.474302480011  C 125.8 550.061109218468  133 546.813193261543  133 541.4  C 133 538.651428571429  130.6 534  121 534  C 111.4 534  109 538.651428571429  109 541.4  C 109 546.813193261543  116.2 550.061109218468  121 555.474302480011  Z " fill-rule="nonzero" fill="#ffffff" stroke="none" />
    </g>
  </defs>
  <g transform="matrix(1 0 0 1 -104 -529 )">
    <use xlink:href="#widget776" filter="url(#filter775)" />
    <use xlink:href="#widget776" />
  </g>
</svg>