<?xml version="1.0" encoding="utf-8"?>
<svg version="1.1" xmlns:xlink="http://www.w3.org/1999/xlink" width="8px" height="9px" xmlns="http://www.w3.org/2000/svg">
  <g transform="matrix(1 0 0 1 -2332 494 )">
    <path d="M 1.234375 7.51262019230769  C 1.30034722222222 7.44411057692308  1.33333333333333 7.36298076923077  1.33333333333333 7.26923076923077  C 1.33333333333333 7.17548076923077  1.30034722222222 7.09435096153846  1.234375 7.02584134615385  C 1.16840277777778 6.95733173076923  1.09027777777778 6.92307692307692  1 6.92307692307692  C 0.909722222222222 6.92307692307692  0.831597222222222 6.95733173076923  0.765625 7.02584134615385  C 0.699652777777778 7.09435096153846  0.666666666666667 7.17548076923077  0.666666666666667 7.26923076923077  C 0.666666666666667 7.36298076923077  0.699652777777778 7.44411057692308  0.765625 7.51262019230769  C 0.831597222222222 7.58112980769231  0.909722222222222 7.61538461538461  1 7.61538461538461  C 1.09027777777778 7.61538461538461  1.16840277777778 7.58112980769231  1.234375 7.51262019230769  Z M 7.22135416666667 4.59194711538461  C 7.29600694444445 4.42608173076923  7.33333333333333 4.28004807692308  7.33333333333333 4.15384615384615  C 7.33333333333333 3.96995192307692  7.265625 3.80859375  7.13020833333333 3.66977163461538  C 6.99479166666667 3.53094951923077  6.84027777777778 3.46153846153846  6.66666666666667 3.46153846153846  L 4.83333333333333 3.46153846153846  C 4.83333333333333 3.25240384615385  4.91666666666667 2.96484375  5.08333333333333 2.59885817307692  C 5.25 2.23287259615385  5.33333333333333 1.94350961538461  5.33333333333333 1.73076923076923  C 5.33333333333333 1.37740384615385  5.27777777777778 1.11598557692308  5.16666666666667 0.946514423076923  C 5.05555555555556 0.777043269230769  4.83333333333333 0.692307692307692  4.5 0.692307692307692  C 4.40972222222222 0.786057692307692  4.34375 0.939302884615384  4.30208333333333 1.15204326923077  C 4.26041666666667 1.36478365384615  4.20746527777778 1.59104567307692  4.14322916666667 1.83082932692308  C 4.07899305555556 2.07061298076923  3.97569444444445 2.26802884615385  3.83333333333333 2.42307692307692  C 3.75694444444444 2.50600961538461  3.62326388888889 2.67007211538461  3.43229166666667 2.91526442307692  C 3.41840277777778 2.93329326923077  3.37847222222222 2.98737980769231  3.3125 3.07752403846154  C 3.24652777777778 3.16766826923077  3.19184027777778 3.24158653846154  3.1484375 3.29927884615385  C 3.10503472222222 3.35697115384615  3.04513888888889 3.43359375  2.96875 3.52914663461538  C 2.89236111111111 3.62469951923077  2.82291666666667 3.70402644230769  2.76041666666667 3.76712740384615  C 2.69791666666667 3.83022836538461  2.63107638888889 3.89423076923077  2.55989583333333 3.95913461538462  C 2.48871527777778 4.02403846153846  2.41927083333333 4.07271634615385  2.3515625 4.10516826923077  C 2.28385416666667 4.13762019230769  2.22222222222222 4.15384615384615  2.16666666666667 4.15384615384615  L 2 4.15384615384615  L 2 7.61538461538461  L 2.16666666666667 7.61538461538461  C 2.21180555555556 7.61538461538461  2.26649305555556 7.62079326923077  2.33072916666667 7.63161057692308  C 2.39496527777778 7.64242788461539  2.45225694444444 7.65414663461539  2.50260416666667 7.66676682692308  C 2.55295138888889 7.67938701923077  2.61892361111111 7.69921875  2.70052083333333 7.72626201923077  C 2.78211805555556 7.75330528846154  2.84288194444444 7.77403846153846  2.8828125 7.78846153846154  C 2.92274305555556 7.80288461538462  2.984375 7.82542067307692  3.06770833333333 7.85606971153846  C 3.15104166666667 7.88671875  3.20138888888889 7.90564903846154  3.21875 7.91286057692308  C 3.95138888888889 8.17608173076923  4.54513888888889 8.30769230769231  5 8.30769230769231  L 5.63020833333333 8.30769230769231  C 6.296875 8.30769230769231  6.63020833333333 8.00661057692308  6.63020833333333 7.40444711538461  C 6.63020833333333 7.31069711538462  6.62152777777778 7.20973557692308  6.60416666666667 7.1015625  C 6.70833333333333 7.04387019230769  6.79079861111111 6.94921875  6.8515625 6.81760817307692  C 6.91232638888889 6.68599759615384  6.94270833333333 6.55348557692308  6.94270833333333 6.42007211538461  C 6.94270833333333 6.28665865384615  6.91145833333333 6.16225961538461  6.84895833333333 6.046875  C 7.03298611111111 5.86658653846154  7.125 5.65204326923077  7.125 5.40324519230769  C 7.125 5.31310096153846  7.10763888888889 5.21304086538461  7.07291666666667 5.10306490384615  C 7.03819444444445 4.99308894230769  6.99479166666667 4.90745192307692  6.94270833333333 4.84615384615385  C 7.05381944444445 4.84254807692308  7.14670138888889 4.7578125  7.22135416666667 4.59194711538461  Z M 7.60416666666667 3.18028846153846  C 7.86805555555555 3.45432692307692  8 3.77704326923077  8 4.1484375  C 8 4.46935096153846  7.91493055555555 4.76322115384615  7.74479166666667 5.03004807692308  C 7.77604166666667 5.14903846153846  7.79166666666667 5.2734375  7.79166666666667 5.40324519230769  C 7.79166666666667 5.68088942307692  7.72569444444445 5.94050480769231  7.59375 6.18209134615385  C 7.60416666666667 6.2578125  7.609375 6.33533653846154  7.609375 6.41466346153846  C 7.609375 6.77884615384615  7.50520833333333 7.09975961538461  7.296875 7.37740384615385  C 7.30034722222222 7.87860576923077  7.15277777777778 8.27433894230769  6.85416666666667 8.56460336538461  C 6.55555555555556 8.85486778846154  6.16145833333333 9  5.671875 9  L 5.484375 9  L 5 9  C 4.66666666666667 9  4.33767361111111 8.95943509615385  4.01302083333333 8.87830528846154  C 3.68836805555556 8.79717548076923  3.3125 8.67908653846154  2.88541666666667 8.52403846153846  C 2.48263888888889 8.37980769230769  2.24305555555556 8.30769230769231  2.16666666666667 8.30769230769231  L 0.666666666666667 8.30769230769231  C 0.482638888888889 8.30769230769231  0.325520833333333 8.24008413461539  0.1953125 8.10486778846154  C 0.0651041666666667 7.96965144230769  0 7.80649038461538  0 7.61538461538461  L 0 4.15384615384615  C 0 3.96274038461538  0.0651041666666667 3.79957932692308  0.1953125 3.66436298076923  C 0.325520833333333 3.52914663461538  0.482638888888889 3.46153846153846  0.666666666666667 3.46153846153846  L 2.09375 3.46153846153846  C 2.21875 3.375  2.45659722222222 3.09555288461538  2.80729166666667 2.62319711538462  C 3.00868055555556 2.35276442307692  3.19444444444444 2.12199519230769  3.36458333333333 1.93088942307692  C 3.44791666666667 1.84074519230769  3.50954861111111 1.68659855769231  3.54947916666667 1.46844951923077  C 3.58940972222222 1.25030048076923  3.64236111111111 1.02223557692308  3.70833333333333 0.784254807692308  C 3.77430555555556 0.546274038461539  3.88194444444444 0.3515625  4.03125 0.200120192307692  C 4.16666666666667 0.0667067307692313  4.32291666666667 0  4.5 0  C 4.79166666666667 0  5.05381944444445 0.0585937500000007  5.28645833333333 0.17578125  C 5.51909722222222 0.292968749999999  5.69618055555556 0.475961538461539  5.81770833333333 0.724759615384615  C 5.93923611111111 0.973557692307692  6 1.30889423076923  6 1.73076923076923  C 6 2.06610576923077  5.91666666666667 2.41225961538462  5.75 2.76923076923077  L 6.66666666666667 2.76923076923077  C 7.02777777777778 2.76923076923077  7.34027777777778 2.90625  7.60416666666667 3.18028846153846  Z " fill-rule="nonzero" fill="#a7a1a1" stroke="none" transform="matrix(1 0 0 1 2332 -494 )" />
  </g>
</svg>