<?xml version="1.0" encoding="utf-8"?>
<svg version="1.1" xmlns:xlink="http://www.w3.org/1999/xlink" width="10px" height="39px" preserveAspectRatio="xMidYMin meet" viewBox="1986 585  8 39" xmlns="http://www.w3.org/2000/svg">
  <path d="M 1931 619.5  L 1985 619.5  A 5 5 0 0 0 1990.5 614.5 L 1990.5 595  A 5 5 0 0 1 1995.5 590.5 L 2047 590.5  A 5 5 0 0 1 2052.5 595.5 L 2052.5 606  " stroke-width="1" stroke="#ff3399" fill="none" />
  <path d="M 1933 616.5  A 3 3 0 0 0 1930 619.5 A 3 3 0 0 0 1933 622.5 A 3 3 0 0 0 1936 619.5 A 3 3 0 0 0 1933 616.5 Z " fill-rule="nonzero" fill="#ff3399" stroke="none" />
</svg>