<?xml version="1.0" encoding="utf-8"?>
<svg version="1.1" xmlns:xlink="http://www.w3.org/1999/xlink" width="21px" height="21px" xmlns="http://www.w3.org/2000/svg">
  <g transform="matrix(1 0 0 1 -39 -9 )">
    <path d="M 49.5 9  C 55.38 9  60 13.62  60 19.5  C 60 25.38  55.38 30  49.5 30  C 43.62 30  39 25.38  39 19.5  C 39 13.62  43.62 9  49.5 9  Z " fill-rule="nonzero" fill="#ffffff" stroke="none" />
    <path d="M 49.5 9.5  C 55.1 9.5  59.5 13.9  59.5 19.5  C 59.5 25.1  55.1 29.5  49.5 29.5  C 43.9 29.5  39.5 25.1  39.5 19.5  C 39.5 13.9  43.9 9.5  49.5 9.5  Z " stroke-width="1" stroke="#8c8c8c" fill="none" />
  </g>
</svg>