<?xml version="1.0" encoding="utf-8"?>
<svg version="1.1" xmlns:xlink="http://www.w3.org/1999/xlink" width="22px" height="22px" xmlns="http://www.w3.org/2000/svg">
  <g transform="matrix(1 0 0 1 -17 -8 )">
    <path d="M 28 8  C 34.16 8  39 12.84  39 19  C 39 25.16  34.16 30  28 30  C 21.84 30  17 25.16  17 19  C 17 12.84  21.84 8  28 8  Z " fill-rule="nonzero" fill="#ffffff" stroke="none" />
    <path d="M 28 8.5  C 33.88 8.5  38.5 13.12  38.5 19  C 38.5 24.88  33.88 29.5  28 29.5  C 22.12 29.5  17.5 24.88  17.5 19  C 17.5 13.12  22.12 8.5  28 8.5  Z " stroke-width="1" stroke="#8c8c8c" fill="none" />
  </g>
</svg>