<?xml version="1.0" encoding="utf-8"?>
<svg version="1.1" xmlns:xlink="http://www.w3.org/1999/xlink" width="67px" height="10px" preserveAspectRatio="xMinYMid meet" viewBox="2005 136  67 8" xmlns="http://www.w3.org/2000/svg">
  <path d="M 1995 152.5  L 2005 152.5  A 5 5 0 0 0 2010.5 147.5 L 2010.5 145  A 5 5 0 0 1 2015.5 140.5 L 2062 140.5  A 5 5 0 0 1 2067.5 145.5 L 2067.5 158  " stroke-width="1" stroke="#ff3399" fill="none" />
  <path d="M 1997 149.5  A 3 3 0 0 0 1994 152.5 A 3 3 0 0 0 1997 155.5 A 3 3 0 0 0 2000 152.5 A 3 3 0 0 0 1997 149.5 Z " fill-rule="nonzero" fill="#ff3399" stroke="none" />
</svg>