<?xml version="1.0" encoding="utf-8"?>
<svg version="1.1" xmlns:xlink="http://www.w3.org/1999/xlink" width="18px" height="18px" preserveAspectRatio="xMinYMid meet" viewBox="1363 176  18 16" xmlns="http://www.w3.org/2000/svg">
  <path d="M 1370 184.5  L 1388 184.5  A 2 2 0 0 0 1390.5 182.5 A 2 2 0 0 1 1392.5 180.5 L 1437 180.5  A 5 5 0 0 1 1442.5 185.5 L 1442.5 190  " stroke-width="1" stroke="#ff3399" fill="none" />
  <path d="M 1372 181.5  A 3 3 0 0 0 1369 184.5 A 3 3 0 0 0 1372 187.5 A 3 3 0 0 0 1375 184.5 A 3 3 0 0 0 1372 181.5 Z " fill-rule="nonzero" fill="#ff3399" stroke="none" />
</svg>