<?xml version="1.0" encoding="utf-8"?>
<svg version="1.1" xmlns:xlink="http://www.w3.org/1999/xlink" width="13px" height="14px" xmlns="http://www.w3.org/2000/svg">
  <g transform="matrix(1 0 0 1 -2063 -645 )">
    <path d="M 12.6936026936028 10.4646464646465  C 12.8978675645341 10.6846240179573  13 10.9517396184063  13 11.2659932659932  C 13 11.5802469135803  12.8978675645341 11.8473625140292  12.6936026936028 12.0673400673401  L 11.205387205387 13.6700336700337  C 11.0011223344557 13.8900112233446  10.7530864197533 14  10.4612794612796 14  C 10.169472502806 14  9.92143658810304 13.8900112233446  9.71717171717175 13.6700336700337  L 6.5 10.2053872053872  L 3.28282828282825 13.6700336700337  C 3.07856341189696 13.8900112233446  2.830527497194 14  2.53872053872036 14  C 2.24691358024673 14  1.99887766554427 13.8900112233446  1.79461279461297 13.6700336700337  L 0.306397306397192 12.0673400673401  C 0.102132435465895 11.8473625140292  0 11.5802469135803  0 11.2659932659932  C 0 10.9517396184063  0.102132435465895 10.6846240179573  0.306397306397192 10.4646464646465  L 3.52356902356894 7  L 0.306397306397192 3.53535353535352  C 0.102132435465895 3.31537598204267  0 3.04826038159371  0 2.73400673400675  C 0 2.41975308641975  0.102132435465895 2.15263748597084  0.306397306397192 1.93265993265993  L 1.79461279461297 0.329966329966339  C 1.99887766554427 0.109988776655428  2.24691358024673 0  2.53872053872036 0  C 2.830527497194 0  3.07856341189696 0.109988776655428  3.28282828282825 0.329966329966339  L 6.5 3.79461279461282  L 9.71717171717175 0.329966329966339  C 9.92143658810304 0.109988776655428  10.169472502806 0  10.4612794612796 0  C 10.7530864197533 0  11.0011223344557 0.109988776655428  11.205387205387 0.329966329966339  L 12.6936026936028 1.93265993265993  C 12.8978675645341 2.15263748597084  13 2.41975308641975  13 2.73400673400675  C 13 3.04826038159371  12.8978675645341 3.31537598204267  12.6936026936028 3.53535353535352  L 9.47643097643106 7  L 12.6936026936028 10.4646464646465  Z " fill-rule="nonzero" fill="#cccccc" stroke="none" transform="matrix(1 0 0 1 2063 645 )" />
  </g>
</svg>