<?xml version="1.0" encoding="utf-8"?>
<svg version="1.1" xmlns:xlink="http://www.w3.org/1999/xlink" width="62px" height="10px" preserveAspectRatio="xMinYMid meet" viewBox="1375 166  62 8" xmlns="http://www.w3.org/2000/svg">
  <path d="M 1360 174.5  L 1378 174.5  A 2 2 0 0 0 1380.5 172.5 A 2 2 0 0 1 1382.5 170.5 L 1427 170.5  A 5 5 0 0 1 1432.5 175.5 L 1432.5 180  " stroke-width="1" stroke="#ff3399" fill="none" />
  <path d="M 1362 171.5  A 3 3 0 0 0 1359 174.5 A 3 3 0 0 0 1362 177.5 A 3 3 0 0 0 1365 174.5 A 3 3 0 0 0 1362 171.5 Z " fill-rule="nonzero" fill="#ff3399" stroke="none" />
</svg>