<?xml version="1.0" encoding="utf-8"?>
<svg version="1.1" xmlns:xlink="http://www.w3.org/1999/xlink" width="19px" height="12px" xmlns="http://www.w3.org/2000/svg">
  <g transform="matrix(1 0 0 1 -1125 -284 )">
    <path d="M 10.311767578125 7.8609375  C 10.562255859375 7.2703125  10.6875 6.65  10.6875 6  C 10.6875 5.35  10.562255859375 4.7296875  10.311767578125 4.1390625  C 10.061279296875 3.5484375  9.72265625 3.0375  9.2958984375 2.60625  C 8.869140625 2.175  8.363525390625 1.8328125  7.779052734375 1.5796875  C 7.194580078125 1.3265625  6.58072916666667 1.2  5.9375 1.2  C 5.29427083333333 1.2  4.680419921875 1.3265625  4.095947265625 1.5796875  C 3.511474609375 1.8328125  3.005859375 2.175  2.5791015625 2.60625  C 2.15234375 3.0375  1.813720703125 3.5484375  1.563232421875 4.1390625  C 1.312744140625 4.7296875  1.1875 5.35  1.1875 6  C 1.1875 6.65  1.312744140625 7.2703125  1.563232421875 7.8609375  C 1.813720703125 8.4515625  2.15234375 8.9625  2.5791015625 9.39375  C 3.005859375 9.825  3.511474609375 10.1671875  4.095947265625 10.4203125  C 4.680419921875 10.6734375  5.29427083333333 10.8  5.9375 10.8  C 6.58072916666667 10.8  7.194580078125 10.6734375  7.779052734375 10.4203125  C 8.363525390625 10.1671875  8.869140625 9.825  9.2958984375 9.39375  C 9.72265625 8.9625  10.061279296875 8.4515625  10.311767578125 7.8609375  Z M 17.436767578125 7.8609375  C 17.687255859375 7.2703125  17.8125 6.65  17.8125 6  C 17.8125 5.35  17.687255859375 4.7296875  17.436767578125 4.1390625  C 17.186279296875 3.5484375  16.84765625 3.0375  16.4208984375 2.60625  C 15.994140625 2.175  15.488525390625 1.8328125  14.904052734375 1.5796875  C 14.319580078125 1.3265625  13.7057291666667 1.2  13.0625 1.2  L 9.4814453125 1.2  C 10.2174479166667 1.7625  10.8003743489583 2.4625  11.230224609375 3.3  C 11.6600748697917 4.1375  11.875 5.0375  11.875 6  C 11.875 6.9625  11.6600748697917 7.8625  11.230224609375 8.7  C 10.8003743489583 9.5375  10.2174479166667 10.2375  9.4814453125 10.8  L 13.0625 10.8  C 13.7057291666667 10.8  14.319580078125 10.6734375  14.904052734375 10.4203125  C 15.488525390625 10.1671875  15.994140625 9.825  16.4208984375 9.39375  C 16.84765625 8.9625  17.186279296875 8.4515625  17.436767578125 7.8609375  Z M 18.52685546875 3.6703125  C 18.84228515625 4.4109375  19 5.1875  19 6  C 19 6.8125  18.84228515625 7.5890625  18.52685546875 8.3296875  C 18.21142578125 9.0703125  17.789306640625 9.7078125  17.260498046875 10.2421875  C 16.731689453125 10.7765625  16.100830078125 11.203125  15.367919921875 11.521875  C 14.635009765625 11.840625  13.8665364583333 12  13.0625 12  L 5.9375 12  C 5.13346354166667 12  4.364990234375 11.840625  3.632080078125 11.521875  C 2.899169921875 11.203125  2.268310546875 10.7765625  1.739501953125 10.2421875  C 1.210693359375 9.7078125  0.78857421875 9.0703125  0.47314453125 8.3296875  C 0.15771484375 7.5890625  0 6.8125  0 6  C 0 5.1875  0.15771484375 4.4109375  0.47314453125 3.6703125  C 0.78857421875 2.9296875  1.210693359375 2.2921875  1.739501953125 1.7578125  C 2.268310546875 1.2234375  2.899169921875 0.796875  3.632080078125 0.478124999999999  C 4.364990234375 0.159375  5.13346354166667 0  5.9375 0  L 13.0625 0  C 13.8665364583333 0  14.635009765625 0.159375  15.367919921875 0.478124999999999  C 16.100830078125 0.796875  16.731689453125 1.2234375  17.260498046875 1.7578125  C 17.789306640625 2.2921875  18.21142578125 2.9296875  18.52685546875 3.6703125  Z " fill-rule="nonzero" fill="#999999" stroke="none" transform="matrix(1 0 0 1 1125 284 )" />
  </g>
</svg>