<?xml version="1.0" encoding="utf-8"?>
<svg version="1.1" xmlns:xlink="http://www.w3.org/1999/xlink" width="13px" height="13px" xmlns="http://www.w3.org/2000/svg">
  <g transform="matrix(1 0 0 1 -369 -4875 )">
    <path d="M 12.7651612903226 1.79461279461279  C 12.9217204301075 1.99887766554433  13 2.24691358024691  13 2.53872053872054  C 13 2.83052749719416  12.9217204301075 3.07856341189674  12.7651612903226 3.28282828282828  L 6.69290322580645 11.2053872053872  L 5.55225806451613 12.6936026936027  C 5.39569892473118 12.8978675645342  5.20559139784946 13  4.98193548387097 13  C 4.75827956989247 13  4.56817204301075 12.8978675645342  4.41161290322581 12.6936026936027  L 3.27096774193548 11.2053872053872  L 0.234838709677419 7.24410774410774  C 0.0782795698924732 7.03984287317621  0 6.79180695847362  0 6.5  C 0 6.20819304152637  0.0782795698924732 5.96015712682379  0.234838709677419 5.75589225589226  L 1.37548387096774 4.26767676767677  C 1.53204301075269 4.06341189674523  1.72215053763441 3.96127946127946  1.9458064516129 3.96127946127946  C 2.1694623655914 3.96127946127946  2.35956989247312 4.06341189674523  2.51612903225806 4.26767676767677  L 4.98193548387097 7.49579124579125  L 10.4838709677419 0.306397306397306  C 10.6404301075269 0.102132435465768  10.8305376344086 0  11.0541935483871 0  C 11.2778494623656 0  11.4679569892473 0.102132435465768  11.6245161290323 0.306397306397306  L 12.7651612903226 1.79461279461279  Z " fill-rule="nonzero" fill="#000000" stroke="none" transform="matrix(1 0 0 1 369 4875 )" />
  </g>
</svg>