<?xml version="1.0" encoding="utf-8"?>
<svg version="1.1" xmlns:xlink="http://www.w3.org/1999/xlink" width="40px" height="40px" xmlns="http://www.w3.org/2000/svg">
  <g transform="matrix(1 0 0 1 -497 -5207 )">
    <path d="M 517 5207  C 528.2 5207  537 5215.8  537 5227  C 537 5238.2  528.2 5247  517 5247  C 505.8 5247  497 5238.2  497 5227  C 497 5215.8  505.8 5207  517 5207  Z " fill-rule="nonzero" fill="#ffffff" stroke="none" />
    <path d="M 517 5207.5  C 527.92 5207.5  536.5 5216.08  536.5 5227  C 536.5 5237.92  527.92 5246.5  517 5246.5  C 506.08 5246.5  497.5 5237.92  497.5 5227  C 497.5 5216.08  506.08 5207.5  517 5207.5  Z " stroke-width="1" stroke="#d9d7d7" fill="none" />
  </g>
</svg>