<?xml version="1.0" encoding="utf-8"?>
<svg version="1.1" xmlns:xlink="http://www.w3.org/1999/xlink" width="18px" height="14px" xmlns="http://www.w3.org/2000/svg">
  <g transform="matrix(1 0 0 1 -748 -5208 )">
    <path d="M 16.6188616071429 12.6328125  C 16.6824776785714 12.5698390151515  16.7142857142857 12.4952651515152  16.7142857142857 12.4090909090909  L 16.7142857142857 4.77272727272727  C 16.5 5.01136363636364  16.2689732142857 5.23011363636364  16.0212053571429 5.42897727272727  C 14.2265625 6.79450757575757  12.8002232142857 7.91477272727273  11.7421875 8.78977272727273  C 11.4006696428571 9.0748106060606  11.1227678571429 9.296875  10.9084821428571 9.45596590909091  C 10.6941964285714 9.61505681818182  10.4045758928571 9.77580492424242  10.0396205357143 9.93821022727273  C 9.67466517857143 10.100615530303  9.33147321428572 10.1818181818182  9.01004464285714 10.1818181818182  L 9 10.1818181818182  L 8.98995535714286 10.1818181818182  C 8.66852678571429 10.1818181818182  8.32533482142857 10.100615530303  7.96037946428571 9.93821022727273  C 7.59542410714286 9.77580492424242  7.30580357142857 9.61505681818182  7.09151785714286 9.45596590909091  C 6.87723214285714 9.296875  6.59933035714286 9.0748106060606  6.2578125 8.78977272727273  C 5.19977678571429 7.91477272727273  3.7734375 6.79450757575757  1.97879464285714 5.42897727272727  C 1.73102678571429 5.23011363636364  1.5 5.01136363636364  1.28571428571429 4.77272727272727  L 1.28571428571429 12.4090909090909  C 1.28571428571429 12.4952651515152  1.31752232142857 12.5698390151515  1.38113839285714 12.6328125  C 1.44475446428571 12.6957859848485  1.52008928571429 12.7272727272727  1.60714285714286 12.7272727272727  L 16.3928571428571 12.7272727272727  C 16.4799107142857 12.7272727272727  16.5552455357143 12.6957859848485  16.6188616071429 12.6328125  Z M 16.2472098214286 3.26633522727273  C 16.55859375 2.7857481060606  16.7142857142857 2.3499053030303  16.7142857142857 1.95880681818182  L 16.7142857142857 1.84943181818182  L 16.7142857142857 1.71519886363636  C 16.7142857142857 1.71519886363636  16.7126116071429 1.67211174242424  16.7092633928571 1.5859375  C 16.7059151785714 1.49976325757576  16.6958705357143 1.45833333333333  16.6791294642857 1.46164772727273  C 16.6623883928571 1.46496212121212  16.6439732142857 1.43513257575757  16.6238839285714 1.37215909090909  C 16.6037946428571 1.3091856060606  16.5736607142857 1.28432765151515  16.5334821428571 1.29758522727273  C 16.4933035714286 1.3108428030303  16.4464285714286 1.30255681818182  16.3928571428571 1.27272727272727  L 1.60714285714286 1.27272727272727  C 1.52008928571429 1.27272727272727  1.44475446428571 1.30421401515151  1.38113839285714 1.3671875  C 1.31752232142857 1.43016098484848  1.28571428571429 1.50473484848485  1.28571428571429 1.59090909090909  C 1.28571428571429 2.70454545454546  1.77790178571429 3.64583333333333  2.76227678571429 4.41477272727273  C 4.0546875 5.42234848484848  5.39732142857143 6.47301136363636  6.79017857142857 7.56676136363636  C 6.83035714285714 7.5999053030303  6.94754464285714 7.69767992424242  7.14174107142857 7.86008522727273  C 7.3359375 8.02249053030303  7.48995535714286 8.1467803030303  7.60379464285714 8.23295454545455  C 7.71763392857143 8.31912878787879  7.86662946428572 8.4235321969697  8.05078125 8.54616477272727  C 8.23493303571429 8.66879734848485  8.40401785714286 8.75994318181818  8.55803571428571 8.81960227272727  C 8.71205357142857 8.87926136363636  8.85602678571429 8.90909090909091  8.98995535714286 8.90909090909091  L 9 8.90909090909091  L 9.01004464285714 8.90909090909091  C 9.14397321428572 8.90909090909091  9.28794642857143 8.87926136363636  9.44196428571428 8.81960227272727  C 9.59598214285715 8.75994318181818  9.76506696428571 8.66879734848485  9.94921875 8.54616477272727  C 10.1333705357143 8.4235321969697  10.2823660714286 8.31912878787879  10.3962053571429 8.23295454545455  C 10.5100446428571 8.1467803030303  10.6640625 8.02249053030303  10.8582589285714 7.86008522727273  C 11.0524553571429 7.69767992424242  11.1696428571429 7.5999053030303  11.2098214285714 7.56676136363636  C 12.6026785714286 6.47301136363636  13.9453125 5.42234848484848  15.2377232142857 4.41477272727273  C 15.5993303571429 4.12973484848485  15.9358258928571 3.74692234848485  16.2472098214286 3.26633522727273  Z M 17.5279017857143 0.467329545454545  C 17.8426339285714 0.778882575757575  18 1.15340909090909  18 1.59090909090909  L 18 12.4090909090909  C 18 12.8465909090909  17.8426339285714 13.2211174242424  17.5279017857143 13.5326704545455  C 17.2131696428571 13.8442234848485  16.8348214285714 14  16.3928571428571 14  L 1.60714285714286 14  C 1.16517857142857 14  0.786830357142857 13.8442234848485  0.472098214285714 13.5326704545455  C 0.157366071428571 13.2211174242424  0 12.8465909090909  0 12.4090909090909  L 0 1.59090909090909  C 0 1.15340909090909  0.157366071428571 0.778882575757575  0.472098214285714 0.467329545454545  C 0.786830357142857 0.155776515151513  1.16517857142857 0  1.60714285714286 0  L 16.3928571428571 0  C 16.8348214285714 0  17.2131696428571 0.155776515151513  17.5279017857143 0.467329545454545  Z " fill-rule="nonzero" fill="#000000" stroke="none" transform="matrix(1 0 0 1 748 5208 )" />
  </g>
</svg>