<?xml version="1.0" encoding="utf-8"?>
<svg version="1.1" xmlns:xlink="http://www.w3.org/1999/xlink" width="63px" height="66px" xmlns="http://www.w3.org/2000/svg">
  <g transform="matrix(1 0 0 1 -1091 -5266 )">
    <path d="M 1091 5266  L 1154 5266  L 1154 5332  L 1091 5332  L 1091 5266  " fill-rule="nonzero" fill="#cccccc" stroke="none" />
    <path d="M 1095 5270  L 1150 5270  L 1150 5328  L 1095 5328  L 1095 5270  " fill-rule="nonzero" fill="#ffffff" stroke="none" />
    <path d="M 1128.485 5285.35  C 1125.839 5285.35  1123.76 5283.271  1123.76 5280.625  C 1123.76 5277.979  1125.839 5275.9  1128.485 5275.9  C 1131.131 5275.9  1133.21 5277.979  1133.21 5280.625  C 1133.21 5283.271  1131.131 5285.35  1128.485 5285.35  " fill-rule="nonzero" fill="#cccccc" stroke="none" />
    <path d="M 1097 5327  L 1097 5296.75  L 1110 5283  L 1128.2 5294  L 1138.6 5291.25  L 1149 5294  L 1149 5327  L 1097 5327  " fill-rule="nonzero" fill="#169bd5" stroke="none" />
  </g>
</svg>