<?xml version="1.0" encoding="utf-8"?>
<svg version="1.1" xmlns:xlink="http://www.w3.org/1999/xlink" width="22px" height="19px" xmlns="http://www.w3.org/2000/svg">
  <g transform="matrix(1 0 0 1 -1104 -5800 )">
    <path d="M 21.3493303571429 8.585625  C 21.7831101190476 9.64645833333333  22 10.9645833333333  22 12.54  C 22 13.8541666666667  21.4802827380952 15.639375  20.4408482142857 17.895625  C 20.4162946428571 17.9510416666667  20.3733258928571 18.0460416666667  20.3119419642857 18.180625  C 20.2505580357143 18.3152083333333  20.1953125 18.4339583333333  20.1462053571429 18.536875  C 20.0970982142857 18.6397916666667  20.0438988095238 18.726875  19.9866071428571 18.798125  C 19.8883928571429 18.9327083333333  19.7738095238095 19  19.6428571428571 19  C 19.5200892857143 19  19.4239211309524 18.9604166666667  19.3543526785714 18.88125  C 19.2847842261905 18.8020833333333  19.25 18.703125  19.25 18.584375  C 19.25 18.513125  19.2602306547619 18.4082291666667  19.2806919642857 18.2696875  C 19.3011532738095 18.1311458333333  19.3113839285714 18.038125  19.3113839285714 17.990625  C 19.352306547619 17.4522916666667  19.3727678571429 16.9654166666667  19.3727678571429 16.53  C 19.3727678571429 15.7304166666667  19.3011532738095 15.0139583333333  19.1579241071429 14.380625  C 19.0146949404762 13.7472916666667  18.8162202380952 13.1990625  18.5625 12.7359375  C 18.3087797619048 12.2728125  17.9813988095238 11.8730208333333  17.5803571428571 11.5365625  C 17.1793154761905 11.2001041666667  16.7475818452381 10.925  16.28515625 10.71125  C 15.8227306547619 10.4975  15.2784598214286 10.3292708333333  14.65234375 10.2065625  C 14.0262276785714 10.0838541666667  13.3960193452381 9.99875  12.76171875 9.95125  C 12.1274181547619 9.90375  11.4092261904762 9.88  10.6071428571429 9.88  L 7.85714285714286 9.88  L 7.85714285714286 12.92  C 7.85714285714286 13.1258333333333  7.77938988095238 13.3039583333333  7.62388392857143 13.454375  C 7.46837797619048 13.6047916666667  7.28422619047619 13.68  7.07142857142857 13.68  C 6.85863095238095 13.68  6.67447916666667 13.6047916666667  6.51897321428571 13.454375  L 0.233258928571429 7.374375  C 0.0777529761904762 7.22395833333333  0 7.04583333333333  0 6.84  C 0 6.63416666666667  0.0777529761904762 6.45604166666667  0.233258928571429 6.305625  L 6.51897321428571 0.225624999999999  C 6.67447916666667 0.0752083333333324  6.85863095238095 0  7.07142857142857 0  C 7.28422619047619 0  7.46837797619048 0.0752083333333324  7.62388392857143 0.225624999999999  C 7.77938988095238 0.376041666666664  7.85714285714286 0.554166666666665  7.85714285714286 0.760000000000001  L 7.85714285714286 3.8  L 10.6071428571429 3.8  C 16.4427083333333 3.8  20.0234375 5.39520833333333  21.3493303571429 8.585625  Z " fill-rule="nonzero" fill="#c7c7c7" stroke="none" transform="matrix(1 0 0 1 1104 5800 )" />
  </g>
</svg>