<?xml version="1.0" encoding="utf-8"?>
<svg version="1.1" xmlns:xlink="http://www.w3.org/1999/xlink" width="17px" height="17px" xmlns="http://www.w3.org/2000/svg">
  <g transform="matrix(1 0 0 1 -692 -5356 )">
    <path d="M 16.6181640625 10.0218098958333  C 16.6882595486111 10.0919053819444  16.7233072916667 10.1749131944444  16.7233072916667 10.2708333333333  C 16.7233072916667 10.3077256944444  16.7196180555556 10.3335503472222  16.7122395833333 10.3483072916667  C 16.2400173611111 12.3257378472222  15.2513020833333 13.9287109375  13.74609375 15.1572265625  C 12.2408854166667 16.3857421875  10.4774305555556 17  8.45572916666667 17  C 7.37847222222222 17  6.33626302083333 16.7970920138889  5.3291015625 16.3912760416667  C 4.32194010416667 15.9854600694444  3.42361111111111 15.40625  2.63411458333333 14.6536458333333  L 1.20638020833333 16.0813802083333  C 1.06618923611111 16.2215711805556  0.900173611111111 16.2916666666667  0.708333333333333 16.2916666666667  C 0.516493055555556 16.2916666666667  0.350477430555556 16.2215711805556  0.210286458333333 16.0813802083333  C 0.0700954861111111 15.9411892361111  0 15.7751736111111  0 15.5833333333333  L 0 10.625  C 0 10.4331597222222  0.0700954861111111 10.2671440972222  0.210286458333333 10.126953125  C 0.350477430555556 9.98676215277778  0.516493055555556 9.91666666666667  0.708333333333333 9.91666666666667  L 5.66666666666667 9.91666666666667  C 5.85850694444444 9.91666666666667  6.02452256944444 9.98676215277778  6.16471354166667 10.126953125  C 6.30490451388889 10.2671440972222  6.375 10.4331597222222  6.375 10.625  C 6.375 10.8168402777778  6.30490451388889 10.9828559027778  6.16471354166667 11.123046875  L 4.6484375 12.6393229166667  C 5.17230902777778 13.1263020833333  5.76627604166667 13.5026041666667  6.43033854166667 13.7682291666667  C 7.09440104166667 14.0338541666667  7.78428819444444 14.1666666666667  8.5 14.1666666666667  C 9.48871527777778 14.1666666666667  10.4110243055556 13.9268663194444  11.2669270833333 13.447265625  C 12.1228298611111 12.9676649305556  12.8090277777778 12.3072916666667  13.3255208333333 11.4661458333333  C 13.4066840277778 11.3407118055556  13.6022135416667 10.9090711805556  13.912109375 10.1712239583333  C 13.9711371527778 10.0015190972222  14.0818142361111 9.91666666666667  14.244140625 9.91666666666667  L 16.369140625 9.91666666666667  C 16.4650607638889 9.91666666666667  16.5480685763889 9.95171440972222  16.6181640625 10.0218098958333  Z M 16.7897135416667 0.918619791666667  C 16.9299045138889 1.05881076388889  17 1.22482638888889  17 1.41666666666667  L 17 6.375  C 17 6.56684027777778  16.9299045138889 6.73285590277778  16.7897135416667 6.873046875  C 16.6495225694444 7.01323784722222  16.4835069444444 7.08333333333333  16.2916666666667 7.08333333333333  L 11.3333333333333 7.08333333333333  C 11.1414930555556 7.08333333333333  10.9754774305556 7.01323784722222  10.8352864583333 6.873046875  C 10.6950954861111 6.73285590277778  10.625 6.56684027777778  10.625 6.375  C 10.625 6.18315972222222  10.6950954861111 6.01714409722222  10.8352864583333 5.876953125  L 12.3626302083333 4.349609375  C 11.2706163194444 3.33875868055555  9.98307291666667 2.83333333333333  8.5 2.83333333333333  C 7.51128472222222 2.83333333333333  6.58897569444444 3.07313368055555  5.73307291666667 3.552734375  C 4.87717013888889 4.03233506944444  4.19097222222222 4.69270833333333  3.67447916666667 5.53385416666667  C 3.59331597222222 5.65928819444444  3.39778645833333 6.09092881944444  3.087890625 6.82877604166667  C 3.02886284722222 6.99848090277778  2.91818576388889 7.08333333333333  2.755859375 7.08333333333333  L 0.553385416666667 7.08333333333333  C 0.457465277777778 7.08333333333333  0.374457465277778 7.04828559027778  0.304361979166667 6.97819010416667  C 0.234266493055556 6.90809461805556  0.19921875 6.82508680555556  0.19921875 6.72916666666667  L 0.19921875 6.65169270833333  C 0.678819444444445 4.67426215277778  1.67491319444444 3.0712890625  3.1875 1.8427734375  C 4.70008680555556 0.6142578125  6.47092013888889 0  8.5 0  C 9.57725694444444 0  10.625 0.204752604166667  11.6432291666667 0.6142578125  C 12.6614583333333 1.02376302083333  13.5653211805556 1.60112847222222  14.3548177083333 2.34635416666667  L 15.7936197916667 0.918619791666667  C 15.9338107638889 0.778428819444443  16.0998263888889 0.708333333333333  16.2916666666667 0.708333333333333  C 16.4835069444444 0.708333333333333  16.6495225694444 0.778428819444443  16.7897135416667 0.918619791666667  Z " fill-rule="nonzero" fill="#464343" stroke="none" transform="matrix(1 0 0 1 692 5356 )" />
  </g>
</svg>