<?xml version="1.0" encoding="utf-8"?>
<svg version="1.1" xmlns:xlink="http://www.w3.org/1999/xlink" width="14px" height="12px" xmlns="http://www.w3.org/2000/svg">
  <g transform="matrix(1 0 0 1 -1375 -5581 )">
    <path d="M 13.5859375 5.4225  C 13.8619791666667 6.0925  14 6.925  14 7.92  C 14 8.75  13.6692708333333 9.8775  13.0078125 11.3025  C 12.9921875 11.3375  12.96484375 11.3975  12.92578125 11.4825  C 12.88671875 11.5675  12.8515625 11.6425  12.8203125 11.7075  C 12.7890625 11.7725  12.7552083333333 11.8275  12.71875 11.8725  C 12.65625 11.9575  12.5833333333333 12  12.5 12  C 12.421875 12  12.3606770833333 11.975  12.31640625 11.925  C 12.2721354166667 11.875  12.25 11.8125  12.25 11.7375  C 12.25 11.6925  12.2565104166667 11.62625  12.26953125 11.53875  C 12.2825520833333 11.45125  12.2890625 11.3925  12.2890625 11.3625  C 12.3151041666667 11.0225  12.328125 10.715  12.328125 10.44  C 12.328125 9.935  12.2825520833333 9.4825  12.19140625 9.0825  C 12.1002604166667 8.6825  11.9739583333333 8.33625  11.8125 8.04375  C 11.6510416666667 7.75125  11.4427083333333 7.49875  11.1875 7.28625  C 10.9322916666667 7.07375  10.6575520833333 6.9  10.36328125 6.765  C 10.0690104166667 6.63  9.72265625 6.52375  9.32421875 6.44625  C 8.92578125 6.36875  8.52473958333333 6.315  8.12109375 6.285  C 7.71744791666667 6.255  7.26041666666667 6.24  6.75 6.24  L 5 6.24  L 5 8.16  C 5 8.29  4.95052083333333 8.4025  4.8515625 8.4975  C 4.75260416666667 8.5925  4.63541666666667 8.64  4.5 8.64  C 4.36458333333333 8.64  4.24739583333333 8.5925  4.1484375 8.4975  L 0.1484375 4.6575  C 0.0494791666666667 4.5625  0 4.45  0 4.32  C 0 4.19  0.0494791666666667 4.0775  0.1484375 3.9825  L 4.1484375 0.1425  C 4.24739583333333 0.0474999999999994  4.36458333333333 0  4.5 0  C 4.63541666666667 0  4.75260416666667 0.0474999999999994  4.8515625 0.1425  C 4.95052083333333 0.237499999999998  5 0.349999999999999  5 0.48  L 5 2.4  L 6.75 2.4  C 10.4635416666667 2.4  12.7421875 3.4075  13.5859375 5.4225  Z " fill-rule="nonzero" fill="#c7c7c7" stroke="none" transform="matrix(1 0 0 1 1375 5581 )" />
  </g>
</svg>