<?xml version="1.0" encoding="utf-8"?>
<svg version="1.1" xmlns:xlink="http://www.w3.org/1999/xlink" width="11px" height="9px" xmlns="http://www.w3.org/2000/svg">
  <g transform="matrix(1 0 0 1 -1094 -5345 )">
    <path d="M 3.69838169642857 3.2197265625  C 3.85184151785714 3.3662109375  3.92857142857143 3.54296875  3.92857142857143 3.75  C 3.92857142857143 3.95703125  3.85184151785714 4.1337890625  3.69838169642857 4.2802734375  C 3.544921875 4.4267578125  3.35974702380952 4.5  3.14285714285714 4.5  C 2.92596726190476 4.5  2.74079241071429 4.4267578125  2.58733258928571 4.2802734375  C 2.43387276785714 4.1337890625  2.35714285714286 3.95703125  2.35714285714286 3.75  C 2.35714285714286 3.54296875  2.43387276785714 3.3662109375  2.58733258928571 3.2197265625  C 2.74079241071429 3.0732421875  2.92596726190476 3  3.14285714285714 3  C 3.35974702380952 3  3.544921875 3.0732421875  3.69838169642857 3.2197265625  Z M 6.05552455357143 3.2197265625  C 6.208984375 3.3662109375  6.28571428571429 3.54296875  6.28571428571429 3.75  C 6.28571428571429 3.95703125  6.208984375 4.1337890625  6.05552455357143 4.2802734375  C 5.90206473214286 4.4267578125  5.71688988095238 4.5  5.5 4.5  C 5.28311011904762 4.5  5.09793526785714 4.4267578125  4.94447544642857 4.2802734375  C 4.791015625 4.1337890625  4.71428571428571 3.95703125  4.71428571428571 3.75  C 4.71428571428571 3.54296875  4.791015625 3.3662109375  4.94447544642857 3.2197265625  C 5.09793526785714 3.0732421875  5.28311011904762 3  5.5 3  C 5.71688988095238 3  5.90206473214286 3.0732421875  6.05552455357143 3.2197265625  Z M 8.41266741071428 3.2197265625  C 8.56612723214286 3.3662109375  8.64285714285714 3.54296875  8.64285714285714 3.75  C 8.64285714285714 3.95703125  8.56612723214286 4.1337890625  8.41266741071428 4.2802734375  C 8.25920758928572 4.4267578125  8.07403273809524 4.5  7.85714285714286 4.5  C 7.64025297619048 4.5  7.455078125 4.4267578125  7.30161830357143 4.2802734375  C 7.14815848214286 4.1337890625  7.07142857142857 3.95703125  7.07142857142857 3.75  C 7.07142857142857 3.54296875  7.14815848214286 3.3662109375  7.30161830357143 3.2197265625  C 7.455078125 3.0732421875  7.64025297619048 3  7.85714285714286 3  C 8.07403273809524 3  8.25920758928572 3.0732421875  8.41266741071428 3.2197265625  Z M 7.841796875 1.1572265625  C 7.11542038690476 0.885742187499999  6.33482142857143 0.75  5.5 0.75  C 4.66517857142857 0.75  3.88457961309524 0.885742187499999  3.158203125 1.1572265625  C 2.43182663690476 1.4287109375  1.85481770833333 1.794921875  1.42717633928571 2.255859375  C 0.999534970238095 2.716796875  0.785714285714286 3.21484375  0.785714285714286 3.75  C 0.785714285714286 4.1875  0.932012648809524 4.6044921875  1.224609375 5.0009765625  C 1.51720610119048 5.3974609375  1.92950148809524 5.740234375  2.46149553571429 6.029296875  L 2.99553571428571 6.322265625  L 2.82979910714286 6.884765625  C 2.73158482142857 7.240234375  2.58835565476191 7.576171875  2.40011160714286 7.892578125  C 3.02213541666667 7.646484375  3.58482142857143 7.3125  4.08816964285714 6.890625  L 4.35212053571429 6.66796875  L 4.70200892857143 6.703125  C 4.984375 6.734375  5.25037202380952 6.75  5.5 6.75  C 6.33482142857143 6.75  7.11542038690476 6.6142578125  7.841796875 6.3427734375  C 8.56817336309524 6.0712890625  9.14518229166667 5.705078125  9.57282366071428 5.244140625  C 10.0004650297619 4.783203125  10.2142857142857 4.28515625  10.2142857142857 3.75  C 10.2142857142857 3.21484375  10.0004650297619 2.716796875  9.57282366071428 2.255859375  C 9.14518229166667 1.794921875  8.56817336309524 1.4287109375  7.841796875 1.1572265625  Z M 10.5641741071429 2.2939453125  C 10.854724702381 2.7568359375  11 3.2421875  11 3.75  C 11 4.4296875  10.7544642857143 5.0576171875  10.2633928571429 5.6337890625  C 9.77232142857143 6.2099609375  9.10528273809524 6.6650390625  8.26227678571428 6.9990234375  C 7.41927083333333 7.3330078125  6.49851190476191 7.5  5.5 7.5  C 5.21354166666667 7.5  4.91685267857143 7.484375  4.60993303571429 7.453125  C 3.79966517857143 8.13671875  2.85844494047619 8.609375  1.78627232142857 8.87109375  C 1.58575148809524 8.92578125  1.35249255952381 8.96875  1.08649553571429 9  L 1.05580357142857 9  C 0.994419642857143 9  0.939174107142857 8.9794921875  0.890066964285714 8.9384765625  C 0.840959821428572 8.8974609375  0.808221726190476 8.84375  0.791852678571428 8.77734375  L 0.791852678571428 8.771484375  C 0.779575892857143 8.755859375  0.778552827380952 8.732421875  0.788783482142857 8.701171875  C 0.799014136904762 8.669921875  0.803106398809524 8.650390625  0.801060267857143 8.642578125  C 0.799014136904762 8.634765625  0.808221726190476 8.6162109375  0.828683035714286 8.5869140625  L 0.865513392857143 8.5341796875  C 0.865513392857143 8.5341796875  0.87983630952381 8.517578125  0.908482142857143 8.484375  C 0.937127976190476 8.451171875  0.953497023809524 8.43359375  0.957589285714286 8.431640625  C 0.986235119047619 8.400390625  1.04966517857143 8.3330078125  1.14787946428571 8.2294921875  C 1.24609375 8.1259765625  1.31668526785714 8.0517578125  1.35965401785714 8.0068359375  C 1.40262276785714 7.9619140625  1.46605282738095 7.884765625  1.54994419642857 7.775390625  C 1.63383556547619 7.666015625  1.70033482142857 7.56640625  1.74944196428571 7.4765625  C 1.79854910714286 7.38671875  1.85379464285714 7.271484375  1.91517857142857 7.130859375  C 1.9765625 6.990234375  2.02976190476191 6.841796875  2.07477678571429 6.685546875  C 1.43229166666667 6.337890625  0.925874255952381 5.908203125  0.555524553571429 5.396484375  C 0.185174851190476 4.884765625  0 4.3359375  0 3.75  C 0 3.2421875  0.145275297619048 2.7568359375  0.435825892857143 2.2939453125  C 0.726376488095238 1.8310546875  1.1171875 1.431640625  1.60825892857143 1.095703125  C 2.09933035714286 0.759765624999999  2.68452380952381 0.493164062499999  3.36383928571429 0.2958984375  C 4.04315476190476 0.0986328124999996  4.75520833333333 0  5.5 0  C 6.24479166666667 0  6.95684523809524 0.0986328124999996  7.63616071428571 0.2958984375  C 8.31547619047619 0.493164062499999  8.90066964285714 0.759765624999999  9.39174107142857 1.095703125  C 9.8828125 1.431640625  10.2736235119048 1.8310546875  10.5641741071429 2.2939453125  Z " fill-rule="nonzero" fill="#a19b9b" stroke="none" transform="matrix(1 0 0 1 1094 5345 )" />
  </g>
</svg>