<?xml version="1.0" encoding="utf-8"?>
<svg version="1.1" xmlns:xlink="http://www.w3.org/1999/xlink" width="11px" height="8px" xmlns="http://www.w3.org/2000/svg">
  <g transform="matrix(1 0 0 1 -2747 -5715 )">
    <path d="M 10.8012903225806 1.1043771043771  C 10.9337634408602 1.2300785634119  11 1.38271604938272  11 1.56228956228956  C 11 1.74186307519641  10.9337634408602 1.89450056116723  10.8012903225806 2.02020202020202  L 5.66322580645161 6.8956228956229  L 4.69806451612903 7.81144781144781  C 4.56559139784946 7.9371492704826  4.4047311827957 8  4.21548387096774 8  C 4.02623655913979 8  3.86537634408602 7.9371492704826  3.73290322580645 7.81144781144781  L 2.76774193548387 6.8956228956229  L 0.198709677419355 4.45791245791246  C 0.066236559139785 4.33221099887766  0 4.17957351290685  0 4  C 0 3.82042648709315  0.066236559139785 3.66778900112233  0.198709677419355 3.54208754208754  L 1.16387096774194 2.62626262626263  C 1.29634408602151 2.50056116722783  1.45720430107527 2.43771043771044  1.64645161290323 2.43771043771044  C 1.83569892473118 2.43771043771044  1.99655913978495 2.50056116722783  2.12903225806452 2.62626262626263  L 4.21548387096774 4.61279461279461  L 8.87096774193548 0.188552188552189  C 9.00344086021505 0.0628507295173959  9.16430107526882 0  9.35354838709677 0  C 9.54279569892473 0  9.7036559139785 0.0628507295173959  9.83612903225806 0.188552188552189  L 10.8012903225806 1.1043771043771  Z " fill-rule="nonzero" fill="#000000" stroke="none" transform="matrix(1 0 0 1 2747 5715 )" />
  </g>
</svg>