<?xml version="1.0" encoding="utf-8"?>
<svg version="1.1" xmlns:xlink="http://www.w3.org/1999/xlink" width="12px" height="13px" xmlns="http://www.w3.org/2000/svg">
  <g transform="matrix(1 0 0 1 -720 -154 )">
    <path d="M 0.923076923076923 9.98214285714286  L 0.923076923076923 12.0714285714286  L 3 12.0714285714286  L 3 9.98214285714286  L 0.923076923076923 9.98214285714286  Z M 3.46153846153846 9.98214285714286  L 3.46153846153846 12.0714285714286  L 5.76923076923077 12.0714285714286  L 5.76923076923077 9.98214285714286  L 3.46153846153846 9.98214285714286  Z M 0.923076923076923 7.19642857142857  L 0.923076923076923 9.51785714285714  L 3 9.51785714285714  L 3 7.19642857142857  L 0.923076923076923 7.19642857142857  Z M 3.46153846153846 7.19642857142857  L 3.46153846153846 9.51785714285714  L 5.76923076923077 9.51785714285714  L 5.76923076923077 7.19642857142857  L 3.46153846153846 7.19642857142857  Z M 0.923076923076923 4.64285714285714  L 0.923076923076923 6.73214285714286  L 3 6.73214285714286  L 3 4.64285714285714  L 0.923076923076923 4.64285714285714  Z M 6.23076923076923 9.98214285714286  L 6.23076923076923 12.0714285714286  L 8.53846153846154 12.0714285714286  L 8.53846153846154 9.98214285714286  L 6.23076923076923 9.98214285714286  Z M 3.46153846153846 4.64285714285714  L 3.46153846153846 6.73214285714286  L 5.76923076923077 6.73214285714286  L 5.76923076923077 4.64285714285714  L 3.46153846153846 4.64285714285714  Z M 9 9.98214285714286  L 9 12.0714285714286  L 11.0769230769231 12.0714285714286  L 11.0769230769231 9.98214285714286  L 9 9.98214285714286  Z M 6.23076923076923 7.19642857142857  L 6.23076923076923 9.51785714285714  L 8.53846153846154 9.51785714285714  L 8.53846153846154 7.19642857142857  L 6.23076923076923 7.19642857142857  Z M 3.62379807692308 3.41322544642857  C 3.66947115384615 3.36728050595238  3.69230769230769 3.31287202380952  3.69230769230769 3.25  L 3.69230769230769 1.16071428571429  C 3.69230769230769 1.09784226190476  3.66947115384615 1.0434337797619  3.62379807692308 0.997488839285714  C 3.578125 0.951543898809523  3.52403846153846 0.928571428571428  3.46153846153846 0.928571428571428  L 3 0.928571428571428  C 2.9375 0.928571428571428  2.88341346153846 0.951543898809523  2.83774038461538 0.997488839285714  C 2.79206730769231 1.0434337797619  2.76923076923077 1.09784226190476  2.76923076923077 1.16071428571429  L 2.76923076923077 3.25  C 2.76923076923077 3.31287202380952  2.79206730769231 3.36728050595238  2.83774038461538 3.41322544642857  C 2.88341346153846 3.45917038690476  2.9375 3.48214285714286  3 3.48214285714286  L 3.46153846153846 3.48214285714286  C 3.52403846153846 3.48214285714286  3.578125 3.45917038690476  3.62379807692308 3.41322544642857  Z M 9 7.19642857142857  L 9 9.51785714285714  L 11.0769230769231 9.51785714285714  L 11.0769230769231 7.19642857142857  L 9 7.19642857142857  Z M 6.23076923076923 4.64285714285714  L 6.23076923076923 6.73214285714286  L 8.53846153846154 6.73214285714286  L 8.53846153846154 4.64285714285714  L 6.23076923076923 4.64285714285714  Z M 9 4.64285714285714  L 9 6.73214285714286  L 11.0769230769231 6.73214285714286  L 11.0769230769231 4.64285714285714  L 9 4.64285714285714  Z M 9.16225961538461 3.41322544642857  C 9.20793269230769 3.36728050595238  9.23076923076923 3.31287202380952  9.23076923076923 3.25  L 9.23076923076923 1.16071428571429  C 9.23076923076923 1.09784226190476  9.20793269230769 1.0434337797619  9.16225961538461 0.997488839285714  C 9.11658653846154 0.951543898809523  9.0625 0.928571428571428  9 0.928571428571428  L 8.53846153846154 0.928571428571428  C 8.47596153846154 0.928571428571428  8.421875 0.951543898809523  8.37620192307692 0.997488839285714  C 8.33052884615385 1.0434337797619  8.30769230769231 1.09784226190476  8.30769230769231 1.16071428571429  L 8.30769230769231 3.25  C 8.30769230769231 3.31287202380952  8.33052884615385 3.36728050595238  8.37620192307692 3.41322544642857  C 8.421875 3.45917038690476  8.47596153846154 3.48214285714286  8.53846153846154 3.48214285714286  L 9 3.48214285714286  C 9.0625 3.48214285714286  9.11658653846154 3.45917038690476  9.16225961538461 3.41322544642857  Z M 11.7259615384615 2.1328125  C 11.9086538461538 2.31659226190476  12 2.53422619047619  12 2.78571428571429  L 12 12.0714285714286  C 12 12.3229166666667  11.9086538461538 12.5405505952381  11.7259615384615 12.7243303571429  C 11.5432692307692 12.9081101190476  11.3269230769231 13  11.0769230769231 13  L 0.923076923076923 13  C 0.673076923076923 13  0.456730769230769 12.9081101190476  0.274038461538462 12.7243303571429  C 0.0913461538461538 12.5405505952381  0 12.3229166666667  0 12.0714285714286  L 0 2.78571428571429  C 0 2.53422619047619  0.0913461538461538 2.31659226190476  0.274038461538462 2.1328125  C 0.456730769230769 1.94903273809524  0.673076923076923 1.85714285714286  0.923076923076923 1.85714285714286  L 1.84615384615385 1.85714285714286  L 1.84615384615385 1.16071428571429  C 1.84615384615385 0.841517857142858  1.95913461538462 0.568266369047618  2.18509615384615 0.340959821428572  C 2.41105769230769 0.113653273809524  2.68269230769231 0  3 0  L 3.46153846153846 0  C 3.77884615384615 0  4.05048076923077 0.113653273809524  4.27644230769231 0.340959821428572  C 4.50240384615385 0.568266369047618  4.61538461538462 0.841517857142858  4.61538461538462 1.16071428571429  L 4.61538461538462 1.85714285714286  L 7.38461538461539 1.85714285714286  L 7.38461538461539 1.16071428571429  C 7.38461538461539 0.841517857142858  7.49759615384615 0.568266369047618  7.72355769230769 0.340959821428572  C 7.94951923076923 0.113653273809524  8.22115384615385 0  8.53846153846154 0  L 9 0  C 9.31730769230769 0  9.58894230769231 0.113653273809524  9.81490384615385 0.340959821428572  C 10.0408653846154 0.568266369047618  10.1538461538462 0.841517857142858  10.1538461538462 1.16071428571429  L 10.1538461538462 1.85714285714286  L 11.0769230769231 1.85714285714286  C 11.3269230769231 1.85714285714286  11.5432692307692 1.94903273809524  11.7259615384615 2.1328125  Z " fill-rule="nonzero" fill="#cccccc" stroke="none" transform="matrix(1 0 0 1 720 154 )" />
  </g>
</svg>