<?xml version="1.0" encoding="utf-8"?>
<svg version="1.1" xmlns:xlink="http://www.w3.org/1999/xlink" width="12px" height="12px" viewBox="872 1269  12 12" xmlns="http://www.w3.org/2000/svg">
  <path d="M 878 1269  C 881.36 1269  884 1271.64  884 1275  C 884 1278.36  881.36 1281  878 1281  C 874.64 1281  872 1278.36  872 1275  C 872 1271.64  874.64 1269  878 1269  Z " fill-rule="nonzero" fill="#ffffff" stroke="none" />
  <path d="M 878 1269.5  C 881.08 1269.5  883.5 1271.92  883.5 1275  C 883.5 1278.08  881.08 1280.5  878 1280.5  C 874.92 1280.5  872.5 1278.08  872.5 1275  C 872.5 1271.92  874.92 1269.5  878 1269.5  Z " stroke-width="1" stroke="#797979" fill="none" />
  <path d="M 878 1278  C 876.32 1278  875 1276.68  875 1275  C 875 1273.32  876.32 1272  878 1272  C 879.68 1272  881 1273.32  881 1275  C 881 1276.68  879.68 1278  878 1278  " fill-rule="nonzero" fill="#797979" stroke="none" />
</svg>