<?xml version="1.0" encoding="utf-8"?>
<svg version="1.1" xmlns:xlink="http://www.w3.org/1999/xlink" width="12px" height="12px" viewBox="1066 702  12 12" xmlns="http://www.w3.org/2000/svg">
  <path d="M 1072 702  C 1075.36 702  1078 704.64  1078 708  C 1078 711.36  1075.36 714  1072 714  C 1068.64 714  1066 711.36  1066 708  C 1066 704.64  1068.64 702  1072 702  Z " fill-rule="nonzero" fill="#ffffff" stroke="none" />
  <path d="M 1072 702.5  C 1075.08 702.5  1077.5 704.92  1077.5 708  C 1077.5 711.08  1075.08 713.5  1072 713.5  C 1068.92 713.5  1066.5 711.08  1066.5 708  C 1066.5 704.92  1068.92 702.5  1072 702.5  Z " stroke-width="1" stroke="#797979" fill="none" />
  <path d="M 1072 711  C 1070.32 711  1069 709.68  1069 708  C 1069 706.32  1070.32 705  1072 705  C 1073.68 705  1075 706.32  1075 708  C 1075 709.68  1073.68 711  1072 711  " fill-rule="nonzero" fill="#797979" stroke="none" />
</svg>