<?xml version="1.0" encoding="utf-8"?>
<svg version="1.1" xmlns:xlink="http://www.w3.org/1999/xlink" width="12px" height="12px" viewBox="786 1556  12 12" xmlns="http://www.w3.org/2000/svg">
  <path d="M 792 1556  C 795.36 1556  798 1558.64  798 1562  C 798 1565.36  795.36 1568  792 1568  C 788.64 1568  786 1565.36  786 1562  C 786 1558.64  788.64 1556  792 1556  Z " fill-rule="nonzero" fill="#ffffff" stroke="none" />
  <path d="M 792 1556.5  C 795.08 1556.5  797.5 1558.92  797.5 1562  C 797.5 1565.08  795.08 1567.5  792 1567.5  C 788.92 1567.5  786.5 1565.08  786.5 1562  C 786.5 1558.92  788.92 1556.5  792 1556.5  Z " stroke-width="1" stroke="#797979" fill="none" />
  <path d="M 792 1565  C 790.32 1565  789 1563.68  789 1562  C 789 1560.32  790.32 1559  792 1559  C 793.68 1559  795 1560.32  795 1562  C 795 1563.68  793.68 1565  792 1565  " fill-rule="nonzero" fill="#797979" stroke="none" />
</svg>