<?xml version="1.0" encoding="utf-8"?>
<svg version="1.1" xmlns:xlink="http://www.w3.org/1999/xlink" width="12px" height="12px" viewBox="972 702  12 12" xmlns="http://www.w3.org/2000/svg">
  <path d="M 978 702  C 981.36 702  984 704.64  984 708  C 984 711.36  981.36 714  978 714  C 974.64 714  972 711.36  972 708  C 972 704.64  974.64 702  978 702  Z " fill-rule="nonzero" fill="#ffffff" stroke="none" />
  <path d="M 978 702.5  C 981.08 702.5  983.5 704.92  983.5 708  C 983.5 711.08  981.08 713.5  978 713.5  C 974.92 713.5  972.5 711.08  972.5 708  C 972.5 704.92  974.92 702.5  978 702.5  Z " stroke-width="1" stroke="#797979" fill="none" />
  <path d="M 978 711  C 976.32 711  975 709.68  975 708  C 975 706.32  976.32 705  978 705  C 979.68 705  981 706.32  981 708  C 981 709.68  979.68 711  978 711  " fill-rule="nonzero" fill="#797979" stroke="none" />
</svg>