<?xml version="1.0" encoding="utf-8"?>
<svg version="1.1" xmlns:xlink="http://www.w3.org/1999/xlink" width="12px" height="12px" viewBox="972 1116  12 12" xmlns="http://www.w3.org/2000/svg">
  <path d="M 978 1116  C 981.36 1116  984 1118.64  984 1122  C 984 1125.36  981.36 1128  978 1128  C 974.64 1128  972 1125.36  972 1122  C 972 1118.64  974.64 1116  978 1116  Z " fill-rule="nonzero" fill="#ffffff" stroke="none" />
  <path d="M 978 1116.5  C 981.08 1116.5  983.5 1118.92  983.5 1122  C 983.5 1125.08  981.08 1127.5  978 1127.5  C 974.92 1127.5  972.5 1125.08  972.5 1122  C 972.5 1118.92  974.92 1116.5  978 1116.5  Z " stroke-width="1" stroke="#797979" fill="none" />
  <path d="M 978 1125  C 976.32 1125  975 1123.68  975 1122  C 975 1120.32  976.32 1119  978 1119  C 979.68 1119  981 1120.32  981 1122  C 981 1123.68  979.68 1125  978 1125  " fill-rule="nonzero" fill="#797979" stroke="none" />
</svg>