<?xml version="1.0" encoding="utf-8"?>
<svg version="1.1" xmlns:xlink="http://www.w3.org/1999/xlink" width="12px" height="12px" viewBox="786 702  12 12" xmlns="http://www.w3.org/2000/svg">
  <path d="M 792 702  C 795.36 702  798 704.64  798 708  C 798 711.36  795.36 714  792 714  C 788.64 714  786 711.36  786 708  C 786 704.64  788.64 702  792 702  Z " fill-rule="nonzero" fill="#ffffff" stroke="none" />
  <path d="M 792 702.5  C 795.08 702.5  797.5 704.92  797.5 708  C 797.5 711.08  795.08 713.5  792 713.5  C 788.92 713.5  786.5 711.08  786.5 708  C 786.5 704.92  788.92 702.5  792 702.5  Z " stroke-width="1" stroke="#797979" fill="none" />
  <path d="M 792 711  C 790.32 711  789 709.68  789 708  C 789 706.32  790.32 705  792 705  C 793.68 705  795 706.32  795 708  C 795 709.68  793.68 711  792 711  " fill-rule="nonzero" fill="#797979" stroke="none" />
</svg>