<?xml version="1.0" encoding="utf-8"?>
<svg version="1.1" xmlns:xlink="http://www.w3.org/1999/xlink" width="12px" height="12px" viewBox="786 1116  12 12" xmlns="http://www.w3.org/2000/svg">
  <path d="M 792 1116  C 795.36 1116  798 1118.64  798 1122  C 798 1125.36  795.36 1128  792 1128  C 788.64 1128  786 1125.36  786 1122  C 786 1118.64  788.64 1116  792 1116  Z " fill-rule="nonzero" fill="#ffffff" stroke="none" />
  <path d="M 792 1116.5  C 795.08 1116.5  797.5 1118.92  797.5 1122  C 797.5 1125.08  795.08 1127.5  792 1127.5  C 788.92 1127.5  786.5 1125.08  786.5 1122  C 786.5 1118.92  788.92 1116.5  792 1116.5  Z " stroke-width="1" stroke="#797979" fill="none" />
  <path d="M 792 1125  C 790.32 1125  789 1123.68  789 1122  C 789 1120.32  790.32 1119  792 1119  C 793.68 1119  795 1120.32  795 1122  C 795 1123.68  793.68 1125  792 1125  " fill-rule="nonzero" fill="#797979" stroke="none" />
</svg>