<?xml version="1.0" encoding="utf-8"?>
<svg version="1.1" xmlns:xlink="http://www.w3.org/1999/xlink" width="12px" height="12px" viewBox="786 855  12 12" xmlns="http://www.w3.org/2000/svg">
  <path d="M 792 855  C 795.36 855  798 857.64  798 861  C 798 864.36  795.36 867  792 867  C 788.64 867  786 864.36  786 861  C 786 857.64  788.64 855  792 855  Z " fill-rule="nonzero" fill="#ffffff" stroke="none" />
  <path d="M 792 855.5  C 795.08 855.5  797.5 857.92  797.5 861  C 797.5 864.08  795.08 866.5  792 866.5  C 788.92 866.5  786.5 864.08  786.5 861  C 786.5 857.92  788.92 855.5  792 855.5  Z " stroke-width="1" stroke="#797979" fill="none" />
  <path d="M 792 864  C 790.32 864  789 862.68  789 861  C 789 859.32  790.32 858  792 858  C 793.68 858  795 859.32  795 861  C 795 862.68  793.68 864  792 864  " fill-rule="nonzero" fill="#797979" stroke="none" />
</svg>