<?xml version="1.0" encoding="utf-8"?>
<svg version="1.1" xmlns:xlink="http://www.w3.org/1999/xlink" width="12px" height="12px" viewBox="1066 855  12 12" xmlns="http://www.w3.org/2000/svg">
  <path d="M 1072 855  C 1075.36 855  1078 857.64  1078 861  C 1078 864.36  1075.36 867  1072 867  C 1068.64 867  1066 864.36  1066 861  C 1066 857.64  1068.64 855  1072 855  Z " fill-rule="nonzero" fill="#ffffff" stroke="none" />
  <path d="M 1072 855.5  C 1075.08 855.5  1077.5 857.92  1077.5 861  C 1077.5 864.08  1075.08 866.5  1072 866.5  C 1068.92 866.5  1066.5 864.08  1066.5 861  C 1066.5 857.92  1068.92 855.5  1072 855.5  Z " stroke-width="1" stroke="#797979" fill="none" />
  <path d="M 1072 864  C 1070.32 864  1069 862.68  1069 861  C 1069 859.32  1070.32 858  1072 858  C 1073.68 858  1075 859.32  1075 861  C 1075 862.68  1073.68 864  1072 864  " fill-rule="nonzero" fill="#797979" stroke="none" />
</svg>