<?xml version="1.0" encoding="utf-8"?>
<svg version="1.1" xmlns:xlink="http://www.w3.org/1999/xlink" width="12px" height="12px" viewBox="786 1809  12 12" xmlns="http://www.w3.org/2000/svg">
  <path d="M 792 1809  C 795.36 1809  798 1811.64  798 1815  C 798 1818.36  795.36 1821  792 1821  C 788.64 1821  786 1818.36  786 1815  C 786 1811.64  788.64 1809  792 1809  Z " fill-rule="nonzero" fill="#ffffff" stroke="none" />
  <path d="M 792 1809.5  C 795.08 1809.5  797.5 1811.92  797.5 1815  C 797.5 1818.08  795.08 1820.5  792 1820.5  C 788.92 1820.5  786.5 1818.08  786.5 1815  C 786.5 1811.92  788.92 1809.5  792 1809.5  Z " stroke-width="1" stroke="#797979" fill="none" />
  <path d="M 792 1818  C 790.32 1818  789 1816.68  789 1815  C 789 1813.32  790.32 1812  792 1812  C 793.68 1812  795 1813.32  795 1815  C 795 1816.68  793.68 1818  792 1818  " fill-rule="nonzero" fill="#797979" stroke="none" />
</svg>