<?xml version="1.0" encoding="utf-8"?>
<svg version="1.1" xmlns:xlink="http://www.w3.org/1999/xlink" width="12px" height="12px" viewBox="972 1269  12 12" xmlns="http://www.w3.org/2000/svg">
  <path d="M 978 1269  C 981.36 1269  984 1271.64  984 1275  C 984 1278.36  981.36 1281  978 1281  C 974.64 1281  972 1278.36  972 1275  C 972 1271.64  974.64 1269  978 1269  Z " fill-rule="nonzero" fill="#ffffff" stroke="none" />
  <path d="M 978 1269.5  C 981.08 1269.5  983.5 1271.92  983.5 1275  C 983.5 1278.08  981.08 1280.5  978 1280.5  C 974.92 1280.5  972.5 1278.08  972.5 1275  C 972.5 1271.92  974.92 1269.5  978 1269.5  Z " stroke-width="1" stroke="#797979" fill="none" />
  <path d="M 978 1278  C 976.32 1278  975 1276.68  975 1275  C 975 1273.32  976.32 1272  978 1272  C 979.68 1272  981 1273.32  981 1275  C 981 1276.68  979.68 1278  978 1278  " fill-rule="nonzero" fill="#797979" stroke="none" />
</svg>