<?xml version="1.0" encoding="utf-8"?>
<svg version="1.1" xmlns:xlink="http://www.w3.org/1999/xlink" width="25px" height="25px" xmlns="http://www.w3.org/2000/svg">
  <g transform="matrix(1 0 0 1 -401 -261 )">
    <path d="M 12.5 6.62434895833333  L 14.892578125 15.5924479166667  L 10.107421875 15.5924479166667  L 12.5 6.62434895833333  Z M 14.94140625 15.72265625  L 16.2923177083333 20.8333333333333  L 21.3541666666667 20.8333333333333  L 16.0807291666667 4.16666666666667  L 8.91927083333333 4.16666666666667  L 3.64583333333333 20.8333333333333  L 8.70768229166667 20.8333333333333  L 14.94140625 15.72265625  Z M 23.6165364583333 1.38346354166667  C 24.5388454861111 2.30577256944444  25 3.40711805555556  25 4.6875  L 25 20.3125  C 25 21.5928819444444  24.5388454861111 22.6942274305556  23.6165364583333 23.6165364583333  C 22.6942274305556 24.5388454861111  21.5928819444444 25  20.3125 25  L 4.6875 25  C 3.40711805555556 25  2.30577256944444 24.5388454861111  1.38346354166667 23.6165364583333  C 0.461154513888889 22.6942274305556  0 21.5928819444444  0 20.3125  L 0 4.6875  C 0 3.40711805555556  0.461154513888889 2.30577256944444  1.38346354166667 1.38346354166667  C 2.30577256944444 0.461154513888887  3.40711805555556 0  4.6875 0  L 20.3125 0  C 21.5928819444444 0  22.6942274305556 0.461154513888887  23.6165364583333 1.38346354166667  Z " fill-rule="nonzero" fill="#f8f9fb" stroke="none" transform="matrix(1 0 0 1 401 261 )" />
  </g>
</svg>