<?xml version="1.0" encoding="utf-8"?>
<svg version="1.1" xmlns:xlink="http://www.w3.org/1999/xlink" width="15px" height="12px" xmlns="http://www.w3.org/2000/svg">
  <g transform="matrix(1 0 0 1 -781 -306 )">
    <path d="M 14.8409598214286 9.98011363636364  C 14.9469866071429 10.0880681818182  15 10.2159090909091  15 10.3636363636364  L 15 11.4545454545455  C 15 11.6022727272727  14.9469866071429 11.7301136363636  14.8409598214286 11.8380681818182  C 14.7349330357143 11.9460227272727  14.609375 12  14.4642857142857 12  L 0.535714285714286 12  C 0.390625 12  0.265066964285714 11.9460227272727  0.159040178571429 11.8380681818182  C 0.0530133928571429 11.7301136363636  0 11.6022727272727  0 11.4545454545455  L 0 10.3636363636364  C 0 10.2159090909091  0.0530133928571429 10.0880681818182  0.159040178571429 9.98011363636364  C 0.265066964285714 9.87215909090909  0.390625 9.81818181818182  0.535714285714286 9.81818181818182  L 14.4642857142857 9.81818181818182  C 14.609375 9.81818181818182  14.7349330357143 9.87215909090909  14.8409598214286 9.98011363636364  Z M 11.6266741071429 6.70738636363636  C 11.7327008928571 6.81534090909091  11.7857142857143 6.94318181818182  11.7857142857143 7.09090909090909  L 11.7857142857143 8.18181818181818  C 11.7857142857143 8.32954545454545  11.7327008928571 8.45738636363636  11.6266741071429 8.56534090909091  C 11.5206473214286 8.67329545454546  11.3950892857143 8.72727272727273  11.25 8.72727272727273  L 0.535714285714286 8.72727272727273  C 0.390625 8.72727272727273  0.265066964285714 8.67329545454546  0.159040178571429 8.56534090909091  C 0.0530133928571429 8.45738636363636  0 8.32954545454545  0 8.18181818181818  L 0 7.09090909090909  C 0 6.94318181818182  0.0530133928571429 6.81534090909091  0.159040178571429 6.70738636363636  C 0.265066964285714 6.59943181818182  0.390625 6.54545454545454  0.535714285714286 6.54545454545454  L 11.25 6.54545454545454  C 11.3950892857143 6.54545454545454  11.5206473214286 6.59943181818182  11.6266741071429 6.70738636363636  Z M 13.76953125 3.43465909090909  C 13.8755580357143 3.54261363636364  13.9285714285714 3.67045454545454  13.9285714285714 3.81818181818182  L 13.9285714285714 4.90909090909091  C 13.9285714285714 5.05681818181818  13.8755580357143 5.18465909090909  13.76953125 5.29261363636364  C 13.6635044642857 5.40056818181818  13.5379464285714 5.45454545454546  13.3928571428571 5.45454545454546  L 0.535714285714286 5.45454545454546  C 0.390625 5.45454545454546  0.265066964285714 5.40056818181818  0.159040178571429 5.29261363636364  C 0.0530133928571429 5.18465909090909  0 5.05681818181818  0 4.90909090909091  L 0 3.81818181818182  C 0 3.67045454545454  0.0530133928571429 3.54261363636364  0.159040178571429 3.43465909090909  C 0.265066964285714 3.32670454545455  0.390625 3.27272727272727  0.535714285714286 3.27272727272727  L 13.3928571428571 3.27272727272727  C 13.5379464285714 3.27272727272727  13.6635044642857 3.32670454545455  13.76953125 3.43465909090909  Z M 10.5552455357143 0.161931818181819  C 10.6612723214286 0.269886363636362  10.7142857142857 0.397727272727272  10.7142857142857 0.545454545454545  L 10.7142857142857 1.63636363636364  C 10.7142857142857 1.78409090909091  10.6612723214286 1.91193181818182  10.5552455357143 2.01988636363636  C 10.44921875 2.12784090909091  10.3236607142857 2.18181818181818  10.1785714285714 2.18181818181818  L 0.535714285714286 2.18181818181818  C 0.390625 2.18181818181818  0.265066964285714 2.12784090909091  0.159040178571429 2.01988636363636  C 0.0530133928571429 1.91193181818182  0 1.78409090909091  0 1.63636363636364  L 0 0.545454545454545  C 0 0.397727272727272  0.0530133928571429 0.269886363636362  0.159040178571429 0.161931818181819  C 0.265066964285714 0.0539772727272716  0.390625 0  0.535714285714286 0  L 10.1785714285714 0  C 10.3236607142857 0  10.44921875 0.0539772727272716  10.5552455357143 0.161931818181819  Z " fill-rule="nonzero" fill="#f8f9fb" stroke="none" transform="matrix(1 0 0 1 781 306 )" />
  </g>
</svg>