<?xml version="1.0" encoding="utf-8"?>
<svg version="1.1" xmlns:xlink="http://www.w3.org/1999/xlink" width="14px" height="13px" xmlns="http://www.w3.org/2000/svg">
  <g transform="matrix(1 0 0 1 -2 -7 )">
    <path d="M 9 7  C 12.92 7  16 9.86  16 13.5  C 16 17.14  12.92 20  9 20  C 5.08 20  2 17.14  2 13.5  C 2 9.86  5.08 7  9 7  Z " fill-rule="nonzero" fill="#ffffff" stroke="none" />
    <path d="M 9 7.5  C 12.64 7.5  15.5 10.14  15.5 13.5  C 15.5 16.86  12.64 19.5  9 19.5  C 5.36 19.5  2.5 16.86  2.5 13.5  C 2.5 10.14  5.36 7.5  9 7.5  Z " stroke-width="1" stroke="#8c8c8c" fill="none" />
  </g>
</svg>