<?xml version="1.0" encoding="utf-8"?>
<svg version="1.1" xmlns:xlink="http://www.w3.org/1999/xlink" width="7px" height="7px" xmlns="http://www.w3.org/2000/svg">
  <g transform="matrix(1 0 0 1 -863 -4151 )">
    <path d="M 866.5 4151  C 868.46 4151  870 4152.54  870 4154.5  C 870 4156.46  868.46 4158  866.5 4158  C 864.54 4158  863 4156.46  863 4154.5  C 863 4152.54  864.54 4151  866.5 4151  Z " fill-rule="nonzero" fill="#ff99cb" stroke="none" />
    <path d="M 866.5 4151.5  C 868.18 4151.5  869.5 4152.82  869.5 4154.5  C 869.5 4156.18  868.18 4157.5  866.5 4157.5  C 864.82 4157.5  863.5 4156.18  863.5 4154.5  C 863.5 4152.82  864.82 4151.5  866.5 4151.5  Z " stroke-width="1" stroke="#ff99cb" fill="none" />
  </g>
</svg>