<?xml version="1.0" encoding="utf-8"?>
<svg version="1.1" xmlns:xlink="http://www.w3.org/1999/xlink" width="18px" height="18px" preserveAspectRatio="xMinYMid meet" viewBox="3503 -1647  18 16" xmlns="http://www.w3.org/2000/svg">
  <path d="M 3510 -1638.5  L 3525 -1638.5  A 5 5 0 0 0 3530.5 -1643.5 L 3530.5 -1665  A 5 5 0 0 1 3535.5 -1669.5 L 3664 -1669.5  A 5 5 0 0 1 3669.5 -1664.5 L 3669.5 -1656  " stroke-width="1" stroke="#ff3399" fill="none" />
  <path d="M 3512 -1641.5  A 3 3 0 0 0 3509 -1638.5 A 3 3 0 0 0 3512 -1635.5 A 3 3 0 0 0 3515 -1638.5 A 3 3 0 0 0 3512 -1641.5 Z " fill-rule="nonzero" fill="#ff3399" stroke="none" />
</svg>