<?xml version="1.0" encoding="utf-8"?>
<svg version="1.1" xmlns:xlink="http://www.w3.org/1999/xlink" width="374px" height="505px" xmlns="http://www.w3.org/2000/svg">
  <g transform="matrix(1 0 0 1 -1045 -1435 )">
    <path d="M 1046 1439  A 3 3 0 0 1 1049 1436 L 1415 1436  A 3 3 0 0 1 1418 1439 L 1418 1936  A 3 3 0 0 1 1415 1939 L 1049 1939  A 3 3 0 0 1 1046 1936 L 1046 1439  Z " fill-rule="nonzero" fill="#ff3399" stroke="none" fill-opacity="0.0980392156862745" />
    <path d="M 1045.5 1439  A 3.5 3.5 0 0 1 1049 1435.5 L 1415 1435.5  A 3.5 3.5 0 0 1 1418.5 1439 L 1418.5 1936  A 3.5 3.5 0 0 1 1415 1939.5 L 1049 1939.5  A 3.5 3.5 0 0 1 1045.5 1936 L 1045.5 1439  Z " stroke-width="1" stroke-dasharray="9,4" stroke="#ff3399" fill="none" stroke-dashoffset="0.5" />
  </g>
</svg>