<?xml version="1.0" encoding="utf-8"?>
<svg version="1.1" xmlns:xlink="http://www.w3.org/1999/xlink" width="35px" height="10px" preserveAspectRatio="xMinYMid meet" viewBox="475 876  35 8" xmlns="http://www.w3.org/2000/svg">
  <path d="M 456 884.5  L 478 884.5  A 2 2 0 0 0 480.5 882.5 A 2 2 0 0 1 482.5 880.5 L 500 880.5  A 5 5 0 0 1 505.5 885.5 L 505.5 892  " stroke-width="1" stroke="#ff3399" fill="none" />
  <path d="M 458 881.5  A 3 3 0 0 0 455 884.5 A 3 3 0 0 0 458 887.5 A 3 3 0 0 0 461 884.5 A 3 3 0 0 0 458 881.5 Z " fill-rule="nonzero" fill="#ff3399" stroke="none" />
</svg>