<?xml version="1.0" encoding="utf-8"?>
<svg version="1.1" xmlns:xlink="http://www.w3.org/1999/xlink" width="103px" height="56px" xmlns="http://www.w3.org/2000/svg">
  <g transform="matrix(1 0 0 1 -2797 -599 )">
    <path d="M 2798 603  A 3 3 0 0 1 2801 600 L 2896 600  A 3 3 0 0 1 2899 603 L 2899 651  A 3 3 0 0 1 2896 654 L 2801 654  A 3 3 0 0 1 2798 651 L 2798 603  Z " fill-rule="nonzero" fill="#ff3399" stroke="none" fill-opacity="0.0980392156862745" />
    <path d="M 2797.5 603  A 3.5 3.5 0 0 1 2801 599.5 L 2896 599.5  A 3.5 3.5 0 0 1 2899.5 603 L 2899.5 651  A 3.5 3.5 0 0 1 2896 654.5 L 2801 654.5  A 3.5 3.5 0 0 1 2797.5 651 L 2797.5 603  Z " stroke-width="1" stroke-dasharray="9,4" stroke="#ff3399" fill="none" stroke-dashoffset="0.5" />
  </g>
</svg>