<?xml version="1.0" encoding="utf-8"?>
<svg version="1.1" xmlns:xlink="http://www.w3.org/1999/xlink" width="445px" height="266px" xmlns="http://www.w3.org/2000/svg">
  <g transform="matrix(1 0 0 1 -1699 -4942 )">
    <path d="M 1700 4946  A 3 3 0 0 1 1703 4943 L 2140 4943  A 3 3 0 0 1 2143 4946 L 2143 5204  A 3 3 0 0 1 2140 5207 L 1703 5207  A 3 3 0 0 1 1700 5204 L 1700 4946  Z " fill-rule="nonzero" fill="#ff3399" stroke="none" fill-opacity="0.0980392156862745" />
    <path d="M 1699.5 4946  A 3.5 3.5 0 0 1 1703 4942.5 L 2140 4942.5  A 3.5 3.5 0 0 1 2143.5 4946 L 2143.5 5204  A 3.5 3.5 0 0 1 2140 5207.5 L 1703 5207.5  A 3.5 3.5 0 0 1 1699.5 5204 L 1699.5 4946  Z " stroke-width="1" stroke-dasharray="9,4" stroke="#ff3399" fill="none" stroke-dashoffset="0.5" />
  </g>
</svg>