<?xml version="1.0" encoding="utf-8"?>
<svg version="1.1" xmlns:xlink="http://www.w3.org/1999/xlink" width="15px" height="15px" xmlns="http://www.w3.org/2000/svg">
  <g transform="matrix(1 0 0 1 -913 -1490 )">
    <path d="M 11.689453125 8.564453125  C 11.8131510416667 8.44075520833333  11.875 8.29427083333333  11.875 8.125  L 11.875 6.875  C 11.875 6.70572916666667  11.8131510416667 6.55924479166667  11.689453125 6.435546875  C 11.5657552083333 6.31184895833333  11.4192708333333 6.25  11.25 6.25  L 8.75 6.25  L 8.75 3.75  C 8.75 3.58072916666667  8.68815104166667 3.43424479166667  8.564453125 3.310546875  C 8.44075520833333 3.18684895833333  8.29427083333333 3.125  8.125 3.125  L 6.875 3.125  C 6.70572916666667 3.125  6.55924479166667 3.18684895833333  6.435546875 3.310546875  C 6.31184895833333 3.43424479166667  6.25 3.58072916666667  6.25 3.75  L 6.25 6.25  L 3.75 6.25  C 3.58072916666667 6.25  3.43424479166667 6.31184895833333  3.310546875 6.435546875  C 3.18684895833333 6.55924479166667  3.125 6.70572916666667  3.125 6.875  L 3.125 8.125  C 3.125 8.29427083333333  3.18684895833333 8.44075520833333  3.310546875 8.564453125  C 3.43424479166667 8.68815104166667  3.58072916666667 8.75  3.75 8.75  L 6.25 8.75  L 6.25 11.25  C 6.25 11.4192708333333  6.31184895833333 11.5657552083333  6.435546875 11.689453125  C 6.55924479166667 11.8131510416667  6.70572916666667 11.875  6.875 11.875  L 8.125 11.875  C 8.29427083333333 11.875  8.44075520833333 11.8131510416667  8.564453125 11.689453125  C 8.68815104166667 11.5657552083333  8.75 11.4192708333333  8.75 11.25  L 8.75 8.75  L 11.25 8.75  C 11.4192708333333 8.75  11.5657552083333 8.68815104166667  11.689453125 8.564453125  Z M 13.994140625 3.7353515625  C 14.6647135416667 4.88444010416667  15 6.13932291666666  15 7.5  C 15 8.86067708333333  14.6647135416667 10.1155598958333  13.994140625 11.2646484375  C 13.3235677083333 12.4137369791667  12.4137369791667 13.3235677083333  11.2646484375 13.994140625  C 10.1155598958333 14.6647135416667  8.86067708333333 15  7.5 15  C 6.13932291666667 15  4.88444010416667 14.6647135416667  3.7353515625 13.994140625  C 2.58626302083333 13.3235677083333  1.67643229166667 12.4137369791667  1.005859375 11.2646484375  C 0.335286458333333 10.1155598958333  0 8.86067708333333  0 7.5  C 0 6.13932291666666  0.335286458333333 4.88444010416667  1.005859375 3.7353515625  C 1.67643229166667 2.58626302083333  2.58626302083333 1.67643229166667  3.7353515625 1.005859375  C 4.88444010416667 0.335286458333332  6.13932291666667 0  7.5 0  C 8.86067708333333 0  10.1155598958333 0.335286458333332  11.2646484375 1.005859375  C 12.4137369791667 1.67643229166667  13.3235677083333 2.58626302083333  13.994140625 3.7353515625  Z " fill-rule="nonzero" fill="#fd7110" stroke="none" transform="matrix(1 0 0 1 913 1490 )" />
  </g>
</svg>