<?xml version="1.0" encoding="utf-8"?>
<svg version="1.1" xmlns:xlink="http://www.w3.org/1999/xlink" width="21px" height="21px" xmlns="http://www.w3.org/2000/svg">
  <g transform="matrix(1 0 0 1 -3540 -769 )">
    <path d="M 17.30859375 8.900390625  C 17.47265625 8.736328125  17.5546875 8.53125  17.5546875 8.28515625  C 17.5546875 8.02994791666667  17.47265625 7.8203125  17.30859375 7.65625  L 16.064453125 6.42578125  C 15.8912760416667 6.25260416666667  15.6861979166667 6.166015625  15.44921875 6.166015625  C 15.2122395833333 6.166015625  15.0071614583333 6.25260416666667  14.833984375 6.42578125  L 9.255859375 11.990234375  L 6.166015625 8.900390625  C 5.99283854166667 8.72721354166667  5.78776041666667 8.640625  5.55078125 8.640625  C 5.31380208333333 8.640625  5.10872395833333 8.72721354166667  4.935546875 8.900390625  L 3.69140625 10.130859375  C 3.52734375 10.294921875  3.4453125 10.5045572916667  3.4453125 10.759765625  C 3.4453125 11.005859375  3.52734375 11.2109375  3.69140625 11.375  L 8.640625 16.32421875  C 8.81380208333333 16.4973958333333  9.01888020833333 16.583984375  9.255859375 16.583984375  C 9.501953125 16.583984375  9.71158854166667 16.4973958333333  9.884765625 16.32421875  L 17.30859375 8.900390625  Z M 19.591796875 5.2294921875  C 20.5305989583333 6.83821614583333  21 8.59505208333333  21 10.5  C 21 12.4049479166667  20.5305989583333 14.1617838541667  19.591796875 15.7705078125  C 18.6529947916667 17.3792317708333  17.3792317708333 18.6529947916667  15.7705078125 19.591796875  C 14.1617838541667 20.5305989583333  12.4049479166667 21  10.5 21  C 8.59505208333333 21  6.83821614583333 20.5305989583333  5.2294921875 19.591796875  C 3.62076822916667 18.6529947916667  2.34700520833333 17.3792317708333  1.408203125 15.7705078125  C 0.469401041666667 14.1617838541667  0 12.4049479166667  0 10.5  C 0 8.59505208333333  0.469401041666667 6.83821614583333  1.408203125 5.2294921875  C 2.34700520833333 3.62076822916667  3.62076822916667 2.34700520833333  5.2294921875 1.408203125  C 6.83821614583333 0.469401041666665  8.59505208333333 0  10.5 0  C 12.4049479166667 0  14.1617838541667 0.469401041666665  15.7705078125 1.408203125  C 17.3792317708333 2.34700520833333  18.6529947916667 3.62076822916667  19.591796875 5.2294921875  Z " fill-rule="nonzero" fill="#000000" stroke="none" transform="matrix(1 0 0 1 3540 769 )" />
  </g>
</svg>