<?xml version="1.0" encoding="utf-8"?>
<svg version="1.1" xmlns:xlink="http://www.w3.org/1999/xlink" width="470px" height="158px" xmlns="http://www.w3.org/2000/svg">
  <g transform="matrix(1 0 0 1 -34 -1717 )">
    <path d="M 35 1721  A 3 3 0 0 1 38 1718 L 500 1718  A 3 3 0 0 1 503 1721 L 503 1871  A 3 3 0 0 1 500 1874 L 38 1874  A 3 3 0 0 1 35 1871 L 35 1721  Z " fill-rule="nonzero" fill="#ff3399" stroke="none" fill-opacity="0.0980392156862745" />
    <path d="M 34.5 1721  A 3.5 3.5 0 0 1 38 1717.5 L 500 1717.5  A 3.5 3.5 0 0 1 503.5 1721 L 503.5 1871  A 3.5 3.5 0 0 1 500 1874.5 L 38 1874.5  A 3.5 3.5 0 0 1 34.5 1871 L 34.5 1721  Z " stroke-width="1" stroke-dasharray="9,4" stroke="#ff3399" fill="none" stroke-dashoffset="0.5" />
  </g>
</svg>