<?xml version="1.0" encoding="utf-8"?>
<svg version="1.1" xmlns:xlink="http://www.w3.org/1999/xlink" width="12px" height="14px" xmlns="http://www.w3.org/2000/svg">
  <g transform="matrix(1 0 0 1 -659 33 )">
    <path d="M 8.28125 0.53125  L 11.46875 3.71875  C 11.5416666666667 3.79166666666667  11.6145833333333 3.88541666666667  11.6875 4  L 8 4  L 8 0.3125  C 8.11458333333333 0.385416666666666  8.20833333333333 0.458333333333332  8.28125 0.53125  Z M 7.21875 4.78125  C 7.36458333333333 4.92708333333333  7.54166666666667 5  7.75 5  L 12 5  L 12 13.25  C 12 13.4583333333333  11.9270833333333 13.6354166666667  11.78125 13.78125  C 11.6354166666667 13.9270833333333  11.4583333333333 14  11.25 14  L 0.75 14  C 0.541666666666667 14  0.364583333333333 13.9270833333333  0.21875 13.78125  C 0.0729166666666667 13.6354166666667  0 13.4583333333333  0 13.25  L 0 0.75  C 0 0.541666666666666  0.0729166666666667 0.364583333333333  0.21875 0.21875  C 0.364583333333333 0.0729166666666672  0.541666666666667 0  0.75 0  L 7 0  L 7 4.25  C 7 4.45833333333333  7.07291666666667 4.63541666666667  7.21875 4.78125  Z M 8.9296875 10.9296875  C 8.9765625 10.8828125  9 10.8229166666667  9 10.75  L 9 10.25  C 9 10.1770833333333  8.9765625 10.1171875  8.9296875 10.0703125  C 8.8828125 10.0234375  8.82291666666667 10  8.75 10  L 3.25 10  C 3.17708333333333 10  3.1171875 10.0234375  3.0703125 10.0703125  C 3.0234375 10.1171875  3 10.1770833333333  3 10.25  L 3 10.75  C 3 10.8229166666667  3.0234375 10.8828125  3.0703125 10.9296875  C 3.1171875 10.9765625  3.17708333333333 11  3.25 11  L 8.75 11  C 8.82291666666667 11  8.8828125 10.9765625  8.9296875 10.9296875  Z M 8.9296875 8.9296875  C 8.9765625 8.8828125  9 8.82291666666667  9 8.75  L 9 8.25  C 9 8.17708333333333  8.9765625 8.1171875  8.9296875 8.0703125  C 8.8828125 8.0234375  8.82291666666667 8  8.75 8  L 3.25 8  C 3.17708333333333 8  3.1171875 8.0234375  3.0703125 8.0703125  C 3.0234375 8.1171875  3 8.17708333333333  3 8.25  L 3 8.75  C 3 8.82291666666667  3.0234375 8.8828125  3.0703125 8.9296875  C 3.1171875 8.9765625  3.17708333333333 9  3.25 9  L 8.75 9  C 8.82291666666667 9  8.8828125 8.9765625  8.9296875 8.9296875  Z M 8.9296875 6.9296875  C 8.9765625 6.8828125  9 6.82291666666667  9 6.75  L 9 6.25  C 9 6.17708333333333  8.9765625 6.1171875  8.9296875 6.0703125  C 8.8828125 6.0234375  8.82291666666667 6  8.75 6  L 3.25 6  C 3.17708333333333 6  3.1171875 6.0234375  3.0703125 6.0703125  C 3.0234375 6.1171875  3 6.17708333333333  3 6.25  L 3 6.75  C 3 6.82291666666667  3.0234375 6.8828125  3.0703125 6.9296875  C 3.1171875 6.9765625  3.17708333333333 7  3.25 7  L 8.75 7  C 8.82291666666667 7  8.8828125 6.9765625  8.9296875 6.9296875  Z " fill-rule="nonzero" fill="#808080" stroke="none" transform="matrix(1 0 0 1 659 -33 )" />
  </g>
</svg>