<?xml version="1.0" encoding="utf-8"?>
<svg version="1.1" xmlns:xlink="http://www.w3.org/1999/xlink" width="19px" height="19px" xmlns="http://www.w3.org/2000/svg">
  <g transform="matrix(1 0 0 1 921 -2328 )">
    <path d="M -911.5 2328  C -906.18 2328  -902 2332.18  -902 2337.5  C -902 2342.82  -906.18 2347  -911.5 2347  C -916.82 2347  -921 2342.82  -921 2337.5  C -921 2332.18  -916.82 2328  -911.5 2328  Z " fill-rule="nonzero" fill="#ffffff" stroke="none" fill-opacity="0" />
    <path d="M -911.5 2328.5  C -906.46 2328.5  -902.5 2332.46  -902.5 2337.5  C -902.5 2342.54  -906.46 2346.5  -911.5 2346.5  C -916.54 2346.5  -920.5 2342.54  -920.5 2337.5  C -920.5 2332.46  -916.54 2328.5  -911.5 2328.5  Z " stroke-width="1" stroke="#cdcdcd" fill="none" />
  </g>
</svg>