<?xml version="1.0" encoding="utf-8"?>
<svg version="1.1" xmlns:xlink="http://www.w3.org/1999/xlink" width="8px" height="8px" xmlns="http://www.w3.org/2000/svg">
  <g transform="matrix(1 0 0 1 -726 -2969 )">
    <path d="M 730 2969  C 732.24 2969  734 2970.76  734 2973  C 734 2975.24  732.24 2977  730 2977  C 727.76 2977  726 2975.24  726 2973  C 726 2970.76  727.76 2969  730 2969  Z " fill-rule="nonzero" fill="#797979" stroke="none" />
    <path d="M 730 2969.5  C 731.96 2969.5  733.5 2971.04  733.5 2973  C 733.5 2974.96  731.96 2976.5  730 2976.5  C 728.04 2976.5  726.5 2974.96  726.5 2973  C 726.5 2971.04  728.04 2969.5  730 2969.5  Z " stroke-width="1" stroke="#797979" fill="none" />
  </g>
</svg>