<?xml version="1.0" encoding="utf-8"?>
<svg version="1.1" xmlns:xlink="http://www.w3.org/1999/xlink" width="6px" height="6px" xmlns="http://www.w3.org/2000/svg">
  <g transform="matrix(1 0 0 1 -2748 -326 )">
    <path d="M 5.85858585858586 4.48484848484848  C 5.95286195286195 4.57912457912458  6 4.69360269360269  6 4.82828282828283  C 6 4.96296296296296  5.95286195286195 5.07744107744108  5.85858585858586 5.17171717171717  L 5.17171717171717 5.85858585858586  C 5.07744107744108 5.95286195286195  4.96296296296296 6  4.82828282828283 6  C 4.69360269360269 6  4.57912457912458 5.95286195286195  4.48484848484849 5.85858585858586  L 3 4.37373737373737  L 1.51515151515152 5.85858585858586  C 1.42087542087542 5.95286195286195  1.30639730639731 6  1.17171717171717 6  C 1.03703703703704 6  0.922558922558923 5.95286195286195  0.828282828282828 5.85858585858586  L 0.141414141414141 5.17171717171717  C 0.0471380471380472 5.07744107744108  0 4.96296296296296  0 4.82828282828283  C 0 4.69360269360269  0.0471380471380472 4.57912457912458  0.141414141414141 4.48484848484848  L 1.62626262626263 3  L 0.141414141414141 1.51515151515151  C 0.0471380471380472 1.42087542087542  0 1.30639730639731  0 1.17171717171717  C 0 1.03703703703704  0.0471380471380472 0.922558922558922  0.141414141414141 0.828282828282829  L 0.828282828282828 0.141414141414141  C 0.922558922558923 0.0471380471380469  1.03703703703704 0  1.17171717171717 0  C 1.30639730639731 0  1.42087542087542 0.0471380471380469  1.51515151515152 0.141414141414141  L 3 1.62626262626263  L 4.48484848484849 0.141414141414141  C 4.57912457912458 0.0471380471380469  4.69360269360269 0  4.82828282828283 0  C 4.96296296296296 0  5.07744107744108 0.0471380471380469  5.17171717171717 0.141414141414141  L 5.85858585858586 0.828282828282829  C 5.95286195286195 0.922558922558922  6 1.03703703703704  6 1.17171717171717  C 6 1.30639730639731  5.95286195286195 1.42087542087542  5.85858585858586 1.51515151515151  L 4.37373737373737 3  L 5.85858585858586 4.48484848484848  Z " fill-rule="nonzero" fill="#ffffff" stroke="none" transform="matrix(1 0 0 1 2748 326 )" />
  </g>
</svg>