<?xml version="1.0" encoding="utf-8"?>
<svg version="1.1" xmlns:xlink="http://www.w3.org/1999/xlink" width="36px" height="36px" xmlns="http://www.w3.org/2000/svg">
  <g transform="matrix(1 0 0 1 -921 -1824 )">
    <path d="M 939 1824  C 949.08 1824  957 1831.92  957 1842  C 957 1852.08  949.08 1860  939 1860  C 928.92 1860  921 1852.08  921 1842  C 921 1831.92  928.92 1824  939 1824  Z " fill-rule="nonzero" fill="#ffffff" stroke="none" />
    <path d="M 939 1824.5  C 948.8 1824.5  956.5 1832.2  956.5 1842  C 956.5 1851.8  948.8 1859.5  939 1859.5  C 929.2 1859.5  921.5 1851.8  921.5 1842  C 921.5 1832.2  929.2 1824.5  939 1824.5  Z " stroke-width="1" stroke="#797979" fill="none" />
  </g>
</svg>