<?xml version="1.0" encoding="utf-8"?>
<svg version="1.1" xmlns:xlink="http://www.w3.org/1999/xlink" width="8px" height="8px" xmlns="http://www.w3.org/2000/svg">
  <g transform="matrix(1 0 0 1 -789 -1749 )">
    <path d="M 793 1749  C 795.24 1749  797 1750.76  797 1753  C 797 1755.24  795.24 1757  793 1757  C 790.76 1757  789 1755.24  789 1753  C 789 1750.76  790.76 1749  793 1749  Z " fill-rule="nonzero" fill="#797979" stroke="none" />
    <path d="M 793 1749.5  C 794.96 1749.5  796.5 1751.04  796.5 1753  C 796.5 1754.96  794.96 1756.5  793 1756.5  C 791.04 1756.5  789.5 1754.96  789.5 1753  C 789.5 1751.04  791.04 1749.5  793 1749.5  Z " stroke-width="1" stroke="#797979" fill="none" />
  </g>
</svg>