<?xml version="1.0" encoding="utf-8"?>
<svg version="1.1" xmlns:xlink="http://www.w3.org/1999/xlink" width="8px" height="8px" xmlns="http://www.w3.org/2000/svg">
  <g transform="matrix(1 0 0 1 -811 -1749 )">
    <path d="M 815 1749  C 817.24 1749  819 1750.76  819 1753  C 819 1755.24  817.24 1757  815 1757  C 812.76 1757  811 1755.24  811 1753  C 811 1750.76  812.76 1749  815 1749  Z " fill-rule="nonzero" fill="#ffffff" stroke="none" />
    <path d="M 815 1749.5  C 816.96 1749.5  818.5 1751.04  818.5 1753  C 818.5 1754.96  816.96 1756.5  815 1756.5  C 813.04 1756.5  811.5 1754.96  811.5 1753  C 811.5 1751.04  813.04 1749.5  815 1749.5  Z " stroke-width="1" stroke="#797979" fill="none" />
  </g>
</svg>