<?xml version="1.0" encoding="utf-8"?>
<svg version="1.1" xmlns:xlink="http://www.w3.org/1999/xlink" width="10px" height="10px" xmlns="http://www.w3.org/2000/svg">
  <g transform="matrix(1 0 0 1 27 -3590 )">
    <path d="M -22 3591  C -19.76 3591  -18 3592.76  -18 3595  C -18 3597.24  -19.76 3599  -22 3599  C -24.24 3599  -26 3597.24  -26 3595  C -26 3592.76  -24.24 3591  -22 3591  Z " fill-rule="nonzero" fill="#ffffff" stroke="none" />
    <path d="M -22 3591  C -19.76 3591  -18 3592.76  -18 3595  C -18 3597.24  -19.76 3599  -22 3599  C -24.24 3599  -26 3597.24  -26 3595  C -26 3592.76  -24.24 3591  -22 3591  Z " stroke-width="2" stroke="#d9d9d9" fill="none" />
  </g>
</svg>