<?xml version="1.0" encoding="utf-8"?>
<svg version="1.1" xmlns:xlink="http://www.w3.org/1999/xlink" width="272px" height="278px" xmlns="http://www.w3.org/2000/svg">
  <g transform="matrix(1 0 0 1 -1037 -96 )">
    <path d="M 1038 100  A 3 3 0 0 1 1041 97 L 1305 97  A 3 3 0 0 1 1308 100 L 1308 370  A 3 3 0 0 1 1305 373 L 1041 373  A 3 3 0 0 1 1038 370 L 1038 100  Z " fill-rule="nonzero" fill="#ff3399" stroke="none" fill-opacity="0.0980392156862745" />
    <path d="M 1037.5 100  A 3.5 3.5 0 0 1 1041 96.5 L 1305 96.5  A 3.5 3.5 0 0 1 1308.5 100 L 1308.5 370  A 3.5 3.5 0 0 1 1305 373.5 L 1041 373.5  A 3.5 3.5 0 0 1 1037.5 370 L 1037.5 100  Z " stroke-width="1" stroke-dasharray="9,4" stroke="#ff3399" fill="none" stroke-dashoffset="0.5" />
  </g>
</svg>