<?xml version="1.0" encoding="utf-8"?>
<svg version="1.1" xmlns:xlink="http://www.w3.org/1999/xlink" width="272px" height="120px" xmlns="http://www.w3.org/2000/svg">
  <g transform="matrix(1 0 0 1 -1037 -394 )">
    <path d="M 1038 398  A 3 3 0 0 1 1041 395 L 1305 395  A 3 3 0 0 1 1308 398 L 1308 510  A 3 3 0 0 1 1305 513 L 1041 513  A 3 3 0 0 1 1038 510 L 1038 398  Z " fill-rule="nonzero" fill="#ff3399" stroke="none" fill-opacity="0.0980392156862745" />
    <path d="M 1037.5 398  A 3.5 3.5 0 0 1 1041 394.5 L 1305 394.5  A 3.5 3.5 0 0 1 1308.5 398 L 1308.5 510  A 3.5 3.5 0 0 1 1305 513.5 L 1041 513.5  A 3.5 3.5 0 0 1 1037.5 510 L 1037.5 398  Z " stroke-width="1" stroke-dasharray="9,4" stroke="#ff3399" fill="none" stroke-dashoffset="0.5" />
  </g>
</svg>