<?xml version="1.0" encoding="utf-8"?>
<svg version="1.1" xmlns:xlink="http://www.w3.org/1999/xlink" width="272px" height="115px" xmlns="http://www.w3.org/2000/svg">
  <g transform="matrix(1 0 0 1 -4091 -546 )">
    <path d="M 4092 550  A 3 3 0 0 1 4095 547 L 4359 547  A 3 3 0 0 1 4362 550 L 4362 657  A 3 3 0 0 1 4359 660 L 4095 660  A 3 3 0 0 1 4092 657 L 4092 550  Z " fill-rule="nonzero" fill="#ff3399" stroke="none" fill-opacity="0.0980392156862745" />
    <path d="M 4091.5 550  A 3.5 3.5 0 0 1 4095 546.5 L 4359 546.5  A 3.5 3.5 0 0 1 4362.5 550 L 4362.5 657  A 3.5 3.5 0 0 1 4359 660.5 L 4095 660.5  A 3.5 3.5 0 0 1 4091.5 657 L 4091.5 550  Z " stroke-width="1" stroke-dasharray="9,4" stroke="#ff3399" fill="none" stroke-dashoffset="0.5" />
  </g>
</svg>