<?xml version="1.0" encoding="utf-8"?>
<svg version="1.1" xmlns:xlink="http://www.w3.org/1999/xlink" width="272px" height="159px" xmlns="http://www.w3.org/2000/svg">
  <g transform="matrix(1 0 0 1 -3204 -1240 )">
    <path d="M 3205 1244  A 3 3 0 0 1 3208 1241 L 3472 1241  A 3 3 0 0 1 3475 1244 L 3475 1395  A 3 3 0 0 1 3472 1398 L 3208 1398  A 3 3 0 0 1 3205 1395 L 3205 1244  Z " fill-rule="nonzero" fill="#ff3399" stroke="none" fill-opacity="0.0980392156862745" />
    <path d="M 3204.5 1244  A 3.5 3.5 0 0 1 3208 1240.5 L 3472 1240.5  A 3.5 3.5 0 0 1 3475.5 1244 L 3475.5 1395  A 3.5 3.5 0 0 1 3472 1398.5 L 3208 1398.5  A 3.5 3.5 0 0 1 3204.5 1395 L 3204.5 1244  Z " stroke-width="1" stroke-dasharray="9,4" stroke="#ff3399" fill="none" stroke-dashoffset="0.5" />
  </g>
</svg>