<?xml version="1.0" encoding="utf-8"?>
<svg version="1.1" xmlns:xlink="http://www.w3.org/1999/xlink" width="370px" height="154px" xmlns="http://www.w3.org/2000/svg">
  <g transform="matrix(1 0 0 1 -4878 -272 )">
    <path d="M 4879 276  A 3 3 0 0 1 4882 273 L 5244 273  A 3 3 0 0 1 5247 276 L 5247 422  A 3 3 0 0 1 5244 425 L 4882 425  A 3 3 0 0 1 4879 422 L 4879 276  Z " fill-rule="nonzero" fill="#ff3399" stroke="none" fill-opacity="0.0980392156862745" />
    <path d="M 4878.5 276  A 3.5 3.5 0 0 1 4882 272.5 L 5244 272.5  A 3.5 3.5 0 0 1 5247.5 276 L 5247.5 422  A 3.5 3.5 0 0 1 5244 425.5 L 4882 425.5  A 3.5 3.5 0 0 1 4878.5 422 L 4878.5 276  Z " stroke-width="1" stroke-dasharray="9,4" stroke="#ff3399" fill="none" stroke-dashoffset="0.5" />
  </g>
</svg>