<?xml version="1.0" encoding="utf-8"?>
<svg version="1.1" xmlns:xlink="http://www.w3.org/1999/xlink" width="18px" height="18px" xmlns="http://www.w3.org/2000/svg">
  <g transform="matrix(1 0 0 1 887 -1927 )">
    <path d="M -878 1927  C -872.96 1927  -869 1930.96  -869 1936  C -869 1941.04  -872.96 1945  -878 1945  C -883.04 1945  -887 1941.04  -887 1936  C -887 1930.96  -883.04 1927  -878 1927  Z " fill-rule="nonzero" fill="#ffffff" stroke="none" fill-opacity="0" />
    <path d="M -878 1927.5  C -873.24 1927.5  -869.5 1931.24  -869.5 1936  C -869.5 1940.76  -873.24 1944.5  -878 1944.5  C -882.76 1944.5  -886.5 1940.76  -886.5 1936  C -886.5 1931.24  -882.76 1927.5  -878 1927.5  Z " stroke-width="1" stroke="#cdcdcd" fill="none" />
  </g>
</svg>