<?xml version="1.0" encoding="utf-8"?>
<svg version="1.1" xmlns:xlink="http://www.w3.org/1999/xlink" width="15px" height="15px" xmlns="http://www.w3.org/2000/svg">
  <g transform="matrix(1 0 0 1 -4731 -348 )">
    <path d="M 14.6630859375 8.8427734375  C 14.7249348958333 8.90462239583333  14.755859375 8.97786458333333  14.755859375 9.0625  C 14.755859375 9.09505208333333  14.7526041666667 9.11783854166666  14.74609375 9.130859375  C 14.3294270833333 10.8756510416667  13.45703125 12.2900390625  12.12890625 13.3740234375  C 10.80078125 14.4580078125  9.24479166666667 15  7.4609375 15  C 6.51041666666667 15  5.5908203125 14.8209635416667  4.7021484375 14.462890625  C 3.8134765625 14.1048177083333  3.02083333333333 13.59375  2.32421875 12.9296875  L 1.064453125 14.189453125  C 0.940755208333333 14.3131510416667  0.794270833333333 14.375  0.625 14.375  C 0.455729166666667 14.375  0.309244791666667 14.3131510416667  0.185546875 14.189453125  C 0.0618489583333333 14.0657552083333  0 13.9192708333333  0 13.75  L 0 9.375  C 0 9.20572916666666  0.0618489583333333 9.05924479166666  0.185546875 8.935546875  C 0.309244791666667 8.81184895833333  0.455729166666667 8.75  0.625 8.75  L 5 8.75  C 5.16927083333333 8.75  5.31575520833333 8.81184895833333  5.439453125 8.935546875  C 5.56315104166667 9.05924479166666  5.625 9.20572916666666  5.625 9.375  C 5.625 9.54427083333333  5.56315104166667 9.69075520833333  5.439453125 9.814453125  L 4.1015625 11.15234375  C 4.56380208333333 11.58203125  5.087890625 11.9140625  5.673828125 12.1484375  C 6.259765625 12.3828125  6.86848958333333 12.5  7.5 12.5  C 8.37239583333333 12.5  9.18619791666667 12.2884114583333  9.94140625 11.865234375  C 10.6966145833333 11.4420572916667  11.3020833333333 10.859375  11.7578125 10.1171875  C 11.8294270833333 10.0065104166667  12.001953125 9.62565104166667  12.275390625 8.974609375  C 12.3274739583333 8.82486979166666  12.4251302083333 8.75  12.568359375 8.75  L 14.443359375 8.75  C 14.5279947916667 8.75  14.6012369791667 8.78092447916666  14.6630859375 8.8427734375  Z M 14.814453125 0.810546875000001  C 14.9381510416667 0.934244791666666  15 1.08072916666667  15 1.25  L 15 5.625  C 15 5.79427083333333  14.9381510416667 5.94075520833333  14.814453125 6.064453125  C 14.6907552083333 6.18815104166667  14.5442708333333 6.25  14.375 6.25  L 10 6.25  C 9.83072916666667 6.25  9.68424479166667 6.18815104166667  9.560546875 6.064453125  C 9.43684895833333 5.94075520833333  9.375 5.79427083333333  9.375 5.625  C 9.375 5.45572916666667  9.43684895833333 5.30924479166667  9.560546875 5.185546875  L 10.908203125 3.837890625  C 9.94466145833334 2.94596354166666  8.80859375 2.5  7.5 2.5  C 6.62760416666667 2.5  5.81380208333333 2.71158854166666  5.05859375 3.134765625  C 4.30338541666667 3.55794270833333  3.69791666666667 4.140625  3.2421875 4.8828125  C 3.17057291666667 4.99348958333333  2.998046875 5.37434895833333  2.724609375 6.025390625  C 2.67252604166667 6.17513020833333  2.57486979166667 6.25  2.431640625 6.25  L 0.48828125 6.25  C 0.403645833333333 6.25  0.330403645833333 6.21907552083333  0.2685546875 6.1572265625  C 0.206705729166667 6.09537760416667  0.17578125 6.02213541666667  0.17578125 5.9375  L 0.17578125 5.869140625  C 0.598958333333333 4.12434895833333  1.47786458333333 2.7099609375  2.8125 1.6259765625  C 4.14713541666667 0.5419921875  5.70963541666667 0  7.5 0  C 8.45052083333333 0  9.375 0.180664062500001  10.2734375 0.5419921875  C 11.171875 0.903320312499999  11.9694010416667 1.41276041666667  12.666015625 2.0703125  L 13.935546875 0.810546875000001  C 14.0592447916667 0.686848958333332  14.2057291666667 0.624999999999999  14.375 0.624999999999999  C 14.5442708333333 0.624999999999999  14.6907552083333 0.686848958333332  14.814453125 0.810546875000001  Z " fill-rule="nonzero" fill="#7a7878" stroke="none" transform="matrix(1 0 0 1 4731 348 )" />
  </g>
</svg>