<?xml version="1.0" encoding="utf-8"?>
<svg version="1.1" xmlns:xlink="http://www.w3.org/1999/xlink" width="50px" height="50px" xmlns="http://www.w3.org/2000/svg">
  <g transform="matrix(1 0 0 1 921 -320 )">
    <path d="M 40.3971354166667 27.9622395833333  C 41.2434895833333 27.5933159722222  41.6666666666667 26.953125  41 26.0416666666667  L 41 10.4166666666667  C 41.6666666666667 9.85243055555555  41.4605034722222 9.36414930555555  41.0481770833333 8.95182291666667  C 40.6358506944444 8.53949652777777  40.1475694444444 8.33333333333333  39.5833333333333 9  L 23.9583333333333 9  C 23.046875 8.33333333333333  22.4066840277778 8.75651041666667  22.0377604166667 9.60286458333333  C 21.6688368055556 10.4926215277778  21.8207465277778 11.2521701388889  22.4934895833333 11.8815104166667  L 27.1809895833333 16.5690104166667  L 9.79817708333333 33.9518229166667  C 9.38585069444445 34.3641493055556  9.1796875 34.8524305555556  9.1796875 35.4166666666667  C 9.1796875 35.9809027777778  9.38585069444445 36.4691840277778  9.79817708333333 36.8815104166667  L 13.1184895833333 40.2018229166667  C 13.5308159722222 40.6141493055556  14.0190972222222 40.8203125  14.5833333333333 40.8203125  C 15.1475694444444 40.8203125  15.6358506944444 40.6141493055556  16.0481770833333 40.2018229166667  L 33.4309895833333 22.8190104166667  L 38.1184895833333 27.5065104166667  C 38.5091145833333 27.9188368055556  38.9973958333333 28.125  39.5833333333333 28.125  C 39.84375 28.125  40.1150173611111 28.0707465277778  40.3971354166667 27.9622395833333  Z M 47.2493489583333 2.75065104166667  C 49.0831163194444 4.58441840277777  50 6.79253472222222  50 9.375  L 50 40.625  C 50 43.2074652777778  49.0831163194444 45.4155815972222  47.2493489583333 47.2493489583333  C 45.4155815972222 49.0831163194444  43.2074652777778 50  40.625 50  L 9.375 50  C 6.79253472222222 50  4.58441840277778 49.0831163194444  2.75065104166667 47.2493489583333  C 0.916883680555555 45.4155815972222  0 43.2074652777778  0 40.625  L 0 9.375  C 0 6.79253472222222  0.916883680555555 4.58441840277777  2.75065104166667 2.75065104166667  C 4.58441840277778 0.916883680555552  6.79253472222222 0  9.375 0  L 40.625 0  C 43.2074652777778 0  45.4155815972222 0.916883680555552  47.2493489583333 2.75065104166667  Z " fill-rule="nonzero" fill="#000000" stroke="none" transform="matrix(1 0 0 1 -921 320 )" />
  </g>
</svg>