<?xml version="1.0" encoding="utf-8"?>
<svg version="1.1" xmlns:xlink="http://www.w3.org/1999/xlink" width="36px" height="36px" xmlns="http://www.w3.org/2000/svg">
  <g transform="matrix(1 0 0 1 -858 -3044 )">
    <path d="M 876 3044  C 886.08 3044  894 3051.92  894 3062  C 894 3072.08  886.08 3080  876 3080  C 865.92 3080  858 3072.08  858 3062  C 858 3051.92  865.92 3044  876 3044  Z " fill-rule="nonzero" fill="#ffffff" stroke="none" />
    <path d="M 876 3044.5  C 885.8 3044.5  893.5 3052.2  893.5 3062  C 893.5 3071.8  885.8 3079.5  876 3079.5  C 866.2 3079.5  858.5 3071.8  858.5 3062  C 858.5 3052.2  866.2 3044.5  876 3044.5  Z " stroke-width="1" stroke="#797979" fill="none" />
  </g>
</svg>