<?xml version="1.0" encoding="utf-8"?>
<svg version="1.1" xmlns:xlink="http://www.w3.org/1999/xlink" width="8px" height="8px" xmlns="http://www.w3.org/2000/svg">
  <g transform="matrix(1 0 0 1 -748 -2969 )">
    <path d="M 752 2969  C 754.24 2969  756 2970.76  756 2973  C 756 2975.24  754.24 2977  752 2977  C 749.76 2977  748 2975.24  748 2973  C 748 2970.76  749.76 2969  752 2969  Z " fill-rule="nonzero" fill="#ffffff" stroke="none" />
    <path d="M 752 2969.5  C 753.96 2969.5  755.5 2971.04  755.5 2973  C 755.5 2974.96  753.96 2976.5  752 2976.5  C 750.04 2976.5  748.5 2974.96  748.5 2973  C 748.5 2971.04  750.04 2969.5  752 2969.5  Z " stroke-width="1" stroke="#797979" fill="none" />
  </g>
</svg>