<?xml version="1.0" encoding="utf-8"?>
<svg version="1.1" xmlns:xlink="http://www.w3.org/1999/xlink" width="21px" height="10px" xmlns="http://www.w3.org/2000/svg">
  <g transform="matrix(1 0 0 1 -3290 1535 )">
    <path d="M 20.7895791583166 4.59627329192547  C 20.9298597194389 4.66528640441684  21 4.74465148378192  21 4.8343685300207  C 21 4.92408557625949  20.9298597194389 5.00345065562457  20.7895791583166 5.07246376811594  L 10.9839679358717 9.89648033126294  C 10.8436873747495 9.96549344375431  10.6823647294589 10  10.5 10  C 10.3176352705411 10  10.1563126252505 9.96549344375431  10.0160320641283 9.89648033126294  L 0.210420841683367 5.07246376811594  C 0.0701402805611225 5.00345065562457  0 4.92408557625949  0 4.8343685300207  C 0 4.74465148378192  0.0701402805611225 4.66528640441684  0.210420841683367 4.59627329192547  L 1.2625250501002 4.07867494824016  C 1.40280561122245 4.00966183574879  1.56412825651303 3.97515527950311  1.74649298597194 3.97515527950311  C 1.92885771543086 3.97515527950311  2.09018036072144 4.00966183574879  2.23046092184369 4.07867494824016  L 10.5 8.14699792960663  L 18.7695390781563 4.07867494824016  C 18.9098196392786 4.00966183574879  19.0711422845691 3.97515527950311  19.2535070140281 3.97515527950311  C 19.435871743487 3.97515527950311  19.5971943887776 4.00966183574879  19.7374749498998 4.07867494824016  L 20.7895791583166 4.59627329192547  Z M 20.7895791583166 0.62111801242236  C 20.9298597194389 0.690131124913732  21 0.769496204278812  21 0.859213250517599  C 21 0.948930296756382  20.9298597194389 1.02829537612146  20.7895791583166 1.09730848861284  L 10.9839679358717 5.92132505175983  C 10.8436873747495 5.99033816425121  10.6823647294589 6.02484472049689  10.5 6.02484472049689  C 10.3176352705411 6.02484472049689  10.1563126252505 5.99033816425121  10.0160320641283 5.92132505175983  L 0.210420841683367 1.09730848861284  C 0.0701402805611225 1.02829537612146  0 0.948930296756382  0 0.859213250517599  C 0 0.769496204278812  0.0701402805611225 0.690131124913732  0.210420841683367 0.62111801242236  L 1.2625250501002 0.10351966873706  C 1.40280561122245 0.0345065562456859  1.56412825651303 0  1.74649298597194 0  C 1.92885771543086 0  2.09018036072144 0.0345065562456859  2.23046092184369 0.10351966873706  L 10.5 4.17184265010352  L 18.7695390781563 0.10351966873706  C 18.9098196392786 0.0345065562456859  19.0711422845691 0  19.2535070140281 0  C 19.435871743487 0  19.5971943887776 0.0345065562456859  19.7374749498998 0.10351966873706  L 20.7895791583166 0.62111801242236  Z " fill-rule="nonzero" fill="#ff7950" stroke="none" transform="matrix(1 0 0 1 3290 -1535 )" />
  </g>
</svg>