<?xml version="1.0" encoding="utf-8"?>
<svg version="1.1" xmlns:xlink="http://www.w3.org/1999/xlink" width="13px" height="13px" xmlns="http://www.w3.org/2000/svg">
  <g transform="matrix(1 0 0 1 -3248 401 )">
    <path d="M 10.5532670454545 5.9921875  C 10.6086647727273 6.04758522727273  10.6363636363636 6.11837121212121  10.6363636363636 6.20454545454546  L 10.6363636363636 6.79545454545454  C 10.6363636363636 6.88162878787879  10.6086647727273 6.95241477272727  10.5532670454545 7.0078125  C 10.4978693181818 7.06321022727273  10.4270833333333 7.09090909090909  10.3409090909091 7.09090909090909  L 7.09090909090909 7.09090909090909  L 7.09090909090909 10.3409090909091  C 7.09090909090909 10.4270833333333  7.06321022727273 10.4978693181818  7.0078125 10.5532670454545  C 6.95241477272727 10.6086647727273  6.88162878787879 10.6363636363636  6.79545454545454 10.6363636363636  L 6.20454545454546 10.6363636363636  C 6.11837121212121 10.6363636363636  6.04758522727273 10.6086647727273  5.9921875 10.5532670454545  C 5.93678977272727 10.4978693181818  5.90909090909091 10.4270833333333  5.90909090909091 10.3409090909091  L 5.90909090909091 7.09090909090909  L 2.65909090909091 7.09090909090909  C 2.57291666666667 7.09090909090909  2.50213068181818 7.06321022727273  2.44673295454545 7.0078125  C 2.39133522727273 6.95241477272727  2.36363636363636 6.88162878787879  2.36363636363636 6.79545454545454  L 2.36363636363636 6.20454545454546  C 2.36363636363636 6.11837121212121  2.39133522727273 6.04758522727273  2.44673295454545 5.9921875  C 2.50213068181818 5.93678977272727  2.57291666666667 5.90909090909091  2.65909090909091 5.90909090909091  L 5.90909090909091 5.90909090909091  L 5.90909090909091 2.65909090909091  C 5.90909090909091 2.57291666666666  5.93678977272727 2.50213068181818  5.9921875 2.44673295454546  C 6.04758522727273 2.39133522727273  6.11837121212121 2.36363636363636  6.20454545454546 2.36363636363636  L 6.79545454545454 2.36363636363636  C 6.88162878787879 2.36363636363636  6.95241477272727 2.39133522727273  7.0078125 2.44673295454546  C 7.06321022727273 2.50213068181818  7.09090909090909 2.57291666666666  7.09090909090909 2.65909090909091  L 7.09090909090909 5.90909090909091  L 10.3409090909091 5.90909090909091  C 10.4270833333333 5.90909090909091  10.4978693181818 5.93678977272727  10.5532670454545 5.9921875  Z M 11.3842329545455 11.3842329545455  C 11.6735321969697 11.0949337121212  11.8181818181818 10.7471590909091  11.8181818181818 10.3409090909091  L 11.8181818181818 2.65909090909091  C 11.8181818181818 2.25284090909091  11.6735321969697 1.90506628787879  11.3842329545455 1.61576704545455  C 11.0949337121212 1.3264678030303  10.7471590909091 1.18181818181818  10.3409090909091 1.18181818181818  L 2.65909090909091 1.18181818181818  C 2.25284090909091 1.18181818181818  1.90506628787879 1.3264678030303  1.61576704545455 1.61576704545455  C 1.3264678030303 1.90506628787879  1.18181818181818 2.25284090909091  1.18181818181818 2.65909090909091  L 1.18181818181818 10.3409090909091  C 1.18181818181818 10.7471590909091  1.3264678030303 11.0949337121212  1.61576704545455 11.3842329545455  C 1.90506628787879 11.6735321969697  2.25284090909091 11.8181818181818  2.65909090909091 11.8181818181818  L 10.3409090909091 11.8181818181818  C 10.7471590909091 11.8181818181818  11.0949337121212 11.6735321969697  11.3842329545455 11.3842329545455  Z M 12.2198153409091 0.78018465909091  C 12.7399384469697 1.30030776515151  13 1.92660984848485  13 2.65909090909091  L 13 10.3409090909091  C 13 11.0733901515152  12.7399384469697 11.6996922348485  12.2198153409091 12.2198153409091  C 11.6996922348485 12.7399384469697  11.0733901515152 13  10.3409090909091 13  L 2.65909090909091 13  C 1.92660984848485 13  1.30030776515152 12.7399384469697  0.780184659090909 12.2198153409091  C 0.260061553030303 11.6996922348485  0 11.0733901515152  0 10.3409090909091  L 0 2.65909090909091  C 0 1.92660984848485  0.260061553030303 1.30030776515151  0.780184659090909 0.78018465909091  C 1.30030776515152 0.260061553030302  1.92660984848485 0  2.65909090909091 0  L 10.3409090909091 0  C 11.0733901515152 0  11.6996922348485 0.260061553030302  12.2198153409091 0.78018465909091  Z " fill-rule="nonzero" fill="#fe7747" stroke="none" transform="matrix(1 0 0 1 3248 -401 )" />
  </g>
</svg>