<?xml version="1.0" encoding="utf-8"?>
<svg version="1.1" xmlns:xlink="http://www.w3.org/1999/xlink" width="28px" height="28px" xmlns="http://www.w3.org/2000/svg">
  <g transform="matrix(1 0 0 1 -4624 -1237 )">
    <path d="M 19.5625 24.6328125  C 21.28125 23.7213541666667  22.6927083333333 22.484375  23.796875 20.921875  C 23.5677083333333 19.3072916666667  23.1119791666667 17.9661458333333  22.4296875 16.8984375  C 21.7473958333333 15.8307291666667  20.7864583333333 15.2135416666667  19.546875 15.046875  C 18.8489583333333 15.8177083333333  18.0182291666667 16.4192708333333  17.0546875 16.8515625  C 16.0911458333333 17.2838541666667  15.0729166666667 17.5  14 17.5  C 12.9270833333333 17.5  11.9088541666667 17.2838541666667  10.9453125 16.8515625  C 9.98177083333333 16.4192708333333  9.15104166666667 15.8177083333333  8.453125 15.046875  C 7.21354166666667 15.2135416666667  6.25260416666667 15.8307291666667  5.5703125 16.8984375  C 4.88802083333333 17.9661458333333  4.43229166666667 19.3072916666667  4.203125 20.921875  C 5.30729166666667 22.484375  6.71875 23.7213541666667  8.4375 24.6328125  C 10.15625 25.5442708333333  12.0104166666667 26  14 26  C 15.9895833333333 26  17.84375 25.5442708333333  19.5625 24.6328125  Z M 18.2421875 14.2421875  C 19.4140625 13.0703125  20 11.65625  20 10  C 20 8.34375  19.4140625 6.9296875  18.2421875 5.7578125  C 17.0703125 4.5859375  15.65625 4  14 4  C 12.34375 4  10.9296875 4.5859375  9.7578125 5.7578125  C 8.5859375 6.9296875  8 8.34375  8 10  C 8 11.65625  8.5859375 13.0703125  9.7578125 14.2421875  C 10.9296875 15.4140625  12.34375 16  14 16  C 15.65625 16  17.0703125 15.4140625  18.2421875 14.2421875  Z M 26.890625 8.5625  C 27.6302083333333 10.2916666666667  28 12.1041666666667  28 14  C 28 15.8958333333333  27.6302083333333 17.7057291666667  26.890625 19.4296875  C 26.1510416666667 21.1536458333333  25.1588541666667 22.6432291666667  23.9140625 23.8984375  C 22.6692708333333 25.1536458333333  21.1822916666667 26.1510416666667  19.453125 26.890625  C 17.7239583333333 27.6302083333333  15.90625 28  14 28  C 12.1041666666667 28  10.2916666666667 27.6302083333333  8.5625 26.890625  C 6.83333333333333 26.1510416666667  5.34375 25.15625  4.09375 23.90625  C 2.84375 22.65625  1.84895833333333 21.1666666666667  1.109375 19.4375  C 0.369791666666667 17.7083333333333  0 15.8958333333333  0 14  C 0 12.1041666666667  0.369791666666667 10.2916666666667  1.109375 8.5625  C 1.84895833333333 6.83333333333333  2.84375 5.34375  4.09375 4.09375  C 5.34375 2.84375  6.83333333333333 1.84895833333333  8.5625 1.109375  C 10.2916666666667 0.369791666666667  12.1041666666667 0  14 0  C 15.8958333333333 0  17.7083333333333 0.369791666666667  19.4375 1.109375  C 21.1666666666667 1.84895833333333  22.65625 2.84375  23.90625 4.09375  C 25.15625 5.34375  26.1510416666667 6.83333333333333  26.890625 8.5625  Z " fill-rule="nonzero" fill="#000000" stroke="none" transform="matrix(1 0 0 1 4624 1237 )" />
  </g>
</svg>