<?xml version="1.0" encoding="utf-8"?>
<svg version="1.1" xmlns:xlink="http://www.w3.org/1999/xlink" width="27px" height="25px" xmlns="http://www.w3.org/2000/svg">
  <g transform="matrix(1 0 0 1 -1907 84 )">
    <path d="M 22.5054086538462 15.625  C 22.7325721153846 15.72265625  22.8461538461538 15.8799913194444  22.8461538461538 16.0970052083333  L 22.8461538461538 20.3125  C 22.8461538461538 21.6037326388889  22.3891225961538 22.7077907986111  21.4750600961538 23.6246744791667  C 20.5609975961538 24.5415581597222  19.4603365384615 25  18.1730769230769 25  L 4.67307692307692 25  C 3.38581730769231 25  2.28515625 24.5415581597222  1.37109375 23.6246744791667  C 0.45703125 22.7077907986111  0 21.6037326388889  0 20.3125  L 0 6.77083333333333  C 0 5.47960069444444  0.45703125 4.37554253472222  1.37109375 3.45865885416667  C 2.28515625 2.54177517361111  3.38581730769231 2.08333333333333  4.67307692307692 2.08333333333333  L 8.81069711538461 2.08333333333333  C 8.95132211538462 2.08333333333333  9.07301682692308 2.13487413194444  9.17578125 2.23795572916667  C 9.27854567307692 2.34103732638889  9.32992788461539 2.46310763888889  9.32992788461539 2.60416666666667  C 9.32992788461539 2.89713541666667  9.18930288461539 3.07074652777778  8.90805288461539 3.125  C 8.07512019230769 3.40711805555556  7.35576923076923 3.73263888888889  6.75 4.1015625  C 6.64182692307692 4.14496527777778  6.55528846153846 4.16666666666667  6.49038461538462 4.16666666666667  L 4.67307692307692 4.16666666666667  C 3.95913461538462 4.16666666666667  3.34795673076923 4.42165798611111  2.83954326923077 4.931640625  C 2.33112980769231 5.44162326388889  2.07692307692308 6.0546875  2 6.77083333333333  L 2 20.3125  C 2.07692307692308 21.0286458333333  2.33112980769231 21.6417100694444  2.83954326923077 22.1516927083333  C 3.34795673076923 22.6616753472222  3.95913461538462 22.9166666666667  4.67307692307692 23  L 18.1730769230769 23  C 18.8870192307692 22.9166666666667  19.4981971153846 22.6616753472222  20.0066105769231 22.1516927083333  C 20.5150240384615 21.6417100694444  20.7692307692308 21.0286458333333  20.7692307692308 20.3125  L 20.7692307692308 16.8294270833333  C 20.7692307692308 16.6232638888889  20.8665865384615 16.4659288194444  21.0612980769231 16.357421875  C 21.3641826923077 16.2163628472222  21.65625 16.015625  21.9375 15.7552083333333  C 22.1105769230769 15.5815972222222  22.2998798076923 15.5381944444444  22.5054086538462 15.625  Z M 27 7.29166666666667  C 27 7.57378472222222  26.8972355769231 7.81792534722222  26.6917067307692 8.02408854166667  L 20.4609375 14.2740885416667  C 20.2662259615385 14.4802517361111  20.0228365384615 14.5833333333333  19.7307692307692 14.5833333333333  C 19.6009615384615 14.5833333333333  19.4657451923077 14.5562065972222  19.3251201923077 14.501953125  C 18.9032451923077 14.3174913194444  18.6923076923077 13.9973958333333  18.6923076923077 13.5416666666667  L 18.6923076923077 10.4166666666667  L 16.0961538461538 10.4166666666667  C 12.6021634615385 10.4166666666667  10.2331730769231 11.1273871527778  8.98918269230769 12.548828125  C 7.70192307692308 14.0353732638889  7.30168269230769 16.6015625  7.78846153846154 20.2473958333333  C 7.82091346153846 20.4969618055556  7.71274038461539 20.6814236111111  7.46394230769231 20.80078125  C 7.37740384615385 20.8224826388889  7.3125 20.8333333333333  7.26923076923077 20.8333333333333  C 7.09615384615385 20.8333333333333  6.95552884615385 20.7628038194444  6.84735576923077 20.6217447916667  C 6.73918269230769 20.4698350694444  6.62560096153846 20.3016493055556  6.50661057692308 20.1171875  C 6.38762019230769 19.9327256944444  6.17397836538462 19.5610894097222  5.86568509615385 19.0022786458333  C 5.55739182692308 18.4434678819444  5.28966346153846 17.9036458333333  5.0625 17.3828125  C 4.83533653846154 16.8619791666667  4.62710336538462 16.2434895833333  4.43780048076923 15.52734375  C 4.24849759615385 14.8111979166667  4.15384615384615 14.1493055555556  4.15384615384615 13.5416666666667  C 4.15384615384615 13.0099826388889  4.17277644230769 12.5162760416667  4.21063701923077 12.060546875  C 4.24849759615385 11.6048177083333  4.32421875 11.1165364583333  4.43780048076923 10.595703125  C 4.55138221153846 10.0748697916667  4.70282451923077 9.59743923611111  4.89212740384615 9.16341145833333  C 5.08143028846154 8.72938368055556  5.33563701923077 8.28721788194444  5.65474759615385 7.8369140625  C 5.97385817307692 7.38661024305556  6.34435096153846 6.98513454861111  6.76622596153846 6.63248697916667  C 7.18810096153846 6.27983940972222  7.69921875 5.94618055555556  8.29957932692308 5.63151041666667  C 8.89993990384615 5.31684027777778  9.57331730769231 5.0537109375  10.3197115384615 4.84212239583333  C 11.0661057692308 4.63053385416667  11.9287860576923 4.46506076388889  12.9077524038462 4.345703125  C 13.88671875 4.22634548611111  14.9495192307692 4.16666666666667  16.0961538461538 4.16666666666667  L 18.6923076923077 4.16666666666667  L 18.6923076923077 1.04166666666667  C 18.6923076923077 0.5859375  18.9032451923077 0.265842013888887  19.3251201923077 0.0813802083333343  C 19.4657451923077 0.0271267361111133  19.6009615384615 0  19.7307692307692 0  C 20.0120192307692 0  20.2554086538462 0.103081597222224  20.4609375 0.309244791666666  L 26.6917067307692 6.55924479166667  C 26.8972355769231 6.76540798611111  27 7.00954861111111  27 7.29166666666667  Z " fill-rule="nonzero" fill="#888282" stroke="none" transform="matrix(1 0 0 1 1907 -84 )" />
  </g>
</svg>