<?xml version="1.0" encoding="utf-8"?>
<svg version="1.1" xmlns:xlink="http://www.w3.org/1999/xlink" width="15px" height="15px" xmlns="http://www.w3.org/2000/svg">
  <g transform="matrix(1 0 0 1 -1851 -547 )">
    <path d="M 12.119140625 8.388671875  C 12.373046875 8.27799479166667  12.5 8.0859375  12.5 7.8125  L 12.5 3.125  C 12.5 2.95572916666667  12.4381510416667 2.80924479166667  12.314453125 2.685546875  C 12.1907552083333 2.56184895833333  12.0442708333333 2.5  11.875 2.5  L 7.1875 2.5  C 6.9140625 2.5  6.72200520833333 2.626953125  6.611328125 2.880859375  C 6.50065104166667 3.14778645833333  6.54622395833333 3.37565104166667  6.748046875 3.564453125  L 8.154296875 4.970703125  L 2.939453125 10.185546875  C 2.81575520833333 10.3092447916667  2.75390625 10.4557291666667  2.75390625 10.625  C 2.75390625 10.7942708333333  2.81575520833333 10.9407552083333  2.939453125 11.064453125  L 3.935546875 12.060546875  C 4.05924479166667 12.1842447916667  4.20572916666667 12.24609375  4.375 12.24609375  C 4.54427083333333 12.24609375  4.69075520833333 12.1842447916667  4.814453125 12.060546875  L 10.029296875 6.845703125  L 11.435546875 8.251953125  C 11.552734375 8.37565104166667  11.69921875 8.4375  11.875 8.4375  C 11.953125 8.4375  12.0345052083333 8.42122395833333  12.119140625 8.388671875  Z M 14.1748046875 0.825195312500001  C 14.7249348958333 1.37532552083333  15 2.03776041666666  15 2.8125  L 15 12.1875  C 15 12.9622395833333  14.7249348958333 13.6246744791667  14.1748046875 14.1748046875  C 13.6246744791667 14.7249348958333  12.9622395833333 15  12.1875 15  L 2.8125 15  C 2.03776041666667 15  1.37532552083333 14.7249348958333  0.8251953125 14.1748046875  C 0.275065104166667 13.6246744791667  0 12.9622395833333  0 12.1875  L 0 2.8125  C 0 2.03776041666666  0.275065104166667 1.37532552083333  0.8251953125 0.825195312500001  C 1.37532552083333 0.275065104166666  2.03776041666667 0  2.8125 0  L 12.1875 0  C 12.9622395833333 0  13.6246744791667 0.275065104166666  14.1748046875 0.825195312500001  Z " fill-rule="nonzero" fill="#ff7558" stroke="none" transform="matrix(1 0 0 1 1851 547 )" />
  </g>
</svg>