<?xml version="1.0" encoding="utf-8"?>
<svg version="1.1" xmlns:xlink="http://www.w3.org/1999/xlink" width="26px" height="24px" xmlns="http://www.w3.org/2000/svg">
  <g transform="matrix(1 0 0 1 -110 -300 )">
    <path d="M 6.93333333333333 8.57142857142857  C 6.93333333333333 9.8125  7.29895833333333 10.9553571428571  8.03020833333333 12  C 6.56770833333333 12.0446428571429  5.37152777777778 12.6160714285714  4.44166666666667 13.7142857142857  L 2.62708333333333 13.7142857142857  C 1.88680555555556 13.7142857142857  1.26388888888889 13.5334821428571  0.758333333333333 13.171875  C 0.252777777777778 12.8102678571429  0 12.28125  0 11.5848214285714  C 0 8.43303571428571  0.559722222222222 6.85714285714286  1.67916666666667 6.85714285714286  C 1.73333333333333 6.85714285714286  1.9296875 6.95089285714286  2.26822916666667 7.13839285714286  C 2.60677083333333 7.32589285714286  3.046875 7.515625  3.58854166666667 7.70758928571429  C 4.13020833333333 7.89955357142857  4.66736111111111 7.99553571428571  5.2 7.99553571428571  C 5.80486111111111 7.99553571428571  6.40520833333333 7.89285714285714  7.00104166666667 7.6875  C 6.95590277777778 8.01785714285714  6.93333333333333 8.3125  6.93333333333333 8.57142857142857  Z M 22.4859375 19.1450892857143  C 22.5175347222222 19.5959821428571  22.5333333333333 20.0580357142857  22.5333333333333 20.53125  C 22.5333333333333 21.6026785714286  22.2038194444444 22.4486607142857  21.5447916666667 23.0691964285714  C 20.8857638888889 23.6897321428571  20.0100694444444 24  18.9177083333333 24  L 7.08229166666667 24  C 5.98993055555556 24  5.11423611111111 23.6897321428571  4.45520833333333 23.0691964285714  C 3.79618055555556 22.4486607142857  3.46666666666667 21.6026785714286  3.46666666666667 20.53125  C 3.46666666666667 20.0580357142857  3.48246527777778 19.5959821428571  3.5140625 19.1450892857143  C 3.54565972222222 18.6941964285714  3.60885416666667 18.2075892857143  3.70364583333333 17.6852678571429  C 3.7984375 17.1629464285714  3.91805555555556 16.6785714285714  4.0625 16.2321428571429  C 4.20694444444444 15.7857142857143  4.40104166666667 15.3504464285714  4.64479166666667 14.9263392857143  C 4.88854166666667 14.5022321428571  5.16840277777778 14.140625  5.484375 13.8415178571429  C 5.80034722222222 13.5424107142857  6.18628472222222 13.3035714285714  6.6421875 13.125  C 7.09809027777778 12.9464285714286  7.60138888888889 12.8571428571429  8.15208333333333 12.8571428571429  C 8.24236111111111 12.8571428571429  8.43645833333333 12.953125  8.734375 13.1450892857143  C 9.03229166666667 13.3370535714286  9.36180555555556 13.5513392857143  9.72291666666667 13.7879464285714  C 10.0840277777778 14.0245535714286  10.5670138888889 14.2388392857143  11.171875 14.4308035714286  C 11.7767361111111 14.6227678571429  12.3861111111111 14.71875  13 14.71875  C 13.6138888888889 14.71875  14.2232638888889 14.6227678571429  14.828125 14.4308035714286  C 15.4329861111111 14.2388392857143  15.9159722222222 14.0245535714286  16.2770833333333 13.7879464285714  C 16.6381944444444 13.5513392857143  16.9677083333333 13.3370535714286  17.265625 13.1450892857143  C 17.5635416666667 12.953125  17.7576388888889 12.8571428571429  17.8479166666667 12.8571428571429  C 18.3986111111111 12.8571428571429  18.9019097222222 12.9464285714286  19.3578125 13.125  C 19.8137152777778 13.3035714285714  20.1996527777778 13.5424107142857  20.515625 13.8415178571429  C 20.8315972222222 14.140625  21.1114583333333 14.5022321428571  21.3552083333333 14.9263392857143  C 21.5989583333333 15.3504464285714  21.7930555555556 15.7857142857143  21.9375 16.2321428571429  C 22.0819444444444 16.6785714285714  22.2015625 17.1629464285714  22.2963541666667 17.6852678571429  C 22.3911458333333 18.2075892857143  22.4543402777778 18.6941964285714  22.4859375 19.1450892857143  Z M 7.65104166666667 1.00446428571429  C 8.328125 1.67410714285714  8.66666666666667 2.48214285714285  8.66666666666667 3.42857142857143  C 8.66666666666667 4.375  8.328125 5.18303571428571  7.65104166666667 5.85267857142857  C 6.97395833333333 6.52232142857143  6.15694444444444 6.85714285714286  5.2 6.85714285714286  C 4.24305555555556 6.85714285714286  3.42604166666667 6.52232142857143  2.74895833333333 5.85267857142857  C 2.071875 5.18303571428571  1.73333333333333 4.375  1.73333333333333 3.42857142857143  C 1.73333333333333 2.48214285714285  2.071875 1.67410714285714  2.74895833333333 1.00446428571429  C 3.42604166666667 0.33482142857143  4.24305555555556 0  5.2 0  C 6.15694444444444 0  6.97395833333333 0.33482142857143  7.65104166666667 1.00446428571429  Z M 16.6765625 4.93526785714286  C 17.6921875 5.93973214285714  18.2 7.15178571428571  18.2 8.57142857142857  C 18.2 9.99107142857143  17.6921875 11.203125  16.6765625 12.2075892857143  C 15.6609375 13.2120535714286  14.4354166666667 13.7142857142857  13 13.7142857142857  C 11.5645833333333 13.7142857142857  10.3390625 13.2120535714286  9.3234375 12.2075892857143  C 8.3078125 11.203125  7.8 9.99107142857143  7.8 8.57142857142857  C 7.8 7.15178571428571  8.3078125 5.93973214285714  9.3234375 4.93526785714286  C 10.3390625 3.93080357142857  11.5645833333333 3.42857142857143  13 3.42857142857143  C 14.4354166666667 3.42857142857143  15.6609375 3.93080357142857  16.6765625 4.93526785714286  Z M 24.3208333333333 6.85714285714286  C 25.4402777777778 6.85714285714286  26 8.43303571428571  26 11.5848214285714  C 26 12.28125  25.7472222222222 12.8102678571429  25.2416666666667 13.171875  C 24.7361111111111 13.5334821428571  24.1131944444444 13.7142857142857  23.3729166666667 13.7142857142857  L 21.5583333333333 13.7142857142857  C 20.6284722222222 12.6160714285714  19.4322916666667 12.0446428571429  17.9697916666667 12  C 18.7010416666667 10.9553571428571  19.0666666666667 9.8125  19.0666666666667 8.57142857142857  C 19.0666666666667 8.3125  19.0440972222222 8.01785714285714  18.9989583333333 7.6875  C 19.5947916666667 7.89285714285714  20.1951388888889 7.99553571428571  20.8 7.99553571428571  C 21.3326388888889 7.99553571428571  21.8697916666667 7.89955357142857  22.4114583333333 7.70758928571429  C 22.953125 7.515625  23.3932291666667 7.32589285714286  23.7317708333333 7.13839285714286  C 24.0703125 6.95089285714286  24.2666666666667 6.85714285714286  24.3208333333333 6.85714285714286  Z M 23.2510416666667 1.00446428571429  C 23.928125 1.67410714285714  24.2666666666667 2.48214285714285  24.2666666666667 3.42857142857143  C 24.2666666666667 4.375  23.928125 5.18303571428571  23.2510416666667 5.85267857142857  C 22.5739583333333 6.52232142857143  21.7569444444444 6.85714285714286  20.8 6.85714285714286  C 19.8430555555556 6.85714285714286  19.0260416666667 6.52232142857143  18.3489583333333 5.85267857142857  C 17.671875 5.18303571428571  17.3333333333333 4.375  17.3333333333333 3.42857142857143  C 17.3333333333333 2.48214285714285  17.671875 1.67410714285714  18.3489583333333 1.00446428571429  C 19.0260416666667 0.33482142857143  19.8430555555556 0  20.8 0  C 21.7569444444444 0  22.5739583333333 0.33482142857143  23.2510416666667 1.00446428571429  Z " fill-rule="nonzero" fill="#d50cdb" stroke="none" transform="matrix(1 0 0 1 110 300 )" />
  </g>
</svg>