<?xml version="1.0" encoding="utf-8"?>
<svg version="1.1" xmlns:xlink="http://www.w3.org/1999/xlink" width="21px" height="21px" xmlns="http://www.w3.org/2000/svg">
  <g transform="matrix(1 0 0 1 -3540 -825 )">
    <path d="M 3550.5 825  C 3556.38 825  3561 829.62  3561 835.5  C 3561 841.38  3556.38 846  3550.5 846  C 3544.62 846  3540 841.38  3540 835.5  C 3540 829.62  3544.62 825  3550.5 825  Z " fill-rule="nonzero" fill="#ffffff" stroke="none" />
    <path d="M 3550.5 825.5  C 3556.1 825.5  3560.5 829.9  3560.5 835.5  C 3560.5 841.1  3556.1 845.5  3550.5 845.5  C 3544.9 845.5  3540.5 841.1  3540.5 835.5  C 3540.5 829.9  3544.9 825.5  3550.5 825.5  Z " stroke-width="1" stroke="#cac7c7" fill="none" />
  </g>
</svg>