<?xml version="1.0" encoding="utf-8"?>
<svg version="1.1" xmlns:xlink="http://www.w3.org/1999/xlink" width="10px" height="19px" preserveAspectRatio="xMidYMin meet" viewBox="1724 85  8 19" xmlns="http://www.w3.org/2000/svg">
  <path d="M 1656 98.5  L 1676 98.5  A 4 4 0 0 0 1680.5 94.5 A 4 4 0 0 1 1684.5 90.5 L 1723 90.5  A 5 5 0 0 1 1728.5 95.5 L 1728.5 104  " stroke-width="1" stroke="#ff3399" fill="none" />
  <path d="M 1658 95.5  A 3 3 0 0 0 1655 98.5 A 3 3 0 0 0 1658 101.5 A 3 3 0 0 0 1661 98.5 A 3 3 0 0 0 1658 95.5 Z " fill-rule="nonzero" fill="#ff3399" stroke="none" />
</svg>