<?xml version="1.0" encoding="utf-8"?>
<svg version="1.1" xmlns:xlink="http://www.w3.org/1999/xlink" width="425px" height="596px" xmlns="http://www.w3.org/2000/svg">
  <g transform="matrix(1 0 0 1 -2957 -1598 )">
    <path d="M 2958 1602  A 3 3 0 0 1 2961 1599 L 3378 1599  A 3 3 0 0 1 3381 1602 L 3381 2190  A 3 3 0 0 1 3378 2193 L 2961 2193  A 3 3 0 0 1 2958 2190 L 2958 1602  Z " fill-rule="nonzero" fill="#ff3399" stroke="none" fill-opacity="0.0980392156862745" />
    <path d="M 2957.5 1602  A 3.5 3.5 0 0 1 2961 1598.5 L 3378 1598.5  A 3.5 3.5 0 0 1 3381.5 1602 L 3381.5 2190  A 3.5 3.5 0 0 1 3378 2193.5 L 2961 2193.5  A 3.5 3.5 0 0 1 2957.5 2190 L 2957.5 1602  Z " stroke-width="1" stroke-dasharray="9,4" stroke="#ff3399" fill="none" stroke-dashoffset="0.5" />
  </g>
</svg>