<?xml version="1.0" encoding="utf-8"?>
<svg version="1.1" xmlns:xlink="http://www.w3.org/1999/xlink" width="13px" height="12px" xmlns="http://www.w3.org/2000/svg">
  <g transform="matrix(1 0 0 1 -459 -141 )">
    <path d="M 1 9.21428571428571  L 1 11.1428571428571  L 3.25 11.1428571428571  L 3.25 9.21428571428571  L 1 9.21428571428571  Z M 3.75 9.21428571428571  L 3.75 11.1428571428571  L 6.25 11.1428571428571  L 6.25 9.21428571428571  L 3.75 9.21428571428571  Z M 1 6.64285714285714  L 1 8.78571428571429  L 3.25 8.78571428571429  L 3.25 6.64285714285714  L 1 6.64285714285714  Z M 3.75 6.64285714285714  L 3.75 8.78571428571429  L 6.25 8.78571428571429  L 6.25 6.64285714285714  L 3.75 6.64285714285714  Z M 1 4.28571428571428  L 1 6.21428571428571  L 3.25 6.21428571428571  L 3.25 4.28571428571428  L 1 4.28571428571428  Z M 6.75 9.21428571428571  L 6.75 11.1428571428571  L 9.25 11.1428571428571  L 9.25 9.21428571428571  L 6.75 9.21428571428571  Z M 3.75 4.28571428571428  L 3.75 6.21428571428571  L 6.25 6.21428571428571  L 6.25 4.28571428571428  L 3.75 4.28571428571428  Z M 9.75 9.21428571428571  L 9.75 11.1428571428571  L 12 11.1428571428571  L 12 9.21428571428571  L 9.75 9.21428571428571  Z M 6.75 6.64285714285714  L 6.75 8.78571428571429  L 9.25 8.78571428571429  L 9.25 6.64285714285714  L 6.75 6.64285714285714  Z M 3.92578125 3.15066964285714  C 3.97526041666667 3.10825892857143  4 3.05803571428571  4 3  L 4 1.07142857142857  C 4 1.01339285714286  3.97526041666667 0.963169642857142  3.92578125 0.920758928571428  C 3.87630208333333 0.878348214285713  3.81770833333333 0.857142857142857  3.75 0.857142857142857  L 3.25 0.857142857142857  C 3.18229166666667 0.857142857142857  3.12369791666667 0.878348214285713  3.07421875 0.920758928571428  C 3.02473958333333 0.963169642857142  3 1.01339285714286  3 1.07142857142857  L 3 3  C 3 3.05803571428571  3.02473958333333 3.10825892857143  3.07421875 3.15066964285714  C 3.12369791666667 3.19308035714286  3.18229166666667 3.21428571428571  3.25 3.21428571428571  L 3.75 3.21428571428571  C 3.81770833333333 3.21428571428571  3.87630208333333 3.19308035714286  3.92578125 3.15066964285714  Z M 9.75 6.64285714285714  L 9.75 8.78571428571429  L 12 8.78571428571429  L 12 6.64285714285714  L 9.75 6.64285714285714  Z M 6.75 4.28571428571428  L 6.75 6.21428571428571  L 9.25 6.21428571428571  L 9.25 4.28571428571428  L 6.75 4.28571428571428  Z M 9.75 4.28571428571428  L 9.75 6.21428571428571  L 12 6.21428571428571  L 12 4.28571428571428  L 9.75 4.28571428571428  Z M 9.92578125 3.15066964285714  C 9.97526041666667 3.10825892857143  10 3.05803571428571  10 3  L 10 1.07142857142857  C 10 1.01339285714286  9.97526041666667 0.963169642857142  9.92578125 0.920758928571428  C 9.87630208333333 0.878348214285713  9.81770833333333 0.857142857142857  9.75 0.857142857142857  L 9.25 0.857142857142857  C 9.18229166666667 0.857142857142857  9.12369791666667 0.878348214285713  9.07421875 0.920758928571428  C 9.02473958333333 0.963169642857142  9 1.01339285714286  9 1.07142857142857  L 9 3  C 9 3.05803571428571  9.02473958333333 3.10825892857143  9.07421875 3.15066964285714  C 9.12369791666667 3.19308035714286  9.18229166666667 3.21428571428571  9.25 3.21428571428571  L 9.75 3.21428571428571  C 9.81770833333333 3.21428571428571  9.87630208333333 3.19308035714286  9.92578125 3.15066964285714  Z M 12.703125 1.96875  C 12.9010416666667 2.13839285714286  13 2.33928571428571  13 2.57142857142857  L 13 11.1428571428571  C 13 11.375  12.9010416666667 11.5758928571429  12.703125 11.7455357142857  C 12.5052083333333 11.9151785714286  12.2708333333333 12  12 12  L 1 12  C 0.729166666666667 12  0.494791666666667 11.9151785714286  0.296875 11.7455357142857  C 0.0989583333333333 11.5758928571429  0 11.375  0 11.1428571428571  L 0 2.57142857142857  C 0 2.33928571428571  0.0989583333333333 2.13839285714286  0.296875 1.96875  C 0.494791666666667 1.79910714285714  0.729166666666667 1.71428571428571  1 1.71428571428571  L 2 1.71428571428571  L 2 1.07142857142857  C 2 0.776785714285715  2.12239583333333 0.524553571428571  2.3671875 0.314732142857143  C 2.61197916666667 0.104910714285714  2.90625 0  3.25 0  L 3.75 0  C 4.09375 0  4.38802083333333 0.104910714285714  4.6328125 0.314732142857143  C 4.87760416666667 0.524553571428571  5 0.776785714285715  5 1.07142857142857  L 5 1.71428571428571  L 8 1.71428571428571  L 8 1.07142857142857  C 8 0.776785714285715  8.12239583333333 0.524553571428571  8.3671875 0.314732142857143  C 8.61197916666667 0.104910714285714  8.90625 0  9.25 0  L 9.75 0  C 10.09375 0  10.3880208333333 0.104910714285714  10.6328125 0.314732142857143  C 10.8776041666667 0.524553571428571  11 0.776785714285715  11 1.07142857142857  L 11 1.71428571428571  L 12 1.71428571428571  C 12.2708333333333 1.71428571428571  12.5052083333333 1.79910714285714  12.703125 1.96875  Z " fill-rule="nonzero" fill="#8c8c8c" stroke="none" transform="matrix(1 0 0 1 459 141 )" />
  </g>
</svg>