<?xml version="1.0" encoding="utf-8"?>
<svg version="1.1" xmlns:xlink="http://www.w3.org/1999/xlink" width="182px" height="49px" xmlns="http://www.w3.org/2000/svg">
  <g transform="matrix(1 0 0 1 -1371 -330 )">
    <path d="M 1372 334  A 3 3 0 0 1 1375 331 L 1549 331  A 3 3 0 0 1 1552 334 L 1552 375  A 3 3 0 0 1 1549 378 L 1375 378  A 3 3 0 0 1 1372 375 L 1372 334  Z " fill-rule="nonzero" fill="#ff3399" stroke="none" fill-opacity="0.0980392156862745" />
    <path d="M 1371.5 334  A 3.5 3.5 0 0 1 1375 330.5 L 1549 330.5  A 3.5 3.5 0 0 1 1552.5 334 L 1552.5 375  A 3.5 3.5 0 0 1 1549 378.5 L 1375 378.5  A 3.5 3.5 0 0 1 1371.5 375 L 1371.5 334  Z " stroke-width="1" stroke-dasharray="9,4" stroke="#ff3399" fill="none" stroke-dashoffset="0.5" />
  </g>
</svg>