<?xml version="1.0" encoding="utf-8"?>
<svg version="1.1" xmlns:xlink="http://www.w3.org/1999/xlink" width="8px" height="8px" xmlns="http://www.w3.org/2000/svg">
  <g transform="matrix(1 0 0 1 -544 46 )">
    <path d="M 548 -45  C 549.68 -45  551 -43.68  551 -42  C 551 -40.32  549.68 -39  548 -39  C 546.32 -39  545 -40.32  545 -42  C 545 -43.68  546.32 -45  548 -45  Z " fill-rule="nonzero" fill="#409eff" stroke="none" />
    <path d="M 548 -45  C 549.68 -45  551 -43.68  551 -42  C 551 -40.32  549.68 -39  548 -39  C 546.32 -39  545 -40.32  545 -42  C 545 -43.68  546.32 -45  548 -45  Z " stroke-width="2" stroke="#409eff" fill="none" />
  </g>
</svg>