<?xml version="1.0" encoding="utf-8"?>
<svg version="1.1" xmlns:xlink="http://www.w3.org/1999/xlink" width="10px" height="20px" preserveAspectRatio="xMidYMin meet" viewBox="1412 75  8 20" xmlns="http://www.w3.org/2000/svg">
  <path d="M 1344 89.5  L 1365.5 89.5  A 4.5 4.5 0 0 0 1370.5 85 A 4.5 4.5 0 0 1 1375 80.5 L 1411 80.5  A 5 5 0 0 1 1416.5 85.5 L 1416.5 95  " stroke-width="1" stroke="#ff3399" fill="none" />
  <path d="M 1346 86.5  A 3 3 0 0 0 1343 89.5 A 3 3 0 0 0 1346 92.5 A 3 3 0 0 0 1349 89.5 A 3 3 0 0 0 1346 86.5 Z " fill-rule="nonzero" fill="#ff3399" stroke="none" />
</svg>