<?xml version="1.0" encoding="utf-8"?>
<svg version="1.1" xmlns:xlink="http://www.w3.org/1999/xlink" width="12px" height="12px" viewBox="1220 -50  12 12" xmlns="http://www.w3.org/2000/svg">
  <path d="M 1226 -50  C 1229.36 -50  1232 -47.36  1232 -44  C 1232 -40.64  1229.36 -38  1226 -38  C 1222.64 -38  1220 -40.64  1220 -44  C 1220 -47.36  1222.64 -50  1226 -50  Z " fill-rule="nonzero" fill="#ffffff" stroke="none" />
  <path d="M 1226 -49.5  C 1229.08 -49.5  1231.5 -47.08  1231.5 -44  C 1231.5 -40.92  1229.08 -38.5  1226 -38.5  C 1222.92 -38.5  1220.5 -40.92  1220.5 -44  C 1220.5 -47.08  1222.92 -49.5  1226 -49.5  Z " stroke-width="1" stroke="#797979" fill="none" />
  <path d="M 1226 -41  C 1224.32 -41  1223 -42.32  1223 -44  C 1223 -45.68  1224.32 -47  1226 -47  C 1227.68 -47  1229 -45.68  1229 -44  C 1229 -42.32  1227.68 -41  1226 -41  " fill-rule="nonzero" fill="#797979" stroke="none" />
</svg>