<?xml version="1.0" encoding="utf-8"?>
<svg version="1.1" xmlns:xlink="http://www.w3.org/1999/xlink" width="14px" height="14px" xmlns="http://www.w3.org/2000/svg">
  <g transform="matrix(1 0 0 1 -1516 -3900 )">
    <path d="M 1523 3900  C 1526.92 3900  1530 3903.08  1530 3907  C 1530 3910.92  1526.92 3914  1523 3914  C 1519.08 3914  1516 3910.92  1516 3907  C 1516 3903.08  1519.08 3900  1523 3900  Z " fill-rule="nonzero" fill="#ffffff" stroke="none" fill-opacity="0" />
    <path d="M 1523 3900.5  C 1526.64 3900.5  1529.5 3903.36  1529.5 3907  C 1529.5 3910.64  1526.64 3913.5  1523 3913.5  C 1519.36 3913.5  1516.5 3910.64  1516.5 3907  C 1516.5 3903.36  1519.36 3900.5  1523 3900.5  Z " stroke-width="1" stroke="#d9d9d9" fill="none" />
  </g>
</svg>