<?xml version="1.0" encoding="utf-8"?>
<svg version="1.1" xmlns:xlink="http://www.w3.org/1999/xlink" width="12px" height="12px" viewBox="410 446  12 12" xmlns="http://www.w3.org/2000/svg">
  <path d="M 416 446  C 419.36 446  422 448.64  422 452  C 422 455.36  419.36 458  416 458  C 412.64 458  410 455.36  410 452  C 410 448.64  412.64 446  416 446  Z " fill-rule="nonzero" fill="#ffffff" stroke="none" />
  <path d="M 416 446.5  C 419.08 446.5  421.5 448.92  421.5 452  C 421.5 455.08  419.08 457.5  416 457.5  C 412.92 457.5  410.5 455.08  410.5 452  C 410.5 448.92  412.92 446.5  416 446.5  Z " stroke-width="1" stroke="#797979" fill="none" />
  <path d="M 416 455  C 414.32 455  413 453.68  413 452  C 413 450.32  414.32 449  416 449  C 417.68 449  419 450.32  419 452  C 419 453.68  417.68 455  416 455  " fill-rule="nonzero" fill="#797979" stroke="none" />
</svg>