<?xml version="1.0" encoding="utf-8"?>
<svg version="1.1" xmlns:xlink="http://www.w3.org/1999/xlink" width="12px" height="12px" viewBox="1152 398  12 12" xmlns="http://www.w3.org/2000/svg">
  <path d="M 1158 398  C 1161.36 398  1164 400.64  1164 404  C 1164 407.36  1161.36 410  1158 410  C 1154.64 410  1152 407.36  1152 404  C 1152 400.64  1154.64 398  1158 398  Z " fill-rule="nonzero" fill="#ffffff" stroke="none" />
  <path d="M 1158 398.5  C 1161.08 398.5  1163.5 400.92  1163.5 404  C 1163.5 407.08  1161.08 409.5  1158 409.5  C 1154.92 409.5  1152.5 407.08  1152.5 404  C 1152.5 400.92  1154.92 398.5  1158 398.5  Z " stroke-width="1" stroke="#797979" fill="none" />
  <path d="M 1158 407  C 1156.32 407  1155 405.68  1155 404  C 1155 402.32  1156.32 401  1158 401  C 1159.68 401  1161 402.32  1161 404  C 1161 405.68  1159.68 407  1158 407  " fill-rule="nonzero" fill="#797979" stroke="none" />
</svg>