<?xml version="1.0" encoding="utf-8"?>
<svg version="1.1" xmlns:xlink="http://www.w3.org/1999/xlink" width="12px" height="12px" viewBox="1745 -178  12 12" xmlns="http://www.w3.org/2000/svg">
  <path d="M 1751 -178  C 1754.36 -178  1757 -175.36  1757 -172  C 1757 -168.64  1754.36 -166  1751 -166  C 1747.64 -166  1745 -168.64  1745 -172  C 1745 -175.36  1747.64 -178  1751 -178  Z " fill-rule="nonzero" fill="#ffffff" stroke="none" />
  <path d="M 1751 -177.5  C 1754.08 -177.5  1756.5 -175.08  1756.5 -172  C 1756.5 -168.92  1754.08 -166.5  1751 -166.5  C 1747.92 -166.5  1745.5 -168.92  1745.5 -172  C 1745.5 -175.08  1747.92 -177.5  1751 -177.5  Z " stroke-width="1" stroke="#797979" fill="none" />
  <path d="M 1751 -169  C 1749.32 -169  1748 -170.32  1748 -172  C 1748 -173.68  1749.32 -175  1751 -175  C 1752.68 -175  1754 -173.68  1754 -172  C 1754 -170.32  1752.68 -169  1751 -169  " fill-rule="nonzero" fill="#797979" stroke="none" />
</svg>