<?xml version="1.0" encoding="utf-8"?>
<svg version="1.1" xmlns:xlink="http://www.w3.org/1999/xlink" width="12px" height="12px" viewBox="1745 -110  12 12" xmlns="http://www.w3.org/2000/svg">
  <path d="M 1751 -110  C 1754.36 -110  1757 -107.36  1757 -104  C 1757 -100.64  1754.36 -98  1751 -98  C 1747.64 -98  1745 -100.64  1745 -104  C 1745 -107.36  1747.64 -110  1751 -110  Z " fill-rule="nonzero" fill="#ffffff" stroke="none" />
  <path d="M 1751 -109.5  C 1754.08 -109.5  1756.5 -107.08  1756.5 -104  C 1756.5 -100.92  1754.08 -98.5  1751 -98.5  C 1747.92 -98.5  1745.5 -100.92  1745.5 -104  C 1745.5 -107.08  1747.92 -109.5  1751 -109.5  Z " stroke-width="1" stroke="#797979" fill="none" />
  <path d="M 1751 -101  C 1749.32 -101  1748 -102.32  1748 -104  C 1748 -105.68  1749.32 -107  1751 -107  C 1752.68 -107  1754 -105.68  1754 -104  C 1754 -102.32  1752.68 -101  1751 -101  " fill-rule="nonzero" fill="#797979" stroke="none" />
</svg>