<?xml version="1.0" encoding="utf-8"?>
<svg version="1.1" xmlns:xlink="http://www.w3.org/1999/xlink" width="12px" height="12px" viewBox="1683 -144  12 12" xmlns="http://www.w3.org/2000/svg">
  <path d="M 1689 -144  C 1692.36 -144  1695 -141.36  1695 -138  C 1695 -134.64  1692.36 -132  1689 -132  C 1685.64 -132  1683 -134.64  1683 -138  C 1683 -141.36  1685.64 -144  1689 -144  Z " fill-rule="nonzero" fill="#ffffff" stroke="none" />
  <path d="M 1689 -143.5  C 1692.08 -143.5  1694.5 -141.08  1694.5 -138  C 1694.5 -134.92  1692.08 -132.5  1689 -132.5  C 1685.92 -132.5  1683.5 -134.92  1683.5 -138  C 1683.5 -141.08  1685.92 -143.5  1689 -143.5  Z " stroke-width="1" stroke="#797979" fill="none" />
  <path d="M 1689 -135  C 1687.32 -135  1686 -136.32  1686 -138  C 1686 -139.68  1687.32 -141  1689 -141  C 1690.68 -141  1692 -139.68  1692 -138  C 1692 -136.32  1690.68 -135  1689 -135  " fill-rule="nonzero" fill="#797979" stroke="none" />
</svg>