<?xml version="1.0" encoding="utf-8"?>
<svg version="1.1" xmlns:xlink="http://www.w3.org/1999/xlink" width="21px" height="16px" xmlns="http://www.w3.org/2000/svg">
  <g transform="matrix(1 0 0 1 -262 -1081 )">
    <path d="M 20.6206451612903 2.20875420875421  C 20.8735483870968 2.46015712682379  21 2.76543209876543  21 3.12457912457912  C 21 3.48372615039282  20.8735483870968 3.78900112233445  20.6206451612903 4.04040404040404  L 10.8116129032258 13.7912457912458  L 8.96903225806452 15.6228956228956  C 8.71612903225807 15.8742985409652  8.40903225806452 16  8.04774193548387 16  C 7.68645161290323 16  7.37935483870968 15.8742985409652  7.12645161290323 15.6228956228956  L 5.28387096774193 13.7912457912458  L 0.379354838709677 8.91582491582492  C 0.126451612903226 8.66442199775533  0 8.35914702581369  0 8  C 0 7.64085297418631  0.126451612903226 7.33557800224467  0.379354838709677 7.08417508417508  L 2.22193548387097 5.25252525252525  C 2.47483870967742 5.00112233445567  2.78193548387097 4.87542087542087  3.14322580645161 4.87542087542088  C 3.50451612903226 4.87542087542087  3.81161290322581 5.00112233445567  4.06451612903226 5.25252525252525  L 8.04774193548387 9.22558922558922  L 16.9354838709677 0.377104377104377  C 17.1883870967742 0.125701459034792  17.4954838709677 0  17.8567741935484 0  C 18.218064516129 0  18.5251612903226 0.125701459034792  18.778064516129 0.377104377104377  L 20.6206451612903 2.20875420875421  Z " fill-rule="nonzero" fill="#000000" stroke="none" transform="matrix(1 0 0 1 262 1081 )" />
  </g>
</svg>