<?xml version="1.0" encoding="utf-8"?>
<svg version="1.1" xmlns:xlink="http://www.w3.org/1999/xlink" width="18px" height="18px" preserveAspectRatio="xMinYMid meet" viewBox="1435 96  18 16" xmlns="http://www.w3.org/2000/svg">
  <path d="M 1442 104.5  L 1468 104.5  A 2 2 0 0 0 1470.5 102.5 A 2 2 0 0 1 1472.5 100.5 L 1509 100.5  A 5 5 0 0 1 1514.5 105.5 L 1514.5 110  " stroke-width="1" stroke="#ff3399" fill="none" />
  <path d="M 1444 101.5  A 3 3 0 0 0 1441 104.5 A 3 3 0 0 0 1444 107.5 A 3 3 0 0 0 1447 104.5 A 3 3 0 0 0 1444 101.5 Z " fill-rule="nonzero" fill="#ff3399" stroke="none" />
</svg>