<?xml version="1.0" encoding="utf-8"?>
<svg version="1.1" xmlns:xlink="http://www.w3.org/1999/xlink" width="109px" height="170px" xmlns="http://www.w3.org/2000/svg">
  <g transform="matrix(1 0 0 1 -355 -673 )">
    <path d="M 355 673  L 464 673  L 464 843  L 355 843  L 355 673  " fill-rule="nonzero" fill="#cccccc" stroke="none" />
    <path d="M 363 681  L 456 681  L 456 835  L 363 835  L 363 681  " fill-rule="nonzero" fill="#ffffff" stroke="none" />
    <path d="M 419.855 714.85  C 415.277 714.85  411.68 711.253  411.68 706.675  C 411.68 702.097  415.277 698.5  419.855 698.5  C 424.433 698.5  428.03 702.097  428.03 706.675  C 428.03 711.253  424.433 714.85  419.855 714.85  " fill-rule="nonzero" fill="#cccccc" stroke="none" />
    <path d="M 366 833  L 366 751.05  L 388 713.8  L 418.8 743.6  L 436.4 736.15  L 454 743.6  L 454 833  L 366 833  " fill-rule="nonzero" fill="#169bd5" stroke="none" />
  </g>
</svg>