<?xml version="1.0" encoding="utf-8"?>
<svg version="1.1" xmlns:xlink="http://www.w3.org/1999/xlink" width="16px" height="10px" xmlns="http://www.w3.org/2000/svg">
  <g transform="matrix(1 0 0 1 -1343 -157 )">
    <path d="M 15.8396793587174 1.03092783505155  C 15.9465597862391 1.14547537227949  16 1.27720504009164  16 1.42611683848797  C 16 1.57502863688431  15.9465597862391 1.70675830469645  15.8396793587174 1.8213058419244  L 8.3687374749499 9.82817869415807  C 8.26185704742819 9.94272623138602  8.13894455577822 10  8 10  C 7.86105544422178 10  7.73814295257181 9.94272623138602  7.6312625250501 9.82817869415807  L 0.160320641282565 1.8213058419244  C 0.0534402137608552 1.70675830469645  0 1.57502863688431  0 1.42611683848797  C 0 1.27720504009164  0.0534402137608552 1.14547537227949  0.160320641282565 1.03092783505155  L 0.961923847695391 0.171821305841925  C 1.0688042752171 0.0572737686139735  1.19171676686707 0  1.33066132264529 0  C 1.46960587842351 0  1.59251837007348 0.0572737686139735  1.69939879759519 0.171821305841925  L 8 6.92439862542955  L 14.3006012024048 0.171821305841925  C 14.4074816299265 0.0572737686139735  14.5303941215765 0  14.6693386773547 0  C 14.8082832331329 0  14.9311957247829 0.0572737686139735  15.0380761523046 0.171821305841925  L 15.8396793587174 1.03092783505155  Z " fill-rule="nonzero" fill="#808080" stroke="none" transform="matrix(1 0 0 1 1343 157 )" />
  </g>
</svg>