<?xml version="1.0" encoding="utf-8"?>
<svg version="1.1" xmlns:xlink="http://www.w3.org/1999/xlink" width="28px" height="21px" xmlns="http://www.w3.org/2000/svg">
  <g transform="matrix(1 0 0 1 -1296 -206 )">
    <path d="M 13.0582959641256 15.75  L 13.9372197309417 15.75  L 15.7578475336323 14.0198863636364  L 13.372197309417 11.7528409090909  L 11.5515695067265 13.4829545454545  L 11.5515695067265 14.3181818181818  L 13.0582959641256 14.3181818181818  L 13.0582959641256 15.75  Z M 20.8273542600897 5.50355113636364  C 21.0052316890882 5.33451704545454  21.0104633781764 5.17045454545454  20.8430493273543 5.01136363636364  C 20.6756352765321 4.85227272727272  20.5029895366218 4.85724431818182  20.3251121076233 5.02627840909091  L 14.8318385650224 10.2464488636364  C 14.6539611360239 10.4154829545455  14.6487294469357 10.5795454545455  14.8161434977578 10.7386363636364  C 14.98355754858 10.8977272727273  15.1562032884903 10.8927556818182  15.3340807174888 10.7237215909091  L 20.8273542600897 5.50355113636364  Z M 21.7847533632287 13.4382102272727  C 21.9940209267564 13.5177556818182  22.0986547085202 13.6619318181818  22.0986547085202 13.8707386363636  L 22.0986547085202 16.7045454545455  C 22.0986547085202 17.8877840909091  21.656576980568 18.8995028409091  20.7724215246637 19.7397017045455  C 19.8882660687593 20.5799005681818  18.8236173393124 21  17.5784753363229 21  L 4.52017937219731 21  C 3.27503736920777 21  2.21038863976084 20.5799005681818  1.3262331838565 19.7397017045455  C 0.442077727952167 18.8995028409091  0 17.8877840909091  0 16.7045454545455  L 0 4.29545454545455  C 0 3.11221590909091  0.442077727952167 2.10049715909091  1.3262331838565 1.26029829545455  C 2.21038863976084 0.42009943181818  3.27503736920777 0  4.52017937219731 0  L 17.5784753363229 0  C 18.237668161435 0  18.8497757847534 0.124289772727272  19.414798206278 0.372869318181817  C 19.5717488789238 0.442471590909089  19.6659192825112 0.556818181818181  19.6973094170404 0.71590909090909  C 19.7286995515695 0.884943181818181  19.6816143497758 1.02911931818182  19.5560538116592 1.1484375  L 18.7869955156951 1.87926136363636  C 18.6405082212257 2.01846590909091  18.4730941704036 2.05823863636364  18.2847533632287 1.99857954545455  C 18.0440956651719 1.93892045454545  17.8086696562033 1.90909090909091  17.5784753363229 2  L 4.52017937219731 2  C 3.82959641255605 1.90909090909091  3.23841554559043 2.14275568181818  2.74663677130045 2.61008522727273  C 2.25485799701046 3.07741477272727  2.00896860986547 3.63920454545455  2 4.29545454545455  L 2 16.7045454545455  C 2.00896860986547 17.3607954545455  2.25485799701046 17.9225852272727  2.74663677130045 18.3899147727273  C 3.23841554559043 18.8572443181818  3.82959641255605 19.0909090909091  4.52017937219731 19  L 17.5784753363229 19  C 18.2690582959641 19.0909090909091  18.8602391629297 18.8572443181818  19.3520179372197 18.3899147727273  C 19.8437967115097 17.9225852272727  20.0896860986547 17.3607954545455  20.0896860986547 16.7045454545455  L 20.0896860986547 14.8252840909091  C 20.0896860986547 14.6960227272727  20.1367713004484 14.5866477272727  20.2309417040359 14.4971590909091  L 21.2354260089686 13.5426136363636  C 21.3923766816143 13.3934659090909  21.575485799701 13.3586647727273  21.7847533632287 13.4382102272727  Z M 10.0448430493274 12.8863636363636  L 20.5919282511211 2.86363636363636  L 25.1121076233184 7.15909090909091  L 14.5650224215247 17.1818181818182  L 10.0448430493274 17.1818181818182  L 10.0448430493274 12.8863636363636  Z M 28 3.81818181818182  C 28 4.21590909090909  27.8535127055306 4.55397727272727  27.5605381165919 4.83238636363636  L 26.1165919282511 6.20454545454545  L 21.5964125560538 1.90909090909091  L 23.0403587443946 0.536931818181817  C 23.3333333333333 0.258522727272725  23.6890881913303 0.119318181818183  24.1076233183857 0.119318181818183  C 24.526158445441 0.119318181818183  24.881913303438 0.258522727272725  25.1748878923767 0.536931818181817  L 27.5605381165919 2.80397727272727  C 27.8535127055306 3.08238636363636  28 3.42045454545454  28 3.81818181818182  Z " fill-rule="nonzero" fill="#2e8ff4" stroke="none" transform="matrix(1 0 0 1 1296 206 )" />
  </g>
</svg>