<?xml version="1.0" encoding="utf-8"?>
<svg version="1.1" xmlns:xlink="http://www.w3.org/1999/xlink" width="375px" height="109px" xmlns="http://www.w3.org/2000/svg">
  <g transform="matrix(1 0 0 1 -231 -849 )">
    <path d="M 114.0625 22.140625  C 121.354166666667 24.7899305555555  125 28.0069444444444  125 31.7916666666667  C 125 35.5763888888889  121.354166666667 38.7934027777778  114.0625 41.4427083333333  C 106.770833333333 44.0920138888889  97.9166666666667 45.4166666666667  87.5 45.4166666666667  C 77.0833333333333 45.4166666666667  68.2291666666667 44.0920138888889  60.9375 41.4427083333333  C 53.6458333333333 38.7934027777778  50 35.5763888888889  50 31.7916666666667  C 50 28.0069444444444  53.6458333333333 24.7899305555555  60.9375 22.140625  C 68.2291666666667 19.4913194444444  77.0833333333333 18.1666666666667  87.5 18.1666666666667  C 97.9166666666667 18.1666666666667  106.770833333333 19.4913194444444  114.0625 22.140625  Z M 243.75 29.5208333333333  L 325 59.0416666666667  L 325 90  L 50 90  L 50 77.2083333333333  L 112.5 54.5  L 143.75 65.8541666666667  L 243.75 29.5208333333333  Z M 348.14453125 9.75748697916666  C 346.907552083333 9.30805121527777  345.442708333333 9.08333333333334  343.75 9  L 31.25 9  C 29.5572916666667 9.08333333333334  28.0924479166667 9.30805121527777  26.85546875 9.75748697916666  C 25.6184895833333 10.2069227430555  25 10.7391493055555  25 11.3541666666667  L 25 97.6458333333333  C 25 98.2608506944444  25.6184895833333 98.7930772569444  26.85546875 99.2425130208333  C 28.0924479166667 99.6919487847222  29.5572916666667 99.9166666666667  31.25 100  L 343.75 100  C 345.442708333333 99.9166666666667  346.907552083333 99.6919487847222  348.14453125 99.2425130208333  C 349.381510416667 98.7930772569444  350 98.2608506944444  350 97.6458333333333  L 350 11.3541666666667  C 350 10.7391493055555  349.381510416667 10.2069227430555  348.14453125 9.75748697916666  Z M 365.8203125 3.33528645833334  C 371.940104166667 5.55881076388888  375 8.23177083333334  375 11.3541666666667  L 375 97.6458333333333  C 375 100.768229166667  371.940104166667 103.441189236111  365.8203125 105.664713541667  C 359.700520833333 107.888237847222  352.34375 109  343.75 109  L 31.25 109  C 22.65625 109  15.2994791666667 107.888237847222  9.1796875 105.664713541667  C 3.05989583333333 103.441189236111  0 100.768229166667  0 97.6458333333333  L 0 11.3541666666667  C 0 8.23177083333334  3.05989583333333 5.55881076388888  9.1796875 3.33528645833334  C 15.2994791666667 1.11176215277777  22.65625 0  31.25 0  L 343.75 0  C 352.34375 0  359.700520833333 1.11176215277777  365.8203125 3.33528645833334  Z " fill-rule="nonzero" fill="#e4e4e4" stroke="none" transform="matrix(1 0 0 1 231 849 )" />
  </g>
</svg>