<?xml version="1.0" encoding="utf-8"?>
<svg version="1.1" xmlns:xlink="http://www.w3.org/1999/xlink" width="375px" height="112px" xmlns="http://www.w3.org/2000/svg">
  <g transform="matrix(1 0 0 1 -231 -236 )">
    <path d="M 114.0625 22.75  C 121.354166666667 25.4722222222222  125 28.7777777777778  125 32.6666666666667  C 125 36.5555555555556  121.354166666667 39.8611111111111  114.0625 42.5833333333333  C 106.770833333333 45.3055555555556  97.9166666666667 46.6666666666667  87.5 46.6666666666667  C 77.0833333333333 46.6666666666667  68.2291666666667 45.3055555555556  60.9375 42.5833333333333  C 53.6458333333333 39.8611111111111  50 36.5555555555556  50 32.6666666666667  C 50 28.7777777777778  53.6458333333333 25.4722222222222  60.9375 22.75  C 68.2291666666667 20.0277777777778  77.0833333333333 18.6666666666667  87.5 18.6666666666667  C 97.9166666666667 18.6666666666667  106.770833333333 20.0277777777778  114.0625 22.75  Z M 243.75 30.3333333333333  L 325 60.6666666666667  L 325 93  L 50 93  L 50 79.3333333333333  L 112.5 56  L 143.75 67.6666666666667  L 243.75 30.3333333333333  Z M 348.14453125 10.0260416666667  C 346.907552083333 9.5642361111111  345.442708333333 9.33333333333334  343.75 10  L 31.25 10  C 29.5572916666667 9.33333333333334  28.0924479166667 9.5642361111111  26.85546875 10.0260416666667  C 25.6184895833333 10.4878472222222  25 11.0347222222222  25 11.6666666666667  L 25 100.333333333333  C 25 100.965277777778  25.6184895833333 101.512152777778  26.85546875 101.973958333333  C 28.0924479166667 102.435763888889  29.5572916666667 102.666666666667  31.25 102  L 343.75 102  C 345.442708333333 102.666666666667  346.907552083333 102.435763888889  348.14453125 101.973958333333  C 349.381510416667 101.512152777778  350 100.965277777778  350 100.333333333333  L 350 11.6666666666667  C 350 11.0347222222222  349.381510416667 10.4878472222222  348.14453125 10.0260416666667  Z M 365.8203125 3.42708333333334  C 371.940104166667 5.71180555555555  375 8.45833333333334  375 11.6666666666667  L 375 100.333333333333  C 375 103.541666666667  371.940104166667 106.288194444444  365.8203125 108.572916666667  C 359.700520833333 110.857638888889  352.34375 112  343.75 112  L 31.25 112  C 22.65625 112  15.2994791666667 110.857638888889  9.1796875 108.572916666667  C 3.05989583333333 106.288194444444  0 103.541666666667  0 100.333333333333  L 0 11.6666666666667  C 0 8.45833333333334  3.05989583333333 5.71180555555555  9.1796875 3.42708333333334  C 15.2994791666667 1.1423611111111  22.65625 0  31.25 0  L 343.75 0  C 352.34375 0  359.700520833333 1.1423611111111  365.8203125 3.42708333333334  Z " fill-rule="nonzero" fill="#e4e4e4" stroke="none" transform="matrix(1 0 0 1 231 236 )" />
  </g>
</svg>