<?xml version="1.0" encoding="utf-8"?>
<svg version="1.1" xmlns:xlink="http://www.w3.org/1999/xlink" width="275px" height="234px" xmlns="http://www.w3.org/2000/svg">
  <g transform="matrix(1 0 0 1 -231 -1177 )">
    <path d="M 83.6458333333333 47.53125  C 88.9930555555556 53.21875  91.6666666666667 60.125  91.6666666666667 68.25  C 91.6666666666667 76.375  88.9930555555556 83.28125  83.6458333333333 88.96875  C 78.2986111111111 94.65625  71.8055555555556 97.5  64.1666666666667 97.5  C 56.5277777777778 97.5  50.0347222222222 94.65625  44.6875 88.96875  C 39.3402777777778 83.28125  36.6666666666667 76.375  36.6666666666667 68.25  C 36.6666666666667 60.125  39.3402777777778 53.21875  44.6875 47.53125  C 50.0347222222222 41.84375  56.5277777777778 39  64.1666666666667 39  C 71.8055555555556 39  78.2986111111111 41.84375  83.6458333333333 47.53125  Z M 178.75 63.375  L 238 126.75  L 238 195  L 37 195  L 37 165.75  L 82.5 117  L 105.416666666667 141.375  L 178.75 63.375  Z M 255.305989583333 20.947265625  C 254.398871527778 19.982421875  253.324652777778 19.5  252.083333333333 20  L 22.9166666666667 20  C 21.6753472222222 19.5  20.6011284722222 19.982421875  19.6940104166667 20.947265625  C 18.7868923611111 21.912109375  18.3333333333333 23.0546875  19 24.375  L 19 209.625  C 18.3333333333333 210.9453125  18.7868923611111 212.087890625  19.6940104166667 213.052734375  C 20.6011284722222 214.017578125  21.6753472222222 214.5  22.9166666666667 214  L 252.083333333333 214  C 253.324652777778 214.5  254.398871527778 214.017578125  255.305989583333 213.052734375  C 256.213107638889 212.087890625  256.666666666667 210.9453125  256 209.625  L 256 24.375  C 256.666666666667 23.0546875  256.213107638889 21.912109375  255.305989583333 20.947265625  Z M 268.268229166667 7.16015625000001  C 272.756076388889 11.93359375  275 17.671875  275 24.375  L 275 209.625  C 275 216.328125  272.756076388889 222.06640625  268.268229166667 226.83984375  C 263.780381944444 231.61328125  258.385416666667 234  252.083333333333 234  L 22.9166666666667 234  C 16.6145833333333 234  11.2196180555556 231.61328125  6.73177083333333 226.83984375  C 2.24392361111111 222.06640625  0 216.328125  0 209.625  L 0 24.375  C 0 17.671875  2.24392361111111 11.93359375  6.73177083333333 7.16015625000001  C 11.2196180555556 2.38671874999998  16.6145833333333 0  22.9166666666667 0  L 252.083333333333 0  C 258.385416666667 0  263.780381944444 2.38671874999998  268.268229166667 7.16015625000001  Z " fill-rule="nonzero" fill="#e4e4e4" stroke="none" transform="matrix(1 0 0 1 231 1177 )" />
  </g>
</svg>