<?xml version="1.0" encoding="utf-8"?>
<svg version="1.1" xmlns:xlink="http://www.w3.org/1999/xlink" width="5px" height="9px" xmlns="http://www.w3.org/2000/svg">
  <g transform="matrix(1 0 0 1 -909 -1709 )">
    <path d="M 4.91408934707904 4.29258517034068  C 4.97136311569301 4.35270541082164  5 4.42184368737475  5 4.5  C 5 4.57815631262525  4.97136311569301 4.64729458917836  4.91408934707904 4.70741482965932  L 0.910652920962199 8.90981963927856  C 0.853379152348225 8.96993987975952  0.787514318442153 9  0.713058419243986 9  C 0.638602520045819 9  0.572737686139748 8.96993987975952  0.515463917525773 8.90981963927856  L 0.0859106529209622 8.45891783567134  C 0.0286368843069874 8.39879759519038  0 8.32965931863727  0 8.25150300601202  C 0 8.17334669338677  0.0286368843069874 8.10420841683367  0.0859106529209622 8.04408817635271  L 3.46219931271478 4.5  L 0.0859106529209622 0.955911823647295  C 0.0286368843069874 0.895791583166332  0 0.826653306613226  0 0.748496993987976  C 0 0.670340681362724  0.0286368843069874 0.601202404809618  0.0859106529209622 0.541082164328657  L 0.515463917525773 0.090180360721443  C 0.572737686139748 0.0300601202404807  0.638602520045819 0  0.713058419243986 0  C 0.787514318442153 0  0.853379152348225 0.0300601202404807  0.910652920962199 0.090180360721443  L 4.91408934707904 4.29258517034068  Z " fill-rule="nonzero" fill="#000000" stroke="none" transform="matrix(1 0 0 1 909 1709 )" />
  </g>
</svg>