<?xml version="1.0" encoding="utf-8"?>
<svg version="1.1" xmlns:xlink="http://www.w3.org/1999/xlink" width="40px" height="50px" xmlns="http://www.w3.org/2000/svg">
  <defs>
    <filter x="827px" y="1727px" width="40px" height="50px" filterUnits="userSpaceOnUse" id="filter359">
      <feOffset dx="1" dy="1" in="SourceAlpha" result="shadowOffsetInner" />
      <feGaussianBlur stdDeviation="2.5" in="shadowOffsetInner" result="shadowGaussian" />
      <feComposite in2="shadowGaussian" operator="atop" in="SourceAlpha" result="shadowComposite" />
      <feColorMatrix type="matrix" values="0 0 0 0 0  0 0 0 0 0  0 0 0 0 0  0 0 0 0.698039215686274 0  " in="shadowComposite" />
    </filter>
    <g id="widget360">
      <path d="M 846 1770.03692846835  C 840.2 1760.40734059591  831.5 1754.62958787244  831.5 1745  C 831.5 1739.98571428571  834.4 1731.5  846 1731.5  C 857.6 1731.5  860.5 1739.98571428571  860.5 1745  C 860.5 1754.62958787244  851.8 1760.40734059591  846 1770.03692846835  Z " fill-rule="nonzero" fill="#009dd9" stroke="none" />
      <path d="M 846 1771  C 840 1761  831 1755  831 1745  C 831 1739.8  834 1731  846 1731  C 858 1731  861 1739.8  861 1745  C 861 1755  852 1761  846 1771  Z M 846 1769.07385693671  C 851.6 1759.81468119182  860 1754.25917574489  860 1745  C 860 1740.17142857143  857.2 1732  846 1732  C 834.8 1732  832 1740.17142857143  832 1745  C 832 1754.25917574489  840.4 1759.81468119182  846 1769.07385693671  Z " fill-rule="nonzero" fill="#ffffff" stroke="none" />
    </g>
  </defs>
  <g transform="matrix(1 0 0 1 -827 -1727 )">
    <use xlink:href="#widget360" filter="url(#filter359)" />
    <use xlink:href="#widget360" />
  </g>
</svg>