<?xml version="1.0" encoding="utf-8"?>
<svg version="1.1" xmlns:xlink="http://www.w3.org/1999/xlink" width="386px" height="100px" xmlns="http://www.w3.org/2000/svg">
  <g transform="matrix(1 0 0 1 -165 -662 )">
    <path d="M 166 666  A 3 3 0 0 1 169 663 L 547 663  A 3 3 0 0 1 550 666 L 550 758  A 3 3 0 0 1 547 761 L 169 761  A 3 3 0 0 1 166 758 L 166 666  Z " fill-rule="nonzero" fill="#ff3399" stroke="none" fill-opacity="0.0980392156862745" />
    <path d="M 165.5 666  A 3.5 3.5 0 0 1 169 662.5 L 547 662.5  A 3.5 3.5 0 0 1 550.5 666 L 550.5 758  A 3.5 3.5 0 0 1 547 761.5 L 169 761.5  A 3.5 3.5 0 0 1 165.5 758 L 165.5 666  Z " stroke-width="1" stroke-dasharray="9,4" stroke="#ff3399" fill="none" stroke-dashoffset="0.5" />
  </g>
</svg>