<?xml version="1.0" encoding="utf-8"?>
<svg version="1.1" xmlns:xlink="http://www.w3.org/1999/xlink" width="543px" height="302px" xmlns="http://www.w3.org/2000/svg">
  <g transform="matrix(1 0 0 1 -1459 -61 )">
    <path d="M 1460 65  A 3 3 0 0 1 1463 62 L 1998 62  A 3 3 0 0 1 2001 65 L 2001 359  A 3 3 0 0 1 1998 362 L 1463 362  A 3 3 0 0 1 1460 359 L 1460 65  Z " fill-rule="nonzero" fill="#ff3399" stroke="none" fill-opacity="0.0980392156862745" />
    <path d="M 1459.5 65  A 3.5 3.5 0 0 1 1463 61.5 L 1998 61.5  A 3.5 3.5 0 0 1 2001.5 65 L 2001.5 359  A 3.5 3.5 0 0 1 1998 362.5 L 1463 362.5  A 3.5 3.5 0 0 1 1459.5 359 L 1459.5 65  Z " stroke-width="1" stroke-dasharray="9,4" stroke="#ff3399" fill="none" stroke-dashoffset="0.5" />
  </g>
</svg>