<?xml version="1.0" encoding="utf-8"?>
<svg version="1.1" xmlns:xlink="http://www.w3.org/1999/xlink" width="386px" height="225px" xmlns="http://www.w3.org/2000/svg">
  <g transform="matrix(1 0 0 1 -165 -764 )">
    <path d="M 166 768  A 3 3 0 0 1 169 765 L 547 765  A 3 3 0 0 1 550 768 L 550 985  A 3 3 0 0 1 547 988 L 169 988  A 3 3 0 0 1 166 985 L 166 768  Z " fill-rule="nonzero" fill="#ff3399" stroke="none" fill-opacity="0.0980392156862745" />
    <path d="M 165.5 768  A 3.5 3.5 0 0 1 169 764.5 L 547 764.5  A 3.5 3.5 0 0 1 550.5 768 L 550.5 985  A 3.5 3.5 0 0 1 547 988.5 L 169 988.5  A 3.5 3.5 0 0 1 165.5 985 L 165.5 768  Z " stroke-width="1" stroke-dasharray="9,4" stroke="#ff3399" fill="none" stroke-dashoffset="0.5" />
  </g>
</svg>