<?xml version="1.0" encoding="utf-8"?>
<svg version="1.1" xmlns:xlink="http://www.w3.org/1999/xlink" width="409px" height="177px" xmlns="http://www.w3.org/2000/svg">
  <g transform="matrix(1 0 0 1 -787 -942 )">
    <path d="M 788 946  A 3 3 0 0 1 791 943 L 1192 943  A 3 3 0 0 1 1195 946 L 1195 1115  A 3 3 0 0 1 1192 1118 L 791 1118  A 3 3 0 0 1 788 1115 L 788 946  Z " fill-rule="nonzero" fill="#ff3399" stroke="none" fill-opacity="0.0980392156862745" />
    <path d="M 787.5 946  A 3.5 3.5 0 0 1 791 942.5 L 1192 942.5  A 3.5 3.5 0 0 1 1195.5 946 L 1195.5 1115  A 3.5 3.5 0 0 1 1192 1118.5 L 791 1118.5  A 3.5 3.5 0 0 1 787.5 1115 L 787.5 946  Z " stroke-width="1" stroke-dasharray="9,4" stroke="#ff3399" fill="none" stroke-dashoffset="0.5" />
  </g>
</svg>