<?xml version="1.0" encoding="utf-8"?>
<svg version="1.1" xmlns:xlink="http://www.w3.org/1999/xlink" width="411px" height="110px" xmlns="http://www.w3.org/2000/svg">
  <g transform="matrix(1 0 0 1 -787 -199 )">
    <path d="M 788 203  A 3 3 0 0 1 791 200 L 1194 200  A 3 3 0 0 1 1197 203 L 1197 305  A 3 3 0 0 1 1194 308 L 791 308  A 3 3 0 0 1 788 305 L 788 203  Z " fill-rule="nonzero" fill="#ff3399" stroke="none" fill-opacity="0.0980392156862745" />
    <path d="M 787.5 203  A 3.5 3.5 0 0 1 791 199.5 L 1194 199.5  A 3.5 3.5 0 0 1 1197.5 203 L 1197.5 305  A 3.5 3.5 0 0 1 1194 308.5 L 791 308.5  A 3.5 3.5 0 0 1 787.5 305 L 787.5 203  Z " stroke-width="1" stroke-dasharray="9,4" stroke="#ff3399" fill="none" stroke-dashoffset="0.5" />
  </g>
</svg>