<?xml version="1.0" encoding="utf-8"?>
<svg version="1.1" xmlns:xlink="http://www.w3.org/1999/xlink" width="386px" height="188px" xmlns="http://www.w3.org/2000/svg">
  <g transform="matrix(1 0 0 1 -812 -5397 )">
    <path d="M 813 5401  A 3 3 0 0 1 816 5398 L 1194 5398  A 3 3 0 0 1 1197 5401 L 1197 5581  A 3 3 0 0 1 1194 5584 L 816 5584  A 3 3 0 0 1 813 5581 L 813 5401  Z " fill-rule="nonzero" fill="#ff3399" stroke="none" fill-opacity="0.0980392156862745" />
    <path d="M 812.5 5401  A 3.5 3.5 0 0 1 816 5397.5 L 1194 5397.5  A 3.5 3.5 0 0 1 1197.5 5401 L 1197.5 5581  A 3.5 3.5 0 0 1 1194 5584.5 L 816 5584.5  A 3.5 3.5 0 0 1 812.5 5581 L 812.5 5401  Z " stroke-width="1" stroke-dasharray="9,4" stroke="#ff3399" fill="none" stroke-dashoffset="0.5" />
  </g>
</svg>