<?xml version="1.0" encoding="utf-8"?>
<svg version="1.1" xmlns:xlink="http://www.w3.org/1999/xlink" width="411px" height="199px" xmlns="http://www.w3.org/2000/svg">
  <g transform="matrix(1 0 0 1 -787 -2426 )">
    <path d="M 788 2430  A 3 3 0 0 1 791 2427 L 1194 2427  A 3 3 0 0 1 1197 2430 L 1197 2621  A 3 3 0 0 1 1194 2624 L 791 2624  A 3 3 0 0 1 788 2621 L 788 2430  Z " fill-rule="nonzero" fill="#ff3399" stroke="none" fill-opacity="0.0980392156862745" />
    <path d="M 787.5 2430  A 3.5 3.5 0 0 1 791 2426.5 L 1194 2426.5  A 3.5 3.5 0 0 1 1197.5 2430 L 1197.5 2621  A 3.5 3.5 0 0 1 1194 2624.5 L 791 2624.5  A 3.5 3.5 0 0 1 787.5 2621 L 787.5 2430  Z " stroke-width="1" stroke-dasharray="9,4" stroke="#ff3399" fill="none" stroke-dashoffset="0.5" />
  </g>
</svg>