<?xml version="1.0" encoding="utf-8"?>
<svg version="1.1" xmlns:xlink="http://www.w3.org/1999/xlink" width="18px" height="18px" preserveAspectRatio="xMinYMid meet" viewBox="1192 5024  18 16" xmlns="http://www.w3.org/2000/svg">
  <path d="M 1201.5 5034.5  A 5 5 0 0 1 1206.5 5029.5 L 1229 5029.5  A 5 5 0 0 1 1234.5 5034.5 L 1234.5 5037  A 5 5 0 0 0 1239.5 5042.5 L 1244 5042.5  " stroke-width="1" stroke="#ff3399" fill="none" />
  <path d="M 1201.89469502999 5029.55290828846  A 3 3 0 0 0 1198.89469502999 5032.55290828846 A 3 3 0 0 0 1201.89469502999 5035.55290828846 A 3 3 0 0 0 1204.89469502999 5032.55290828846 A 3 3 0 0 0 1201.89469502999 5029.55290828846 Z " fill-rule="nonzero" fill="#ff3399" stroke="none" />
</svg>