<?xml version="1.0" encoding="utf-8"?>
<svg version="1.1" xmlns:xlink="http://www.w3.org/1999/xlink" width="10px" height="23px" preserveAspectRatio="xMidYMin meet" viewBox="1230 5429  8 23" xmlns="http://www.w3.org/2000/svg">
  <path d="M 1201.5 5439.5  A 5 5 0 0 1 1206.5 5434.5 L 1229 5434.5  A 5 5 0 0 1 1234.5 5439.5 L 1234.5 5442  A 5 5 0 0 0 1239.5 5447.5 L 1244 5447.5  " stroke-width="1" stroke="#ff3399" fill="none" />
  <path d="M 1201.89469502999 5434.55290828846  A 3 3 0 0 0 1198.89469502999 5437.55290828846 A 3 3 0 0 0 1201.89469502999 5440.55290828846 A 3 3 0 0 0 1204.89469502999 5437.55290828846 A 3 3 0 0 0 1201.89469502999 5434.55290828846 Z " fill-rule="nonzero" fill="#ff3399" stroke="none" />
</svg>