<?xml version="1.0" encoding="utf-8"?>
<svg version="1.1" xmlns:xlink="http://www.w3.org/1999/xlink" width="543px" height="302px" xmlns="http://www.w3.org/2000/svg">
  <g transform="matrix(1 0 0 1 -896 -53 )">
    <path d="M 897 57  A 3 3 0 0 1 900 54 L 1435 54  A 3 3 0 0 1 1438 57 L 1438 351  A 3 3 0 0 1 1435 354 L 900 354  A 3 3 0 0 1 897 351 L 897 57  Z " fill-rule="nonzero" fill="#ff3399" stroke="none" fill-opacity="0.0980392156862745" />
    <path d="M 896.5 57  A 3.5 3.5 0 0 1 900 53.5 L 1435 53.5  A 3.5 3.5 0 0 1 1438.5 57 L 1438.5 351  A 3.5 3.5 0 0 1 1435 354.5 L 900 354.5  A 3.5 3.5 0 0 1 896.5 351 L 896.5 57  Z " stroke-width="1" stroke-dasharray="9,4" stroke="#ff3399" fill="none" stroke-dashoffset="0.5" />
  </g>
</svg>