<?xml version="1.0" encoding="utf-8"?>
<svg version="1.1" xmlns:xlink="http://www.w3.org/1999/xlink" width="386px" height="157px" xmlns="http://www.w3.org/2000/svg">
  <g transform="matrix(1 0 0 1 -165 -357 )">
    <path d="M 166 361  A 3 3 0 0 1 169 358 L 547 358  A 3 3 0 0 1 550 361 L 550 510  A 3 3 0 0 1 547 513 L 169 513  A 3 3 0 0 1 166 510 L 166 361  Z " fill-rule="nonzero" fill="#ff3399" stroke="none" fill-opacity="0.0980392156862745" />
    <path d="M 165.5 361  A 3.5 3.5 0 0 1 169 357.5 L 547 357.5  A 3.5 3.5 0 0 1 550.5 361 L 550.5 510  A 3.5 3.5 0 0 1 547 513.5 L 169 513.5  A 3.5 3.5 0 0 1 165.5 510 L 165.5 361  Z " stroke-width="1" stroke-dasharray="9,4" stroke="#ff3399" fill="none" stroke-dashoffset="0.5" />
  </g>
</svg>