<?xml version="1.0" encoding="utf-8"?>
<svg version="1.1" xmlns:xlink="http://www.w3.org/1999/xlink" width="12px" height="12px" viewBox="330 1148  12 12" xmlns="http://www.w3.org/2000/svg">
  <path d="M 336 1148  C 339.36 1148  342 1150.64  342 1154  C 342 1157.36  339.36 1160  336 1160  C 332.64 1160  330 1157.36  330 1154  C 330 1150.64  332.64 1148  336 1148  Z " fill-rule="nonzero" fill="#ffffff" stroke="none" />
  <path d="M 336 1148.5  C 339.08 1148.5  341.5 1150.92  341.5 1154  C 341.5 1157.08  339.08 1159.5  336 1159.5  C 332.92 1159.5  330.5 1157.08  330.5 1154  C 330.5 1150.92  332.92 1148.5  336 1148.5  Z " stroke-width="1" stroke="#797979" fill="none" />
  <path d="M 336 1157  C 334.32 1157  333 1155.68  333 1154  C 333 1152.32  334.32 1151  336 1151  C 337.68 1151  339 1152.32  339 1154  C 339 1155.68  337.68 1157  336 1157  " fill-rule="nonzero" fill="#797979" stroke="none" />
</svg>