<?xml version="1.0" encoding="utf-8"?>
<svg version="1.1" xmlns:xlink="http://www.w3.org/1999/xlink" width="12px" height="12px" viewBox="610 734  12 12" xmlns="http://www.w3.org/2000/svg">
  <path d="M 616 734  C 619.36 734  622 736.64  622 740  C 622 743.36  619.36 746  616 746  C 612.64 746  610 743.36  610 740  C 610 736.64  612.64 734  616 734  Z " fill-rule="nonzero" fill="#ffffff" stroke="none" />
  <path d="M 616 734.5  C 619.08 734.5  621.5 736.92  621.5 740  C 621.5 743.08  619.08 745.5  616 745.5  C 612.92 745.5  610.5 743.08  610.5 740  C 610.5 736.92  612.92 734.5  616 734.5  Z " stroke-width="1" stroke="#797979" fill="none" />
  <path d="M 616 743  C 614.32 743  613 741.68  613 740  C 613 738.32  614.32 737  616 737  C 617.68 737  619 738.32  619 740  C 619 741.68  617.68 743  616 743  " fill-rule="nonzero" fill="#797979" stroke="none" />
</svg>