<?xml version="1.0" encoding="utf-8"?>
<svg version="1.1" xmlns:xlink="http://www.w3.org/1999/xlink" width="13px" height="13px" xmlns="http://www.w3.org/2000/svg">
  <g transform="matrix(1 0 0 1 -638 -409 )">
    <path d="M 8.60319010416667 1.51497395833333  C 7.9345703125 1.22721354166667  7.23350694444444 1.08333333333333  6.5 1.08333333333333  C 5.76649305555556 1.08333333333333  5.0654296875 1.22721354166667  4.39680989583333 1.51497395833333  C 3.72819010416667 1.802734375  3.15266927083333 2.18782552083333  2.67024739583333 2.67024739583333  C 2.18782552083333 3.15266927083333  1.802734375 3.72819010416667  1.51497395833333 4.39680989583333  C 1.22721354166667 5.0654296875  1.08333333333333 5.76649305555556  1.08333333333333 6.5  C 1.08333333333333 7.23350694444444  1.22721354166667 7.9345703125  1.51497395833333 8.60319010416667  C 1.802734375 9.27180989583333  2.18782552083333 9.84733072916667  2.67024739583333 10.3297526041667  C 3.15266927083333 10.8121744791667  3.72819010416667 11.197265625  4.39680989583333 11.4850260416667  C 5.0654296875 11.7727864583333  5.76649305555556 11.9166666666667  6.5 11.9166666666667  C 7.23350694444444 11.9166666666667  7.9345703125 11.7727864583333  8.60319010416667 11.4850260416667  C 9.27180989583333 11.197265625  9.84733072916667 10.8121744791667  10.3297526041667 10.3297526041667  C 10.8121744791667 9.84733072916667  11.197265625 9.27180989583333  11.4850260416667 8.60319010416667  C 11.7727864583333 7.9345703125  11.9166666666667 7.23350694444444  11.9166666666667 6.5  C 11.9166666666667 5.76649305555556  11.7727864583333 5.0654296875  11.4850260416667 4.39680989583333  C 11.197265625 3.72819010416667  10.8121744791667 3.15266927083333  10.3297526041667 2.67024739583333  C 9.84733072916667 2.18782552083333  9.27180989583333 1.802734375  8.60319010416667 1.51497395833333  Z M 12.1282552083333 3.2373046875  C 12.7094184027778 4.23318142361111  13 5.32074652777778  13 6.5  C 13 7.67925347222222  12.7094184027778 8.76681857638889  12.1282552083333 9.7626953125  C 11.5470920138889 10.7585720486111  10.7585720486111 11.5470920138889  9.7626953125 12.1282552083333  C 8.76681857638889 12.7094184027778  7.67925347222222 13  6.5 13  C 5.32074652777778 13  4.23318142361111 12.7094184027778  3.2373046875 12.1282552083333  C 2.24142795138889 11.5470920138889  1.45290798611111 10.7585720486111  0.871744791666667 9.7626953125  C 0.290581597222222 8.76681857638889  0 7.67925347222222  0 6.5  C 0 5.32074652777778  0.290581597222222 4.23318142361111  0.871744791666667 3.2373046875  C 1.45290798611111 2.24142795138889  2.24142795138889 1.45290798611111  3.2373046875 0.871744791666666  C 4.23318142361111 0.290581597222221  5.32074652777778 0  6.5 0  C 7.67925347222222 0  8.76681857638889 0.290581597222221  9.7626953125 0.871744791666666  C 10.7585720486111 1.45290798611111  11.5470920138889 2.24142795138889  12.1282552083333 3.2373046875  Z " fill-rule="nonzero" fill="#199ed8" stroke="none" transform="matrix(1 0 0 1 638 409 )" />
  </g>
</svg>