<?xml version="1.0" encoding="utf-8"?>
<svg version="1.1" xmlns:xlink="http://www.w3.org/1999/xlink" width="30px" height="23px" xmlns="http://www.w3.org/2000/svg">
  <g transform="matrix(1 0 0 1 -382 -962 )">
    <path d="M 19.8515625 12.3902698863636  C 19.9505208333333 12.2868134469697  20 12.1642992424242  20 12.0227272727273  C 20 11.8702651515152  19.953125 11.7450284090909  19.859375 11.6470170454545  L 14.359375 5.89701704545454  C 14.265625 5.79900568181818  14.1458333333333 5.75  14 5.75  C 13.8541666666667 5.75  13.734375 5.79900568181818  13.640625 5.89701704545454  L 8.15625 11.6306818181818  C 8.05208333333333 11.7613636363636  8 11.8920454545455  8 12.0227272727273  C 8 12.1751893939394  8.046875 12.3004261363636  8.140625 12.3984375  C 8.234375 12.4964488636364  8.35416666666667 12.5454545454545  8.5 12.5454545454545  L 12 12.5454545454545  L 12 18.2954545454545  C 12 18.4370265151515  12.0494791666667 18.559540719697  12.1484375 18.6629971590909  C 12.2473958333333 18.7664535984848  12.3645833333333 18.8181818181818  12.5 18.8181818181818  L 15.5 18.8181818181818  C 15.6354166666667 18.8181818181818  15.7526041666667 18.7664535984848  15.8515625 18.6629971590909  C 15.9505208333333 18.559540719697  16 18.4370265151515  16 18.2954545454545  L 16 12.5454545454545  L 19.5 12.5454545454545  C 19.6354166666667 12.5454545454545  19.7526041666667 12.4937263257576  19.8515625 12.3902698863636  Z M 28.6953125 12.8313210227273  C 29.5651041666667 13.9693418560606  30 15.2679924242424  30 16.7272727272727  C 30 18.4588068181818  29.4140625 19.9371448863636  28.2421875 21.1622869318182  C 27.0703125 22.3874289772727  25.65625 23  24 23  L 7 23  C 5.07291666666667 23  3.42447916666667 22.2839725378788  2.0546875 20.8519176136364  C 0.684895833333333 19.4198626893939  0 17.6964962121212  0 15.6818181818182  C 0 14.2660984848485  0.364583333333333 12.9592803030303  1.09375 11.7613636363636  C 1.82291666666667 10.563446969697  2.80208333333333 9.66500946969697  4.03125 9.06605113636364  C 4.01041666666667 8.73934659090909  4 8.50520833333333  4 8.36363636363636  C 4 6.05492424242424  4.78125 4.08380681818182  6.34375 2.45028409090909  C 7.90625 0.816761363636364  9.79166666666667 0  12 0  C 13.625 0  15.1119791666667 0.473721590909092  16.4609375 1.42116477272727  C 17.8098958333333 2.36860795454546  18.7916666666667 3.62642045454546  19.40625 5.19460227272727  C 20.1458333333333 4.51941287878788  21.0104166666667 4.18181818181818  22 4.18181818181818  C 23.1041666666667 4.18181818181818  24.046875 4.59019886363636  24.828125 5.40696022727273  C 25.609375 6.22372159090909  26 7.2092803030303  26 8.36363636363636  C 26 9.19128787878788  25.7864583333333 9.94270833333333  25.359375 10.6178977272727  C 26.7135416666667 10.9554924242424  27.8255208333333 11.6933001893939  28.6953125 12.8313210227273  Z " fill-rule="nonzero" fill="#199ed8" stroke="none" transform="matrix(1 0 0 1 382 962 )" />
  </g>
</svg>