<?xml version="1.0" encoding="utf-8"?>
<svg version="1.1" xmlns:xlink="http://www.w3.org/1999/xlink" width="14px" height="11px" xmlns="http://www.w3.org/2000/svg">
  <g transform="matrix(1 0 0 1 -354 -190 )">
    <path d="M 9.2640625 5.92578125  C 9.31024305555556 5.87630208333333  9.33333333333333 5.81770833333333  9.33333333333333 5.75  C 9.33333333333333 5.67708333333333  9.31145833333333 5.6171875  9.26770833333333 5.5703125  L 6.70104166666667 2.8203125  C 6.65729166666667 2.7734375  6.60138888888889 2.75  6.53333333333333 2.75  C 6.46527777777778 2.75  6.409375 2.7734375  6.365625 2.8203125  L 3.80625 5.5625  C 3.75763888888889 5.625  3.73333333333333 5.6875  3.73333333333333 5.75  C 3.73333333333333 5.82291666666667  3.75520833333333 5.8828125  3.79895833333333 5.9296875  C 3.84270833333333 5.9765625  3.89861111111111 6  3.96666666666667 6  L 5.6 6  L 5.6 8.75  C 5.6 8.81770833333333  5.62309027777778 8.87630208333333  5.66927083333333 8.92578125  C 5.71545138888889 8.97526041666667  5.77013888888889 9  5.83333333333333 9  L 7.23333333333333 9  C 7.29652777777778 9  7.35121527777778 8.97526041666667  7.39739583333333 8.92578125  C 7.44357638888889 8.87630208333333  7.46666666666667 8.81770833333333  7.46666666666667 8.75  L 7.46666666666667 6  L 9.1 6  C 9.16319444444444 6  9.21788194444444 5.97526041666667  9.2640625 5.92578125  Z M 13.3911458333333 6.13671875  C 13.7970486111111 6.68098958333333  14 7.30208333333333  14 8  C 14 8.828125  13.7265625 9.53515625  13.1796875 10.12109375  C 12.6328125 10.70703125  11.9729166666667 11  11.2 11  L 3.26666666666667 11  C 2.36736111111111 11  1.59809027777778 10.6575520833333  0.958854166666667 9.97265625  C 0.319618055555556 9.28776041666667  0 8.46354166666667  0 7.5  C 0 6.82291666666667  0.170138888888889 6.19791666666667  0.510416666666667 5.625  C 0.850694444444444 5.05208333333333  1.30763888888889 4.62239583333333  1.88125 4.3359375  C 1.87152777777778 4.1796875  1.86666666666667 4.06770833333333  1.86666666666667 4  C 1.86666666666667 2.89583333333333  2.23125 1.953125  2.96041666666667 1.171875  C 3.68958333333333 0.390625  4.56944444444445 0  5.6 0  C 6.35833333333333 0  7.05225694444445 0.2265625  7.68177083333333 0.6796875  C 8.31128472222222 1.1328125  8.76944444444444 1.734375  9.05625 2.484375  C 9.40138888888889 2.16145833333333  9.80486111111111 2  10.2666666666667 2  C 10.7819444444444 2  11.221875 2.1953125  11.5864583333333 2.5859375  C 11.9510416666667 2.9765625  12.1333333333333 3.44791666666667  12.1333333333333 4  C 12.1333333333333 4.39583333333333  12.0336805555556 4.75520833333333  11.834375 5.078125  C 12.4663194444444 5.23958333333333  12.9852430555556 5.59244791666667  13.3911458333333 6.13671875  Z " fill-rule="nonzero" fill="#199ed8" stroke="none" transform="matrix(1 0 0 1 354 190 )" />
  </g>
</svg>