<?xml version="1.0" encoding="utf-8"?>
<svg version="1.1" xmlns:xlink="http://www.w3.org/1999/xlink" width="12px" height="12px" viewBox="330 1301  12 12" xmlns="http://www.w3.org/2000/svg">
  <path d="M 336 1301  C 339.36 1301  342 1303.64  342 1307  C 342 1310.36  339.36 1313  336 1313  C 332.64 1313  330 1310.36  330 1307  C 330 1303.64  332.64 1301  336 1301  Z " fill-rule="nonzero" fill="#ffffff" stroke="none" />
  <path d="M 336 1301.5  C 339.08 1301.5  341.5 1303.92  341.5 1307  C 341.5 1310.08  339.08 1312.5  336 1312.5  C 332.92 1312.5  330.5 1310.08  330.5 1307  C 330.5 1303.92  332.92 1301.5  336 1301.5  Z " stroke-width="1" stroke="#797979" fill="none" />
  <path d="M 336 1310  C 334.32 1310  333 1308.68  333 1307  C 333 1305.32  334.32 1304  336 1304  C 337.68 1304  339 1305.32  339 1307  C 339 1308.68  337.68 1310  336 1310  " fill-rule="nonzero" fill="#797979" stroke="none" />
</svg>