<?xml version="1.0" encoding="utf-8"?>
<svg version="1.1" xmlns:xlink="http://www.w3.org/1999/xlink" width="12px" height="12px" viewBox="330 1588  12 12" xmlns="http://www.w3.org/2000/svg">
  <path d="M 336 1588  C 339.36 1588  342 1590.64  342 1594  C 342 1597.36  339.36 1600  336 1600  C 332.64 1600  330 1597.36  330 1594  C 330 1590.64  332.64 1588  336 1588  Z " fill-rule="nonzero" fill="#ffffff" stroke="none" />
  <path d="M 336 1588.5  C 339.08 1588.5  341.5 1590.92  341.5 1594  C 341.5 1597.08  339.08 1599.5  336 1599.5  C 332.92 1599.5  330.5 1597.08  330.5 1594  C 330.5 1590.92  332.92 1588.5  336 1588.5  Z " stroke-width="1" stroke="#797979" fill="none" />
  <path d="M 336 1597  C 334.32 1597  333 1595.68  333 1594  C 333 1592.32  334.32 1591  336 1591  C 337.68 1591  339 1592.32  339 1594  C 339 1595.68  337.68 1597  336 1597  " fill-rule="nonzero" fill="#797979" stroke="none" />
</svg>