<?xml version="1.0" encoding="utf-8"?>
<svg version="1.1" xmlns:xlink="http://www.w3.org/1999/xlink" width="12px" height="12px" viewBox="416 887  12 12" xmlns="http://www.w3.org/2000/svg">
  <path d="M 422 887  C 425.36 887  428 889.64  428 893  C 428 896.36  425.36 899  422 899  C 418.64 899  416 896.36  416 893  C 416 889.64  418.64 887  422 887  Z " fill-rule="nonzero" fill="#ffffff" stroke="none" />
  <path d="M 422 887.5  C 425.08 887.5  427.5 889.92  427.5 893  C 427.5 896.08  425.08 898.5  422 898.5  C 418.92 898.5  416.5 896.08  416.5 893  C 416.5 889.92  418.92 887.5  422 887.5  Z " stroke-width="1" stroke="#797979" fill="none" />
  <path d="M 422 896  C 420.32 896  419 894.68  419 893  C 419 891.32  420.32 890  422 890  C 423.68 890  425 891.32  425 893  C 425 894.68  423.68 896  422 896  " fill-rule="nonzero" fill="#797979" stroke="none" />
</svg>