<?xml version="1.0" encoding="utf-8"?>
<svg version="1.1" xmlns:xlink="http://www.w3.org/1999/xlink" width="12px" height="12px" viewBox="516 887  12 12" xmlns="http://www.w3.org/2000/svg">
  <path d="M 522 887  C 525.36 887  528 889.64  528 893  C 528 896.36  525.36 899  522 899  C 518.64 899  516 896.36  516 893  C 516 889.64  518.64 887  522 887  Z " fill-rule="nonzero" fill="#ffffff" stroke="none" />
  <path d="M 522 887.5  C 525.08 887.5  527.5 889.92  527.5 893  C 527.5 896.08  525.08 898.5  522 898.5  C 518.92 898.5  516.5 896.08  516.5 893  C 516.5 889.92  518.92 887.5  522 887.5  Z " stroke-width="1" stroke="#797979" fill="none" />
  <path d="M 522 896  C 520.32 896  519 894.68  519 893  C 519 891.32  520.32 890  522 890  C 523.68 890  525 891.32  525 893  C 525 894.68  523.68 896  522 896  " fill-rule="nonzero" fill="#797979" stroke="none" />
</svg>