<?xml version="1.0" encoding="utf-8"?>
<svg version="1.1" xmlns:xlink="http://www.w3.org/1999/xlink" width="12px" height="12px" viewBox="516 1301  12 12" xmlns="http://www.w3.org/2000/svg">
  <path d="M 522 1301  C 525.36 1301  528 1303.64  528 1307  C 528 1310.36  525.36 1313  522 1313  C 518.64 1313  516 1310.36  516 1307  C 516 1303.64  518.64 1301  522 1301  Z " fill-rule="nonzero" fill="#ffffff" stroke="none" />
  <path d="M 522 1301.5  C 525.08 1301.5  527.5 1303.92  527.5 1307  C 527.5 1310.08  525.08 1312.5  522 1312.5  C 518.92 1312.5  516.5 1310.08  516.5 1307  C 516.5 1303.92  518.92 1301.5  522 1301.5  Z " stroke-width="1" stroke="#797979" fill="none" />
  <path d="M 522 1310  C 520.32 1310  519 1308.68  519 1307  C 519 1305.32  520.32 1304  522 1304  C 523.68 1304  525 1305.32  525 1307  C 525 1308.68  523.68 1310  522 1310  " fill-rule="nonzero" fill="#797979" stroke="none" />
</svg>