<?xml version="1.0" encoding="utf-8"?>
<svg version="1.1" xmlns:xlink="http://www.w3.org/1999/xlink" width="12px" height="12px" viewBox="416 1301  12 12" xmlns="http://www.w3.org/2000/svg">
  <path d="M 422 1301  C 425.36 1301  428 1303.64  428 1307  C 428 1310.36  425.36 1313  422 1313  C 418.64 1313  416 1310.36  416 1307  C 416 1303.64  418.64 1301  422 1301  Z " fill-rule="nonzero" fill="#ffffff" stroke="none" />
  <path d="M 422 1301.5  C 425.08 1301.5  427.5 1303.92  427.5 1307  C 427.5 1310.08  425.08 1312.5  422 1312.5  C 418.92 1312.5  416.5 1310.08  416.5 1307  C 416.5 1303.92  418.92 1301.5  422 1301.5  Z " stroke-width="1" stroke="#797979" fill="none" />
  <path d="M 422 1310  C 420.32 1310  419 1308.68  419 1307  C 419 1305.32  420.32 1304  422 1304  C 423.68 1304  425 1305.32  425 1307  C 425 1308.68  423.68 1310  422 1310  " fill-rule="nonzero" fill="#797979" stroke="none" />
</svg>