<?xml version="1.0" encoding="utf-8"?>
<svg version="1.1" xmlns:xlink="http://www.w3.org/1999/xlink" width="12px" height="12px" viewBox="430 1841  12 12" xmlns="http://www.w3.org/2000/svg">
  <path d="M 436 1841  C 439.36 1841  442 1843.64  442 1847  C 442 1850.36  439.36 1853  436 1853  C 432.64 1853  430 1850.36  430 1847  C 430 1843.64  432.64 1841  436 1841  Z " fill-rule="nonzero" fill="#ffffff" stroke="none" />
  <path d="M 436 1841.5  C 439.08 1841.5  441.5 1843.92  441.5 1847  C 441.5 1850.08  439.08 1852.5  436 1852.5  C 432.92 1852.5  430.5 1850.08  430.5 1847  C 430.5 1843.92  432.92 1841.5  436 1841.5  Z " stroke-width="1" stroke="#797979" fill="none" />
  <path d="M 436 1850  C 434.32 1850  433 1848.68  433 1847  C 433 1845.32  434.32 1844  436 1844  C 437.68 1844  439 1845.32  439 1847  C 439 1848.68  437.68 1850  436 1850  " fill-rule="nonzero" fill="#797979" stroke="none" />
</svg>