<?xml version="1.0" encoding="utf-8"?>
<svg version="1.1" xmlns:xlink="http://www.w3.org/1999/xlink" width="18px" height="18px" xmlns="http://www.w3.org/2000/svg">
  <g transform="matrix(1 0 0 1 -1341 -20 )">
    <path d="M 5.80078125 14.51953125  C 6.77734375 15.08984375  7.84375 15.375  9 15.375  L 9 2.625  C 7.84375 2.625  6.77734375 2.91015625  5.80078125 3.48046875  C 4.82421875 4.05078125  4.05078125 4.82421875  3.48046875 5.80078125  C 2.91015625 6.77734375  2.625 7.84375  2.625 9  C 2.625 10.15625  2.91015625 11.22265625  3.48046875 12.19921875  C 4.05078125 13.17578125  4.82421875 13.94921875  5.80078125 14.51953125  Z M 16.79296875 4.482421875  C 17.59765625 5.861328125  18 7.3671875  18 9  C 18 10.6328125  17.59765625 12.138671875  16.79296875 13.517578125  C 15.98828125 14.896484375  14.896484375 15.98828125  13.517578125 16.79296875  C 12.138671875 17.59765625  10.6328125 18  9 18  C 7.3671875 18  5.861328125 17.59765625  4.482421875 16.79296875  C 3.103515625 15.98828125  2.01171875 14.896484375  1.20703125 13.517578125  C 0.40234375 12.138671875  0 10.6328125  0 9  C 0 7.3671875  0.40234375 5.861328125  1.20703125 4.482421875  C 2.01171875 3.103515625  3.103515625 2.01171875  4.482421875 1.20703125  C 5.861328125 0.402343749999998  7.3671875 0  9 0  C 10.6328125 0  12.138671875 0.402343749999998  13.517578125 1.20703125  C 14.896484375 2.01171875  15.98828125 3.103515625  16.79296875 4.482421875  Z " fill-rule="nonzero" fill="#ffffff" stroke="none" transform="matrix(1 0 0 1 1341 20 )" />
  </g>
</svg>