<?xml version="1.0" encoding="utf-8"?>
<svg version="1.1" xmlns:xlink="http://www.w3.org/1999/xlink" width="14px" height="14px" xmlns="http://www.w3.org/2000/svg">
  <g transform="matrix(1 0 0 1 -1605 -3900 )">
    <path d="M 1612 3900  C 1615.92 3900  1619 3903.08  1619 3907  C 1619 3910.92  1615.92 3914  1612 3914  C 1608.08 3914  1605 3910.92  1605 3907  C 1605 3903.08  1608.08 3900  1612 3900  Z " fill-rule="nonzero" fill="#ffffff" stroke="none" fill-opacity="0" />
    <path d="M 1612 3900.5  C 1615.64 3900.5  1618.5 3903.36  1618.5 3907  C 1618.5 3910.64  1615.64 3913.5  1612 3913.5  C 1608.36 3913.5  1605.5 3910.64  1605.5 3907  C 1605.5 3903.36  1608.36 3900.5  1612 3900.5  Z " stroke-width="1" stroke="#1890ff" fill="none" />
  </g>
</svg>