<?xml version="1.0" encoding="utf-8"?>
<svg version="1.1" xmlns:xlink="http://www.w3.org/1999/xlink" width="28px" height="35px" xmlns="http://www.w3.org/2000/svg">
  <g transform="matrix(1 0 0 1 -43 -12 )">
    <path d="M 27.5182795698925 29.08203125  C 28 29.5638020833333  28.1137395459976 29.94140625  27.8594982078853 30.21484375  L 27.7390681003584 30.33203125  C 26.2270011947431 31.81640625  24.4941457586619 32.9557291666667  22.5405017921147 33.75  C 20.4798088410992 34.5833333333333  18.3589008363202 35  16.1777777777778 35  C 13.9698924731183 35  11.8489844683393 34.5833333333333  9.81505376344086 33.75  C 7.83464755077658 32.9296875  6.10179211469534 31.7903645833333  4.61648745519713 30.33203125  C 3.10442054958184 28.8736979166667  1.93357228195938 27.1940104166667  1.10394265232975 25.29296875  C 0.541935483870968 23.9518229166667  0.180645161290323 22.7213541666667  0.0200716845878136 21.6015625  C -0.033452807646356 21.2369791666667  0.287694145758662 21.0026041666667  0.983512544802867 20.8984375  C 1.66594982078853 20.7942708333333  2.04062126642772 20.9244791666667  2.10752688172043 21.2890625  C 2.12090800477897 21.3020833333333  2.12759856630824 21.328125  2.12759856630824 21.3671875  C 2.36845878136201 22.5390625  2.67622461170848 23.57421875  3.05089605734767 24.47265625  C 3.71995221027479 26.0872395833333  4.73691756272401 27.55859375  6.10179211469534 28.88671875  C 7.4131421744325 30.1627604166667  8.92520908004779 31.15234375  10.6379928315412 31.85546875  C 12.4043010752688 32.5846354166667  14.2508960573477 32.94921875  16.1777777777778 32.94921875  C 18.0912783751493 32.94921875  19.9378733572282 32.5846354166667  21.7175627240143 31.85546875  C 23.4303464755078 31.1393229166667  24.9357228195938 30.1497395833333  26.2336917562724 28.88671875  L 26.3541218637993 28.76953125  C 26.4879330943847 28.6393229166667  26.6551971326165 28.6002604166667  26.8559139784946 28.65234375  C 27.0164874551971 28.69140625  27.2372759856631 28.8346354166667  27.5182795698925 29.08203125  Z M 18.1648745519713 17.34375  C 18.526164874552 17.6953125  18.599761051374 17.9817708333333  18.3856630824373 18.203125  L 17.0609318996416 19.4921875  L 18.3254480286738 20.72265625  C 18.6064516129032 20.99609375  18.5596176821983 21.3151041666667  18.1849462365591 21.6796875  C 17.9574671445639 21.9010416666667  17.7433691756272 22.01171875  17.5426523297491 22.01171875  C 17.4088410991637 22.01171875  17.2817204301075 21.9466145833333  17.1612903225806 21.81640625  L 15.9168458781362 20.625  L 14.5921146953405 21.9140625  C 14.5252090800478 21.9791666666667  14.4248506571087 22.01171875  14.2910394265233 22.01171875  C 14.0903225806452 22.01171875  13.8829151732378 21.9075520833333  13.6688172043011 21.69921875  L 13.6286738351254 21.66015625  C 13.3878136200717 21.46484375  13.2673835125448 21.2760416666667  13.2673835125448 21.09375  C 13.2673835125448 21.0026041666667  13.320908004779 20.8919270833333  13.4279569892473 20.76171875  L 14.752688172043 19.4921875  L 13.4279569892473 18.203125  C 13.2138590203106 17.9947916666667  13.3075268817204 17.7018229166667  13.7089605734767 17.32421875  C 13.9498207885305 17.08984375  14.1572281959379 16.97265625  14.3311827956989 16.97265625  C 14.4114695340502 16.97265625  14.4984468339307 17.0052083333333  14.5921146953405 17.0703125  L 15.8967741935484 18.359375  L 17.2014336917563 17.08984375  C 17.44229390681 16.8684895833333  17.7634408602151 16.953125  18.1648745519713 17.34375  Z M 26.9161290322581 14.84375  C 27.531660692951 16.3020833333333  27.8394265232975 17.79296875  27.8394265232975 19.31640625  C 27.8394265232975 20.8528645833333  27.531660692951 22.3372395833333  26.9161290322581 23.76953125  C 26.3139784946237 25.13671875  25.4709677419355 26.34765625  24.3870967741935 27.40234375  C 23.3166069295102 28.4440104166667  22.0654719235364 29.2643229166667  20.6336917562724 29.86328125  C 19.2019115890084 30.4622395833333  17.6764635603345 30.76171875  16.0573476702509 30.76171875  C 14.4382317801673 30.76171875  12.9127837514934 30.4622395833333  11.4810035842294 29.86328125  C 10.0492234169654 29.2643229166667  8.79808841099164 28.4440104166667  7.72759856630824 27.40234375  C 6.63034647550777 26.3346354166667  5.79402628434887 25.1236979166667  5.21863799283154 23.76953125  C 5.01792114695341 23.3528645833333  4.91756272401434 23.0924479166667  4.91756272401434 22.98828125  L 4.89749103942652 22.98828125  C 4.77706093189964 22.63671875  5.0647550776583 22.3502604166667  5.76057347670251 22.12890625  C 6.42962962962963 21.9205729166667  6.8310633213859 21.9986979166667  6.96487455197133 22.36328125  C 7.45997610513739 23.65234375  8.1089605734767 24.7395833333333  8.91182795698925 25.625  L 8.93189964157706 25.625  L 8.93189964157706 19.00390625  L 8.93189964157706 18.96484375  C 8.97204301075269 17.1940104166667  9.65448028673835 15.68359375  10.9792114695341 14.43359375  C 12.384229390681 13.0924479166667  14.0769414575866 12.421875  16.0573476702509 12.421875  C 18.0243727598566 12.421875  19.7037037037037 13.0924479166667  21.0953405017921 14.43359375  C 22.4869772998805 15.7747395833333  23.1827956989247 17.3958333333333  23.1827956989247 19.296875  C 23.1827956989247 21.2109375  22.4836320191159 22.8450520833333  21.0853046594982 24.19921875  C 19.6869772998805 25.5533854166667  18.0109916367981 26.23046875  16.0573476702509 26.23046875  C 15.2812425328554 26.23046875  14.5318996415771 26.1263020833333  13.8093189964158 25.91796875  C 13.4346475507766 25.7747395833333  13.3476702508961 25.3776041666667  13.5483870967742 24.7265625  C 13.7624850657109 24.0625  14.0568697729988 23.7825520833333  14.431541218638 23.88671875  L 14.7125448028674 23.9453125  C 14.899880525687 23.984375  15.1173237753883 24.0234375  15.3648745519713 24.0625  C 15.6124253285544 24.1015625  15.8164874551971 24.12109375  15.9770609318996 24.12109375  C 17.3686977299881 24.12109375  18.5462365591398 23.6555989583333  19.5096774193548 22.724609375  C 20.4731182795699 21.7936197916667  20.9548387096774 20.6575520833333  20.9548387096774 19.31640625  C 20.9548387096774 18.0013020833333  20.4731182795699 16.8880208333333  19.5096774193548 15.9765625  C 18.5596176821983 15.0520833333333  17.3887694145759 14.58984375  15.9971326164875 14.58984375  C 14.5653524492234 14.58984375  13.3744324970131 15.1106770833333  12.4243727598566 16.15234375  C 11.5679808841099 17.08984375  11.1397849462366 18.1315104166667  11.1397849462366 19.27734375  L 11.1397849462366 27.34375  C 12.6117084826762 28.2161458333333  14.2308243727599 28.65234375  15.9971326164875 28.65234375  C 17.2817204301075 28.65234375  18.5194743130227 28.4147135416667  19.710394265233 27.939453125  C 20.9013142174433 27.4641927083333  21.9450418160096 26.7903645833333  22.8415770609319 25.91796875  C 23.7381123058542 25.0455729166667  24.4305854241338 24.0364583333333  24.9189964157706 22.890625  C 25.4074074074074 21.7447916666667  25.6516129032258 20.5533854166667  25.6516129032258 19.31640625  C 25.6516129032258 16.73828125  24.7082437275986 14.53125  22.8215053763441 12.6953125  C 20.9481481481481 10.8723958333333  18.6800477897252 9.9609375  16.0172043010753 9.9609375  C 13.3409796893668 9.9609375  11.0661887694146 10.8723958333333  9.19283154121864 12.6953125  C 8.48363201911589 13.3854166666667  7.96845878136201 13.9518229166667  7.64731182795699 14.39453125  L 7.60716845878136 14.43359375  C 7.50011947431302 14.5768229166667  7.4131421744325 14.677734375  7.34623655913979 14.736328125  C 7.27933094384707 14.794921875  7.13548387096774 14.8567708333333  6.91469534050179 14.921875  C 6.69390681003584 14.9869791666667  6.4363201911589 14.9674479166667  6.14193548387097 14.86328125  C 5.86093189964158 14.7981770833333  5.61672640382318 14.6907552083333  5.40931899641577 14.541015625  C 5.20191158900836 14.3912760416667  5.09820788530466 14.21875  5 14.0234375  L 5 0.742187499999998  C 5.09820788530466 0.546875  5.16845878136201 0.37434895833333  5.3089605734767 0.224609374999999  C 5.4494623655914 0.0748697916666691  5.63345280764636 0  5.86093189964158 0  L 23.4637992831541 0  C 23.8652329749104 0  24.0659498207885 0.358072916666671  24.0659498207885 1.07421875  C 24.0659498207885 1.79036458333333  23.8652329749104 2.1484375  23.4637992831541 2.1484375  L 7.18566308243728 2.1484375  L 7.18566308243728 11.58203125  L 7.20573476702509 11.58203125  C 7.74097968936679 11.03515625  8.42341696535245 10.48828125  9.25304659498208 9.94140625  C 10.0826762246117 9.39453125  10.805256869773 8.99739583333333  11.4207885304659 8.75  C 12.8793309438471 8.15104166666667  14.4248506571087 7.8515625  16.0573476702509 7.8515625  C 17.6764635603345 7.8515625  19.2019115890084 8.15104166666667  20.6336917562724 8.75  C 22.0654719235364 9.34895833333333  23.3166069295102 10.1692708333333  24.3870967741935 11.2109375  C 25.4709677419355 12.265625  26.3139784946237 13.4765625  26.9161290322581 14.84375  Z M 22.5003584229391 5  C 24.3335722819594 5.75520833333333  25.9058542413381 6.74479166666666  27.2172043010753 7.96875  C 27.3376344086021 8.07291666666666  27.3978494623656 8.19010416666667  27.3978494623656 8.3203125  C 27.3978494623656 8.45052083333333  27.3610513739546 8.56770833333333  27.2874551971326 8.671875  C 27.2138590203106 8.77604166666666  27.1034647550777 8.91276041666666  26.9562724014337 9.08203125  C 26.6083632019116 9.42057291666667  26.34743130227 9.58984375  26.173476702509 9.58984375  C 26.0530465949821 9.58984375  25.9459976105137 9.54427083333333  25.8523297491039 9.453125  C 24.4339307048985 8.26822916666666  23.0489844683393 7.40234375  21.6974910394265 6.85546875  C 19.9847072879331 6.12630208333333  18.1381123058542 5.76171875  16.15770609319 5.76171875  C 14.3780167264038 5.76171875  12.6250896057348 6.08072916666666  10.8989247311828 6.71875  C 10.5376344086022 6.84895833333333  10.2365591397849 6.60807291666666  9.99569892473118 5.99609375  C 9.8752688172043 5.67057291666666  9.82174432497013 5.42317708333333  9.83512544802867 5.25390625  C 9.8752688172043 5.04557291666667  9.98231780167264 4.91536458333333  10.1562724014337 4.86328125  C 11.8958183990442 4.12109375  13.8962962962963 3.75  16.15770609319 3.75  C 18.3522102747909 3.75  20.4664277180406 4.16666666666666  22.5003584229391 5  Z " fill-rule="nonzero" fill="#ffffff" stroke="none" transform="matrix(1 0 0 1 43 12 )" />
  </g>
</svg>