<?xml version="1.0" encoding="utf-8"?>
<svg version="1.1" xmlns:xlink="http://www.w3.org/1999/xlink" width="16px" height="16px" xmlns="http://www.w3.org/2000/svg">
  <g transform="matrix(1 0 0 1 -284 951 )">
    <path d="M 9.23958333333333 13.2395833333333  C 9.30208333333333 13.1770833333333  9.33333333333333 13.0972222222222  9.33333333333333 13  L 9.33333333333333 11  C 9.33333333333333 10.9027777777778  9.30208333333333 10.8229166666667  9.23958333333333 10.7604166666667  C 9.17708333333333 10.6979166666667  9.09722222222222 10.6666666666667  9 10.6666666666667  L 7 10.6666666666667  C 6.90277777777778 10.6666666666667  6.82291666666667 10.6979166666667  6.76041666666667 10.7604166666667  C 6.69791666666667 10.8229166666667  6.66666666666667 10.9027777777778  6.66666666666667 11  L 6.66666666666667 13  C 6.66666666666667 13.0972222222222  6.69791666666667 13.1770833333333  6.76041666666667 13.2395833333333  C 6.82291666666667 13.3020833333333  6.90277777777778 13.3333333333333  7 13.3333333333333  L 9 13.3333333333333  C 9.09722222222222 13.3333333333333  9.17708333333333 13.3020833333333  9.23958333333333 13.2395833333333  Z M 11.8697916666667 6.84375  C 11.9565972222222 6.58680555555556  12 6.30555555555556  12 6  C 12 5.38888888888889  11.8072916666667 4.82291666666667  11.421875 4.30208333333333  C 11.0364583333333 3.78125  10.5555555555556 3.37847222222222  9.97916666666667 3.09375  C 9.40277777777778 2.80902777777778  8.8125 2.66666666666667  8.20833333333333 2.66666666666667  C 6.52083333333333 2.66666666666667  5.23263888888889 3.40625  4.34375 4.88541666666667  C 4.23958333333333 5.05208333333333  4.26736111111111 5.19791666666667  4.42708333333333 5.32291666666667  L 5.80208333333333 6.36458333333333  C 5.85069444444445 6.40625  5.91666666666667 6.42708333333333  6 6.42708333333333  C 6.11111111111111 6.42708333333333  6.19791666666667 6.38541666666667  6.26041666666667 6.30208333333333  C 6.62847222222222 5.82986111111111  6.92708333333333 5.51041666666667  7.15625 5.34375  C 7.39236111111111 5.17708333333333  7.69097222222222 5.09375  8.05208333333333 5.09375  C 8.38541666666667 5.09375  8.68229166666667 5.18402777777778  8.94270833333333 5.36458333333333  C 9.203125 5.54513888888889  9.33333333333333 5.75  9.33333333333333 5.97916666666667  C 9.33333333333333 6.24305555555556  9.26388888888889 6.45486111111111  9.125 6.61458333333333  C 8.98611111111111 6.77430555555556  8.75 6.93055555555556  8.41666666666667 7.08333333333333  C 7.97916666666667 7.27777777777778  7.578125 7.578125  7.21354166666667 7.984375  C 6.84895833333333 8.390625  6.66666666666667 8.82638888888889  6.66666666666667 9.29166666666667  L 6.66666666666667 9.66666666666667  C 6.66666666666667 9.76388888888889  6.69791666666667 9.84375  6.76041666666667 9.90625  C 6.82291666666667 9.96875  6.90277777777778 10  7 10  L 9 10  C 9.09722222222222 10  9.17708333333333 9.96875  9.23958333333333 9.90625  C 9.30208333333333 9.84375  9.33333333333333 9.76388888888889  9.33333333333333 9.66666666666667  C 9.33333333333333 9.53472222222222  9.40798611111111 9.36284722222222  9.55729166666667 9.15104166666667  C 9.70659722222222 8.93923611111111  9.89583333333333 8.76736111111111  10.125 8.63541666666667  C 10.3472222222222 8.51041666666667  10.5173611111111 8.41145833333333  10.6354166666667 8.33854166666667  C 10.7534722222222 8.265625  10.9131944444444 8.14409722222222  11.1145833333333 7.97395833333333  C 11.3159722222222 7.80381944444444  11.4704861111111 7.63715277777778  11.578125 7.47395833333333  C 11.6857638888889 7.31076388888889  11.7829861111111 7.10069444444444  11.8697916666667 6.84375  Z M 14.9270833333333 3.984375  C 15.6423611111111 5.21006944444444  16 6.54861111111111  16 8  C 16 9.45138888888889  15.6423611111111 10.7899305555556  14.9270833333333 12.015625  C 14.2118055555556 13.2413194444444  13.2413194444444 14.2118055555556  12.015625 14.9270833333333  C 10.7899305555556 15.6423611111111  9.45138888888889 16  8 16  C 6.54861111111111 16  5.21006944444444 15.6423611111111  3.984375 14.9270833333333  C 2.75868055555556 14.2118055555556  1.78819444444444 13.2413194444444  1.07291666666667 12.015625  C 0.357638888888889 10.7899305555556  0 9.45138888888889  0 8  C 0 6.54861111111111  0.357638888888889 5.21006944444444  1.07291666666667 3.984375  C 1.78819444444444 2.75868055555556  2.75868055555556 1.78819444444444  3.984375 1.07291666666667  C 5.21006944444444 0.357638888888888  6.54861111111111 0  8 0  C 9.45138888888889 0  10.7899305555556 0.357638888888888  12.015625 1.07291666666667  C 13.2413194444444 1.78819444444444  14.2118055555556 2.75868055555556  14.9270833333333 3.984375  Z " fill-rule="nonzero" fill="#4f4d4d" stroke="none" transform="matrix(1 0 0 1 284 -951 )" />
  </g>
</svg>