<?xml version="1.0" encoding="utf-8"?>
<svg version="1.1" xmlns:xlink="http://www.w3.org/1999/xlink" width="25px" height="30px" xmlns="http://www.w3.org/2000/svg">
  <defs>
    <filter x="146px" y="385px" width="25px" height="30px" filterUnits="userSpaceOnUse" id="filter1670">
      <feOffset dx="1" dy="1" in="SourceAlpha" result="shadowOffsetInner" />
      <feGaussianBlur stdDeviation="2.5" in="shadowOffsetInner" result="shadowGaussian" />
      <feComposite in2="shadowGaussian" operator="atop" in="SourceAlpha" result="shadowComposite" />
      <feColorMatrix type="matrix" values="0 0 0 0 0  0 0 0 0 0  0 0 0 0 0  0 0 0 0.698039215686274 0  " in="shadowComposite" />
    </filter>
    <g id="widget1671">
      <path d="M 157.5 408.036928468354  C 154.7 403.40734059591  150.5 400.629587872444  150.5 396  C 150.5 393.585714285714  151.9 389.5  157.5 389.5  C 163.1 389.5  164.5 393.585714285714  164.5 396  C 164.5 400.629587872444  160.3 403.40734059591  157.5 408.036928468354  Z " fill-rule="nonzero" fill="#db2aa6" stroke="none" />
      <path d="M 157.5 409  C 154.5 404  150 401  150 396  C 150 393.4  151.5 389  157.5 389  C 163.5 389  165 393.4  165 396  C 165 401  160.5 404  157.5 409  Z M 157.5 407.073856936707  C 160.1 402.81468119182  164 400.259175744887  164 396  C 164 393.771428571429  162.7 390  157.5 390  C 152.3 390  151 393.771428571429  151 396  C 151 400.259175744887  154.9 402.81468119182  157.5 407.073856936707  Z " fill-rule="nonzero" fill="#ffffff" stroke="none" />
    </g>
  </defs>
  <g transform="matrix(1 0 0 1 -146 -385 )">
    <use xlink:href="#widget1671" filter="url(#filter1670)" />
    <use xlink:href="#widget1671" />
  </g>
</svg>