<?xml version="1.0" encoding="utf-8"?>
<svg version="1.1" xmlns:xlink="http://www.w3.org/1999/xlink" width="27px" height="35px" xmlns="http://www.w3.org/2000/svg">
  <defs>
    <filter x="151px" y="170px" width="27px" height="35px" filterUnits="userSpaceOnUse" id="filter863">
      <feOffset dx="1" dy="1" in="SourceAlpha" result="shadowOffsetInner" />
      <feGaussianBlur stdDeviation="2.5" in="shadowOffsetInner" result="shadowGaussian" />
      <feComposite in2="shadowGaussian" operator="atop" in="SourceAlpha" result="shadowComposite" />
      <feColorMatrix type="matrix" values="0 0 0 0 0  0 0 0 0 0  0 0 0 0 0  0 0 0 0.698039215686274 0  " in="shadowComposite" />
    </filter>
    <g id="widget864">
      <path d="M 163.5 197.969942173426  C 160.3 192.11611826057  155.5 188.603823912856  155.5 182.75  C 155.5 179.685714285714  157.1 174.5  163.5 174.5  C 169.9 174.5  171.5 179.685714285714  171.5 182.75  C 171.5 188.603823912856  166.7 192.11611826057  163.5 197.969942173426  Z " fill-rule="nonzero" fill="#009dd9" stroke="none" />
      <path d="M 163.5 199  C 160.1 192.75  155 189  155 182.75  C 155 179.5  156.7 174  163.5 174  C 170.3 174  172 179.5  172 182.75  C 172 189  166.9 192.75  163.5 199  Z M 163.5 196.939884346852  C 166.5 191.48223652114  171 188.207647825712  171 182.75  C 171 179.871428571429  169.5 175  163.5 175  C 157.5 175  156 179.871428571429  156 182.75  C 156 188.207647825712  160.5 191.48223652114  163.5 196.939884346852  Z " fill-rule="nonzero" fill="#ffffff" stroke="none" />
    </g>
  </defs>
  <g transform="matrix(1 0 0 1 -151 -170 )">
    <use xlink:href="#widget864" filter="url(#filter863)" />
    <use xlink:href="#widget864" />
  </g>
</svg>