<?xml version="1.0" encoding="utf-8"?>
<svg version="1.1" xmlns:xlink="http://www.w3.org/1999/xlink" width="14px" height="14px" xmlns="http://www.w3.org/2000/svg">
  <g transform="matrix(1 0 0 1 -462 -1043 )">
    <path d="M 469 1043  C 472.92 1043  476 1046.08  476 1050  C 476 1053.92  472.92 1057  469 1057  C 465.08 1057  462 1053.92  462 1050  C 462 1046.08  465.08 1043  469 1043  Z " fill-rule="nonzero" fill="#ffffff" stroke="none" fill-opacity="0" />
    <path d="M 469 1043.5  C 472.64 1043.5  475.5 1046.36  475.5 1050  C 475.5 1053.64  472.64 1056.5  469 1056.5  C 465.36 1056.5  462.5 1053.64  462.5 1050  C 462.5 1046.36  465.36 1043.5  469 1043.5  Z " stroke-width="1" stroke="#45a5ff" fill="none" />
  </g>
</svg>