<?xml version="1.0" encoding="utf-8"?>
<svg version="1.1" xmlns:xlink="http://www.w3.org/1999/xlink" width="20px" height="20px" xmlns="http://www.w3.org/2000/svg">
  <g transform="matrix(1 0 0 1 -478 -209 )">
    <path d="M 488 209  C 493.6 209  498 213.4  498 219  C 498 224.6  493.6 229  488 229  C 482.4 229  478 224.6  478 219  C 478 213.4  482.4 209  488 209  Z " fill-rule="nonzero" fill="#ffffff" stroke="none" />
    <path d="M 488 209.5  C 493.32 209.5  497.5 213.68  497.5 219  C 497.5 224.32  493.32 228.5  488 228.5  C 482.68 228.5  478.5 224.32  478.5 219  C 478.5 213.68  482.68 209.5  488 209.5  Z " stroke-width="1" stroke="#797979" fill="none" />
  </g>
</svg>