<?xml version="1.0" encoding="utf-8"?>
<svg version="1.1" xmlns:xlink="http://www.w3.org/1999/xlink" width="659px" height="38px" xmlns="http://www.w3.org/2000/svg">
  <defs>
    <mask fill="white" id="clip1350">
      <path d="M 0 36  L 0 2  C 0 0.879999999999995  0.878666666666662 0  1.9969696969697 0  L 114.629976232917 0  L 659 0  L 659 38  L 1.9969696969697 38  C 0.878666666666662 38  0 37.12  0 36  Z " fill-rule="evenodd" />
    </mask>
  </defs>
  <g transform="matrix(1 0 0 1 -366 62 )">
    <path d="M 0 36  L 0 2  C 0 0.879999999999995  0.878666666666662 0  1.9969696969697 0  L 114.629976232917 0  L 659 0  L 659 38  L 1.9969696969697 38  C 0.878666666666662 38  0 37.12  0 36  Z " fill-rule="nonzero" fill="#ffffff" stroke="none" transform="matrix(1 0 0 1 366 -62 )" />
    <path d="M 0 36  L 0 2  C 0 0.879999999999995  0.878666666666662 0  1.9969696969697 0  L 114.629976232917 0  L 659 0  L 659 38  L 1.9969696969697 38  C 0.878666666666662 38  0 37.12  0 36  Z " stroke-width="2" stroke="#cccccc" fill="none" transform="matrix(1 0 0 1 366 -62 )" mask="url(#clip1350)" />
  </g>
</svg>