<?xml version="1.0" encoding="utf-8"?>
<svg version="1.1" xmlns:xlink="http://www.w3.org/1999/xlink" width="570px" height="106px" xmlns="http://www.w3.org/2000/svg">
  <defs>
    <mask fill="white" id="clip122">
      <path d="M 0 100.421052631579  L 0 5.57894736842105  C 0 2.45473684210525  0.759999999999996 0  1.72727272727273 0  L 99.1488413547237 0  L 570 0  L 570 106  L 1.72727272727273 106  C 0.759999999999996 106  0 103.545263157895  0 100.421052631579  Z " fill-rule="evenodd" />
    </mask>
  </defs>
  <g transform="matrix(1 0 0 1 -566 -219 )">
    <path d="M 0 100.421052631579  L 0 5.57894736842105  C 0 2.45473684210525  0.759999999999996 0  1.72727272727273 0  L 99.1488413547237 0  L 570 0  L 570 106  L 1.72727272727273 106  C 0.759999999999996 106  0 103.545263157895  0 100.421052631579  Z " fill-rule="nonzero" fill="#ffffff" stroke="none" transform="matrix(1 0 0 1 566 219 )" />
    <path d="M 0 100.421052631579  L 0 5.57894736842105  C 0 2.45473684210525  0.759999999999996 0  1.72727272727273 0  L 99.1488413547237 0  L 570 0  L 570 106  L 1.72727272727273 106  C 0.759999999999996 106  0 103.545263157895  0 100.421052631579  Z " stroke-width="2" stroke="#cccccc" fill="none" transform="matrix(1 0 0 1 566 219 )" mask="url(#clip122)" />
  </g>
</svg>