<?xml version="1.0" encoding="utf-8"?>
<svg version="1.1" xmlns:xlink="http://www.w3.org/1999/xlink" width="734px" height="38px" xmlns="http://www.w3.org/2000/svg">
  <defs>
    <mask fill="white" id="clip1408">
      <path d="M 0 36  L 0 2  C 0 0.879999999999995  0.978666666666662 0  2.22424242424242 0  L 127.67587641117 0  L 734 0  L 734 38  L 2.22424242424242 38  C 0.978666666666662 38  0 37.12  0 36  Z " fill-rule="evenodd" />
    </mask>
  </defs>
  <g transform="matrix(1 0 0 1 -382 -135 )">
    <path d="M 0 36  L 0 2  C 0 0.879999999999995  0.978666666666662 0  2.22424242424242 0  L 127.67587641117 0  L 734 0  L 734 38  L 2.22424242424242 38  C 0.978666666666662 38  0 37.12  0 36  Z " fill-rule="nonzero" fill="#ffffff" stroke="none" transform="matrix(1 0 0 1 382 135 )" />
    <path d="M 0 36  L 0 2  C 0 0.879999999999995  0.978666666666662 0  2.22424242424242 0  L 127.67587641117 0  L 734 0  L 734 38  L 2.22424242424242 38  C 0.978666666666662 38  0 37.12  0 36  Z " stroke-width="2" stroke="#cccccc" fill="none" transform="matrix(1 0 0 1 382 135 )" mask="url(#clip1408)" />
  </g>
</svg>