<?xml version="1.0" encoding="utf-8"?>
<svg version="1.1" xmlns:xlink="http://www.w3.org/1999/xlink" width="40px" height="33px" xmlns="http://www.w3.org/2000/svg">
  <g transform="matrix(1 0 0 1 -382 -254 )">
    <path d="M 12.1666666666667 6.703125  C 12.9444444444444 7.50520833333333  13.3333333333333 8.47916666666666  13.3333333333333 9.625  C 13.3333333333333 10.7708333333333  12.9444444444444 11.7447916666667  12.1666666666667 12.546875  C 11.3888888888889 13.3489583333333  10.4444444444444 13.75  9.33333333333333 13.75  C 8.22222222222222 13.75  7.27777777777778 13.3489583333333  6.5 12.546875  C 5.72222222222222 11.7447916666667  5.33333333333333 10.7708333333333  5.33333333333333 9.625  C 5.33333333333333 8.47916666666666  5.72222222222222 7.50520833333333  6.5 6.703125  C 7.27777777777778 5.90104166666666  8.22222222222222 5.5  9.33333333333333 5.5  C 10.4444444444444 5.5  11.3888888888889 5.90104166666666  12.1666666666667 6.703125  Z M 26 8.9375  L 34.6666666666667 17.875  L 34.6666666666667 27  L 5.33333333333333 27  L 5.33333333333333 23.375  L 12 16.5  L 15.3333333333333 19.9375  L 26 8.9375  Z M 37.1354166666667 2.9541015625  C 37.0034722222222 2.81803385416666  36.8472222222222 2.75  36.6666666666667 3  L 3.33333333333333 3  C 3.15277777777778 2.75  2.99652777777778 2.81803385416666  2.86458333333333 2.9541015625  C 2.73263888888889 3.09016927083333  2.66666666666667 3.25130208333333  3 3.4375  L 3 29.5625  C 2.66666666666667 29.7486979166667  2.73263888888889 29.9098307291667  2.86458333333333 30.0458984375  C 2.99652777777778 30.1819661458333  3.15277777777778 30.25  3.33333333333333 30  L 36.6666666666667 30  C 36.8472222222222 30.25  37.0034722222222 30.1819661458333  37.1354166666667 30.0458984375  C 37.2673611111111 29.9098307291667  37.3333333333333 29.7486979166667  37 29.5625  L 37 3.4375  C 37.3333333333333 3.25130208333333  37.2673611111111 3.09016927083333  37.1354166666667 2.9541015625  Z M 39.0208333333333 1.009765625  C 39.6736111111111 1.68294270833333  40 2.4921875  40 3.4375  L 40 29.5625  C 40 30.5078125  39.6736111111111 31.3170572916667  39.0208333333333 31.990234375  C 38.3680555555556 32.6634114583333  37.5833333333333 33  36.6666666666667 33  L 3.33333333333333 33  C 2.41666666666667 33  1.63194444444444 32.6634114583333  0.979166666666667 31.990234375  C 0.326388888888889 31.3170572916667  0 30.5078125  0 29.5625  L 0 3.4375  C 0 2.4921875  0.326388888888889 1.68294270833333  0.979166666666667 1.009765625  C 1.63194444444444 0.336588541666663  2.41666666666667 0  3.33333333333333 0  L 36.6666666666667 0  C 37.5833333333333 0  38.3680555555556 0.336588541666663  39.0208333333333 1.009765625  Z " fill-rule="nonzero" fill="#e4e4e4" stroke="none" transform="matrix(1 0 0 1 382 254 )" />
  </g>
</svg>