<?xml version="1.0" encoding="utf-8"?>
<svg version="1.1" xmlns:xlink="http://www.w3.org/1999/xlink" width="27px" height="38px" xmlns="http://www.w3.org/2000/svg">
  <g transform="matrix(1 0 0 1 -430 -763 )">
    <path d="M 8.2125 7.71875  C 8.7375 8.64236111111111  9 9.76388888888888  9 11.0833333333333  C 9 12.4027777777778  8.7375 13.5243055555556  8.2125 14.4479166666667  C 7.6875 15.3715277777778  7.05 15.8333333333333  6.3 15.8333333333333  C 5.55 15.8333333333333  4.9125 15.3715277777778  4.3875 14.4479166666667  C 3.8625 13.5243055555556  3.6 12.4027777777778  3.6 11.0833333333333  C 3.6 9.76388888888888  3.8625 8.64236111111111  4.3875 7.71875  C 4.9125 6.79513888888888  5.55 6.33333333333333  6.3 6.33333333333333  C 7.05 6.33333333333333  7.6875 6.79513888888888  8.2125 7.71875  Z M 17.55 10.2916666666667  L 23 20.5833333333333  L 23 31  L 3.6 31  L 3.6 26.9166666666667  L 8.1 19  L 10.35 22.9583333333333  L 17.55 10.2916666666667  Z M 25.06640625 3.40169270833333  C 24.97734375 3.24500868055555  24.871875 3.16666666666667  24.75 3.16666666666667  L 2.25 3.16666666666667  C 2.128125 3.16666666666667  2.02265625 3.24500868055555  1.93359375 3.40169270833333  C 1.84453125 3.55837673611111  1.8 3.74392361111111  2 3.95833333333333  L 2 34.0416666666667  C 1.8 34.2560763888889  1.84453125 34.4416232638889  1.93359375 34.5983072916667  C 2.02265625 34.7549913194444  2.128125 34.8333333333333  2.25 34.8333333333333  L 24.75 34.8333333333333  C 24.871875 34.8333333333333  24.97734375 34.7549913194444  25.06640625 34.5983072916667  C 25.15546875 34.4416232638889  25.2 34.2560763888889  25 34.0416666666667  L 25 3.95833333333333  C 25.2 3.74392361111111  25.15546875 3.55837673611111  25.06640625 3.40169270833333  Z M 26.3390625 1.16276041666667  C 26.7796875 1.93793402777778  27 2.86979166666667  27 3.95833333333333  L 27 34.0416666666667  C 27 35.1302083333333  26.7796875 36.0620659722222  26.3390625 36.8372395833333  C 25.8984375 37.6124131944444  25.36875 38  24.75 38  L 2.25 38  C 1.63125 38  1.1015625 37.6124131944444  0.6609375 36.8372395833333  C 0.2203125 36.0620659722222  0 35.1302083333333  0 34.0416666666667  L 0 3.95833333333333  C 0 2.86979166666667  0.2203125 1.93793402777778  0.6609375 1.16276041666667  C 1.1015625 0.387586805555552  1.63125 0  2.25 0  L 24.75 0  C 25.36875 0  25.8984375 0.387586805555552  26.3390625 1.16276041666667  Z " fill-rule="nonzero" fill="#e4e4e4" stroke="none" transform="matrix(1 0 0 1 430 763 )" />
  </g>
</svg>