<?xml version="1.0" encoding="utf-8"?>
<svg version="1.1" xmlns:xlink="http://www.w3.org/1999/xlink" width="63px" height="66px" xmlns="http://www.w3.org/2000/svg">
  <g transform="matrix(1 0 0 1 -1607 -849 )">
    <path d="M 1607 849  L 1670 849  L 1670 915  L 1607 915  L 1607 849  " fill-rule="nonzero" fill="#cccccc" stroke="none" />
    <path d="M 1611 853  L 1666 853  L 1666 911  L 1611 911  L 1611 853  " fill-rule="nonzero" fill="#ffffff" stroke="none" />
    <path d="M 1644.485 868.35  C 1641.839 868.35  1639.76 866.271  1639.76 863.625  C 1639.76 860.979  1641.839 858.9  1644.485 858.9  C 1647.131 858.9  1649.21 860.979  1649.21 863.625  C 1649.21 866.271  1647.131 868.35  1644.485 868.35  " fill-rule="nonzero" fill="#cccccc" stroke="none" />
    <path d="M 1613 910  L 1613 879.75  L 1626 866  L 1644.2 877  L 1654.6 874.25  L 1665 877  L 1665 910  L 1613 910  " fill-rule="nonzero" fill="#169bd5" stroke="none" />
  </g>
</svg>