<?xml version="1.0" encoding="utf-8"?>
<svg version="1.1" xmlns:xlink="http://www.w3.org/1999/xlink" width="18px" height="18px" xmlns="http://www.w3.org/2000/svg">
  <g transform="matrix(1 0 0 1 -314 -1811 )">
    <path d="M 5.12276785714286 0.887959866220736  C 6.34821428571429 0.309364548494983  7.63058035714286 0.0167224080267536  8.96986607142857 0.0100334448160542  C 10.5770089285714 -0.00334448160535272  12.0870535714286 0.397993311036788  13.5 1.21404682274247  C 15.0535714285714 2.11036789297659  16.2321428571429 3.35451505016722  17.0357142857143 4.94648829431438  L 9.58258928571428 4.55518394648829  C 8.51116071428572 4.49498327759197  7.52678571428571 4.74414715719063  6.62946428571429 5.30267558528428  C 5.73214285714286 5.86120401337792  5.11272321428571 6.62876254180602  4.77120535714286 7.60535117056856  L 1.99888392857143 3.35117056856187  C 2.85602678571429 2.2876254180602  3.89732142857143 1.46655518394649  5.12276785714286 0.887959866220736  Z M 0 9  C 0 7.21404682274248  0.488839285714286 5.57190635451505  1.46651785714286 4.07357859531773  L 4.8515625 10.7257525083612  C 5.33370535714286 11.6822742474916  6.04017857142857 12.4080267558528  6.97098214285714 12.9030100334448  C 7.90178571428572 13.3979933110368  8.8828125 13.5484949832776  9.9140625 13.3545150501672  L 7.60379464285714 17.8795986622074  C 6.18415178571429 17.6588628762542  4.89508928571429 17.1321070234114  3.73660714285714 16.2993311036789  C 2.578125 15.4665551839465  1.66573660714286 14.4096989966555  0.999441964285715 13.128762541806  C 0.333147321428572 11.8478260869565  0 10.4715719063545  0 9  Z M 12.3247767857143 6.03010033444816  L 17.3973214285714 5.76923076923077  C 17.7857142857143 6.77257525083612  17.9849330357143 7.81103678929766  17.9949776785714 8.88461538461539  C 18.0050223214286 9.95819397993311  17.8426339285714 10.9816053511706  17.5078125 11.9548494983278  C 17.1729910714286 12.9280936454849  16.6607142857143 13.8377926421405  15.9709821428571 14.6839464882943  C 15.28125 15.5301003344482  14.4575892857143 16.2307692307692  13.5 16.7859531772575  C 11.9598214285714 17.6755852842809  10.2924107142857 18.0735785953177  8.49776785714286 17.9799331103679  L 12.5658482142857 11.7290969899666  C 13.1551339285714 10.8528428093645  13.4313616071429 9.88127090301003  13.39453125 8.81438127090301  C 13.3577008928571 7.74749163879599  13.0011160714286 6.81939799331104  12.3247767857143 6.03010033444816  Z M 6.85546875 6.85785953177257  C 7.44810267857143 6.26588628762542  8.16294642857143 5.96989966555184  9 5.96989966555184  C 9.83705357142857 5.96989966555184  10.5518973214286 6.26588628762542  11.14453125 6.85785953177257  C 11.7371651785714 7.44983277591973  12.0334821428571 8.16387959866221  12.0334821428571 9  C 12.0334821428571 9.83612040133779  11.7371651785714 10.5501672240803  11.14453125 11.1421404682274  C 10.5518973214286 11.7341137123746  9.83705357142857 12.0301003344482  9 12.0301003344482  C 8.16294642857143 12.0301003344482  7.44810267857143 11.7341137123746  6.85546875 11.1421404682274  C 6.26283482142857 10.5501672240803  5.96651785714286 9.83612040133779  5.96651785714286 9  C 5.96651785714286 8.16387959866221  6.26283482142857 7.44983277591973  6.85546875 6.85785953177257  Z " fill-rule="nonzero" fill="#c8c7c7" stroke="none" transform="matrix(1 0 0 1 314 1811 )" />
  </g>
</svg>