<?xml version="1.0" encoding="utf-8"?>
<svg version="1.1" xmlns:xlink="http://www.w3.org/1999/xlink" width="15px" height="15px" xmlns="http://www.w3.org/2000/svg">
  <g transform="matrix(1 0 0 1 -611 -1408 )">
    <path d="M 0 3.21428571428571  L 7.5 0  L 15 3.21428571428571  L 15 4.28571428571429  L 14 4.28571428571429  C 14 4.43080357142857  13.9466145833333 4.55636160714286  13.83984375 4.66238839285714  C 13.7330729166667 4.76841517857143  13.6067708333333 4.82142857142857  13.4609375 5  L 1.5390625 5  C 1.39322916666667 4.82142857142857  1.26692708333333 4.76841517857143  1.16015625 4.66238839285714  C 1.05338541666667 4.55636160714286  1 4.43080357142857  1 4.28571428571429  L 0 4.28571428571429  L 0 3.21428571428571  Z M 2 11.7857142857143  L 2 5.35714285714286  L 4 5.35714285714286  L 4 11.7857142857143  L 5 11.7857142857143  L 5 5.35714285714286  L 7 5.35714285714286  L 7 11.7857142857143  L 8 11.7857142857143  L 8 5.35714285714286  L 10 5.35714285714286  L 10 11.7857142857143  L 11 11.7857142857143  L 11 5.35714285714286  L 13 5.35714285714286  L 13 11.7857142857143  L 13.4609375 11.7857142857143  C 13.6067708333333 11.7857142857143  13.7330729166667 11.8387276785714  13.83984375 11.9447544642857  C 13.9466145833333 12.05078125  14 12.1763392857143  14 12.3214285714286  L 14 12.8571428571429  L 1 12.8571428571429  L 1 12.3214285714286  C 1 12.1763392857143  1.05338541666667 12.05078125  1.16015625 11.9447544642857  C 1.26692708333333 11.8387276785714  1.39322916666667 11.7857142857143  1.5390625 11.7857142857143  L 2 11.7857142857143  Z M 0.5390625 13.3928571428571  L 14.4609375 13.3928571428571  C 14.6067708333333 13.3928571428571  14.7330729166667 13.4458705357143  14.83984375 13.5518973214286  C 14.9466145833333 13.6579241071429  15 13.7834821428571  15 13.9285714285714  L 15 15  L 0 15  L 0 13.9285714285714  C 0 13.7834821428571  0.0533854166666667 13.6579241071429  0.16015625 13.5518973214286  C 0.266927083333333 13.4458705357143  0.393229166666667 13.3928571428571  0.5390625 13.3928571428571  Z " fill-rule="nonzero" fill="#c7c6c7" stroke="none" transform="matrix(1 0 0 1 611 1408 )" />
  </g>
</svg>