<?xml version="1.0" encoding="utf-8"?>
<svg version="1.1" xmlns:xlink="http://www.w3.org/1999/xlink" width="18px" height="18px" preserveAspectRatio="xMinYMid meet" viewBox="1382 81  18 16" xmlns="http://www.w3.org/2000/svg">
  <path d="M 1389 89.5  L 1405.5 89.5  A 4.5 4.5 0 0 0 1410.5 85 A 4.5 4.5 0 0 1 1415 80.5 L 1456 80.5  A 5 5 0 0 1 1461.5 85.5 L 1461.5 95  " stroke-width="1" stroke="#ff3399" fill="none" />
  <path d="M 1391 86.5  A 3 3 0 0 0 1388 89.5 A 3 3 0 0 0 1391 92.5 A 3 3 0 0 0 1394 89.5 A 3 3 0 0 0 1391 86.5 Z " fill-rule="nonzero" fill="#ff3399" stroke="none" />
</svg>