<?xml version="1.0" encoding="utf-8"?>
<svg version="1.1" xmlns:xlink="http://www.w3.org/1999/xlink" width="10px" height="11px" xmlns="http://www.w3.org/2000/svg">
  <g transform="matrix(1 0 0 1 -311 115 )">
    <path d="M 9.76430976430976 8.22222222222222  C 9.92143658810325 8.39506172839506  10 8.60493827160494  10 8.85185185185185  C 10 9.09876543209877  9.92143658810325 9.30864197530864  9.76430976430976 9.48148148148148  L 8.61952861952862 10.7407407407407  C 8.46240179573513 10.9135802469136  8.2716049382716 11  8.04713804713805 11  C 7.82267115600449 11  7.63187429854097 10.9135802469136  7.47474747474747 10.7407407407407  L 5 8.01851851851852  L 2.52525252525253 10.7407407407407  C 2.36812570145903 10.9135802469136  2.17732884399551 11  1.95286195286195 11  C 1.7283950617284 11  1.53759820426487 10.9135802469136  1.38047138047138 10.7407407407407  L 0.235690235690236 9.48148148148148  C 0.0785634118967453 9.30864197530864  0 9.09876543209877  0 8.85185185185185  C 0 8.60493827160494  0.0785634118967453 8.39506172839506  0.235690235690236 8.22222222222222  L 2.71043771043771 5.5  L 0.235690235690236 2.77777777777778  C 0.0785634118967453 2.60493827160494  0 2.39506172839506  0 2.14814814814815  C 0 1.90123456790123  0.0785634118967453 1.69135802469136  0.235690235690236 1.51851851851852  L 1.38047138047138 0.259259259259259  C 1.53759820426487 0.0864197530864194  1.7283950617284 0  1.95286195286195 0  C 2.17732884399551 0  2.36812570145903 0.0864197530864194  2.52525252525253 0.259259259259259  L 5 2.98148148148148  L 7.47474747474747 0.259259259259259  C 7.63187429854097 0.0864197530864194  7.82267115600449 0  8.04713804713805 0  C 8.2716049382716 0  8.46240179573513 0.0864197530864194  8.61952861952862 0.259259259259259  L 9.76430976430976 1.51851851851852  C 9.92143658810325 1.69135802469136  10 1.90123456790123  10 2.14814814814815  C 10 2.39506172839506  9.92143658810325 2.60493827160494  9.76430976430976 2.77777777777778  L 7.28956228956229 5.5  L 9.76430976430976 8.22222222222222  Z " fill-rule="nonzero" fill="#777575" stroke="none" transform="matrix(1 0 0 1 311 -115 )" />
  </g>
</svg>