<?xml version="1.0" encoding="utf-8"?>
<svg version="1.1" xmlns:xlink="http://www.w3.org/1999/xlink" width="14px" height="14px" xmlns="http://www.w3.org/2000/svg">
  <g transform="matrix(1 0 0 1 -344 -801 )">
    <path d="M 351 801  C 354.92 801  358 804.08  358 808  C 358 811.92  354.92 815  351 815  C 347.08 815  344 811.92  344 808  C 344 804.08  347.08 801  351 801  Z " fill-rule="nonzero" fill="#ffffff" stroke="none" fill-opacity="0" />
    <path d="M 351 801.5  C 354.64 801.5  357.5 804.36  357.5 808  C 357.5 811.64  354.64 814.5  351 814.5  C 347.36 814.5  344.5 811.64  344.5 808  C 344.5 804.36  347.36 801.5  351 801.5  Z " stroke-width="1" stroke="#d9d9d9" fill="none" />
  </g>
</svg>