<?xml version="1.0" encoding="utf-8"?>
<svg version="1.1" xmlns:xlink="http://www.w3.org/1999/xlink" width="18px" height="18px" preserveAspectRatio="xMinYMid meet" viewBox="1382 438  18 16" xmlns="http://www.w3.org/2000/svg">
  <path d="M 1389 446.5  L 1407 446.5  A 3 3 0 0 0 1410.5 443.5 A 3 3 0 0 1 1413.5 440.5 L 1509 440.5  A 5 5 0 0 1 1514.5 445.5 L 1514.5 452  " stroke-width="1" stroke="#ff3399" fill="none" />
  <path d="M 1391 443.5  A 3 3 0 0 0 1388 446.5 A 3 3 0 0 0 1391 449.5 A 3 3 0 0 0 1394 446.5 A 3 3 0 0 0 1391 443.5 Z " fill-rule="nonzero" fill="#ff3399" stroke="none" />
</svg>