<?xml version="1.0" encoding="utf-8"?>
<svg version="1.1" xmlns:xlink="http://www.w3.org/1999/xlink" width="8px" height="8px" xmlns="http://www.w3.org/2000/svg">
  <g transform="matrix(1 0 0 1 -812 -950 )">
    <path d="M 816 951  C 817.68 951  819 952.32  819 954  C 819 955.68  817.68 957  816 957  C 814.32 957  813 955.68  813 954  C 813 952.32  814.32 951  816 951  Z " fill-rule="nonzero" fill="#409eff" stroke="none" />
    <path d="M 816 951  C 817.68 951  819 952.32  819 954  C 819 955.68  817.68 957  816 957  C 814.32 957  813 955.68  813 954  C 813 952.32  814.32 951  816 951  Z " stroke-width="2" stroke="#409eff" fill="none" />
  </g>
</svg>