<?xml version="1.0" encoding="utf-8"?>
<svg version="1.1" xmlns:xlink="http://www.w3.org/1999/xlink" width="10px" height="21px" preserveAspectRatio="xMidYMin meet" viewBox="1482 85  8 21" xmlns="http://www.w3.org/2000/svg">
  <path d="M 1414 100.5  L 1435 100.5  A 5 5 0 0 0 1440.5 95.5 A 5 5 0 0 1 1445.5 90.5 L 1481 90.5  A 5 5 0 0 1 1486.5 95.5 L 1486.5 106  " stroke-width="1" stroke="#ff3399" fill="none" />
  <path d="M 1416 97.5  A 3 3 0 0 0 1413 100.5 A 3 3 0 0 0 1416 103.5 A 3 3 0 0 0 1419 100.5 A 3 3 0 0 0 1416 97.5 Z " fill-rule="nonzero" fill="#ff3399" stroke="none" />
</svg>