<?xml version="1.0" encoding="utf-8"?>
<svg version="1.1" xmlns:xlink="http://www.w3.org/1999/xlink" width="14px" height="14px" xmlns="http://www.w3.org/2000/svg">
  <g transform="matrix(1 0 0 1 -433 -801 )">
    <path d="M 440 801  C 443.92 801  447 804.08  447 808  C 447 811.92  443.92 815  440 815  C 436.08 815  433 811.92  433 808  C 433 804.08  436.08 801  440 801  Z " fill-rule="nonzero" fill="#ffffff" stroke="none" fill-opacity="0" />
    <path d="M 440 801.5  C 443.64 801.5  446.5 804.36  446.5 808  C 446.5 811.64  443.64 814.5  440 814.5  C 436.36 814.5  433.5 811.64  433.5 808  C 433.5 804.36  436.36 801.5  440 801.5  Z " stroke-width="1" stroke="#1890ff" fill="none" />
  </g>
</svg>