<?xml version="1.0" encoding="utf-8"?>
<svg version="1.1" xmlns:xlink="http://www.w3.org/1999/xlink" width="42px" height="34px" xmlns="http://www.w3.org/2000/svg">
  <g transform="matrix(1 0 0 1 -828 -1771 )">
    <path d="M 849 1771  C 860.76 1771  870 1778.48  870 1788  C 870 1797.52  860.76 1805  849 1805  C 837.24 1805  828 1797.52  828 1788  C 828 1778.48  837.24 1771  849 1771  Z " fill-rule="nonzero" fill="#c6bbbb" stroke="none" />
    <path d="M 849 1771.5  C 860.48 1771.5  869.5 1778.76  869.5 1788  C 869.5 1797.24  860.48 1804.5  849 1804.5  C 837.52 1804.5  828.5 1797.24  828.5 1788  C 828.5 1778.76  837.52 1771.5  849 1771.5  Z " stroke-width="1" stroke="#dfd2d2" fill="none" />
  </g>
</svg>