<?xml version="1.0" encoding="utf-8"?>
<svg version="1.1" xmlns:xlink="http://www.w3.org/1999/xlink" width="12px" height="7px" xmlns="http://www.w3.org/2000/svg">
  <g transform="matrix(1 0 0 1 -2522 -254 )">
    <path d="M 11.7171717171718 5.23232323232324  C 11.9057239057238 5.34231200897867  12 5.47586980920315  12 5.63299663299662  C 12 5.79012345679013  11.9057239057238 5.92368125701458  11.7171717171718 6.03367003367003  L 10.3434343434342 6.83501683501683  C 10.1548821548822 6.94500561167229  9.92592592592609 7  9.65656565656582 7  C 9.38720538720554 7  9.15824915824896 6.94500561167229  8.969696969697 6.83501683501683  L 6 5.10269360269359  L 3.030303030303 6.83501683501683  C 2.84175084175104 6.94500561167229  2.61279461279446 7  2.34343434343418 7  C 2.07407407407391 7  1.84511784511778 6.94500561167229  1.65656565656582 6.83501683501683  L 0.282828282828177 6.03367003367003  C 0.0942760942762106 5.92368125701458  0 5.79012345679013  0 5.63299663299662  C 0 5.47586980920315  0.0942760942762106 5.34231200897867  0.282828282828177 5.23232323232324  L 3.25252525252517 3.5  L 0.282828282828177 1.76767676767676  C 0.0942760942762106 1.65768799102133  0 1.52413019079685  0 1.36700336700338  C 0 1.20987654320987  0.0942760942762106 1.07631874298542  0.282828282828177 0.966329966329965  L 1.65656565656582 0.16498316498317  C 1.84511784511778 0.0549943883277138  2.07407407407391 0  2.34343434343418 0  C 2.61279461279446 0  2.84175084175104 0.0549943883277138  3.030303030303 0.16498316498317  L 6 1.89730639730641  L 8.969696969697 0.16498316498317  C 9.15824915824896 0.0549943883277138  9.38720538720554 0  9.65656565656582 0  C 9.92592592592609 0  10.1548821548822 0.0549943883277138  10.3434343434342 0.16498316498317  L 11.7171717171718 0.966329966329965  C 11.9057239057238 1.07631874298542  12 1.20987654320987  12 1.36700336700338  C 12 1.52413019079685  11.9057239057238 1.65768799102133  11.7171717171718 1.76767676767676  L 8.74747474747483 3.5  L 11.7171717171718 5.23232323232324  Z " fill-rule="nonzero" fill="#cccccc" stroke="none" transform="matrix(1 0 0 1 2522 254 )" />
  </g>
</svg>