<?xml version="1.0" encoding="utf-8"?>
<svg version="1.1" xmlns:xlink="http://www.w3.org/1999/xlink" width="8px" height="8px" xmlns="http://www.w3.org/2000/svg">
  <g transform="matrix(1 0 0 1 -414 -388 )">
    <path d="M 418 389  C 419.68 389  421 390.32  421 392  C 421 393.68  419.68 395  418 395  C 416.32 395  415 393.68  415 392  C 415 390.32  416.32 389  418 389  Z " fill-rule="nonzero" fill="#409eff" stroke="none" />
    <path d="M 418 389  C 419.68 389  421 390.32  421 392  C 421 393.68  419.68 395  418 395  C 416.32 395  415 393.68  415 392  C 415 390.32  416.32 389  418 389  Z " stroke-width="2" stroke="#409eff" fill="none" />
  </g>
</svg>