<?xml version="1.0" encoding="utf-8"?>
<svg version="1.1" xmlns:xlink="http://www.w3.org/1999/xlink" width="14px" height="14px" xmlns="http://www.w3.org/2000/svg">
  <g transform="matrix(1 0 0 1 -334 -669 )">
    <path d="M 341 669  C 344.92 669  348 672.08  348 676  C 348 679.92  344.92 683  341 683  C 337.08 683  334 679.92  334 676  C 334 672.08  337.08 669  341 669  Z " fill-rule="nonzero" fill="#ffffff" stroke="none" fill-opacity="0" />
    <path d="M 341 669.5  C 344.64 669.5  347.5 672.36  347.5 676  C 347.5 679.64  344.64 682.5  341 682.5  C 337.36 682.5  334.5 679.64  334.5 676  C 334.5 672.36  337.36 669.5  341 669.5  Z " stroke-width="1" stroke="#d9d9d9" fill="none" />
  </g>
</svg>