<?xml version="1.0" encoding="utf-8"?>
<svg version="1.1" xmlns:xlink="http://www.w3.org/1999/xlink" width="14px" height="14px" xmlns="http://www.w3.org/2000/svg">
  <g transform="matrix(1 0 0 1 -423 -669 )">
    <path d="M 430 669  C 433.92 669  437 672.08  437 676  C 437 679.92  433.92 683  430 683  C 426.08 683  423 679.92  423 676  C 423 672.08  426.08 669  430 669  Z " fill-rule="nonzero" fill="#ffffff" stroke="none" fill-opacity="0" />
    <path d="M 430 669.5  C 433.64 669.5  436.5 672.36  436.5 676  C 436.5 679.64  433.64 682.5  430 682.5  C 426.36 682.5  423.5 679.64  423.5 676  C 423.5 672.36  426.36 669.5  430 669.5  Z " stroke-width="1" stroke="#1890ff" fill="none" />
  </g>
</svg>