<?xml version="1.0" encoding="utf-8"?>
<svg version="1.1" xmlns:xlink="http://www.w3.org/1999/xlink" width="10px" height="17px" preserveAspectRatio="xMidYMin meet" viewBox="1430 85  8 17" xmlns="http://www.w3.org/2000/svg">
  <path d="M 1362 96.5  L 1387 96.5  A 3 3 0 0 0 1390.5 93.5 A 3 3 0 0 1 1393.5 90.5 L 1429 90.5  A 5 5 0 0 1 1434.5 95.5 L 1434.5 102  " stroke-width="1" stroke="#ff3399" fill="none" />
  <path d="M 1364 93.5  A 3 3 0 0 0 1361 96.5 A 3 3 0 0 0 1364 99.5 A 3 3 0 0 0 1367 96.5 A 3 3 0 0 0 1364 93.5 Z " fill-rule="nonzero" fill="#ff3399" stroke="none" />
</svg>