<?xml version="1.0" encoding="utf-8"?>
<svg version="1.1" xmlns:xlink="http://www.w3.org/1999/xlink" width="370px" height="374px" xmlns="http://www.w3.org/2000/svg">
  <g transform="matrix(1 0 0 1 -3646 774 )">
    <path d="M 3647 -770  A 3 3 0 0 1 3650 -773 L 4012 -773  A 3 3 0 0 1 4015 -770 L 4015 -404  A 3 3 0 0 1 4012 -401 L 3650 -401  A 3 3 0 0 1 3647 -404 L 3647 -770  Z " fill-rule="nonzero" fill="#ff3399" stroke="none" fill-opacity="0.0980392156862745" />
    <path d="M 3646.5 -770  A 3.5 3.5 0 0 1 3650 -773.5 L 4012 -773.5  A 3.5 3.5 0 0 1 4015.5 -770 L 4015.5 -404  A 3.5 3.5 0 0 1 4012 -400.5 L 3650 -400.5  A 3.5 3.5 0 0 1 3646.5 -404 L 3646.5 -770  Z " stroke-width="1" stroke-dasharray="9,4" stroke="#ff3399" fill="none" stroke-dashoffset="0.5" />
  </g>
</svg>