<?xml version="1.0" encoding="utf-8"?>
<svg version="1.1" xmlns:xlink="http://www.w3.org/1999/xlink" width="8px" height="12px" xmlns="http://www.w3.org/2000/svg">
  <g transform="matrix(1 0 0 1 -1437 -298 )">
    <path d="M 7.8515625 7.25284090909088  C 7.95052083333337 7.36079545454544  8 7.48863636363637  8 7.63636363636363  C 8 7.78409090909093  7.95052083333337 7.91193181818181  7.8515625 8.01988636363637  L 4.3515625 11.8380681818182  C 4.25260416666663 11.9460227272727  4.13541666666663 12  4 12  C 3.86458333333337 12  3.74739583333337 11.9460227272727  3.6484375 11.8380681818182  L 0.1484375 8.01988636363637  C 0.0494791666666288 7.91193181818181  0 7.78409090909093  0 7.63636363636363  C 0 7.48863636363637  0.0494791666666288 7.36079545454544  0.1484375 7.25284090909088  C 0.247395833333371 7.14488636363637  0.364583333333371 7.09090909090912  0.5 7.09090909090912  L 7.5 7.09090909090912  C 7.63541666666663 7.09090909090912  7.75260416666663 7.14488636363637  7.8515625 7.25284090909088  Z M 7.8515625 3.98011363636363  C 7.95052083333337 4.08806818181819  8 4.21590909090907  8 4.36363636363637  C 8 4.51136363636363  7.95052083333337 4.63920454545456  7.8515625 4.74715909090912  C 7.75260416666663 4.85511363636363  7.63541666666663 4.90909090909088  7.5 4.90909090909088  L 0.5 4.90909090909088  C 0.364583333333371 4.90909090909088  0.247395833333371 4.85511363636363  0.1484375 4.74715909090912  C 0.0494791666666288 4.63920454545456  0 4.51136363636363  0 4.36363636363637  C 0 4.21590909090907  0.0494791666666288 4.08806818181819  0.1484375 3.98011363636363  L 3.6484375 0.161931818181813  C 3.74739583333337 0.0539772727272521  3.86458333333337 0  4 0  C 4.13541666666663 0  4.25260416666663 0.0539772727272521  4.3515625 0.161931818181813  L 7.8515625 3.98011363636363  Z " fill-rule="nonzero" fill="#999999" stroke="none" transform="matrix(1 0 0 1 1437 298 )" />
  </g>
</svg>