<?xml version="1.0" encoding="utf-8"?>
<svg version="1.1" xmlns:xlink="http://www.w3.org/1999/xlink" width="370px" height="154px" xmlns="http://www.w3.org/2000/svg">
  <g transform="matrix(1 0 0 1 -1311 -310 )">
    <path d="M 1312 314  A 3 3 0 0 1 1315 311 L 1677 311  A 3 3 0 0 1 1680 314 L 1680 460  A 3 3 0 0 1 1677 463 L 1315 463  A 3 3 0 0 1 1312 460 L 1312 314  Z " fill-rule="nonzero" fill="#ff3399" stroke="none" fill-opacity="0.0980392156862745" />
    <path d="M 1311.5 314  A 3.5 3.5 0 0 1 1315 310.5 L 1677 310.5  A 3.5 3.5 0 0 1 1680.5 314 L 1680.5 460  A 3.5 3.5 0 0 1 1677 463.5 L 1315 463.5  A 3.5 3.5 0 0 1 1311.5 460 L 1311.5 314  Z " stroke-width="1" stroke-dasharray="9,4" stroke="#ff3399" fill="none" stroke-dashoffset="0.5" />
  </g>
</svg>