<?xml version="1.0" encoding="utf-8"?>
<svg version="1.1" xmlns:xlink="http://www.w3.org/1999/xlink" width="386px" height="157px" xmlns="http://www.w3.org/2000/svg">
  <g transform="matrix(1 0 0 1 -2170 -597 )">
    <path d="M 2171 601  A 3 3 0 0 1 2174 598 L 2552 598  A 3 3 0 0 1 2555 601 L 2555 750  A 3 3 0 0 1 2552 753 L 2174 753  A 3 3 0 0 1 2171 750 L 2171 601  Z " fill-rule="nonzero" fill="#ff3399" stroke="none" fill-opacity="0.0980392156862745" />
    <path d="M 2170.5 601  A 3.5 3.5 0 0 1 2174 597.5 L 2552 597.5  A 3.5 3.5 0 0 1 2555.5 601 L 2555.5 750  A 3.5 3.5 0 0 1 2552 753.5 L 2174 753.5  A 3.5 3.5 0 0 1 2170.5 750 L 2170.5 601  Z " stroke-width="1" stroke-dasharray="9,4" stroke="#ff3399" fill="none" stroke-dashoffset="0.5" />
  </g>
</svg>