<?xml version="1.0" encoding="utf-8"?>
<svg version="1.1" xmlns:xlink="http://www.w3.org/1999/xlink" width="386px" height="157px" xmlns="http://www.w3.org/2000/svg">
  <g transform="matrix(1 0 0 1 -1544 -590 )">
    <path d="M 1545 594  A 3 3 0 0 1 1548 591 L 1926 591  A 3 3 0 0 1 1929 594 L 1929 743  A 3 3 0 0 1 1926 746 L 1548 746  A 3 3 0 0 1 1545 743 L 1545 594  Z " fill-rule="nonzero" fill="#ff3399" stroke="none" fill-opacity="0.0980392156862745" />
    <path d="M 1544.5 594  A 3.5 3.5 0 0 1 1548 590.5 L 1926 590.5  A 3.5 3.5 0 0 1 1929.5 594 L 1929.5 743  A 3.5 3.5 0 0 1 1926 746.5 L 1548 746.5  A 3.5 3.5 0 0 1 1544.5 743 L 1544.5 594  Z " stroke-width="1" stroke-dasharray="9,4" stroke="#ff3399" fill="none" stroke-dashoffset="0.5" />
  </g>
</svg>