<?xml version="1.0" encoding="utf-8"?>
<svg version="1.1" xmlns:xlink="http://www.w3.org/1999/xlink" width="386px" height="157px" xmlns="http://www.w3.org/2000/svg">
  <g transform="matrix(1 0 0 1 -2171 -590 )">
    <path d="M 2172 594  A 3 3 0 0 1 2175 591 L 2553 591  A 3 3 0 0 1 2556 594 L 2556 743  A 3 3 0 0 1 2553 746 L 2175 746  A 3 3 0 0 1 2172 743 L 2172 594  Z " fill-rule="nonzero" fill="#ff3399" stroke="none" fill-opacity="0.0980392156862745" />
    <path d="M 2171.5 594  A 3.5 3.5 0 0 1 2175 590.5 L 2553 590.5  A 3.5 3.5 0 0 1 2556.5 594 L 2556.5 743  A 3.5 3.5 0 0 1 2553 746.5 L 2175 746.5  A 3.5 3.5 0 0 1 2171.5 743 L 2171.5 594  Z " stroke-width="1" stroke-dasharray="9,4" stroke="#ff3399" fill="none" stroke-dashoffset="0.5" />
  </g>
</svg>