<?xml version="1.0" encoding="utf-8"?>
<svg version="1.1" xmlns:xlink="http://www.w3.org/1999/xlink" width="19px" height="12px" xmlns="http://www.w3.org/2000/svg">
  <g transform="matrix(1 0 0 1 -1512 -302 )">
    <path d="M 0.47314453125 8.3296875  C 0.15771484375 7.5890625  0 6.8125  0 6  C 0 5.1875  0.15771484375 4.4109375  0.47314453125 3.6703125  C 0.78857421875 2.9296875  1.210693359375 2.2921875  1.739501953125 1.7578125  C 2.268310546875 1.2234375  2.899169921875 0.796875  3.632080078125 0.478124999999999  C 4.364990234375 0.159375  5.13346354166667 0  5.9375 0  L 13.0625 0  C 13.8665364583333 0  14.635009765625 0.159375  15.367919921875 0.478124999999999  C 16.100830078125 0.796875  16.731689453125 1.2234375  17.260498046875 1.7578125  C 17.789306640625 2.2921875  18.21142578125 2.9296875  18.52685546875 3.6703125  C 18.84228515625 4.4109375  19 5.1875  19 6  C 19 6.8125  18.84228515625 7.5890625  18.52685546875 8.3296875  C 18.21142578125 9.0703125  17.789306640625 9.7078125  17.260498046875 10.2421875  C 16.731689453125 10.7765625  16.100830078125 11.203125  15.367919921875 11.521875  C 14.635009765625 11.840625  13.8665364583333 12  13.0625 12  L 5.9375 12  C 5.13346354166667 12  4.364990234375 11.840625  3.632080078125 11.521875  C 2.899169921875 11.203125  2.268310546875 10.7765625  1.739501953125 10.2421875  C 1.210693359375 9.7078125  0.78857421875 9.0703125  0.47314453125 8.3296875  Z M 11.220947265625 10.4203125  C 11.805419921875 10.6734375  12.4192708333333 10.8  13.0625 10.8  C 13.7057291666667 10.8  14.319580078125 10.6734375  14.904052734375 10.4203125  C 15.488525390625 10.1671875  15.994140625 9.825  16.4208984375 9.39375  C 16.84765625 8.9625  17.186279296875 8.4515625  17.436767578125 7.8609375  C 17.687255859375 7.2703125  17.8125 6.65  17.8125 6  C 17.8125 5.35  17.687255859375 4.7296875  17.436767578125 4.1390625  C 17.186279296875 3.5484375  16.84765625 3.0375  16.4208984375 2.60625  C 15.994140625 2.175  15.488525390625 1.8328125  14.904052734375 1.5796875  C 14.319580078125 1.3265625  13.7057291666667 1.2  13.0625 1.2  C 12.4192708333333 1.2  11.805419921875 1.3265625  11.220947265625 1.5796875  C 10.636474609375 1.8328125  10.130859375 2.175  9.7041015625 2.60625  C 9.27734375 3.0375  8.938720703125 3.5484375  8.688232421875 4.1390625  C 8.437744140625 4.7296875  8.3125 5.35  8.3125 6  C 8.3125 6.65  8.437744140625 7.2703125  8.688232421875 7.8609375  C 8.938720703125 8.4515625  9.27734375 8.9625  9.7041015625 9.39375  C 10.130859375 9.825  10.636474609375 10.1671875  11.220947265625 10.4203125  Z " fill-rule="nonzero" fill="#cccccc" stroke="none" transform="matrix(1 0 0 1 1512 302 )" />
  </g>
</svg>